<svg width="30" height="31" viewBox="0 0 30 31" fill="none" xmlns="http://www.w3.org/2000/svg">
<rect x="0.25" y="0.75" width="29.5" height="29.5" rx="3.75" fill="#373737"/>
<rect x="0.25" y="0.75" width="29.5" height="29.5" rx="3.75" stroke="#323232" stroke-width="0.5"/>
<g clip-path="url(#clip0_254_1580)">
<path d="M21 15.5367C21 12.2027 18.3137 9.5 15 9.5C11.6863 9.5 9 12.2027 9 15.5367C9 18.5497 11.1941 21.0471 14.0625 21.5V17.2816H12.5391V15.5367H14.0625V14.2067C14.0625 12.6938 14.9583 11.8581 16.3288 11.8581C16.985 11.8581 17.6719 11.976 17.6719 11.976V13.4616H16.9153C16.17 13.4616 15.9375 13.9269 15.9375 14.4048V15.5367H17.6016L17.3355 17.2816H15.9375V21.5C18.8059 21.0471 21 18.5497 21 15.5367Z" fill="white"/>
</g>
<defs>
<clipPath id="clip0_254_1580">
<rect width="12" height="12" fill="white" transform="translate(9 9.5)"/>
</clipPath>
</defs>
</svg>
