<svg width="538" height="452" viewBox="0 0 538 452" fill="none" xmlns="http://www.w3.org/2000/svg">
<path d="M22.5778 91.9826H67.3903C78.633 91.9826 87.7812 101.181 87.7812 112.487C87.7812 126.028 98.7348 137.042 112.2 137.042C120.826 137.042 128.422 132.522 132.768 125.712C135.206 121.892 136.62 117.353 136.62 112.486C136.62 107.893 138.13 103.648 140.676 100.226C144.399 95.2254 150.335 91.9825 157.012 91.9825C168.256 91.9825 177.405 101.18 177.405 112.487V157.549C177.405 168.855 168.256 178.055 157.012 178.055H67.3903C56.152 178.055 47.0064 168.864 46.9979 157.566V157.549C46.9979 144.008 36.0429 132.992 22.5778 132.992H22.5648C11.3265 132.985 2.18677 123.79 2.18677 112.487C2.18687 101.181 11.3338 91.9826 22.5778 91.9826Z" fill="#EFEFEF"/>
<path d="M67.8245 89.9619H67.8419C67.8535 89.9619 67.8652 89.9619 67.8782 89.9634C67.8608 89.9619 67.8419 89.9619 67.8245 89.9619Z" fill="#EFEFEF"/>
<path d="M112.201 317.29C123.439 317.29 132.583 326.479 132.592 337.779V337.796C132.592 351.337 143.547 362.351 157.012 362.351H157.037C168.269 362.366 177.404 371.558 177.404 382.856C177.404 396.396 188.358 407.413 201.823 407.413C202.175 407.413 202.525 407.421 202.872 407.439C211.722 407.891 219.101 414.045 221.44 422.311C221.532 422.635 221.617 422.962 221.692 423.293C221.768 423.623 221.837 423.957 221.896 424.293C222.106 425.47 222.215 426.682 222.215 427.919C222.215 439.226 213.067 448.424 201.823 448.424H157.012C145.768 448.424 136.62 439.226 136.62 427.919C136.62 414.379 125.666 403.363 112.201 403.363C100.957 403.363 91.8086 394.163 91.8086 382.856V337.796C91.8086 326.488 100.957 317.29 112.201 317.29Z" fill="#EFEFEF"/>
<path d="M67.3902 272.229H112.2C112.204 272.229 112.208 272.227 112.213 272.227C123.448 272.235 132.588 281.427 132.592 292.725V292.751C132.584 304.049 123.44 313.24 112.201 313.24C98.7363 313.24 87.7813 324.256 87.7813 337.796C87.7813 349.103 78.6344 358.301 67.3904 358.301H22.5777C11.3337 358.301 2.18677 349.103 2.18677 337.796C2.18677 326.488 11.3337 317.29 22.5777 317.29C36.0428 317.29 46.9978 306.274 46.9978 292.734C46.9978 281.431 56.1389 272.235 67.3773 272.227C67.3815 272.227 67.3859 272.229 67.3902 272.229Z" fill="#EFEFEF"/>
<path d="M246.636 270.202H246.781C246.733 270.204 246.684 270.204 246.636 270.204H246.346C246.443 270.203 246.539 270.202 246.636 270.202Z" fill="#EFEFEF"/>
<path d="M112.2 182.105H157.012C168.257 182.105 177.405 191.303 177.405 202.61C177.405 216.15 188.358 227.166 201.823 227.166H246.636C257.88 227.166 267.027 236.366 267.027 247.673C267.027 258.975 257.886 268.172 246.647 268.177H246.636C246.627 268.177 246.619 268.179 246.61 268.179H157.012C145.768 268.179 136.62 258.979 136.62 247.673C136.62 234.132 125.665 223.116 112.2 223.116C100.956 223.116 91.8091 213.918 91.8091 202.61C91.809 191.303 100.956 182.105 112.2 182.105Z" fill="#EFEFEF"/>
<path d="M68.686 89.9937C68.8025 89.9995 68.9176 90.0081 69.0327 90.0154C68.9823 90.0125 68.9306 90.0081 68.8789 90.0068C68.814 90.0024 68.7508 89.998 68.686 89.9937Z" fill="#EFEFEF"/>
<path d="M112.201 1.85883C123.445 1.85883 132.592 11.0568 132.592 22.3636C132.592 35.9038 143.547 46.92 157.012 46.92C168.253 46.92 177.4 56.1151 177.404 67.4177V67.4422C177.394 78.7419 168.25 87.9311 157.012 87.9311C149.017 87.9311 141.907 91.8148 137.45 97.8045C134.4 101.902 132.592 106.987 132.592 112.487C132.592 116.198 131.607 119.681 129.886 122.686C126.364 128.84 119.756 132.992 112.201 132.992C100.957 132.992 91.8085 123.794 91.8085 112.486C91.8085 98.9473 80.8536 87.9311 67.39 87.9311C56.1459 87.9311 46.9976 78.7332 46.9976 67.4263C46.9976 56.1194 56.1459 46.92 67.39 46.92C80.8536 46.92 91.8085 35.9038 91.8085 22.3636C91.8086 11.0568 100.957 1.85883 112.201 1.85883Z" fill="#EFEFEF"/>
<path d="M246.636 270.202H246.781C246.733 270.204 246.684 270.204 246.636 270.204H246.346C246.443 270.203 246.539 270.202 246.636 270.202Z" fill="#DCDBE4"/>
<path d="M246.636 91.9826C257.88 91.9826 267.027 101.181 267.027 112.487V157.549C267.027 168.855 257.88 178.055 246.636 178.055C244.176 178.055 241.816 177.614 239.631 176.808C239.163 176.636 238.703 176.447 238.251 176.241C237.949 176.104 237.653 175.959 237.359 175.809C231.206 172.634 226.856 166.404 226.302 159.124C226.264 158.605 226.243 158.08 226.243 157.549V112.488C226.244 101.181 235.392 91.9826 246.636 91.9826Z" fill="#EFEFEF"/>
<ellipse cx="202.383" cy="72.4438" rx="22.5" ry="21.6346" fill="#DCDBE4"/>
<ellipse cx="202.383" cy="115.713" rx="22.5" ry="21.6346" fill="#DCDBE4"/>
<ellipse cx="202.383" cy="158.982" rx="22.5" ry="21.6346" fill="#DCDBE4"/>
<circle cx="201.517" cy="202.251" r="21.6346" fill="#DCDBE4"/>
<circle cx="244.787" cy="202.251" r="21.6346" fill="#DCDBE4"/>
<circle cx="66.9513" cy="205.554" r="21.6346" fill="#DCDBE4"/>
<circle cx="66.9513" cy="248.824" r="21.6346" fill="#DCDBE4"/>
<circle cx="110.221" cy="248.824" r="21.6346" fill="#DCDBE4"/>
<circle cx="21.6346" cy="21.6346" r="21.6346" transform="matrix(1 0 0 -1 0.461426 86.8779)" fill="#DCDBE4"/>
<circle cx="21.6346" cy="21.6346" r="21.6346" transform="matrix(1 0 0 -1 0.461426 43.6086)" fill="#DCDBE4"/>
<circle cx="21.6346" cy="21.6346" r="21.6346" transform="matrix(1 0 0 -1 43.7307 43.6086)" fill="#DCDBE4"/>
<circle cx="22.9588" cy="386.757" r="21.6346" fill="#DCDBE4"/>
<circle cx="66.2279" cy="386.757" r="21.6346" fill="#DCDBE4"/>
<circle cx="22.9588" cy="430.026" r="21.6346" fill="#DCDBE4"/>
<circle cx="66.2279" cy="430.026" r="21.6346" fill="#DCDBE4"/>
<circle cx="109.497" cy="430.026" r="21.6346" fill="#DCDBE4"/>
<circle cx="247.096" cy="295.726" r="21.6346" fill="#DCDBE4"/>
<circle cx="247.096" cy="338.995" r="21.6346" fill="#DCDBE4"/>
<circle cx="204.105" cy="382.265" r="21.6346" fill="#DCDBE4"/>
<circle cx="247.374" cy="382.265" r="21.6346" fill="#DCDBE4"/>
<circle cx="247.096" cy="425.534" r="21.6346" fill="#DCDBE4"/>
<path d="M290.776 359.328H335.444C346.651 359.328 355.77 350.148 355.77 338.863C355.77 325.349 366.688 314.355 380.11 314.355C388.708 314.355 396.28 318.867 400.612 325.663C403.042 329.476 404.451 334.006 404.451 338.864C404.451 343.448 405.957 347.685 408.495 351.101C412.205 356.092 418.122 359.328 424.778 359.328C435.986 359.328 445.105 350.148 445.105 338.863V293.888C445.105 282.603 435.986 273.421 424.778 273.421H335.444C324.242 273.421 315.126 282.594 315.117 293.871V293.888C315.117 307.403 304.198 318.398 290.776 318.398H290.763C279.561 318.405 270.45 327.582 270.45 338.863C270.451 350.148 279.568 359.328 290.776 359.328Z" fill="#EFEFEF"/>
<path d="M335.877 361.345H335.895C335.906 361.345 335.918 361.345 335.931 361.344C335.914 361.345 335.895 361.345 335.877 361.345Z" fill="#EFEFEF"/>
<path d="M380.111 134.453C391.313 134.453 400.428 125.282 400.436 114.004V113.986C400.436 100.472 411.356 89.4786 424.778 89.4786H424.802C435.999 89.4642 445.105 80.2896 445.105 69.013C445.105 55.4988 456.023 44.5038 469.445 44.5038C469.796 44.5038 470.145 44.4952 470.49 44.4778C479.312 44.026 486.668 37.8845 488.999 29.634C489.091 29.3107 489.175 28.9844 489.25 28.6538C489.326 28.3246 489.395 27.9911 489.453 27.6562C489.663 26.481 489.772 25.2713 489.772 24.0369C489.772 12.7517 480.653 3.57141 469.445 3.57141L424.778 3.57141C413.57 3.57141 404.451 12.7517 404.451 24.0369C404.451 37.5511 393.533 48.5461 380.111 48.5461C368.903 48.5461 359.784 57.7279 359.784 69.013V113.986C359.784 125.273 368.903 134.453 380.111 134.453Z" fill="#EFEFEF"/>
<path d="M335.444 179.428H380.11C380.114 179.428 380.118 179.43 380.123 179.43C391.322 179.422 400.432 170.248 400.437 158.971V158.945C400.428 147.669 391.313 138.496 380.111 138.496C366.69 138.496 355.77 127.501 355.77 113.986C355.77 102.701 346.652 93.521 335.444 93.521H290.776C279.568 93.521 270.45 102.701 270.45 113.986C270.45 125.273 279.568 134.453 290.776 134.453C304.198 134.453 315.117 145.448 315.117 158.963C315.117 170.243 324.229 179.422 335.431 179.43C335.436 179.43 335.44 179.428 335.444 179.428Z" fill="#EFEFEF"/>
<path d="M514.113 181.45H514.258C514.211 181.449 514.162 181.449 514.113 181.449H513.825C513.921 181.45 514.017 181.45 514.113 181.45Z" fill="#EFEFEF"/>
<path d="M380.11 269.379H424.778C435.986 269.379 445.105 260.199 445.105 248.913C445.105 235.399 456.023 224.404 469.445 224.404H514.114C525.322 224.404 534.439 215.222 534.439 203.937C534.439 192.656 525.327 183.478 514.125 183.472H514.114C514.105 183.472 514.096 183.47 514.088 183.47H424.778C413.571 183.47 404.452 192.652 404.452 203.937C404.452 217.451 393.532 228.447 380.11 228.447C368.902 228.447 359.785 237.627 359.785 248.913C359.785 260.199 368.902 269.379 380.11 269.379Z" fill="#EFEFEF"/>
<path d="M336.736 361.314C336.852 361.308 336.967 361.299 337.081 361.292C337.031 361.295 336.98 361.299 336.928 361.3C336.863 361.305 336.8 361.309 336.736 361.314Z" fill="#EFEFEF"/>
<path d="M514.113 181.45H514.258C514.211 181.449 514.162 181.449 514.113 181.449H513.825C513.921 181.45 514.017 181.45 514.113 181.45Z" fill="#DCDBE4"/>
<path d="M514.114 359.328C525.322 359.328 534.439 350.148 534.439 338.863V293.888C534.439 282.603 525.322 273.421 514.114 273.421C511.662 273.421 509.309 273.862 507.131 274.666C506.665 274.837 506.206 275.026 505.756 275.231C505.455 275.369 505.159 275.513 504.867 275.663C498.733 278.832 494.397 285.05 493.845 292.316C493.807 292.834 493.787 293.358 493.787 293.888V338.863C493.787 350.148 502.906 359.328 514.114 359.328Z" fill="#EFEFEF"/>
<ellipse cx="22.5" cy="21.6346" rx="22.5" ry="21.6346" transform="matrix(1 0 0 -1 447.575 400.423)" fill="#DCDBE4"/>
<ellipse cx="22.5" cy="21.6346" rx="22.5" ry="21.6346" transform="matrix(1 0 0 -1 447.575 357.154)" fill="#DCDBE4"/>
<ellipse cx="22.5" cy="21.6346" rx="22.5" ry="21.6346" transform="matrix(1 0 0 -1 447.575 313.885)" fill="#DCDBE4"/>
<circle cx="21.6346" cy="21.6346" r="21.6346" transform="matrix(1 0 0 -1 447.575 270.615)" fill="#DCDBE4"/>
<circle cx="21.6346" cy="21.6346" r="21.6346" transform="matrix(1 0 0 -1 490.844 270.615)" fill="#DCDBE4"/>
<circle cx="21.6346" cy="21.6346" r="21.6346" transform="matrix(1 0 0 -1 313.442 267.568)" fill="#DCDBE4"/>
<circle cx="21.6346" cy="21.6346" r="21.6346" transform="matrix(1 0 0 -1 313.442 224.298)" fill="#DCDBE4"/>
<circle cx="21.6346" cy="21.6346" r="21.6346" transform="matrix(1 0 0 -1 356.711 224.298)" fill="#DCDBE4"/>
<circle cx="290.365" cy="386.058" r="21.6346" fill="#DCDBE4"/>
<circle cx="290.365" cy="429.327" r="21.6346" fill="#DCDBE4"/>
<circle cx="333.635" cy="429.327" r="21.6346" fill="#DCDBE4"/>
<circle cx="21.6346" cy="21.6346" r="21.6346" transform="matrix(1 0 0 -1 269.591 86.7131)" fill="#DCDBE4"/>
<circle cx="21.6346" cy="21.6346" r="21.6346" transform="matrix(1 0 0 -1 312.86 86.7131)" fill="#DCDBE4"/>
<circle cx="21.6346" cy="21.6346" r="21.6346" transform="matrix(1 0 0 -1 269.591 43.4438)" fill="#DCDBE4"/>
<circle cx="21.6346" cy="21.6346" r="21.6346" transform="matrix(1 0 0 -1 312.86 43.4438)" fill="#DCDBE4"/>
<circle cx="21.6346" cy="21.6346" r="21.6346" transform="matrix(1 0 0 -1 356.129 43.4438)" fill="#DCDBE4"/>
<circle cx="21.6346" cy="21.6346" r="21.6346" transform="matrix(1 0 0 -1 492.868 177.569)" fill="#DCDBE4"/>
<circle cx="21.6346" cy="21.6346" r="21.6346" transform="matrix(1 0 0 -1 492.868 134.3)" fill="#DCDBE4"/>
<circle cx="21.6346" cy="21.6346" r="21.6346" transform="matrix(1 0 0 -1 450.155 91.0305)" fill="#DCDBE4"/>
<circle cx="21.6346" cy="21.6346" r="21.6346" transform="matrix(1 0 0 -1 493.424 91.0305)" fill="#DCDBE4"/>
<circle cx="21.6346" cy="21.6346" r="21.6346" transform="matrix(1 0 0 -1 492.868 47.7612)" fill="#DCDBE4"/>
<circle cx="429.244" cy="429.365" r="21.6346" fill="#DCDBE4"/>
<circle cx="472.514" cy="429.365" r="21.6346" fill="#DCDBE4"/>
<circle cx="515.783" cy="386.096" r="21.6346" fill="#DCDBE4"/>
<circle cx="515.783" cy="429.365" r="21.6346" fill="#DCDBE4"/>
</svg>
