<svg width="878" height="843" viewBox="0 0 878 843" fill="none" xmlns="http://www.w3.org/2000/svg">
<g filter="url(#filter0_fg_323_700)">
<path d="M688.537 642.226C526.373 866.002 580.983 564.673 435.641 459.348C290.299 354.024 41.2459 427.73 145.629 283.688C250.012 139.646 469.032 85.3827 614.374 190.708C759.716 296.032 792.919 498.184 688.537 642.226Z" fill="#F5F8FF"/>
</g>
<path d="M214.116 230.983H258.929C270.172 230.983 279.32 240.181 279.32 251.487C279.32 265.028 290.273 276.042 303.738 276.042C312.365 276.042 319.961 271.522 324.306 264.712C326.744 260.892 328.158 256.353 328.158 251.486C328.158 246.893 329.669 242.648 332.215 239.226C335.937 234.225 341.874 230.983 348.551 230.983C359.795 230.983 368.943 240.18 368.943 251.487V296.549C368.943 307.855 359.795 317.055 348.551 317.055H258.929C247.691 317.055 238.545 307.864 238.536 296.566V296.549C238.536 283.008 227.581 271.992 214.116 271.992H214.103C202.865 271.985 193.725 262.79 193.725 251.487C193.726 240.181 202.872 230.983 214.116 230.983Z" fill="#EFEFEF"/>
<path d="M259.363 228.962H259.381C259.392 228.962 259.404 228.962 259.417 228.963C259.4 228.962 259.381 228.962 259.363 228.962Z" fill="#EFEFEF"/>
<path d="M303.74 456.29C314.978 456.29 324.122 465.479 324.131 476.779V476.797C324.131 490.337 335.086 501.351 348.551 501.351H348.575C359.808 501.366 368.943 510.558 368.943 521.856C368.943 535.397 379.897 546.413 393.362 546.413C393.714 546.413 394.064 546.421 394.41 546.439C403.261 546.891 410.64 553.045 412.979 561.311C413.071 561.635 413.156 561.962 413.23 562.293C413.307 562.623 413.376 562.957 413.435 563.293C413.645 564.47 413.754 565.682 413.754 566.919C413.754 578.226 404.606 587.424 393.362 587.424H348.551C337.307 587.424 328.158 578.226 328.158 566.919C328.158 553.379 317.205 542.363 303.74 542.363C292.495 542.363 283.347 533.163 283.347 521.856V476.797C283.347 465.488 292.496 456.29 303.74 456.29Z" fill="#EFEFEF"/>
<path d="M258.929 411.229H303.738C303.743 411.229 303.747 411.227 303.751 411.227C314.987 411.235 324.127 420.427 324.131 431.725V431.751C324.122 443.049 314.978 452.24 303.74 452.24C290.275 452.24 279.32 463.256 279.32 476.796C279.32 488.103 270.173 497.301 258.929 497.301H214.116C202.872 497.301 193.725 488.103 193.725 476.796C193.725 465.488 202.872 456.29 214.116 456.29C227.581 456.29 238.536 445.274 238.536 431.734C238.536 420.431 247.678 411.235 258.916 411.227C258.92 411.227 258.925 411.229 258.929 411.229Z" fill="#EFEFEF"/>
<path d="M438.174 409.202H438.319C438.272 409.204 438.223 409.204 438.174 409.204H437.885C437.981 409.203 438.078 409.202 438.174 409.202Z" fill="#EFEFEF"/>
<path d="M303.738 321.105H348.551C359.795 321.105 368.943 330.303 368.943 341.61C368.943 355.15 379.897 366.166 393.362 366.166H438.174C449.418 366.166 458.565 375.366 458.565 386.673C458.565 397.975 449.424 407.172 438.186 407.177H438.174C438.166 407.177 438.157 407.179 438.149 407.179H348.551C337.307 407.179 328.159 397.979 328.159 386.673C328.159 373.132 317.204 362.116 303.739 362.116C292.495 362.116 283.348 352.918 283.348 341.61C283.348 330.303 292.494 321.105 303.738 321.105Z" fill="#EFEFEF"/>
<path d="M260.225 228.994C260.341 229 260.456 229.008 260.571 229.016C260.521 229.013 260.469 229.008 260.417 229.007C260.353 229.002 260.289 228.998 260.225 228.994Z" fill="#EFEFEF"/>
<path d="M303.74 140.859C314.984 140.859 324.131 150.057 324.131 161.364C324.131 174.904 335.086 185.92 348.551 185.92C359.792 185.92 368.939 195.115 368.943 206.418V206.442C368.933 217.742 359.789 226.931 348.551 226.931C340.556 226.931 333.446 230.815 328.988 236.805C325.939 240.902 324.131 245.987 324.131 251.487C324.131 255.198 323.145 258.681 321.425 261.686C317.902 267.84 311.294 271.992 303.74 271.992C292.495 271.992 283.347 262.794 283.347 251.486C283.347 237.947 272.392 226.931 258.929 226.931C247.684 226.931 238.536 217.733 238.536 206.426C238.536 195.119 247.684 185.92 258.929 185.92C272.392 185.92 283.347 174.904 283.347 161.364C283.347 150.057 292.496 140.859 303.74 140.859Z" fill="#EFEFEF"/>
<path d="M438.174 409.202H438.319C438.272 409.204 438.223 409.204 438.174 409.204H437.885C437.981 409.203 438.078 409.202 438.174 409.202Z" fill="#DCDBE4"/>
<path d="M438.175 230.983C449.419 230.983 458.566 240.181 458.566 251.487V296.549C458.566 307.855 449.419 317.055 438.175 317.055C435.715 317.055 433.354 316.614 431.169 315.808C430.702 315.636 430.242 315.447 429.79 315.241C429.488 315.104 429.192 314.959 428.898 314.809C422.745 311.634 418.395 305.404 417.841 298.124C417.802 297.605 417.782 297.08 417.782 296.549V251.488C417.782 240.181 426.931 230.983 438.175 230.983Z" fill="#EFEFEF"/>
<ellipse cx="393.921" cy="211.444" rx="22.5" ry="21.6346" fill="#DCDBE4"/>
<ellipse cx="393.921" cy="254.713" rx="22.5" ry="21.6346" fill="#DCDBE4"/>
<ellipse cx="393.921" cy="297.982" rx="22.5" ry="21.6346" fill="#DCDBE4"/>
<circle cx="393.056" cy="341.252" r="21.6346" fill="#DCDBE4"/>
<circle cx="436.325" cy="341.252" r="21.6346" fill="#DCDBE4"/>
<circle cx="258.49" cy="344.554" r="21.6346" fill="#DCDBE4"/>
<circle cx="258.49" cy="387.824" r="21.6346" fill="#DCDBE4"/>
<circle cx="301.759" cy="387.824" r="21.6346" fill="#DCDBE4"/>
<circle cx="21.6346" cy="21.6346" r="21.6346" transform="matrix(1 0 0 -1 192 225.878)" fill="#DCDBE4"/>
<circle cx="21.6346" cy="21.6346" r="21.6346" transform="matrix(1 0 0 -1 192 182.609)" fill="#DCDBE4"/>
<circle cx="21.6346" cy="21.6346" r="21.6346" transform="matrix(1 0 0 -1 235.269 182.609)" fill="#DCDBE4"/>
<circle cx="214.497" cy="525.757" r="21.6346" fill="#DCDBE4"/>
<circle cx="257.767" cy="525.757" r="21.6346" fill="#DCDBE4"/>
<circle cx="214.497" cy="569.026" r="21.6346" fill="#DCDBE4"/>
<circle cx="257.766" cy="569.026" r="21.6346" fill="#DCDBE4"/>
<circle cx="301.036" cy="569.026" r="21.6346" fill="#DCDBE4"/>
<circle cx="438.635" cy="434.726" r="21.6346" fill="#DCDBE4"/>
<circle cx="438.635" cy="477.995" r="21.6346" fill="#DCDBE4"/>
<circle cx="395.644" cy="521.265" r="21.6346" fill="#DCDBE4"/>
<circle cx="438.913" cy="521.265" r="21.6346" fill="#DCDBE4"/>
<circle cx="438.635" cy="564.534" r="21.6346" fill="#DCDBE4"/>
<path d="M482.315 498.328H526.983C538.19 498.328 547.308 489.148 547.308 477.863C547.308 464.349 558.227 453.355 571.648 453.355C580.247 453.355 587.819 457.867 592.15 464.663C594.581 468.476 595.99 473.006 595.99 477.864C595.99 482.448 597.495 486.685 600.033 490.101C603.744 495.092 609.661 498.328 616.317 498.328C627.525 498.328 636.644 489.148 636.644 477.863V432.888C636.644 421.603 627.525 412.421 616.317 412.421H526.983C515.781 412.421 506.665 421.594 506.656 432.871V432.888C506.656 446.403 495.736 457.398 482.315 457.398H482.302C471.1 457.405 461.989 466.582 461.989 477.863C461.989 489.148 471.107 498.328 482.315 498.328Z" fill="#EFEFEF"/>
<path d="M527.416 500.345H527.433C527.445 500.345 527.457 500.345 527.47 500.344C527.452 500.345 527.433 500.345 527.416 500.345Z" fill="#EFEFEF"/>
<path d="M571.65 273.453C582.852 273.453 591.966 264.282 591.975 253.004V252.986C591.975 239.472 602.895 228.479 616.317 228.479H616.341C627.537 228.464 636.643 219.29 636.643 208.013C636.643 194.499 647.562 183.504 660.983 183.504C661.335 183.504 661.683 183.495 662.029 183.478C670.851 183.026 678.206 176.885 680.538 168.634C680.629 168.311 680.714 167.984 680.788 167.654C680.864 167.325 680.933 166.991 680.992 166.656C681.201 165.481 681.31 164.271 681.31 163.037C681.31 151.752 672.191 142.571 660.983 142.571H616.317C605.109 142.571 595.99 151.752 595.99 163.037C595.99 176.551 585.071 187.546 571.65 187.546C560.442 187.546 551.323 196.728 551.323 208.013V252.986C551.323 264.273 560.442 273.453 571.65 273.453Z" fill="#EFEFEF"/>
<path d="M526.983 318.428H571.648C571.653 318.428 571.657 318.43 571.661 318.43C582.861 318.422 591.971 309.248 591.975 297.971V297.945C591.967 286.669 582.852 277.496 571.65 277.496C558.228 277.496 547.308 266.501 547.308 252.986C547.308 241.701 538.191 232.521 526.983 232.521H482.315C471.107 232.521 461.989 241.701 461.989 252.986C461.989 264.273 471.107 273.453 482.315 273.453C495.736 273.453 506.656 284.448 506.656 297.963C506.656 309.243 515.768 318.422 526.97 318.43C526.974 318.43 526.979 318.428 526.983 318.428Z" fill="#EFEFEF"/>
<path d="M705.652 320.45H705.797C705.749 320.449 705.701 320.449 705.652 320.449H705.364C705.46 320.45 705.556 320.45 705.652 320.45Z" fill="#EFEFEF"/>
<path d="M571.648 408.379H616.317C627.525 408.379 636.644 399.199 636.644 387.913C636.644 374.399 647.562 363.404 660.984 363.404H705.652C716.86 363.404 725.978 354.222 725.978 342.937C725.978 331.656 716.866 322.478 705.664 322.472H705.652C705.644 322.472 705.635 322.47 705.626 322.47H616.317C605.109 322.47 595.99 331.652 595.99 342.937C595.99 356.451 585.07 367.447 571.649 367.447C560.441 367.447 551.323 376.627 551.323 387.913C551.323 399.199 560.441 408.379 571.648 408.379Z" fill="#EFEFEF"/>
<path d="M528.275 500.314C528.391 500.308 528.505 500.299 528.62 500.292C528.57 500.295 528.518 500.299 528.467 500.3C528.402 500.305 528.339 500.309 528.275 500.314Z" fill="#EFEFEF"/>
<path d="M705.652 320.45H705.797C705.749 320.449 705.701 320.449 705.652 320.449H705.364C705.46 320.45 705.556 320.45 705.652 320.45Z" fill="#DCDBE4"/>
<path d="M705.652 498.328C716.86 498.328 725.978 489.148 725.978 477.863V432.888C725.978 421.603 716.86 412.421 705.652 412.421C703.201 412.421 700.848 412.861 698.67 413.666C698.204 413.837 697.745 414.026 697.295 414.231C696.994 414.369 696.698 414.513 696.406 414.663C690.272 417.832 685.936 424.05 685.384 431.316C685.345 431.834 685.325 432.358 685.325 432.888V477.863C685.325 489.148 694.444 498.328 705.652 498.328Z" fill="#EFEFEF"/>
<ellipse cx="22.5" cy="21.6346" rx="22.5" ry="21.6346" transform="matrix(1 0 0 -1 639.114 539.423)" fill="#DCDBE4"/>
<ellipse cx="22.5" cy="21.6346" rx="22.5" ry="21.6346" transform="matrix(1 0 0 -1 639.114 496.154)" fill="#DCDBE4"/>
<ellipse cx="22.5" cy="21.6346" rx="22.5" ry="21.6346" transform="matrix(1 0 0 -1 639.114 452.884)" fill="#DCDBE4"/>
<circle cx="21.6346" cy="21.6346" r="21.6346" transform="matrix(1 0 0 -1 639.114 409.615)" fill="#DCDBE4"/>
<circle cx="21.6346" cy="21.6346" r="21.6346" transform="matrix(1 0 0 -1 682.383 409.615)" fill="#DCDBE4"/>
<circle cx="21.6346" cy="21.6346" r="21.6346" transform="matrix(1 0 0 -1 504.98 406.568)" fill="#DCDBE4"/>
<circle cx="21.6346" cy="21.6346" r="21.6346" transform="matrix(1 0 0 -1 504.98 363.298)" fill="#DCDBE4"/>
<circle cx="21.6346" cy="21.6346" r="21.6346" transform="matrix(1 0 0 -1 548.25 363.298)" fill="#DCDBE4"/>
<circle cx="481.904" cy="525.058" r="21.6346" fill="#DCDBE4"/>
<circle cx="481.904" cy="568.327" r="21.6346" fill="#DCDBE4"/>
<circle cx="525.173" cy="568.327" r="21.6346" fill="#DCDBE4"/>
<circle cx="21.6346" cy="21.6346" r="21.6346" transform="matrix(1 0 0 -1 461.129 225.713)" fill="#DCDBE4"/>
<circle cx="21.6346" cy="21.6346" r="21.6346" transform="matrix(1 0 0 -1 504.399 225.713)" fill="#DCDBE4"/>
<circle cx="21.6346" cy="21.6346" r="21.6346" transform="matrix(1 0 0 -1 461.129 182.444)" fill="#DCDBE4"/>
<circle cx="21.6346" cy="21.6346" r="21.6346" transform="matrix(1 0 0 -1 504.399 182.444)" fill="#DCDBE4"/>
<circle cx="21.6346" cy="21.6346" r="21.6346" transform="matrix(1 0 0 -1 547.668 182.444)" fill="#DCDBE4"/>
<circle cx="21.6346" cy="21.6346" r="21.6346" transform="matrix(1 0 0 -1 684.407 316.569)" fill="#DCDBE4"/>
<circle cx="21.6346" cy="21.6346" r="21.6346" transform="matrix(1 0 0 -1 684.407 273.3)" fill="#DCDBE4"/>
<circle cx="21.6346" cy="21.6346" r="21.6346" transform="matrix(1 0 0 -1 641.693 230.031)" fill="#DCDBE4"/>
<circle cx="21.6346" cy="21.6346" r="21.6346" transform="matrix(1 0 0 -1 684.962 230.031)" fill="#DCDBE4"/>
<circle cx="21.6346" cy="21.6346" r="21.6346" transform="matrix(1 0 0 -1 684.407 186.761)" fill="#DCDBE4"/>
<circle cx="620.783" cy="568.365" r="21.6346" fill="#DCDBE4"/>
<circle cx="664.052" cy="568.365" r="21.6346" fill="#DCDBE4"/>
<circle cx="707.322" cy="525.096" r="21.6346" fill="#DCDBE4"/>
<circle cx="707.322" cy="568.366" r="21.6346" fill="#DCDBE4"/>
<defs>
<filter id="filter0_fg_323_700" x="0.772491" y="15.7461" width="868.626" height="827.209" filterUnits="userSpaceOnUse" color-interpolation-filters="sRGB">
<feFlood flood-opacity="0" result="BackgroundImageFix"/>
<feBlend mode="normal" in="SourceGraphic" in2="BackgroundImageFix" result="shape"/>
<feGaussianBlur stdDeviation="60" result="effect1_foregroundBlur_323_700"/>
<feTurbulence type="fractalNoise" baseFrequency="0.05000000074505806 0.05000000074505806" numOctaves="3" seed="1923" />
<feDisplacementMap in="effect1_foregroundBlur_323_700" scale="60" xChannelSelector="R" yChannelSelector="G" result="displacedImage" width="100%" height="100%" />
<feMerge result="effect2_texture_323_700">
<feMergeNode in="displacedImage"/>
</feMerge>
</filter>
</defs>
</svg>
