<svg width="610" height="225" viewBox="0 0 610 225" fill="none" xmlns="http://www.w3.org/2000/svg">
<path d="M2.78484 98.1496C3.21381 98.1576 3.62159 98.0657 3.98824 97.8997L11.928 111.701C11.4694 112.08 11.1662 112.647 11.1554 113.293C11.1342 114.46 12.0538 115.427 13.207 115.449C14.2452 115.467 15.1152 114.712 15.2961 113.71L31.2676 113.646C31.4255 115.056 32.5938 116.167 34.0319 116.194C34.4785 116.203 34.902 116.102 35.2807 115.923L43.2344 129.746C42.6911 130.173 42.328 130.827 42.3141 131.575C42.2911 132.885 43.3245 133.971 44.6181 133.994C45.8523 134.017 46.8742 133.062 46.9861 131.837L62.5679 131.774C62.715 133.196 63.8905 134.321 65.3365 134.348C66.9023 134.376 68.1977 133.11 68.2267 131.526C68.2431 130.562 67.7851 129.699 67.0711 129.163L74.8312 115.431C75.1264 115.569 75.4525 115.65 75.7986 115.657C77.0752 115.68 78.1328 114.693 78.249 113.425L94.3075 113.361C94.3983 114.612 95.4093 115.616 96.6732 115.639C97.0598 115.647 97.4222 115.552 97.7507 115.395L105.892 129.546C105.407 129.925 105.084 130.509 105.072 131.176C105.051 132.343 105.972 133.31 107.124 133.332C108.175 133.351 109.052 132.577 109.218 131.558L125.711 131.491C125.826 132.719 126.827 133.695 128.073 133.718C128.459 133.726 128.821 133.631 129.148 133.475L137.357 147.864C136.839 148.24 136.492 148.846 136.48 149.54C136.467 150.236 136.793 150.855 137.299 151.25L129.227 165.418C128.94 165.289 128.625 165.214 128.292 165.208C126.953 165.184 125.843 166.266 125.819 167.621C125.795 168.977 126.865 170.101 128.203 170.125C128.551 170.132 128.883 170.06 129.185 169.931L137.036 183.689C136.354 184.202 135.904 185.017 135.887 185.942C135.859 187.525 137.109 188.839 138.673 188.867C140.165 188.895 141.411 187.745 141.548 186.265L157.076 186.26C157.139 187.538 158.162 188.573 159.445 188.597C159.827 188.604 160.187 188.512 160.513 188.357L168.289 201.986C167.624 202.501 167.188 203.305 167.172 204.216C167.143 205.801 168.393 207.114 169.957 207.142C171.426 207.169 172.659 206.055 172.827 204.608L188.809 204.602C188.921 205.644 189.777 206.47 190.839 206.49C191.991 206.511 192.946 205.578 192.967 204.411C192.98 203.678 192.622 203.024 192.067 202.634L199.999 188.713C200.378 188.916 200.808 189.037 201.266 189.046C202.81 189.074 204.089 187.843 204.152 186.29L219.687 186.285C219.761 187.553 220.781 188.575 222.055 188.599C222.418 188.606 222.762 188.525 223.074 188.385L230.978 202.239C230.432 202.682 230.07 203.348 230.057 204.108C230.032 205.464 231.102 206.587 232.44 206.611C233.647 206.633 234.659 205.753 234.866 204.588L251.265 204.583C251.443 205.551 252.273 206.294 253.283 206.312C253.558 206.318 253.821 206.265 254.064 206.171L262.302 220.607C261.741 221.049 261.369 221.724 261.355 222.496C261.331 223.852 262.4 224.975 263.738 225C264.975 225.022 266.007 224.095 266.175 222.885L282.457 222.88C282.558 223.985 283.458 224.865 284.579 224.886C285.783 224.908 286.78 223.935 286.801 222.717C286.815 221.966 286.454 221.298 285.895 220.887L293.924 206.796C294.211 206.915 294.519 206.989 294.845 206.995C296.247 207.021 297.406 205.888 297.432 204.469C297.458 203.05 296.339 201.875 294.938 201.849C294.614 201.843 294.306 201.904 294.02 202.012L285.814 187.63C286.327 187.253 286.671 186.651 286.684 185.961C286.704 184.794 285.783 183.827 284.63 183.805C283.517 183.785 282.598 184.656 282.516 185.765L266.618 185.77C266.545 184.274 265.336 183.067 263.837 183.038C263.366 183.03 262.918 183.141 262.523 183.34L254.605 169.461C255.052 169.08 255.348 168.519 255.359 167.883C255.38 166.715 254.46 165.748 253.306 165.726C252.269 165.707 251.398 166.463 251.219 167.466L234.383 167.471C234.216 166.491 233.383 165.734 232.364 165.715C232.126 165.71 231.9 165.756 231.686 165.826L223.298 151.125C223.812 150.748 224.157 150.144 224.169 149.453C224.182 148.743 223.843 148.11 223.319 147.715L231.523 133.314C231.774 133.421 232.048 133.486 232.337 133.492C233.536 133.514 234.526 132.559 234.582 131.354L251.283 131.349C251.431 132.353 252.271 133.135 253.307 133.154C254.458 133.176 255.413 132.243 255.435 131.075C255.448 130.371 255.113 129.743 254.595 129.348L262.513 115.451C262.834 115.588 263.186 115.669 263.556 115.676C265.059 115.704 266.313 114.533 266.432 113.034L282.176 113.029C282.248 114.362 283.317 115.44 284.656 115.465C285.046 115.472 285.412 115.381 285.746 115.228L293.779 129.307C293.28 129.685 292.945 130.279 292.933 130.958C292.92 131.697 293.286 132.354 293.85 132.744L285.506 147.388C285.292 147.307 285.064 147.253 284.823 147.249C283.67 147.228 282.715 148.16 282.693 149.328C282.672 150.494 283.593 151.462 284.746 151.483C285.005 151.488 285.25 151.439 285.48 151.356L293.413 165.259C292.739 165.774 292.292 166.584 292.276 167.503C292.248 169.087 293.497 170.401 295.063 170.429C296.512 170.455 297.731 169.37 297.924 167.948L313.852 167.944C313.976 168.975 314.827 169.787 315.881 169.807C317.033 169.827 317.988 168.895 318.009 167.728C318.021 167.037 317.699 166.422 317.199 166.027L325.343 151.73C325.649 151.87 325.985 151.951 326.341 151.958C327.742 151.984 328.902 150.85 328.928 149.432C328.953 148.013 327.834 146.838 326.432 146.812C326.045 146.805 325.68 146.894 325.348 147.046L317.574 133.421C318.34 132.918 318.854 132.051 318.871 131.06C318.89 130.056 318.393 129.161 317.629 128.633L325.553 114.727C325.809 114.848 326.092 114.92 326.391 114.925C327.488 114.945 328.395 114.1 328.501 113.014L344.786 113.009C344.921 114.279 345.963 115.286 347.256 115.31C347.613 115.316 347.953 115.246 348.265 115.117L356.167 128.967C355.611 129.429 355.243 130.117 355.229 130.9C355.203 132.319 356.323 133.494 357.723 133.52C359.017 133.544 360.094 132.576 360.273 131.312L375.72 131.308C375.858 132.739 377.038 133.875 378.492 133.902C378.917 133.91 379.321 133.819 379.687 133.656L387.702 147.704C387.238 148.084 386.931 148.654 386.919 149.304C386.907 149.989 387.225 150.599 387.717 150.995L379.687 165.09C379.368 164.956 379.02 164.877 378.654 164.87C377.089 164.841 375.793 166.106 375.765 167.691C375.737 169.275 376.986 170.588 378.551 170.617C378.978 170.625 379.385 170.533 379.752 170.367L387.472 183.897C386.904 184.359 386.527 185.055 386.513 185.849C386.488 187.267 387.608 188.443 389.008 188.468C390.313 188.493 391.397 187.508 391.562 186.227L407.31 186.222C407.446 187.49 408.487 188.495 409.778 188.519C410.153 188.526 410.507 188.445 410.83 188.303L411.26 188.062C411.913 187.606 412.351 186.854 412.366 185.993C412.381 185.117 411.96 184.338 411.308 183.861L419.371 169.707C419.605 169.805 419.858 169.865 420.125 169.871C421.237 169.891 422.158 169.019 422.239 167.909L422.222 167.411C422.062 166.422 421.225 165.656 420.201 165.636C419.938 165.632 419.689 165.682 419.456 165.767L411.601 151.997C412.442 151.426 413.005 150.464 413.025 149.364C413.045 148.239 412.492 147.237 411.641 146.641L419.41 133.003C419.638 133.094 419.883 133.154 420.143 133.158C421.224 133.178 422.12 132.356 422.247 131.292L438.556 131.287C438.683 132.565 439.727 133.581 441.026 133.605C442.427 133.631 443.588 132.497 443.613 131.078C443.629 130.196 443.202 129.409 442.54 128.933L450.158 115.565C450.547 115.746 450.977 115.853 451.431 115.861C453.097 115.891 454.491 114.62 454.667 112.974L470.393 112.969C470.514 114.07 471.419 114.942 472.542 114.962C472.809 114.967 473.061 114.917 473.299 114.834L481.038 128.398C480.084 128.945 479.428 129.969 479.407 131.157C479.375 132.942 480.782 134.422 482.546 134.454C484.309 134.487 485.769 133.06 485.801 131.276C485.801 131.274 485.801 131.273 485.801 131.273L501.173 131.268C501.331 132.512 502.363 133.49 503.638 133.514C505.039 133.54 506.199 132.407 506.225 130.988C506.24 130.128 505.831 129.362 505.198 128.883L512.712 115.696C513.114 115.894 513.562 116.011 514.039 116.02C515.763 116.052 517.194 114.685 517.286 112.955L531.781 112.95C531.912 114.587 533.254 115.894 534.91 115.924C535.406 115.934 535.877 115.823 536.301 115.626L544.083 129.267C543.609 129.647 543.293 130.224 543.282 130.883C543.261 132.05 544.181 133.017 545.335 133.04C546.389 133.059 547.268 132.279 547.429 131.253L563.222 131.248C563.337 132.902 564.685 134.226 566.352 134.257C566.817 134.265 567.26 134.169 567.662 133.995L575.351 147.472C574.892 147.852 574.589 148.419 574.577 149.064C574.557 150.231 575.477 151.198 576.63 151.22C577.644 151.238 578.503 150.519 578.711 149.552L594.342 149.547C594.53 151.123 595.841 152.364 597.454 152.394C599.216 152.426 600.677 151 600.71 149.214C600.728 148.126 600.211 147.153 599.406 146.551L607.109 133.029C607.345 133.128 607.6 133.19 607.871 133.195C609.023 133.215 609.978 132.283 610 131.115C610.021 129.947 609.1 128.981 607.947 128.959C607.682 128.954 607.43 129.005 607.195 129.092L599.378 115.393C600.204 114.821 600.756 113.868 600.775 112.779C600.808 110.994 599.4 109.515 597.637 109.483C595.951 109.451 594.545 110.756 594.398 112.431L578.706 112.437C578.549 111.444 577.71 110.672 576.683 110.654C576.4 110.649 576.128 110.702 575.879 110.802L567.662 96.3999C568.246 95.971 568.637 95.2854 568.651 94.5C568.675 93.1718 567.628 92.072 566.317 92.0475C565.101 92.0255 564.09 92.9408 563.929 94.133L547.476 94.1379C547.366 93.0927 546.508 92.2644 545.445 92.2454C545.125 92.2387 544.824 92.3116 544.551 92.4372L536.744 78.7534C537.598 78.1854 538.17 77.2144 538.19 76.1048C538.21 74.9696 537.647 73.9605 536.781 73.3662L544.479 59.8552C544.716 59.9563 544.973 60.0181 545.246 60.0224C546.373 60.0433 547.305 59.1506 547.366 58.019L563.847 58.0141C563.986 59.1886 564.954 60.1162 566.155 60.1382C567.465 60.1621 568.552 59.1016 568.575 57.7746C568.59 56.9652 568.203 56.2435 567.604 55.7957L575.802 41.4085C576.012 41.4845 576.233 41.5366 576.469 41.5409C577.541 41.5611 578.431 40.7536 578.57 39.7016L594.916 39.6967C595.08 40.9343 596.109 41.9048 597.378 41.9274C598.779 41.9532 599.939 40.8197 599.965 39.4002C599.98 38.5535 599.582 37.7987 598.965 37.3184L607.032 23.1585C607.257 23.248 607.498 23.3056 607.753 23.3105C608.906 23.3313 609.86 22.3994 609.882 21.2317C609.902 20.0646 608.982 19.0984 607.829 19.0764C607.566 19.0715 607.316 19.1211 607.084 19.2069L598.719 4.54523C599.245 4.16967 599.597 3.55823 599.61 2.85734C599.631 1.69022 598.711 0.722827 597.557 0.701384C596.472 0.681166 595.572 1.5101 595.452 2.58165L579.066 2.58778C578.92 1.32998 577.884 0.337464 576.6 0.314795C575.199 0.288451 574.039 1.4231 574.013 2.84141C573.997 3.71874 574.42 4.5005 575.075 4.97715L566.967 19.2087C566.724 19.1015 566.458 19.039 566.177 19.0341C565.097 19.0139 564.199 19.8361 564.073 20.9003L547.329 20.9052C547.179 19.9041 546.338 19.1242 545.305 19.1052C544.152 19.0837 543.198 20.0168 543.177 21.1839C543.164 21.8922 543.5 22.5232 544.022 22.9165L535.925 37.1297C535.611 36.9802 535.263 36.8901 534.894 36.884C533.558 36.8595 532.452 37.8931 532.33 39.2189L517.242 39.2244C517.076 37.6217 515.753 36.3541 514.123 36.3247C513.634 36.3155 513.17 36.4214 512.752 36.6138L504.932 22.9086C505.399 22.5293 505.709 21.9571 505.721 21.3046C505.742 20.1375 504.821 19.1707 503.668 19.1493C502.619 19.1303 501.742 19.9016 501.575 20.9205L485.339 20.926C485.211 19.6486 484.167 18.634 482.869 18.6107C481.468 18.5844 480.308 19.719 480.282 21.1374C480.267 22 480.677 22.7689 481.315 23.2468L473.203 37.4838C472.985 37.3986 472.752 37.3429 472.505 37.3392C471.352 37.3184 470.397 38.2503 470.376 39.4174C470.355 40.5857 471.275 41.5525 472.429 41.5746C472.692 41.5788 472.943 41.5286 473.176 41.4422L481.56 56.1345C481.081 56.5143 480.763 57.0933 480.751 57.7556C480.73 58.9233 481.65 59.8901 482.804 59.9115C483.886 59.9324 484.783 59.1077 484.908 58.0405L501.141 58.0356C501.292 59.2866 502.326 60.2718 503.605 60.2963C503.979 60.303 504.333 60.2222 504.655 60.0813L512.795 74.3453C512.309 74.7245 511.986 75.3078 511.974 75.9756C511.961 76.6954 512.307 77.3375 512.844 77.7302L505.002 91.4931C504.607 91.305 504.169 91.1947 503.705 91.1861C502.012 91.1549 500.602 92.469 500.465 94.1539L485.329 94.1582C485.175 92.9089 484.142 91.925 482.863 91.9023C482.494 91.895 482.143 91.9734 481.823 92.1119L473.942 78.2982C474.594 77.843 475.031 77.0912 475.047 76.2292C475.073 74.8115 473.953 73.6352 472.552 73.6088C471.246 73.5849 470.162 74.5726 469.998 75.8561L454.725 75.861C454.621 74.1958 453.269 72.8596 451.594 72.8289C449.832 72.7958 448.371 74.2215 448.339 76.0074C448.319 77.1415 448.881 78.1493 449.744 78.7442L441.923 92.4697C441.688 92.3637 441.43 92.3012 441.156 92.2963C440.098 92.2773 439.224 93.1136 439.162 94.1735L422.332 94.1784C422.195 93.0946 421.297 92.2411 420.185 92.2209C418.964 92.1988 417.954 93.1859 417.932 94.4216C417.918 95.177 418.279 95.8516 418.84 96.2682L410.96 110.099C410.619 109.942 410.242 109.852 409.843 109.844C408.336 109.817 407.082 110.99 406.966 112.492L391.749 112.497C391.676 111.166 390.607 110.09 389.269 110.065C388.777 110.056 388.319 110.196 387.925 110.435L379.779 96.156C380.234 95.7756 380.534 95.2113 380.546 94.568C380.567 93.4009 379.646 92.4347 378.494 92.4133C377.442 92.3937 376.564 93.1693 376.4 94.1931L360.955 94.1967C360.808 92.5756 359.474 91.2866 357.83 91.2566C357.281 91.2462 356.762 91.3779 356.306 91.6174L348.408 77.7743C348.861 77.3945 349.16 76.8315 349.171 76.1906C349.183 75.5106 348.871 74.9052 348.385 74.5089L356.805 59.729C357.036 59.8252 357.287 59.8852 357.552 59.8901C358.614 59.9097 359.5 59.1163 359.65 58.0791L375.833 58.0742C376.011 59.2958 377.034 60.2491 378.293 60.273C379.694 60.2987 380.854 59.1653 380.88 57.747C380.895 56.9169 380.511 56.1768 379.915 55.6946L388.033 41.4447C388.269 41.5445 388.525 41.6058 388.795 41.6107C389.871 41.6303 390.764 40.8173 390.897 39.7617L406.881 39.7568C407.02 41.1867 408.2 42.3208 409.652 42.3477C410.114 42.3563 410.55 42.2491 410.94 42.0573L418.855 55.9292C418.312 56.3281 417.948 56.9659 417.935 57.6968C417.913 58.9331 418.888 59.9569 420.108 59.9789C421.233 59.9998 422.17 59.1586 422.329 58.0589L438.603 58.054C438.734 59.3295 439.776 60.341 441.073 60.3649C442.474 60.3913 443.635 59.2572 443.66 57.8395C443.676 56.9536 443.246 56.1627 442.58 55.6872L450.123 42.4476C450.512 42.6283 450.941 42.7343 451.395 42.7429C453.157 42.7748 454.618 41.3491 454.651 39.5638C454.683 37.7785 453.275 36.3002 451.512 36.2677C451.02 36.2585 450.554 36.3651 450.135 36.5593L442.277 22.7879C442.721 22.4301 443.017 21.8897 443.027 21.2715C443.047 20.1724 442.182 19.2632 441.096 19.2424C440.1 19.224 439.268 19.9672 439.124 20.9395L422.212 20.945C422.106 19.8955 421.248 19.0635 420.181 19.0439C419.889 19.0384 419.61 19.096 419.355 19.2026L411.395 5.25102C412.095 4.7321 412.56 3.90377 412.577 2.95966C412.606 1.35694 411.342 0.0292944 409.76 0.000499265C408.248 -0.0276832 406.987 1.14066 406.853 2.64352L391.228 2.64781C391.078 1.48375 390.113 0.570274 388.921 0.548218C387.608 0.523711 386.522 1.58485 386.498 2.91371C386.483 3.72243 386.869 4.44292 387.466 4.89139L379.678 18.5605C379.322 18.3871 378.926 18.2842 378.506 18.2756C376.986 18.2474 375.724 19.4409 375.625 20.9603L360.059 20.9664C359.892 19.7307 358.864 18.7645 357.596 18.7406C356.195 18.7155 355.034 19.8483 355.009 21.2672C354.994 22.1219 355.399 22.8822 356.024 23.3632L348.423 36.7033C348.04 36.5293 347.617 36.4288 347.173 36.4208C345.517 36.3896 344.128 37.6468 343.939 39.2789L329.016 39.2838C328.847 37.8869 327.683 36.7878 326.255 36.7615C325.861 36.7541 325.484 36.8289 325.142 36.9704L324.704 37.1983C323.916 37.6964 323.383 38.575 323.365 39.5834C323.347 40.5827 323.838 41.4722 324.593 42.001L316.767 55.7381C316.521 55.6364 316.255 55.5721 315.975 55.5678C314.813 55.5463 313.851 56.4433 313.742 57.5963L313.748 58.0944C313.885 59.1788 314.785 60.0304 315.895 60.0506C316.192 60.0568 316.477 59.9998 316.738 59.8968L324.728 73.9011C324.006 74.4102 323.524 75.2489 323.505 76.2065C323.488 77.1709 323.946 78.0316 324.657 78.5665L316.995 92.0138C316.712 91.8968 316.405 91.8233 316.081 91.8166C314.724 91.7914 313.602 92.8575 313.509 94.2139L297.149 94.2194C297.031 93.1822 296.177 92.3624 295.12 92.3428C294.819 92.3373 294.532 92.4004 294.272 92.5125L286.117 78.2173C286.738 77.7578 287.154 77.0287 287.169 76.1912C287.195 74.7723 286.076 73.5972 284.675 73.5709C283.335 73.5464 282.226 74.5848 282.108 75.9161L265.922 75.921C265.781 74.912 264.937 74.1204 263.897 74.1008C262.745 74.08 261.79 75.0125 261.769 76.179C261.757 76.8541 262.065 77.4539 262.544 77.8509L254.131 92.6149C253.928 92.5432 253.714 92.4923 253.488 92.4886C252.448 92.4697 251.576 93.2287 251.399 94.2335L235.298 94.239C235.08 92.8961 233.941 91.8564 232.55 91.83C230.986 91.8012 229.689 93.0676 229.661 94.6513C229.644 95.5826 230.071 96.417 230.741 96.9556L223.267 110.073C222.925 109.916 222.547 109.825 222.15 109.817C220.614 109.789 219.34 111.008 219.266 112.553L203.338 112.557C203.161 111.519 202.277 110.715 201.199 110.696C200.91 110.69 200.636 110.746 200.382 110.843L192.664 97.3164C193.453 96.7393 193.977 95.8105 193.996 94.7518C194.028 92.9665 192.62 91.4876 190.857 91.4545C189.22 91.4245 187.847 92.651 187.632 94.2531L172.811 94.2593C172.616 92.8918 171.466 91.8245 170.058 91.7982C168.493 91.77 167.196 93.0364 167.168 94.6195C167.152 95.5477 167.575 96.3791 168.24 96.9176L160.295 110.862C160.045 110.748 159.769 110.683 159.48 110.677C158.391 110.657 157.489 111.49 157.374 112.565L141.267 112.571C141.127 111.143 139.947 110.011 138.495 109.984C138.041 109.975 137.609 110.078 137.224 110.266L129.61 97.0309C130.354 96.5255 130.851 95.672 130.869 94.6979C130.897 93.1129 129.648 91.8006 128.083 91.7712C126.59 91.7443 125.346 92.8948 125.208 94.3756L109.211 94.4394C109.089 93.407 108.238 92.5903 107.182 92.5701C106.844 92.564 106.527 92.6479 106.242 92.7864L98.4072 79.1675C99.2361 78.5947 99.7896 77.642 99.8084 76.5515C99.8284 75.4193 99.2681 74.412 98.4066 73.8165L106.164 60.0825C106.386 60.1695 106.622 60.224 106.873 60.2289C108.025 60.2503 108.98 59.3185 109.001 58.1508C109.023 56.9842 108.101 56.0168 106.948 55.9954C106.647 55.9893 106.36 56.0542 106.098 56.1663L97.7725 41.6952C98.3182 41.2952 98.6843 40.6574 98.6976 39.924C98.7188 38.6883 97.7435 37.6645 96.5237 37.6419C95.3657 37.6204 94.4061 38.5112 94.2924 39.6594L78.4141 39.7219C78.2205 38.3526 77.0692 37.2835 75.6582 37.2571C74.093 37.2277 72.7971 38.4935 72.7693 40.0784C72.7523 41.0372 73.2061 41.8956 73.9115 42.4311L66.0232 56.3967C65.7897 56.3011 65.5398 56.2405 65.2748 56.2362C64.1222 56.2141 63.1675 57.1466 63.1457 58.3143C63.1252 59.4821 64.0448 60.4482 65.1986 60.4697C65.5035 60.4752 65.7927 60.4109 66.0565 60.2963L74.0235 74.1517C73.3289 74.6645 72.8691 75.4848 72.8527 76.4204C72.8352 77.4362 73.3422 78.3374 74.1203 78.863L66.5417 92.2785C66.218 92.14 65.8665 92.0592 65.4944 92.0518C64.0012 92.0249 62.7561 93.1767 62.62 94.6599L47.2348 94.7212C47.1023 93.2839 45.9195 92.1425 44.462 92.1161C44.0221 92.1076 43.6065 92.205 43.2313 92.379L35.3751 78.7246C35.9233 78.2816 36.2869 77.615 36.3008 76.8517C36.3244 75.4964 35.2547 74.3722 33.917 74.3477C32.6567 74.3244 31.6124 75.2863 31.4715 76.53L15.1812 76.5944C15.0166 75.611 14.1817 74.8489 13.1598 74.8305C12.0072 74.8097 11.0525 75.7415 11.0307 76.9086C11.0186 77.5905 11.3332 78.1965 11.8209 78.5935L3.8999 92.6136C3.5871 92.485 3.24708 92.409 2.88951 92.4023C1.32552 92.3735 0.0283475 93.6386 0.000516396 95.2236C-0.0291298 96.8079 1.22146 98.1202 2.78484 98.1496ZM13.2167 114.949C12.3358 114.934 11.6315 114.193 11.6472 113.301C11.663 112.409 12.3932 111.695 13.2742 111.712C14.1563 111.727 14.8593 112.468 14.8442 113.36C14.8279 114.253 14.0988 114.966 13.2167 114.949ZM34.0422 115.695C32.7487 115.672 31.7159 114.586 31.7389 113.276C31.7625 111.966 32.8346 110.92 34.1263 110.944C35.4217 110.968 36.4545 112.054 36.4303 113.363C36.4073 114.673 35.3358 115.719 34.0422 115.695ZM44.6283 133.495C43.6065 133.476 42.7885 132.619 42.8078 131.584C42.826 130.548 43.6736 129.722 44.6961 129.74C45.7174 129.759 46.5342 130.617 46.516 131.652C46.4973 132.687 45.6496 133.514 44.6283 133.495ZM67.7361 131.516C67.7125 132.826 66.6403 133.873 65.3468 133.849C64.0539 133.826 63.0199 132.739 63.0435 131.43C63.0665 130.12 64.1398 129.074 65.4321 129.098C66.7269 129.122 67.759 130.207 67.7361 131.516ZM75.8089 115.158C74.741 115.139 73.8885 114.243 73.9073 113.162C73.9273 112.08 74.8118 111.217 75.8797 111.237C76.9469 111.256 77.7994 112.151 77.7801 113.233C77.7607 114.315 76.8762 115.179 75.8089 115.158ZM96.6835 115.141C95.6144 115.122 94.7619 114.226 94.7819 113.145C94.8012 112.064 95.6858 111.2 96.7542 111.22C97.8215 111.239 98.674 112.135 98.6546 113.216C98.6341 114.298 97.7495 115.161 96.6835 115.141ZM107.133 132.832C106.253 132.816 105.549 132.077 105.565 131.184C105.58 130.292 106.311 129.579 107.192 129.595C108.074 129.611 108.778 130.351 108.762 131.243C108.745 132.135 108.016 132.848 107.133 132.832ZM128.082 133.218C127.014 133.199 126.161 132.304 126.18 131.223C126.2 130.141 127.085 129.277 128.153 129.297C129.22 129.317 130.073 130.213 130.053 131.295C130.034 132.375 129.15 133.238 128.082 133.218ZM136.973 149.547C136.988 148.654 137.719 147.941 138.6 147.958C139.483 147.974 140.186 148.713 140.17 149.606C140.154 150.499 139.425 151.212 138.542 151.196C137.661 151.18 136.957 150.44 136.973 149.547ZM128.214 169.626C127.145 169.606 126.293 168.711 126.312 167.629C126.331 166.548 127.215 165.685 128.284 165.704C129.351 165.724 130.204 166.619 130.184 167.7C130.165 168.782 129.281 169.646 128.214 169.626ZM138.684 188.368C137.39 188.344 136.357 187.258 136.38 185.949C136.404 184.639 137.475 183.592 138.769 183.616C140.063 183.64 141.095 184.726 141.072 186.035C141.049 187.345 139.977 188.392 138.684 188.368ZM141.555 185.765C141.443 184.309 140.251 183.146 138.778 183.119C138.302 183.11 137.853 183.222 137.454 183.425L129.618 169.69C130.242 169.255 130.662 168.535 130.677 167.709C130.691 166.868 130.286 166.118 129.655 165.663L137.719 151.509C137.968 151.623 138.244 151.688 138.534 151.694C139.663 151.714 140.596 150.819 140.654 149.686L157.075 149.681C157.217 150.881 158.206 151.827 159.432 151.85C159.814 151.856 160.172 151.765 160.498 151.611L168.758 166.087C168.269 166.466 167.943 167.052 167.931 167.722C167.919 168.392 168.223 168.988 168.698 169.386L160.442 183.876C160.162 183.756 159.858 183.683 159.536 183.677C158.31 183.655 157.286 184.564 157.104 185.76L141.555 185.765ZM169.857 133.861C171.31 133.888 172.529 132.798 172.719 131.374L188.066 131.369C188.19 132.814 189.377 133.965 190.841 133.992C191.242 134 191.626 133.921 191.975 133.774L199.748 147.395C199.156 147.834 198.761 148.53 198.746 149.327C198.732 150.168 199.138 150.919 199.769 151.375L191.919 165.153C191.611 165.03 191.28 164.957 190.931 164.95C189.461 164.923 188.229 166.038 188.061 167.487L172.086 167.492C171.956 166.468 171.108 165.664 170.059 165.644C169.744 165.638 169.446 165.709 169.176 165.83L160.918 151.356C161.5 150.916 161.889 150.227 161.903 149.436C161.918 148.59 161.507 147.835 160.871 147.38L168.724 133.597C169.07 133.759 169.452 133.853 169.857 133.861ZM167.563 130.944C167.586 129.634 168.658 128.587 169.952 128.611C171.244 128.635 172.278 129.72 172.255 131.03C172.232 132.34 171.159 133.386 169.867 133.362C168.572 133.339 167.54 132.254 167.563 130.944ZM188.547 131.075C188.571 129.765 189.642 128.718 190.936 128.742C192.229 128.766 193.264 129.851 193.239 131.161C193.216 132.471 192.143 133.518 190.851 133.494C189.557 133.47 188.523 132.385 188.547 131.075ZM201.21 147.412C202.277 147.431 203.13 148.327 203.111 149.408C203.092 150.489 202.207 151.353 201.14 151.333C200.071 151.313 199.218 150.418 199.238 149.336C199.258 148.255 200.142 147.392 201.21 147.412ZM193.225 167.868C193.202 169.177 192.13 170.224 190.837 170.2C189.542 170.176 188.51 169.09 188.534 167.781C188.557 166.471 189.628 165.424 190.923 165.449C192.215 165.472 193.249 166.558 193.225 167.868ZM171.619 167.791C171.603 168.684 170.873 169.397 169.992 169.381C169.11 169.365 168.407 168.625 168.422 167.732C168.438 166.84 169.168 166.127 170.05 166.143C170.931 166.159 171.636 166.898 171.619 167.791ZM161.411 149.428C161.392 150.508 160.508 151.372 159.44 151.352C158.372 151.332 157.519 150.437 157.539 149.356C157.558 148.275 158.442 147.411 159.51 147.431C160.578 147.45 161.431 148.346 161.411 149.428ZM159.456 188.098C158.387 188.078 157.534 187.182 157.554 186.101C157.573 185.02 158.457 184.156 159.526 184.175C160.593 184.195 161.446 185.091 161.427 186.172C161.407 187.253 160.523 188.117 159.456 188.098ZM169.967 206.642C168.673 206.619 167.641 205.533 167.664 204.224C167.687 202.914 168.759 201.867 170.052 201.891C171.346 201.915 172.38 203.001 172.356 204.31C172.333 205.62 171.26 206.667 169.967 206.642ZM192.476 204.401C192.461 205.294 191.73 206.006 190.849 205.991C189.969 205.975 189.263 205.235 189.279 204.342C189.295 203.45 190.027 202.736 190.907 202.752C191.788 202.769 192.492 203.509 192.476 204.401ZM191.631 202.405C191.408 202.317 191.169 202.259 190.915 202.255C189.841 202.235 188.948 203.047 188.814 204.104L172.84 204.109C172.76 202.621 171.556 201.421 170.061 201.394C169.572 201.385 169.11 201.502 168.704 201.716L160.935 188.1C161.515 187.66 161.904 186.97 161.917 186.181C161.932 185.334 161.52 184.578 160.883 184.124L169.12 169.666C169.382 169.794 169.673 169.872 169.982 169.878C171.069 169.899 171.972 169.066 172.087 167.991L188.048 167.986C188.129 169.472 189.333 170.671 190.828 170.698C191.245 170.706 191.643 170.618 192.003 170.46L199.645 183.854C198.954 184.367 198.498 185.186 198.481 186.118C198.464 187.06 198.901 187.904 199.585 188.441L191.631 202.405ZM201.277 188.546C199.983 188.522 198.95 187.437 198.974 186.127C198.997 184.818 200.068 183.771 201.361 183.795C202.655 183.819 203.689 184.904 203.665 186.213C203.642 187.524 202.569 188.57 201.277 188.546ZM222.065 188.1C220.997 188.081 220.144 187.184 220.164 186.103C220.183 185.022 221.067 184.158 222.135 184.178C223.203 184.198 224.055 185.093 224.036 186.174C224.016 187.256 223.132 188.119 222.065 188.1ZM232.449 206.113C231.381 206.093 230.529 205.198 230.548 204.116C230.568 203.035 231.451 202.171 232.519 202.191C233.588 202.211 234.44 203.107 234.421 204.188C234.402 205.269 233.518 206.133 232.449 206.113ZM253.292 205.814C252.41 205.798 251.707 205.059 251.723 204.165C251.738 203.272 252.469 202.559 253.35 202.575C254.231 202.591 254.936 203.331 254.92 204.223C254.903 205.117 254.173 205.829 253.292 205.814ZM263.748 224.502C262.68 224.482 261.829 223.587 261.847 222.506C261.867 221.425 262.751 220.561 263.818 220.58C264.887 220.599 265.74 221.496 265.719 222.577C265.7 223.658 264.816 224.521 263.748 224.502ZM286.311 222.708C286.294 223.651 285.521 224.405 284.589 224.388C283.657 224.37 282.913 223.589 282.93 222.645C282.947 221.701 283.718 220.947 284.651 220.965C285.582 220.982 286.328 221.764 286.311 222.708ZM294.93 202.347C296.06 202.368 296.962 203.316 296.942 204.46C296.921 205.604 295.985 206.517 294.855 206.497C293.725 206.476 292.823 205.529 292.843 204.384C292.863 203.24 293.8 202.327 294.93 202.347ZM284.623 184.305C285.504 184.321 286.209 185.06 286.193 185.952C286.177 186.845 285.446 187.558 284.565 187.542C283.684 187.526 282.98 186.787 282.996 185.893C283.011 185.001 283.741 184.288 284.623 184.305ZM282.534 186.264C282.693 187.253 283.53 188.021 284.555 188.04C284.85 188.045 285.132 187.986 285.389 187.878L293.577 202.228C292.858 202.672 292.367 203.462 292.351 204.375C292.335 205.285 292.793 206.091 293.491 206.562L285.468 220.644C285.218 220.536 284.947 220.471 284.659 220.466C283.543 220.446 282.614 221.286 282.467 222.381L266.195 222.386C266.116 221.122 265.098 220.105 263.827 220.082C263.429 220.074 263.055 220.175 262.72 220.343L254.5 205.937C255.038 205.562 255.399 204.943 255.412 204.233C255.424 203.556 255.113 202.954 254.632 202.557L262.622 188.533C262.962 188.688 263.338 188.778 263.735 188.786C265.197 188.813 266.426 187.707 266.603 186.268L282.534 186.264ZM263.829 183.538C265.123 183.561 266.156 184.647 266.133 185.956C266.109 187.266 265.036 188.313 263.744 188.288C262.45 188.265 261.417 187.179 261.441 185.87C261.464 184.56 262.536 183.513 263.829 183.538ZM253.3 166.226C254.18 166.242 254.884 166.981 254.868 167.874C254.852 168.766 254.122 169.479 253.241 169.464C252.36 169.447 251.654 168.708 251.671 167.816C251.688 166.923 252.418 166.209 253.3 166.226ZM234.406 167.971L251.193 167.965C251.255 169.058 252.133 169.941 253.232 169.962C253.578 169.968 253.902 169.88 254.193 169.733L262.106 183.602C261.419 184.115 260.965 184.931 260.949 185.86C260.931 186.854 261.416 187.74 262.167 188.272L254.19 202.272C253.937 202.154 253.656 202.083 253.36 202.079C252.232 202.058 251.299 202.952 251.239 204.085L234.904 204.09C234.87 202.783 233.832 201.718 232.528 201.695C232.118 201.687 231.734 201.793 231.393 201.969L223.501 188.138C224.108 187.701 224.514 186.994 224.528 186.184C224.543 185.315 224.106 184.546 223.441 184.096L231.585 169.804C231.805 169.889 232.04 169.946 232.289 169.95C233.408 169.97 234.332 169.09 234.406 167.971ZM232.357 166.213C233.238 166.229 233.942 166.969 233.927 167.862C233.91 168.754 233.18 169.467 232.299 169.451C231.417 169.435 230.713 168.696 230.73 167.803C230.745 166.91 231.475 166.197 232.357 166.213ZM231.238 166.031C230.65 166.397 230.251 167.045 230.237 167.793C230.223 168.519 230.575 169.166 231.119 169.558L222.974 183.854C222.716 183.752 222.438 183.686 222.144 183.68C220.91 183.657 219.882 184.58 219.708 185.786L204.13 185.79C203.947 184.407 202.791 183.324 201.371 183.298C200.921 183.289 200.495 183.391 200.114 183.573L192.479 170.194C193.211 169.686 193.7 168.842 193.718 167.877C193.737 166.823 193.189 165.892 192.359 165.377L200.197 151.623C200.483 151.751 200.799 151.826 201.131 151.832C202.382 151.855 203.422 150.905 203.574 149.673L220.013 149.668C220.136 150.701 220.987 151.514 222.043 151.533C222.336 151.539 222.617 151.481 222.874 151.374L231.238 166.031ZM223.679 149.445C223.664 150.337 222.934 151.051 222.052 151.035C221.171 151.019 220.467 150.279 220.482 149.387C220.498 148.493 221.228 147.78 222.109 147.796C222.991 147.812 223.695 148.552 223.679 149.445ZM232.346 132.994C231.396 132.977 230.639 132.181 230.655 131.22C230.672 130.259 231.459 129.491 232.408 129.508C233.357 129.525 234.115 130.322 234.097 131.283C234.081 132.244 233.296 133.011 232.346 132.994ZM254.943 131.067C254.928 131.961 254.198 132.673 253.316 132.657C252.436 132.641 251.731 131.902 251.746 131.009C251.763 130.116 252.493 129.403 253.374 129.419C254.255 129.436 254.959 130.175 254.943 131.067ZM263.565 115.179C262.271 115.155 261.237 114.07 261.261 112.76C261.285 111.449 262.356 110.404 263.65 110.427C264.943 110.451 265.977 111.536 265.954 112.846C265.929 114.157 264.858 115.203 263.565 115.179ZM284.665 114.968C283.535 114.947 282.634 113.999 282.654 112.854C282.674 111.71 283.609 110.796 284.739 110.817C285.869 110.838 286.772 111.786 286.751 112.93C286.731 114.075 285.795 114.989 284.665 114.968ZM293.425 130.969C293.441 130.076 294.171 129.363 295.053 129.379C295.934 129.395 296.638 130.134 296.622 131.028C296.607 131.92 295.876 132.633 294.995 132.617C294.113 132.601 293.41 131.861 293.425 130.969ZM284.755 150.988C283.874 150.972 283.169 150.232 283.185 149.339C283.201 148.447 283.933 147.734 284.813 147.75C285.694 147.766 286.399 148.506 286.382 149.398C286.367 150.291 285.636 151.003 284.755 150.988ZM295.071 169.933C293.777 169.91 292.744 168.825 292.768 167.515C292.791 166.205 293.863 165.158 295.156 165.183C296.45 165.206 297.484 166.292 297.46 167.601C297.436 168.911 296.365 169.957 295.071 169.933ZM317.518 167.722C317.502 168.614 316.771 169.328 315.891 169.312C315.008 169.295 314.305 168.556 314.321 167.664C314.337 166.771 315.066 166.058 315.949 166.074C316.829 166.09 317.533 166.829 317.518 167.722ZM326.424 147.313C327.555 147.334 328.456 148.281 328.436 149.426C328.415 150.57 327.48 151.484 326.35 151.463C325.22 151.442 324.318 150.494 324.338 149.35C324.358 148.206 325.294 147.292 326.424 147.313ZM324.923 147.296C324.287 147.753 323.861 148.493 323.846 149.341C323.831 150.222 324.257 151.008 324.918 151.484L316.782 165.766C316.529 165.649 316.251 165.581 315.958 165.576C314.874 165.555 313.977 166.38 313.853 167.449L297.947 167.453C297.893 165.94 296.679 164.712 295.166 164.684C294.685 164.675 294.23 164.79 293.83 164.997L285.925 151.143C286.486 150.772 286.862 150.135 286.875 149.407C286.888 148.661 286.516 148.001 285.946 147.613L294.288 132.972C294.507 133.055 294.739 133.111 294.986 133.116C296.038 133.135 296.916 132.358 297.079 131.335L313.216 131.33C313.373 132.743 314.543 133.857 315.983 133.884C316.394 133.892 316.784 133.808 317.14 133.655L324.923 147.296ZM318.381 131.054C318.357 132.364 317.286 133.41 315.993 133.386C314.699 133.362 313.666 132.277 313.689 130.968C313.713 129.658 314.785 128.611 316.077 128.635C317.371 128.658 318.404 129.744 318.381 131.054ZM326.4 114.43C325.52 114.413 324.815 113.675 324.831 112.782C324.847 111.889 325.578 111.175 326.459 111.191C327.341 111.208 328.044 111.947 328.028 112.841C328.012 113.733 327.283 114.446 326.4 114.43ZM347.265 114.815C346.135 114.794 345.233 113.845 345.254 112.702C345.274 111.557 346.21 110.644 347.34 110.664C348.47 110.685 349.373 111.633 349.352 112.778C349.331 113.921 348.395 114.836 347.265 114.815ZM357.733 133.025C356.603 133.004 355.701 132.056 355.721 130.912C355.742 129.768 356.677 128.854 357.807 128.875C358.937 128.896 359.84 129.843 359.819 130.988C359.8 132.132 358.863 133.046 357.733 133.025ZM378.502 133.408C377.208 133.384 376.175 132.299 376.199 130.989C376.222 129.679 377.294 128.633 378.587 128.657C379.88 128.68 380.914 129.765 380.89 131.075C380.867 132.385 379.795 133.432 378.502 133.408ZM387.412 149.316C387.427 148.424 388.158 147.711 389.039 147.726C389.921 147.742 390.625 148.482 390.609 149.374C390.593 150.268 389.863 150.98 388.981 150.964C388.1 150.948 387.396 150.209 387.412 149.316ZM378.56 170.122C377.266 170.098 376.233 169.013 376.256 167.703C376.28 166.393 377.351 165.347 378.645 165.371C379.938 165.395 380.972 166.481 380.948 167.79C380.925 169.1 379.854 170.145 378.56 170.122ZM389.019 187.973C387.888 187.953 386.986 187.005 387.006 185.861C387.027 184.716 387.963 183.803 389.092 183.823C390.223 183.844 391.125 184.792 391.105 185.936C391.084 187.081 390.148 187.994 389.019 187.973ZM411.875 185.987C411.854 187.131 410.918 188.045 409.789 188.024C408.658 188.003 407.756 187.056 407.776 185.912C407.797 184.767 408.733 183.854 409.863 183.875C410.993 183.895 411.895 184.842 411.875 185.987ZM420.194 166.137C421.075 166.153 421.779 166.893 421.763 167.786C421.747 168.678 421.017 169.391 420.136 169.375C419.254 169.359 418.55 168.619 418.566 167.727C418.582 166.834 419.312 166.121 420.194 166.137ZM419.015 165.99C418.459 166.362 418.086 166.994 418.073 167.718C418.06 168.424 418.396 169.053 418.916 169.448L410.855 183.596C410.553 183.46 410.221 183.382 409.87 183.376C408.529 183.351 407.419 184.393 407.304 185.727L391.579 185.732C391.493 184.412 390.43 183.349 389.101 183.324C388.66 183.316 388.249 183.434 387.884 183.627L380.183 170.13C380.926 169.623 381.422 168.772 381.44 167.799C381.458 166.763 380.928 165.845 380.123 165.324L388.133 151.264C388.389 151.385 388.672 151.457 388.971 151.462C390.047 151.482 390.94 150.67 391.074 149.613L406.645 149.608C406.792 151.228 408.127 152.515 409.769 152.546C410.27 152.555 410.744 152.443 411.17 152.242L419.015 165.99ZM412.534 149.358C412.507 150.869 411.271 152.075 409.779 152.048C408.287 152.02 407.096 150.769 407.123 149.258C407.151 147.748 408.386 146.541 409.877 146.569C411.369 146.597 412.561 147.848 412.534 149.358ZM420.152 132.663C419.27 132.647 418.566 131.907 418.582 131.015C418.598 130.121 419.328 129.408 420.209 129.424C421.092 129.441 421.796 130.18 421.78 131.073C421.764 131.966 421.034 132.679 420.152 132.663ZM443.122 131.072C443.101 132.217 442.165 133.131 441.035 133.11C439.905 133.089 439.003 132.141 439.023 130.997C439.044 129.853 439.98 128.939 441.109 128.96C442.24 128.981 443.142 129.928 443.122 131.072ZM451.441 115.366C449.949 115.339 448.757 114.086 448.784 112.577C448.811 111.065 450.047 109.859 451.539 109.887C453.031 109.914 454.222 111.165 454.196 112.676C454.168 114.186 452.932 115.394 451.441 115.366ZM472.551 114.467C471.603 114.451 470.845 113.654 470.862 112.693C470.878 111.732 471.665 110.964 472.614 110.981C473.564 110.998 474.322 111.795 474.305 112.756C474.287 113.717 473.501 114.486 472.551 114.467ZM482.555 133.959C481.062 133.932 479.871 132.681 479.898 131.17C479.925 129.659 481.161 128.453 482.653 128.48C484.145 128.508 485.336 129.759 485.309 131.269C485.282 132.78 484.046 133.987 482.555 133.959ZM505.733 130.982C505.713 132.125 504.777 133.04 503.647 133.019C502.517 132.999 501.614 132.05 501.635 130.906C501.655 129.761 502.591 128.848 503.721 128.869C504.852 128.889 505.754 129.837 505.733 130.982ZM514.048 115.524C512.556 115.497 511.365 114.246 511.392 112.735C511.419 111.224 512.655 110.018 514.146 110.045C515.638 110.072 516.829 111.324 516.802 112.835C516.775 114.345 515.54 115.552 514.048 115.524ZM534.919 115.43C533.428 115.402 532.236 114.151 532.263 112.64C532.29 111.13 533.526 109.923 535.018 109.95C536.51 109.978 537.701 111.229 537.674 112.74C537.647 114.25 536.411 115.457 534.919 115.43ZM545.343 132.543C544.462 132.527 543.757 131.787 543.774 130.895C543.789 130.002 544.519 129.289 545.401 129.305C546.283 129.321 546.987 130.061 546.971 130.953C546.955 131.847 546.225 132.56 545.343 132.543ZM566.36 133.761C564.869 133.734 563.677 132.483 563.704 130.972C563.732 129.461 564.967 128.255 566.459 128.282C567.95 128.31 569.142 129.56 569.115 131.072C569.088 132.582 567.852 133.788 566.36 133.761ZM576.639 150.724C575.757 150.708 575.052 149.969 575.069 149.076C575.084 148.183 575.815 147.471 576.697 147.487C577.578 147.503 578.282 148.242 578.266 149.135C578.25 150.027 577.52 150.74 576.639 150.724ZM600.216 149.208C600.189 150.718 598.954 151.925 597.462 151.897C595.97 151.87 594.778 150.619 594.806 149.108C594.833 147.597 596.069 146.391 597.56 146.418C599.052 146.446 600.244 147.698 600.216 149.208ZM607.937 129.46C608.818 129.476 609.522 130.216 609.506 131.108C609.49 132.002 608.761 132.715 607.878 132.699C606.996 132.683 606.293 131.943 606.308 131.05C606.325 130.158 607.054 129.444 607.937 129.46ZM597.626 109.984C599.118 110.012 600.31 111.263 600.283 112.774C600.255 114.285 599.02 115.491 597.528 115.463C596.036 115.436 594.845 114.185 594.872 112.674C594.899 111.163 596.136 109.957 597.626 109.984ZM578.72 112.937L594.389 112.933C594.494 114.595 595.845 115.93 597.519 115.96C598.031 115.97 598.516 115.853 598.95 115.643L606.752 129.317C606.201 129.69 605.83 130.319 605.817 131.04C605.804 131.756 606.147 132.394 606.679 132.788L598.986 146.29C598.561 146.064 598.081 145.93 597.569 145.92C595.822 145.888 594.375 147.288 594.317 149.05L578.75 149.055C578.724 147.928 577.828 147.008 576.705 146.988C576.366 146.981 576.05 147.065 575.764 147.205L568.097 133.767C568.984 133.205 569.585 132.216 569.605 131.08C569.626 129.894 569.01 128.845 568.078 128.263L575.801 114.71C576.048 114.821 576.319 114.884 576.606 114.889C577.717 114.911 578.635 114.045 578.72 112.937ZM576.674 111.155C577.555 111.171 578.26 111.91 578.244 112.803C578.228 113.695 577.498 114.408 576.616 114.393C575.735 114.376 575.03 113.637 575.046 112.744C575.061 111.851 575.792 111.139 576.674 111.155ZM566.307 92.5493C567.347 92.5683 568.177 93.4413 568.159 94.4939C568.139 95.5471 567.278 96.3883 566.239 96.3693C565.199 96.3497 564.368 95.4784 564.387 94.4247C564.406 93.3715 565.267 92.5303 566.307 92.5493ZM547.468 94.6391L563.913 94.6342C564.001 95.8601 564.992 96.8441 566.229 96.8667C566.589 96.8735 566.927 96.7932 567.235 96.6529L575.447 111.046C574.92 111.421 574.566 112.033 574.554 112.735C574.541 113.433 574.87 114.055 575.38 114.451L567.64 128.036C567.278 127.882 566.883 127.792 566.467 127.784C564.773 127.753 563.364 129.068 563.226 130.753L547.446 130.759C547.362 129.686 546.494 128.827 545.41 128.807C545.085 128.801 544.779 128.878 544.501 129.008L536.731 115.389C537.578 114.82 538.145 113.854 538.165 112.749C538.185 111.616 537.624 110.609 536.761 110.013L544.57 96.3061C544.815 96.414 545.084 96.4777 545.366 96.4826C546.44 96.5028 547.331 95.6929 547.468 94.6391ZM545.434 92.746C546.316 92.7619 547.02 93.5014 547.004 94.394C546.988 95.2873 546.258 96.0004 545.376 95.9851C544.495 95.9686 543.791 95.2291 543.806 94.3358C543.822 93.4432 544.552 92.73 545.434 92.746ZM537.697 76.0993C537.67 77.6101 536.434 78.8165 534.942 78.7895C533.45 78.762 532.258 77.5103 532.285 75.9995C532.313 74.4892 533.549 73.2823 535.04 73.3099C536.532 73.3381 537.724 74.5897 537.697 76.0993ZM545.252 59.528C544.37 59.5121 543.667 58.7726 543.682 57.8793C543.698 56.9867 544.428 56.2736 545.31 56.2901C546.191 56.306 546.896 57.0455 546.879 57.9382C546.864 58.832 546.134 59.5452 545.252 59.528ZM568.081 57.7691C568.062 58.8222 567.2 59.6634 566.16 59.6438C565.121 59.6248 564.29 58.7524 564.309 57.6992C564.328 56.6461 565.189 55.8049 566.229 55.8239C567.269 55.8447 568.1 56.7165 568.081 57.7691ZM576.474 41.0464C575.593 41.0305 574.888 40.2916 574.904 39.3984C574.92 38.5063 575.651 37.7932 576.532 37.8085C577.414 37.8244 578.118 38.5645 578.102 39.4566C578.086 40.3505 577.356 41.0624 576.474 41.0464ZM599.469 39.3947C599.449 40.5398 598.513 41.4533 597.383 41.4324C596.253 41.4116 595.351 40.4644 595.371 39.3193C595.392 38.1749 596.327 37.2608 597.458 37.2816C598.587 37.3031 599.49 38.2509 599.469 39.3947ZM607.817 19.5781C608.698 19.5941 609.403 20.3323 609.386 21.225C609.37 22.117 608.64 22.8314 607.759 22.8148C606.878 22.7989 606.173 22.0582 606.189 21.1668C606.205 20.2735 606.935 19.5616 607.817 19.5781ZM597.545 1.20255C598.427 1.21786 599.131 1.95918 599.115 2.85122C599.099 3.74387 598.369 4.45639 597.488 4.44046C596.606 4.42453 595.902 3.68505 595.918 2.79301C595.933 1.90037 596.664 1.186 597.545 1.20255ZM574.501 2.85428C574.522 1.70922 575.458 0.795736 576.588 0.816566C577.718 0.836784 578.62 1.78518 578.599 2.93025C578.579 4.07348 577.643 4.98756 576.513 4.96673C575.383 4.94652 574.481 3.99813 574.501 2.85428ZM575.497 5.23079C575.805 5.37354 576.144 5.45749 576.504 5.46484C577.854 5.48996 578.97 4.43495 579.073 3.08831L595.45 3.08342C595.576 4.11085 596.426 4.91957 597.477 4.93917C597.763 4.94408 598.035 4.89077 598.285 4.79029L606.638 19.4293C606.083 19.8018 605.71 20.4346 605.697 21.1576C605.684 21.8879 606.04 22.5404 606.592 22.9312L598.543 37.058C598.216 36.8932 597.854 36.7915 597.467 36.7841C596.102 36.759 594.974 37.8361 594.893 39.2023L578.572 39.2072C578.463 38.1608 577.606 37.33 576.541 37.311C576.269 37.3055 576.008 37.3582 575.767 37.4501L567.417 22.8154C567.896 22.4362 568.214 21.8566 568.226 21.1943C568.239 20.4904 567.905 19.8624 567.387 19.4678L575.497 5.23079ZM566.164 19.5365C567.046 19.5524 567.75 20.2919 567.734 21.1839C567.718 22.0778 566.988 22.7903 566.106 22.7744C565.225 22.7585 564.521 22.0184 564.536 21.1257C564.552 20.2337 565.283 19.5211 566.164 19.5365ZM543.665 21.1962C543.681 20.3041 544.411 19.5904 545.293 19.6063C546.174 19.6229 546.878 20.3623 546.863 21.255C546.847 22.1482 546.117 22.8608 545.235 22.8442C544.353 22.8283 543.65 22.0894 543.665 21.1962ZM544.444 23.1708C544.685 23.2762 544.948 23.3387 545.226 23.3436C546.33 23.3638 547.244 22.506 547.338 21.4081L564.067 21.402C564.188 22.4368 565.041 23.2529 566.097 23.2731C566.406 23.278 566.699 23.2112 566.965 23.093L575.302 37.7044C574.776 38.0787 574.424 38.6895 574.412 39.3892C574.398 40.1409 574.778 40.8044 575.355 41.191L567.178 55.5445C566.89 55.4115 566.573 55.3331 566.238 55.3276C564.985 55.3043 563.948 56.276 563.837 57.5203L547.336 57.5264C547.16 56.5572 546.329 55.8116 545.318 55.7932C545.066 55.7883 544.826 55.8367 544.601 55.9152L536.376 41.4992C536.972 41.0385 537.371 40.3247 537.385 39.508C537.4 38.6411 536.985 37.8673 536.343 37.3888L544.444 23.1708ZM534.882 37.3852C536.012 37.4054 536.914 38.3538 536.894 39.4982C536.873 40.6427 535.937 41.5562 534.808 41.536C533.678 41.5151 532.776 40.5673 532.796 39.4223C532.817 38.2784 533.753 37.3643 534.882 37.3852ZM514.109 36.8252C515.601 36.8534 516.793 38.1038 516.766 39.6153C516.739 41.1255 515.503 42.3324 514.011 42.3055C512.519 42.2773 511.327 41.0262 511.355 39.516C511.382 38.0046 512.618 36.7982 514.109 36.8252ZM503.655 19.651C504.537 19.6664 505.241 20.4052 505.225 21.2985C505.21 22.1911 504.48 22.9049 503.598 22.889C502.716 22.8724 502.012 22.1329 502.028 21.2403C502.043 20.3458 502.774 19.6339 503.655 19.651ZM480.771 21.149C480.791 20.0052 481.727 19.0911 482.857 19.1113C483.986 19.1321 484.889 20.0799 484.868 21.2244C484.848 22.3682 483.912 23.2817 482.782 23.2608C481.652 23.2406 480.75 22.2928 480.771 21.149ZM472.434 41.0783C471.552 41.0618 470.848 40.3223 470.863 39.429C470.879 38.537 471.609 37.8238 472.491 37.8404C473.373 37.8563 474.077 38.5958 474.061 39.4884C474.046 40.3811 473.316 41.0948 472.434 41.0783ZM482.808 59.4171C481.926 59.4006 481.223 58.6605 481.239 57.7672C481.254 56.8746 481.984 56.1614 482.866 56.178C483.747 56.1939 484.452 56.9334 484.436 57.826C484.42 58.7193 483.69 59.4324 482.808 59.4171ZM501.123 57.5399L484.904 57.5448C484.781 56.5125 483.93 55.6989 482.875 55.6799C482.552 55.6732 482.249 55.7485 481.974 55.8753L473.614 41.2229C474.169 40.8516 474.54 40.2187 474.553 39.497C474.566 38.7575 474.2 38.1014 473.639 37.7117L481.731 23.5065C482.048 23.6597 482.399 23.7522 482.773 23.7589C484.109 23.7841 485.213 22.7523 485.337 21.4259L501.551 21.4204C501.629 22.4999 502.499 23.3656 503.588 23.3858C503.919 23.392 504.231 23.3117 504.512 23.1769L512.314 36.8521C511.457 37.4201 510.883 38.393 510.863 39.505C510.843 40.617 511.382 41.6095 512.217 42.208L504.708 55.3883C504.399 55.2431 504.056 55.1567 503.693 55.1493C502.339 55.1254 501.22 56.1872 501.123 57.5399ZM503.61 59.8007C502.481 59.7798 501.579 58.8308 501.599 57.6864C501.619 56.5419 502.555 55.6284 503.685 55.6492C504.815 55.6701 505.718 56.6173 505.697 57.7617C505.676 58.9068 504.741 59.8215 503.61 59.8007ZM505.081 59.8423C505.735 59.3865 506.173 58.6341 506.188 57.7709C506.204 56.9089 505.793 56.1418 505.158 55.6627L512.671 42.477C513.075 42.6755 513.525 42.7944 514.002 42.8029C515.731 42.8348 517.165 41.4624 517.25 39.7255L532.328 39.7206C532.457 40.9968 533.501 42.0102 534.799 42.0341C535.197 42.0414 535.571 41.9464 535.911 41.7859L544.112 56.159C543.568 56.5327 543.203 57.1564 543.19 57.8708C543.178 58.5851 543.52 59.2211 544.049 59.615L536.352 73.1236C535.956 72.9337 535.515 72.8216 535.049 72.813C533.338 72.7811 531.915 74.1259 531.804 75.8383L516.134 75.8432C516.047 74.7741 515.18 73.9207 514.099 73.9011C513.783 73.8943 513.483 73.9666 513.211 74.0898L505.081 59.8423ZM512.462 75.9878C512.478 75.0952 513.208 74.382 514.089 74.398C514.971 74.4139 515.675 75.1534 515.659 76.046C515.644 76.9393 514.913 77.6524 514.032 77.6371C513.15 77.6206 512.445 76.8811 512.462 75.9878ZM513.271 77.9722C513.504 78.0696 513.756 78.1297 514.023 78.1346C515.079 78.1542 515.959 77.37 516.117 76.3413L531.807 76.337C531.948 77.963 533.285 79.257 534.934 79.2864C535.425 79.2956 535.89 79.189 536.31 78.9948L544.129 92.7C543.647 93.0786 543.327 93.6601 543.314 94.3254C543.301 95.0196 543.626 95.6359 544.129 96.0311L536.311 109.752C535.919 109.568 535.486 109.459 535.027 109.451C533.323 109.42 531.906 110.753 531.784 112.453L517.277 112.458C517.117 110.85 515.789 109.576 514.155 109.546C513.663 109.537 513.198 109.644 512.778 109.839L505.489 97.0634C506.289 96.4881 506.822 95.552 506.841 94.4835C506.861 93.3452 506.295 92.333 505.426 91.7406L513.271 77.9722ZM503.693 91.6867C505.185 91.7136 506.376 92.9647 506.349 94.4755C506.322 95.9863 505.087 97.1939 503.595 97.1657C502.103 97.1388 500.911 95.8871 500.939 94.3763C500.966 92.8654 502.201 91.6591 503.693 91.6867ZM485.34 94.6581L500.456 94.6532C500.57 96.3068 501.918 97.632 503.586 97.6632C504.099 97.673 504.584 97.5547 505.018 97.344L512.302 110.109C511.473 110.681 510.92 111.634 510.9 112.726C510.88 113.85 511.433 114.853 512.285 115.449L504.777 128.627C504.459 128.472 504.106 128.378 503.731 128.37C502.372 128.345 501.248 129.413 501.158 130.773L485.769 130.777C485.558 129.225 484.257 128.011 482.663 127.983C482.249 127.975 481.852 128.05 481.486 128.189L473.748 114.626C474.365 114.238 474.783 113.554 474.797 112.765C474.811 111.958 474.397 111.247 473.77 110.84L481.76 96.8165C482.068 96.9599 482.408 97.0444 482.768 97.0518C484.123 97.0769 485.244 96.0127 485.34 94.6581ZM482.851 92.4029C483.98 92.4237 484.883 93.3709 484.863 94.5166C484.842 95.6604 483.906 96.5739 482.776 96.5531C481.647 96.5328 480.744 95.5851 480.765 94.4412C480.785 93.2955 481.721 92.3821 482.851 92.4029ZM472.539 74.11C473.669 74.1308 474.572 75.0774 474.552 76.2219C474.531 77.3663 473.594 78.281 472.465 78.2602C471.335 78.2393 470.433 77.2909 470.453 76.1465C470.473 75.002 471.409 74.0892 472.539 74.11ZM448.828 76.0184C448.855 74.5076 450.09 73.3019 451.582 73.3295C453.074 73.3564 454.265 74.6069 454.238 76.1177C454.211 77.6291 452.975 78.8355 451.483 78.8079C449.992 78.7803 448.801 77.5287 448.828 76.0184ZM450.168 78.9929C450.565 79.1829 451.007 79.2974 451.474 79.306C453.159 79.3366 454.564 78.0347 454.713 76.3609L469.978 76.3554C470.066 77.6739 471.127 78.7344 472.455 78.7589C472.83 78.7662 473.184 78.6841 473.507 78.5426L481.388 92.3551C480.729 92.8091 480.288 93.5651 480.272 94.4326C480.256 95.2965 480.668 96.0666 481.308 96.5457L473.293 110.614C473.081 110.54 472.859 110.489 472.623 110.484C471.473 110.463 470.521 111.34 470.393 112.474L454.68 112.48C454.604 110.788 453.241 109.421 451.547 109.389C451.029 109.38 450.537 109.499 450.098 109.714L442.232 95.9257C442.735 95.5734 443.072 94.9926 443.083 94.3273C443.095 93.684 442.797 93.1111 442.335 92.738L450.168 78.9929ZM441.145 92.7962C441.958 92.8109 442.608 93.4934 442.594 94.3175C442.579 95.1409 441.904 95.7989 441.091 95.7842C440.278 95.7701 439.628 95.0863 439.642 94.2635C439.657 93.4389 440.331 92.7815 441.145 92.7962ZM418.42 94.4326C418.437 93.4714 419.224 92.7037 420.174 92.7208C421.122 92.7374 421.881 93.5345 421.864 94.4951C421.847 95.4564 421.06 96.2241 420.111 96.2069C419.162 96.1904 418.403 95.3939 418.42 94.4326ZM419.263 96.5194C419.522 96.6327 419.804 96.6995 420.102 96.705C421.264 96.7264 422.225 95.8307 422.335 94.6783L439.188 94.6734C439.362 95.5746 440.139 96.2651 441.082 96.2822C441.319 96.2865 441.545 96.2412 441.757 96.1671L449.642 109.989C448.843 110.564 448.312 111.5 448.293 112.567C448.272 113.713 448.848 114.731 449.728 115.323L442.114 128.688C441.809 128.549 441.473 128.467 441.119 128.461C439.784 128.436 438.679 129.468 438.554 130.792L422.248 130.797C422.129 129.762 421.276 128.946 420.219 128.926C419.931 128.921 419.655 128.975 419.403 129.078L411.411 115.072C412.13 114.562 412.609 113.726 412.627 112.771C412.644 111.767 412.149 110.874 411.386 110.346L419.263 96.5194ZM409.832 110.343C411.126 110.368 412.158 111.452 412.135 112.763C412.112 114.072 411.04 115.119 409.746 115.095C408.453 115.071 407.42 113.986 407.443 112.677C407.466 111.366 408.538 110.32 409.832 110.343ZM406.965 112.992C407.1 114.427 408.282 115.566 409.737 115.593C410.165 115.601 410.571 115.509 410.937 115.344L418.933 129.357C418.436 129.736 418.103 130.328 418.091 131.005C418.077 131.732 418.43 132.38 418.976 132.772L411.215 146.394C410.812 146.196 410.363 146.079 409.887 146.071C408.17 146.039 406.745 147.391 406.641 149.11L391.079 149.115C390.966 148.073 390.11 147.248 389.049 147.228C388.714 147.222 388.402 147.304 388.119 147.44L380.119 133.42C380.865 132.915 381.365 132.061 381.383 131.085C381.4 130.092 380.917 129.207 380.168 128.676L388.02 114.894C388.366 115.085 388.754 115.206 389.174 115.214C390.471 115.238 391.549 114.265 391.725 112.997L406.965 112.992ZM389.257 110.565C390.387 110.585 391.29 111.533 391.269 112.677C391.249 113.822 390.313 114.736 389.183 114.715C388.053 114.695 387.15 113.747 387.171 112.602C387.191 111.458 388.127 110.544 389.257 110.565ZM378.482 92.9138C379.364 92.9298 380.068 93.6686 380.052 94.5619C380.036 95.4545 379.306 96.1665 378.425 96.1505C377.543 96.1346 376.839 95.3957 376.855 94.5031C376.871 93.6092 377.601 92.8967 378.482 92.9138ZM360.958 94.6985L376.379 94.6936C376.461 95.7682 377.33 96.6278 378.416 96.648C378.756 96.6548 379.075 96.5696 379.362 96.4281L387.524 110.734C387.02 111.194 386.692 111.852 386.679 112.593C386.665 113.395 387.024 114.111 387.587 114.594L379.712 128.414C379.371 128.257 378.993 128.166 378.596 128.159C377.088 128.131 375.832 129.308 375.718 130.812L360.297 130.817C360.228 129.481 359.157 128.402 357.816 128.377C357.367 128.369 356.948 128.491 356.577 128.692L348.7 114.886C349.374 114.434 349.827 113.666 349.843 112.787C349.86 111.881 349.407 111.079 348.716 110.607L356.268 97.3526C356.699 97.586 357.19 97.7245 357.712 97.7343C359.427 97.7661 360.852 96.4158 360.958 94.6985ZM357.819 91.7584C359.311 91.7853 360.503 93.0364 360.475 94.5472C360.448 96.058 359.212 97.2643 357.72 97.2362C356.229 97.2092 355.037 95.9581 355.065 94.4473C355.091 92.9365 356.327 91.7302 357.819 91.7584ZM348.678 76.1845C348.662 77.0771 347.932 77.7897 347.05 77.7743C346.168 77.7578 345.464 77.0183 345.48 76.1263C345.496 75.233 346.226 74.5193 347.107 74.5358C347.989 74.5511 348.693 75.2924 348.678 76.1845ZM357.559 59.3951C356.678 59.3785 355.973 58.6403 355.99 57.747C356.005 56.8544 356.736 56.1412 357.617 56.1572C358.499 56.1731 359.203 56.9126 359.187 57.8052C359.171 58.6985 358.441 59.411 357.559 59.3951ZM380.387 57.7409C380.366 58.8847 379.431 59.7982 378.301 59.7774C377.171 59.7565 376.269 58.8094 376.289 57.6649C376.31 56.5205 377.246 55.6064 378.375 55.6266C379.505 55.6474 380.407 56.5952 380.387 57.7409ZM388.803 41.1151C387.922 41.0997 387.218 40.359 387.234 39.4676C387.25 38.5744 387.98 37.8606 388.861 37.8771C389.743 37.8931 390.447 38.6332 390.431 39.5264C390.415 40.4179 389.685 41.1316 388.803 41.1151ZM409.66 41.8515C408.367 41.827 407.333 40.7419 407.357 39.4327C407.381 38.1222 408.452 37.0764 409.746 37.0997C411.039 37.1248 412.073 38.2086 412.049 39.5185C412.025 40.8283 410.953 41.8748 409.66 41.8515ZM420.116 59.4827C419.166 59.4649 418.408 58.6684 418.425 57.7084C418.443 56.7471 419.229 55.9795 420.179 55.9966C421.127 56.0144 421.885 56.8102 421.868 57.7721C421.851 58.7328 421.064 59.5005 420.116 59.4827ZM443.167 57.8328C443.147 58.9766 442.211 59.8901 441.08 59.8699C439.951 59.8491 439.048 58.9013 439.069 57.7574C439.089 56.6117 440.025 55.6989 441.155 55.7197C442.285 55.7399 443.188 56.6871 443.167 57.8328ZM451.501 36.7688C452.992 36.7958 454.185 38.0468 454.157 39.5583C454.13 41.0691 452.894 42.2748 451.402 42.2479C449.91 42.2203 448.719 40.9686 448.746 39.459C448.773 37.947 450.009 36.7413 451.501 36.7688ZM441.085 19.7442C441.898 19.7589 442.548 20.442 442.533 21.2654C442.519 22.0894 441.844 22.7468 441.031 22.7321C440.217 22.7168 439.567 22.0349 439.583 21.2115C439.597 20.3875 440.271 19.7295 441.085 19.7442ZM422.202 21.4455L439.11 21.4406C439.21 22.4276 440.018 23.2112 441.022 23.2296C441.319 23.2357 441.6 23.1677 441.855 23.0525L449.7 36.8001C448.847 37.368 448.274 38.3385 448.254 39.4486C448.233 40.5961 448.81 41.615 449.692 42.2062L442.151 55.4428C441.849 55.3055 441.515 55.2259 441.164 55.2198C439.827 55.1947 438.721 56.2307 438.599 57.5577L422.342 57.5632C422.253 56.4286 421.334 55.5188 420.187 55.4979C419.864 55.4918 419.558 55.5604 419.279 55.6817L411.359 41.8019C412.059 41.2903 412.523 40.4656 412.54 39.527C412.557 38.5645 412.1 37.7031 411.389 37.1671L419.387 23.131C419.61 23.2192 419.849 23.2755 420.102 23.2804C421.172 23.3013 422.062 22.495 422.202 21.4455ZM420.17 19.5444C421.051 19.5604 421.755 20.3005 421.739 21.1925C421.723 22.0858 420.993 22.7989 420.112 22.783C419.23 22.7677 418.526 22.0276 418.543 21.1343C418.558 20.2416 419.288 19.5285 420.17 19.5444ZM409.748 0.500428C411.059 0.524322 412.106 1.62466 412.082 2.9523C412.058 4.27994 410.972 5.33924 409.661 5.31596C408.35 5.29145 407.302 4.19172 407.327 2.86408C407.351 1.53705 408.437 0.475922 409.748 0.500428ZM386.987 2.92535C387.006 1.87096 387.868 1.02916 388.909 1.04816C389.95 1.06715 390.782 1.9408 390.762 2.99519C390.743 4.04959 389.881 4.89078 388.84 4.87117C387.8 4.85218 386.968 3.97974 386.987 2.92535ZM387.886 5.14993C388.175 5.28349 388.493 5.36375 388.831 5.36988C390.094 5.39316 391.139 4.40738 391.237 3.14774L406.845 3.14224C406.961 4.61201 408.166 5.78649 409.654 5.81406C410.127 5.82264 410.575 5.71174 410.973 5.51263L418.925 19.4513C418.408 19.8281 418.063 20.4322 418.051 21.1245C418.038 21.8566 418.394 22.5097 418.947 22.9006L410.968 36.9048C410.601 36.7192 410.191 36.6089 409.755 36.601C408.245 36.5728 406.988 37.7528 406.877 39.2605L390.902 39.2654C390.788 38.2239 389.933 37.3974 388.872 37.3778C388.581 37.3729 388.304 37.4287 388.05 37.5328L380.055 23.52C380.785 23.0109 381.273 22.1672 381.29 21.2035C381.308 20.2233 380.835 19.3472 380.101 18.8148L387.886 5.14993ZM378.494 18.7762C379.788 18.8 380.821 19.8863 380.798 21.1949C380.774 22.506 379.703 23.5512 378.41 23.5274C377.116 23.5035 376.083 22.4191 376.106 21.1086C376.129 19.7993 377.201 18.7523 378.494 18.7762ZM355.498 21.2783C355.519 20.1338 356.455 19.2203 357.585 19.2412C358.715 19.262 359.617 20.2098 359.596 21.3536C359.576 22.4987 358.64 23.4128 357.51 23.392C356.381 23.3711 355.478 22.4233 355.498 21.2783ZM356.44 23.6248C356.763 23.7847 357.12 23.8833 357.501 23.8907C358.868 23.9152 359.997 22.835 360.077 21.4664L375.632 21.4608C375.783 22.8779 376.956 23.9985 378.4 24.0248C378.823 24.0328 379.225 23.944 379.589 23.7816L387.59 37.8055C387.09 38.1835 386.755 38.7777 386.743 39.4584C386.73 40.1734 387.073 40.8106 387.605 41.2039L379.502 55.4256C379.165 55.2486 378.789 55.1364 378.385 55.1285C377.01 55.1034 375.873 56.1964 375.806 57.5791L359.66 57.5846C359.564 56.5241 358.701 55.6805 357.627 55.6603C357.314 55.6542 357.019 55.7234 356.75 55.8435L349.003 42.265C349.777 41.6879 350.29 40.7664 350.309 39.72C350.33 38.5627 349.743 37.5383 348.85 36.949L356.44 23.6248ZM347.161 36.9208C348.653 36.9483 349.844 38.1994 349.817 39.7108C349.789 41.2204 348.555 42.4268 347.063 42.3992C345.571 42.3722 344.379 41.12 344.407 39.611C344.434 38.0995 345.669 36.8932 347.161 36.9208ZM323.854 39.5944C323.877 38.2846 324.949 37.2375 326.243 37.2614C327.535 37.2853 328.569 38.3709 328.546 39.6802C328.522 40.9901 327.451 42.0365 326.157 42.0132C324.864 41.9887 323.83 40.9043 323.854 39.5944ZM315.901 59.5531C314.952 59.536 314.194 58.7395 314.21 57.7795C314.228 56.8188 315.014 56.0499 315.963 56.0671C316.912 56.0849 317.67 56.8813 317.654 57.8426C317.637 58.8039 316.85 59.5715 315.901 59.5531ZM317.169 59.6652C317.745 59.2682 318.131 58.6084 318.145 57.8518C318.158 57.0896 317.792 56.4096 317.223 55.9942L325.047 42.2644C325.385 42.4164 325.757 42.5046 326.148 42.5107C327.681 42.5389 328.954 41.3227 329.032 39.7837L343.92 39.7782C343.981 41.4827 345.35 42.8648 347.054 42.8973C347.587 42.9065 348.092 42.7815 348.538 42.5536L356.286 56.1345C355.819 56.5125 355.51 57.0853 355.498 57.7372C355.485 58.4577 355.833 59.1016 356.371 59.4937L347.968 74.2423C347.708 74.118 347.422 74.0426 347.116 74.0371C346.039 74.0175 345.143 74.8348 345.014 75.8959L329.153 75.9008C328.98 74.5076 327.819 73.4122 326.391 73.3858C325.948 73.3773 325.528 73.4765 325.15 73.6548L317.169 59.6652ZM323.995 76.217C324.018 74.9071 325.09 73.86 326.383 73.8845C327.677 73.9078 328.711 74.9941 328.687 76.3033C328.664 77.6132 327.591 78.6596 326.298 78.6357C325.005 78.6118 323.971 77.5268 323.995 76.217ZM325.073 78.8281C325.44 79.0156 325.852 79.1246 326.289 79.1332C327.825 79.162 329.098 77.9428 329.173 76.3995L345.012 76.3946C345.13 77.4325 345.983 78.2522 347.041 78.2718C347.384 78.2786 347.705 78.1916 347.993 78.0494L355.889 91.8852C355.109 92.4629 354.592 93.3868 354.573 94.4381C354.553 95.5158 355.061 96.4777 355.851 97.0812L348.281 110.369C347.993 110.246 347.68 110.171 347.349 110.165C346.008 110.141 344.899 111.181 344.783 112.513L328.494 112.518C328.354 111.506 327.509 110.712 326.468 110.693C326.155 110.687 325.861 110.756 325.591 110.877L317.416 96.5475C318.099 96.0972 318.557 95.3228 318.573 94.4381C318.589 93.5247 318.128 92.7166 317.427 92.2467L325.073 78.8281ZM316.07 92.3159C317.199 92.3367 318.101 93.2839 318.081 94.4289C318.061 95.5734 317.125 96.4875 315.995 96.4667C314.865 96.4458 313.963 95.4974 313.983 94.3536C314.004 93.2085 314.94 92.295 316.07 92.3159ZM297.143 94.7181L313.521 94.7132C313.677 95.96 314.71 96.9409 315.986 96.9648C316.318 96.9709 316.634 96.9072 316.929 96.795L325.128 111.168C324.662 111.548 324.352 112.12 324.339 112.773C324.327 113.457 324.645 114.067 325.137 114.464L317.203 128.392C316.862 128.235 316.484 128.144 316.087 128.137C314.563 128.109 313.299 129.307 313.204 130.832L297.098 130.836C297.016 129.762 296.147 128.902 295.062 128.882C294.756 128.876 294.467 128.942 294.203 129.057L286.171 114.981C286.805 114.524 287.228 113.785 287.243 112.939C287.259 112.031 286.803 111.226 286.108 110.755L294.278 96.414C294.514 96.5126 294.769 96.5745 295.04 96.5794C296.12 96.5984 297.014 95.7793 297.143 94.7181ZM295.109 92.8415C295.988 92.8575 296.694 93.5976 296.678 94.4896C296.662 95.3816 295.931 96.096 295.05 96.0801C294.169 96.0641 293.465 95.3241 293.48 94.4308C293.496 93.5394 294.226 92.8256 295.109 92.8415ZM284.662 74.0696C285.792 74.0904 286.694 75.0382 286.674 76.1832C286.653 77.3271 285.717 78.2412 284.588 78.2204C283.458 78.1995 282.557 77.2511 282.577 76.1079C282.597 74.9628 283.533 74.0487 284.662 74.0696ZM262.258 76.1888C262.273 75.2973 263.004 74.5842 263.885 74.6007C264.767 74.6167 265.47 75.3562 265.454 76.2482C265.439 77.1415 264.708 77.8534 263.827 77.8374C262.945 77.8209 262.241 77.0826 262.258 76.1888ZM262.953 78.1236C263.216 78.2516 263.508 78.33 263.818 78.3355C264.917 78.3557 265.824 77.5084 265.928 76.4204L282.11 76.4155C282.244 77.6867 283.284 78.6952 284.579 78.7191C284.977 78.7264 285.352 78.6321 285.69 78.4715L293.845 92.7631C293.339 93.1411 293.001 93.7385 292.989 94.4216C292.976 95.1262 293.309 95.7535 293.825 96.1487L285.644 110.509C285.365 110.395 285.065 110.324 284.749 110.318C283.454 110.294 282.376 111.265 282.199 112.532L266.433 112.537C266.302 111.099 265.117 109.956 263.659 109.929C263.271 109.921 262.9 109.994 262.561 110.131L254.675 96.3086C255.184 95.9306 255.524 95.3314 255.537 94.6446C255.55 93.8855 255.163 93.2159 254.574 92.8317L262.953 78.1236ZM253.476 92.988C254.358 93.0045 255.061 93.744 255.045 94.6366C255.029 95.5287 254.3 96.2412 253.418 96.2247C252.537 96.2087 251.832 95.4705 251.848 94.5772C251.864 93.6846 252.595 92.9708 253.476 92.988ZM230.149 94.6611C230.173 93.3519 231.244 92.3049 232.537 92.3287C233.831 92.352 234.864 93.4377 234.841 94.7475C234.818 96.058 233.746 97.1038 232.452 97.0805C231.159 97.0567 230.126 95.9716 230.149 94.6611ZM231.148 97.2319C231.535 97.4445 231.974 97.5701 232.444 97.5787C234.009 97.6075 235.305 96.3417 235.333 94.7573C235.333 94.7506 235.332 94.7451 235.333 94.7377L251.37 94.7322C251.434 95.8234 252.312 96.7031 253.409 96.7234C253.693 96.7283 253.965 96.6756 254.214 96.5757L262.088 110.378C261.312 110.878 260.789 111.751 260.77 112.751C260.751 113.784 261.278 114.698 262.078 115.22L254.173 129.096C253.93 128.99 253.663 128.927 253.383 128.922C252.281 128.902 251.369 129.756 251.273 130.851L234.555 130.857C234.374 129.824 233.492 129.03 232.418 129.01C232.152 129.005 231.899 129.055 231.66 129.139L223.648 115.096C224.407 114.592 224.915 113.731 224.934 112.744C224.951 111.74 224.455 110.847 223.692 110.318L231.148 97.2319ZM222.138 110.316C223.431 110.34 224.465 111.426 224.442 112.735C224.417 114.045 223.346 115.09 222.052 115.067C220.758 115.043 219.726 113.959 219.749 112.649C219.773 111.34 220.844 110.291 222.138 110.316ZM203.36 113.056L219.283 113.051C219.455 114.445 220.616 115.539 222.043 115.565C222.44 115.573 222.82 115.497 223.164 115.353L231.165 129.378C230.574 129.77 230.178 130.442 230.164 131.21C230.151 131.976 230.52 132.659 231.093 133.074L222.894 147.468C222.654 147.365 222.394 147.303 222.118 147.299C221.036 147.278 220.139 148.103 220.015 149.17L204.224 149.175H203.583C203.483 147.932 202.476 146.938 201.22 146.915C200.845 146.908 200.492 146.995 200.172 147.143L192.413 133.543C193.189 133.043 193.712 132.171 193.731 131.171C193.749 130.144 193.23 129.235 192.437 128.712L200.258 114.987C200.521 115.105 200.81 115.174 201.115 115.179C202.31 115.201 203.298 114.255 203.36 113.056ZM201.187 111.195C202.136 111.212 202.894 112.009 202.877 112.97C202.86 113.93 202.073 114.698 201.124 114.681C200.175 114.663 199.417 113.868 199.434 112.907C199.452 111.945 200.238 111.177 201.187 111.195ZM190.845 91.9532C192.336 91.9808 193.529 93.2324 193.502 94.7426C193.474 96.2529 192.238 97.4598 190.747 97.4322C189.255 97.4047 188.063 96.1536 188.091 94.6428C188.118 93.1332 189.353 91.9256 190.845 91.9532ZM167.658 94.6293C167.682 93.3206 168.752 92.2724 170.046 92.2963C171.339 92.3202 172.373 93.4058 172.35 94.7157C172.327 96.0262 171.254 97.072 169.961 97.0481C168.667 97.0248 167.634 95.9398 167.658 94.6293ZM168.647 97.1951C169.037 97.4108 169.479 97.5382 169.952 97.5468C171.506 97.5756 172.793 96.3264 172.839 94.7573L187.602 94.7518C187.633 96.4832 189.014 97.8978 190.738 97.9303C191.278 97.9395 191.791 97.8121 192.242 97.578L199.938 111.069C199.349 111.463 198.956 112.131 198.942 112.898C198.929 113.634 199.274 114.29 199.811 114.709L191.974 128.464C191.655 128.33 191.31 128.251 190.944 128.245C189.445 128.217 188.195 129.38 188.069 130.871L172.74 130.876C172.684 129.366 171.47 128.142 169.96 128.114C169.487 128.105 169.039 128.217 168.643 128.416L160.691 114.48C161.186 114.1 161.518 113.51 161.531 112.834C161.543 112.14 161.217 111.521 160.711 111.125L168.647 97.1951ZM159.469 111.176C160.35 111.192 161.054 111.931 161.039 112.824C161.023 113.717 160.293 114.429 159.411 114.413C158.528 114.397 157.825 113.659 157.841 112.766C157.857 111.873 158.586 111.16 159.469 111.176ZM141.269 113.07L157.374 113.064C157.504 114.088 158.352 114.892 159.402 114.911C159.694 114.918 159.974 114.861 160.229 114.754L168.189 128.705C167.525 129.22 167.088 130.024 167.07 130.935C167.053 131.932 167.541 132.821 168.296 133.351L160.441 147.138C160.158 147.013 159.848 146.939 159.519 146.933C158.249 146.91 157.197 147.887 157.072 149.145L140.616 149.15C140.423 148.202 139.605 147.478 138.609 147.46C138.319 147.454 138.041 147.511 137.788 147.615L129.57 133.215C130.146 132.775 130.532 132.089 130.546 131.303C130.561 130.451 130.144 129.693 129.501 129.239L137.301 115.49C137.635 115.639 138.004 115.726 138.391 115.733C139.902 115.761 141.159 114.579 141.269 113.07ZM138.485 110.483C139.779 110.506 140.812 111.592 140.787 112.901C140.764 114.212 139.693 115.258 138.4 115.234C137.106 115.21 136.073 114.125 136.097 112.815C136.119 111.505 137.192 110.459 138.485 110.483ZM128.071 92.2718C129.364 92.2957 130.398 93.3801 130.375 94.6906C130.351 95.9998 129.28 97.0469 127.986 97.023C126.693 96.9991 125.66 95.9134 125.683 94.6042C125.706 93.2931 126.778 92.2479 128.071 92.2718ZM109.206 94.9387L125.199 94.875C125.314 96.3313 126.505 97.4935 127.977 97.5205C128.404 97.5284 128.81 97.4371 129.174 97.2729L136.799 110.521C136.092 111.032 135.622 111.862 135.605 112.806C135.587 113.806 136.077 114.695 136.834 115.225L131.551 124.575L129.037 128.988C128.765 128.875 128.472 128.805 128.162 128.8C126.899 128.777 125.851 129.743 125.716 130.992L109.239 131.057C109.16 129.981 108.29 129.117 107.202 129.097C106.885 129.091 106.587 129.162 106.316 129.286L98.173 115.135C98.7478 114.695 99.1326 114.01 99.1465 113.225C99.1616 112.373 98.7442 111.613 98.0998 111.16L106.309 96.6296C106.551 96.7369 106.82 96.8006 107.103 96.8061C108.183 96.8257 109.079 96.0041 109.206 94.9387ZM107.169 93.0701C108.051 93.086 108.754 93.8255 108.739 94.7181C108.722 95.6108 107.993 96.3233 107.112 96.3074C106.23 96.2908 105.525 95.5526 105.541 94.6593C105.556 93.7673 106.286 93.0541 107.169 93.0701ZM99.3129 76.5441C99.2857 78.0549 98.0502 79.2613 96.5588 79.2331C95.0674 79.2061 93.8755 77.9551 93.9022 76.4443C93.93 74.934 95.1661 73.7271 96.6574 73.7547C98.1494 73.7822 99.3395 75.0345 99.3129 76.5441ZM106.936 56.4947C107.818 56.5113 108.523 57.2514 108.506 58.1428C108.491 59.0367 107.76 59.7492 106.879 59.7326C105.996 59.7167 105.292 58.9778 105.309 58.0846C105.324 57.1932 106.054 56.4788 106.936 56.4947ZM96.5122 38.1418C97.4609 38.1596 98.2202 38.956 98.2027 39.9173C98.1857 40.8786 97.3992 41.6468 96.4499 41.6291C95.5012 41.6113 94.7425 40.8155 94.7595 39.8536C94.7764 38.8923 95.5629 38.1247 96.5122 38.1418ZM73.2575 40.0901C73.2811 38.779 74.3532 37.7332 75.6467 37.7577C76.9409 37.7809 77.9731 38.866 77.9495 40.1759C77.9259 41.4851 76.855 42.5322 75.5608 42.5076C74.2679 42.4844 73.2339 41.3987 73.2575 40.0901ZM65.204 59.9734C64.3225 59.9575 63.6176 59.218 63.634 58.3254C63.6497 57.4321 64.38 56.7202 65.2615 56.7361C66.1424 56.7527 66.8467 57.4915 66.8309 58.3842C66.8158 59.2762 66.0855 59.9894 65.204 59.9734ZM66.4764 60.0451C66.9761 59.6665 67.3113 59.0728 67.3228 58.3934C67.3361 57.6723 66.9888 57.0302 66.4516 56.6375L74.3278 42.6957C74.6975 42.885 75.1113 42.9984 75.5524 43.0064C77.1043 43.0358 78.3905 41.7902 78.4389 40.223L94.2936 40.1605C94.4267 41.2486 95.3264 42.1063 96.4402 42.1266C96.7597 42.1327 97.0646 42.0647 97.3417 41.9452L105.67 56.4194C105.167 56.798 104.828 57.3935 104.817 58.0754C104.804 58.8118 105.165 59.4668 105.723 59.8564L97.9758 73.5715C97.5783 73.3797 97.136 73.2651 96.6665 73.2566C94.9652 73.2253 93.5506 74.5523 93.4236 76.25L78.5212 76.3088C78.4377 74.8231 77.2349 73.6266 75.7417 73.5984C75.2753 73.5898 74.8354 73.6977 74.4434 73.8925L66.4764 60.0451ZM73.3446 76.4289C73.3676 75.119 74.4385 74.072 75.7333 74.0965C77.0262 74.1198 78.0596 75.2054 78.036 76.5153C78.0124 77.8252 76.9403 78.871 75.6474 78.8477C74.3532 78.8238 73.3204 77.7388 73.3446 76.4289ZM74.5504 79.1044C74.8838 79.2533 75.2511 79.3397 75.6389 79.3464C77.0982 79.374 78.3234 78.2743 78.5037 76.8394L93.4242 76.78C93.5645 78.4072 94.9023 79.7024 96.5503 79.7318C97.0616 79.7416 97.5444 79.6258 97.977 79.4169L105.825 93.0566C105.364 93.437 105.06 94.0038 105.049 94.6501C105.036 95.3339 105.353 95.9428 105.843 96.3398L97.6152 110.904C97.349 110.796 97.064 110.728 96.7621 110.722C95.5158 110.699 94.4806 111.64 94.322 112.863L78.2465 112.928C78.114 111.719 77.1212 110.762 75.8882 110.74C75.5161 110.733 75.1664 110.819 74.8481 110.965L67.0009 97.325C67.7554 96.8208 68.2612 95.9612 68.2782 94.9785C68.2969 93.9474 67.7736 93.0345 66.9749 92.5138L74.5504 79.1044ZM65.4848 92.5505C66.7783 92.5744 67.8117 93.6601 67.7881 94.9693C67.7639 96.2798 66.693 97.3262 65.3988 97.3023C64.1059 97.2778 63.0725 96.1934 63.0955 94.8829C63.1197 93.5737 64.1918 92.5266 65.4848 92.5505ZM47.2342 95.2193L62.6133 95.1574C62.7283 96.6125 63.9202 97.7729 65.3904 97.7998C65.809 97.8072 66.2072 97.7202 66.5671 97.5609L74.1989 110.826L74.4228 111.216C73.8293 111.654 73.4299 112.352 73.4154 113.152C73.4003 113.98 73.796 114.717 74.4083 115.174L66.6525 128.904C66.287 128.718 65.8774 128.608 65.4412 128.6C63.9383 128.572 62.6841 129.741 62.5649 131.24L46.9777 131.302C46.8258 130.16 45.8759 129.265 44.7046 129.244C44.3264 129.236 43.9731 129.329 43.6537 129.485L35.7079 115.674C36.426 115.165 36.9052 114.328 36.9221 113.373C36.9397 112.397 36.4714 111.525 35.743 110.991L43.2912 97.6301C43.6192 97.7735 43.9785 97.8568 44.3573 97.8641C45.8638 97.8911 47.1162 96.7191 47.2342 95.2193ZM44.4517 92.6136C45.7452 92.6375 46.778 93.7226 46.755 95.0324C46.7314 96.3423 45.6605 97.3887 44.367 97.3642C43.0734 97.3409 42.0394 96.2553 42.063 94.9466C42.086 93.6362 43.1575 92.5897 44.4517 92.6136ZM33.9067 74.8464C34.9746 74.866 35.827 75.7624 35.8077 76.8425C35.7877 77.9244 34.9032 78.7871 33.8347 78.7681C32.7674 78.7485 31.915 77.8528 31.9343 76.7708C31.9549 75.6907 32.8388 74.8262 33.9067 74.8464ZM11.5226 76.9172C11.5389 76.0258 12.2692 75.312 13.1489 75.328C14.0316 75.3439 14.7353 76.084 14.7189 76.976C14.7032 77.8693 13.9736 78.5824 13.0914 78.5665C12.2111 78.5506 11.5069 77.8105 11.5226 76.9172ZM12.2359 78.8618C12.4943 78.9849 12.7786 79.0591 13.0824 79.0652C14.1998 79.086 15.1219 78.2087 15.1987 77.0924L31.4648 77.0275C31.5755 78.2608 32.5781 79.2423 33.8262 79.2655C34.2358 79.2735 34.6176 79.1675 34.9588 78.9923L42.803 92.624C42.0739 93.1326 41.5881 93.9756 41.5705 94.9375C41.553 95.9416 42.0497 96.8361 42.8145 97.3636L35.2722 110.711C34.9256 110.548 34.542 110.453 34.136 110.446C32.612 110.417 31.3462 111.62 31.2561 113.146L15.324 113.21C15.2617 112.116 14.3832 111.233 13.2838 111.212C12.9456 111.206 12.6286 111.29 12.3436 111.429L4.41901 97.6577C5.16017 97.1516 5.65689 96.3 5.67444 95.3265C5.69319 94.2825 5.15412 93.3574 4.33794 92.8397L12.2359 78.8618ZM2.87923 92.9004C4.17458 92.9242 5.20736 94.0099 5.18316 95.3185C5.16017 96.629 4.08867 97.6748 2.79513 97.6516C1.50158 97.627 0.468808 96.5426 0.491799 95.2328C0.515395 93.9235 1.5875 92.8765 2.87923 92.9004Z" fill="#B9C7E2"/>
</svg>
