<svg width="145" height="26" viewBox="0 0 145 26" fill="none" xmlns="http://www.w3.org/2000/svg">
<g clip-path="url(#clip0_254_1567)">
<path fill-rule="evenodd" clip-rule="evenodd" d="M103.553 25.4767H104.939V16.9568H112.193C113.65 16.9568 115.056 16.5744 116.254 16.0195C116.89 15.7257 117.475 15.3526 117.994 14.8863C121.055 12.1676 121.734 8.53022 119.932 4.91615C119.272 3.59644 118.169 2.62181 116.947 1.82904C115.593 0.957004 113.646 0.51399 112.042 0.51399H103.548V25.472L103.553 25.4767ZM112.16 15.5672H105.052V1.90366H112.273C114.99 1.90366 117.688 3.45187 118.885 5.91877C119.296 6.76282 119.621 7.86803 119.598 8.81002C119.494 12.7179 115.957 15.5672 112.165 15.5672H112.16ZM126.795 25.472H145.005V24.0917H128.181V0.51399H126.795V25.4767V25.472ZM92.8181 25.472H94.2047V0.509327H92.8181V25.472ZM82.626 2.33734L82.9232 0.915035C78.7539 0.0429957 75.127 0.579276 71.8727 2.58916C68.1138 4.91149 66.1188 8.68411 66.0574 12.8531C66.0008 16.705 67.5054 20.2584 70.788 22.6787C74.1743 25.1782 78.8577 25.9477 82.8383 25.099L82.6779 23.7C79.051 24.4834 75.0657 23.8725 72.1038 21.7414C69.1561 19.6196 67.5478 16.4858 67.5997 13.0163C67.661 9.07583 69.6277 5.51306 73.2688 3.44255C76.0892 1.83837 79.4425 1.60987 82.6213 2.32802L82.626 2.33734ZM34.5002 24.8378L35.8397 25.5L48.7154 3.43322L61.4118 25.4953L62.6475 24.8611L48.6399 0.51399L34.5049 24.8378H34.5002ZM0 24.8238L1.33945 25.486L14.2104 3.41923L26.9069 25.4813L28.1426 24.8471L14.135 0.5L0 24.8238Z" fill="white"/>
</g>
<defs>
<clipPath id="clip0_254_1567">
<rect width="145" height="25" fill="white" transform="translate(0 0.5)"/>
</clipPath>
</defs>
</svg>
