<svg width="30" height="31" viewBox="0 0 30 31" fill="none" xmlns="http://www.w3.org/2000/svg">
<rect x="0.25" y="0.75" width="29.5" height="29.5" rx="3.75" fill="#373737"/>
<rect x="0.25" y="0.75" width="29.5" height="29.5" rx="3.75" stroke="#323232" stroke-width="0.5"/>
<path d="M12.4688 12.0005C12.4686 12.2657 12.3631 12.52 12.1755 12.7075C11.9879 12.8949 11.7335 13.0001 11.4683 13C11.203 12.9999 10.9487 12.8944 10.7613 12.7068C10.5738 12.5191 10.4686 12.2647 10.4688 11.9995C10.4689 11.7343 10.5744 11.48 10.762 11.2925C10.9496 11.1051 11.204 10.9999 11.4693 11C11.7345 11.0001 11.9888 11.1056 12.1762 11.2932C12.3637 11.4809 12.4689 11.7353 12.4688 12.0005ZM12.4988 13.7405H10.4988V20.0005H12.4988V13.7405ZM15.6588 13.7405H13.6688V20.0005H15.6388V16.7155C15.6388 14.8855 18.0237 14.7155 18.0237 16.7155V20.0005H19.9987V16.0355C19.9987 12.9505 16.4688 13.0655 15.6388 14.5805L15.6588 13.7405Z" fill="white"/>
</svg>
