<svg width="8" height="8" viewBox="0 0 8 8" fill="none" xmlns="http://www.w3.org/2000/svg">
<path fill-rule="evenodd" clip-rule="evenodd" d="M7.53959 1.1346C7.65272 1.14457 7.75728 1.19904 7.83028 1.28604C7.90329 1.37305 7.93877 1.48547 7.92895 1.59862L7.50633 6.42908C7.50334 6.48656 7.48881 6.54285 7.46359 6.59459C7.43838 6.64632 7.403 6.69245 7.35957 6.73022C7.31614 6.76799 7.26554 6.79662 7.21081 6.81441C7.15607 6.8322 7.09831 6.83879 7.04097 6.83377C6.98364 6.82876 6.9279 6.81224 6.87708 6.78522C6.82626 6.75819 6.78141 6.72121 6.7452 6.67647C6.70899 6.63174 6.68216 6.58016 6.66631 6.52483C6.65046 6.4695 6.64592 6.41155 6.65295 6.35442L6.98541 2.55446L0.773647 7.76674C0.686572 7.83981 0.574038 7.87529 0.460802 7.86538C0.347566 7.85548 0.242903 7.80099 0.169839 7.71392C0.0967739 7.62684 0.0612923 7.51431 0.0711991 7.40107C0.081106 7.28784 0.13559 7.18317 0.222665 7.11011L6.43443 1.89782L2.63446 1.56537C2.57698 1.56238 2.5207 1.54784 2.46896 1.52263C2.41722 1.49741 2.37109 1.46203 2.33332 1.4186C2.29556 1.37517 2.26692 1.32458 2.24913 1.26984C2.23134 1.2151 2.22476 1.15734 2.22977 1.10001C2.23479 1.04267 2.2513 0.986932 2.27833 0.936116C2.30535 0.8853 2.34234 0.840448 2.38707 0.804236C2.43181 0.768023 2.48338 0.741192 2.53871 0.725343C2.59404 0.709494 2.652 0.704953 2.70912 0.711988L7.53959 1.1346Z" fill="black"/>
</svg>
