<svg width="184" height="32" viewBox="0 0 184 32" fill="none" xmlns="http://www.w3.org/2000/svg">
<g clip-path="url(#clip0_157_195)">
<path fill-rule="evenodd" clip-rule="evenodd" d="M131.056 31.9702H132.811V21.0647H141.991C143.836 21.0647 145.615 20.5753 147.131 19.865C147.937 19.4889 148.677 19.0114 149.333 18.4145C153.207 14.9345 154.067 10.2787 151.787 5.65268C150.951 3.96344 149.554 2.71591 148.008 1.70118C146.295 0.584965 143.83 0.0179071 141.8 0.0179071H131.05V31.9642L131.056 31.9702ZM141.95 19.286H132.954V1.79668H142.093C145.531 1.79668 148.945 3.7784 150.461 6.93602C150.981 8.01641 151.393 9.43108 151.363 10.6368C151.231 15.6389 146.755 19.286 141.956 19.286H141.95ZM160.472 31.9642H183.518V30.1974H162.226V0.0179071H160.472V31.9702V31.9642ZM117.471 31.9642H119.226V0.0119381H117.471V31.9642ZM104.572 2.3518L104.948 0.531244C99.671 -0.584966 95.0808 0.101474 90.9621 2.67413C86.2048 5.64671 83.6799 10.4757 83.6023 15.812C83.5307 20.7424 85.4348 25.2908 89.5893 28.3887C93.875 31.5881 99.8023 32.573 104.84 31.4867L104.637 29.696C100.047 30.6987 95.0032 29.9168 91.2546 27.189C87.524 24.473 85.4885 20.4619 85.5542 16.0209C85.6318 10.9771 88.1209 6.41671 92.729 3.76646C96.2985 1.71311 100.542 1.42063 104.566 2.33986L104.572 2.3518ZM43.6635 31.1524L45.3587 32L61.6542 3.75452L77.7228 31.994L79.2867 31.1822L61.5587 0.0179071L43.6695 31.1524H43.6635ZM0 31.1345L1.69521 31.9821L17.9847 3.73662L34.0533 31.9761L35.6172 31.1643L17.8892 0L0 31.1345Z" fill="#202020"/>
</g>
<defs>
<clipPath id="clip0_157_195">
<rect width="183.512" height="32" fill="white"/>
</clipPath>
</defs>
</svg>
