<svg width="109" height="55" viewBox="0 0 109 55" fill="none" xmlns="http://www.w3.org/2000/svg">
<path opacity="0.81" fill-rule="evenodd" clip-rule="evenodd" d="M7.60153 0.0840611C9.72707 0.108079 11.9247 0.180131 12.4891 0.252183C13.0535 0.336245 13.774 0.468341 14.1103 0.552402C14.4345 0.636463 14.9989 0.804585 15.3472 0.924672C15.6954 1.04476 15.9716 1.17686 15.9716 1.22489C15.9716 1.28493 16.0677 1.32096 16.1758 1.32096C16.2959 1.32096 16.524 1.42904 16.6921 1.56114C16.8603 1.69323 17.0284 1.80131 17.0764 1.80131C17.1365 1.80131 17.3526 1.95742 17.5568 2.16157C17.7729 2.35371 18.0011 2.52183 18.0731 2.52183C18.1332 2.52183 18.3013 2.66594 18.4334 2.83406C18.5655 3.01419 18.7937 3.3024 18.9498 3.47052C19.0939 3.63865 19.4061 4.15502 19.6343 4.62336C19.8745 5.07969 20.1386 5.78821 20.2467 6.1845C20.3908 6.68886 20.4509 7.44541 20.4509 8.64629C20.4629 9.77511 20.4148 10.5797 20.3068 10.9279C20.2227 11.2282 20.0906 11.6245 20.0306 11.8286C19.9585 12.0207 19.7424 12.5371 19.5262 12.9694C19.274 13.4978 18.8537 14.0622 18.1932 14.7227C17.4127 15.5153 17.0404 15.7915 16.2118 16.1878C15.6474 16.452 14.7587 16.7642 14.2303 16.8843C13.702 16.9924 12.7293 17.1365 12.0688 17.1965C11.4083 17.2686 9.37882 17.3526 4.2631 17.4727L4.20306 20.4869C4.15502 22.9367 4.10699 23.5371 3.96288 23.7052C3.86681 23.8133 3.69869 23.9094 3.60262 23.9094C3.50655 23.8974 3.35044 23.8373 3.26638 23.7533C3.16563 23.6525 3.025 23.375 3.00218 23.1769C2.91812 23.1769 2.8941 19.3821 2.93013 11.9127C2.95415 5.72817 2.99017 0.66048 2.99017 0.66048C2.99017 0.66048 3.08624 0.552402 3.20633 0.408297C3.32642 0.276201 3.49454 0.132096 3.5786 0.108079C3.65065 0.0840611 5.46397 0.0720524 7.60153 0.0840611ZM4.2631 1.62118V15.9116C9.84716 15.9116 11.8166 15.8635 12.2489 15.8155C12.6812 15.7675 13.2456 15.6594 13.5098 15.5993C13.774 15.5273 14.3384 15.3592 14.7707 15.2271C15.2031 15.095 15.8155 14.8068 16.1517 14.5786C16.476 14.3624 16.8603 14.0862 17.0044 13.9662C17.1365 13.8461 17.4487 13.4738 17.7009 13.1496C17.9531 12.8133 18.2413 12.357 18.3373 12.1288C18.4334 11.9007 18.5655 11.6004 18.6135 11.4683C18.6736 11.3362 18.7456 11.06 18.7937 10.8679C18.8297 10.6638 18.9258 10.0993 18.9858 9.60699C19.0459 9.11463 19.0699 8.27402 19.0218 7.74563C18.9858 7.21725 18.9017 6.59279 18.8417 6.36463C18.7697 6.13646 18.5655 5.62009 18.3734 5.2238C18.1812 4.82751 17.7489 4.22707 17.4247 3.90284C17.0884 3.56659 16.488 3.09825 16.0677 2.84607C15.6474 2.6059 14.8788 2.26965 14.3504 2.11354C13.8221 1.94541 13.0415 1.76528 12.6092 1.69323C12.1769 1.63319 10.988 1.54913 9.96725 1.52511C8.94651 1.50109 7.24127 1.5131 6.1845 1.54913L4.2631 1.62118ZM45.357 0C45.441 0 45.6092 0.0360262 45.7172 0.0960699C45.8253 0.144105 46.1736 0.564411 46.4978 1.02074C46.81 1.48908 47.3264 2.22162 47.6386 2.66594C47.9629 3.09825 48.6594 4.07096 49.1998 4.82751C49.7522 5.57205 50.6288 6.78493 51.1572 7.50546C51.6856 8.23799 52.4061 9.23472 52.7424 9.72707C53.0786 10.2194 53.3908 10.6517 53.4389 10.6878C53.4869 10.7238 53.7391 11.0721 54.0153 11.4683C54.2915 11.8646 54.9159 12.7533 55.4203 13.4498C55.9127 14.1463 56.393 14.7948 56.4771 14.8908C56.5611 14.9869 57.2937 16.0076 58.1223 17.1485C58.9509 18.3013 59.8876 19.6343 60.2238 20.1146C60.548 20.607 60.8603 21.0033 60.9083 21.0033C60.9683 21.0153 61.0044 16.44 61.0044 10.8439C61.0044 0.792577 61.0044 0.66048 61.2445 0.396288C61.3766 0.240175 61.6168 0.120087 61.7849 0.120087C61.9771 0.120087 62.1452 0.228166 62.2653 0.420306C62.4214 0.684498 62.4454 2.1976 62.4454 12.0448C62.4454 21.9279 62.4214 23.393 62.2653 23.6332C62.1452 23.8013 61.9651 23.8974 61.7489 23.8974C61.5688 23.8974 61.3406 23.8253 61.2445 23.7413C61.1485 23.6572 60.44 22.7325 59.6834 21.6758C58.9269 20.619 58.0022 19.3221 57.6179 18.7937C57.2336 18.2653 56.2009 16.8362 55.3362 15.6114C54.4596 14.3865 53.5229 13.0895 53.2467 12.7293C52.9705 12.369 52.4541 11.6605 52.1059 11.1441C51.7456 10.6397 50.9531 9.53493 50.3526 8.68231C49.7402 7.8417 48.7434 6.47271 48.143 5.6441C47.5426 4.8155 46.8821 3.89083 46.6779 3.5786C46.4618 3.26638 46.2576 3.00218 46.1976 3.00218C46.1496 3.00218 46.1135 7.52948 46.1135 13.0655C46.1135 21.8199 46.0895 23.1648 45.9334 23.5131C45.8013 23.7893 45.6692 23.8974 45.4531 23.8974C45.2849 23.8974 45.0808 23.8253 44.9967 23.7533C44.9007 23.6692 44.8526 23.5251 44.8766 23.4531C44.9007 23.369 44.8526 23.2969 44.7926 23.2969C44.7085 23.2969 44.6725 19.4541 44.6725 12.0087C44.6725 3.20633 44.7085 0.66048 44.8166 0.456332C44.9007 0.300218 45.0207 0.144105 45.0928 0.0960699C45.1528 0.0480349 45.2849 0 45.357 0ZM95.5535 0C95.6736 0 95.8777 0.0720524 96.0098 0.168122C96.1419 0.264192 96.5983 1.03275 97.0306 1.88537C97.4629 2.72598 97.8351 3.44651 97.8712 3.48253C97.9072 3.51856 98.2074 4.08297 98.5437 4.74345C98.8799 5.40393 99.4323 6.48472 99.7806 7.1452C100.141 7.80568 100.657 8.77838 100.933 9.30677C101.21 9.83515 101.822 11 102.29 11.8886C102.747 12.7773 103.443 14.1103 103.815 14.8308C104.2 15.5633 104.776 16.6681 105.1 17.2926C105.437 17.917 106.193 19.3821 106.794 20.5349C107.382 21.6878 107.922 22.6965 107.983 22.7566C108.031 22.8286 108.079 23.0448 108.079 23.2369C108.091 23.5011 107.995 23.6452 107.778 23.7773C107.538 23.9214 107.43 23.9334 107.202 23.8013C107.058 23.7293 106.71 23.2369 106.445 22.7205C106.169 22.2162 105.533 20.9913 105.016 19.9945C104.5 19.0098 103.888 17.821 103.635 17.3526C103.395 16.8963 102.855 15.8635 102.434 15.071C102.026 14.2784 101.402 13.0895 101.053 12.429C100.705 11.7686 100.105 10.6037 99.7085 9.84716C99.3122 9.09061 98.6157 7.76965 98.1714 6.90502C97.7271 6.0524 97.0066 4.6714 96.5742 3.84279C96.1539 3.01419 95.7336 2.26965 95.6616 2.18559C95.5895 2.10153 95.4935 2.07751 95.4574 2.12555C95.4094 2.17358 95.1572 2.64192 94.881 3.1583C94.6168 3.66266 94.1725 4.49127 93.9083 4.98362C93.6441 5.47598 93.2118 6.29258 92.9476 6.78493C92.6834 7.27729 92.2511 8.09389 91.9869 8.58624C91.7227 9.0786 91.3024 9.88319 91.0382 10.3635C90.786 10.8319 90.3177 11.7205 90.0055 12.309C89.6932 12.9094 89.2849 13.6659 89.1048 13.9902C88.9247 14.3264 88.5044 15.107 88.1801 15.7314C87.8439 16.3559 87.2915 17.4127 86.9432 18.0731C86.595 18.7336 86.1747 19.5142 86.0066 19.8144C85.8504 20.1146 85.3941 20.9793 84.9858 21.7358C84.5895 22.4924 84.1452 23.2969 83.9891 23.5131C83.809 23.7533 83.6048 23.8974 83.4247 23.8974C83.2806 23.8974 83.0644 23.8013 82.9443 23.6812C82.8242 23.5731 82.7402 23.369 82.7402 23.2369C82.7402 23.1048 82.8122 22.8646 82.8963 22.6965C82.9803 22.5284 83.2445 22.048 83.4607 21.6157C83.6889 21.1834 83.905 20.8111 83.941 20.7751C83.9771 20.7391 84.2172 20.3068 84.4574 19.8144C84.7096 19.3221 85.1059 18.5655 85.3461 18.1332C85.5862 17.7009 85.9825 16.9803 86.2227 16.512C86.4629 16.0557 86.8592 15.3231 87.0873 14.8908C87.3155 14.4585 87.7358 13.6779 88.024 13.1496C88.3002 12.6212 88.6965 11.8886 88.9007 11.5284C89.0928 11.1681 89.393 10.6277 89.5611 10.3275C89.7293 10.0273 90.0655 9.41485 90.3057 8.94651C90.5579 8.49017 91.0142 7.62555 91.3264 7.02511C91.6386 6.43668 92.0349 5.70415 92.2031 5.40393C92.3712 5.10371 92.7074 4.49127 92.9476 4.02293C93.1998 3.56659 93.6921 2.6179 94.0404 1.93341C94.4007 1.24891 94.833 0.540393 95.0131 0.348253C95.1812 0.156114 95.4214 0 95.5535 0ZM33.4683 0.120087C39.5928 0.120087 39.7609 0.132096 39.9891 0.360262C40.1212 0.492358 40.2293 0.708515 40.2293 0.840611C40.2293 0.972707 40.1212 1.18886 39.9891 1.32096C39.7609 1.54913 39.5928 1.56114 33.9247 1.56114C29.3734 1.56114 28.0884 1.59716 28.0524 1.71725C28.0284 1.7893 27.9924 3.29039 27.9924 5.04367C27.9803 6.79694 28.0164 8.88646 28.1605 11.1681H33.024C36.6026 11.1681 37.9956 11.2162 38.2718 11.3242C38.488 11.3963 38.7282 11.5764 38.8002 11.7085C38.9083 11.9007 38.8963 12.0207 38.548 12.6092H33.3242C28.7849 12.6092 28.0884 12.6332 28.0404 12.7893C28.0044 12.8854 27.9803 13.69 27.9803 14.5666C27.9803 15.4312 28.0164 17.5688 28.1605 22.4563H39.869L40.0491 22.7325C40.1932 22.9367 40.2052 23.0688 39.9891 23.6572H33.4683C27.464 23.6452 26.9476 23.6332 26.8155 23.441C26.6954 23.2849 26.6594 20.595 26.6234 0.612445L26.8996 0.360262C27.1758 0.120087 27.3199 0.120087 33.4683 0.120087ZM75.9552 0.120087C79.786 0.132096 83.1605 0.180131 83.4607 0.240175C83.7609 0.300218 84.0731 0.444323 84.1572 0.56441C84.2413 0.684498 84.3013 0.864629 84.3013 0.960699C84.3013 1.05677 84.2293 1.2369 84.1452 1.35699C84.0131 1.54913 83.6769 1.57314 76.6758 1.6452L76.6157 12.7052C76.5557 23.5852 76.5557 23.7653 76.3155 23.9454C76.1834 24.0535 75.9793 24.1376 75.8592 24.1376C75.7511 24.1376 75.559 24.0295 75.4389 23.8974C75.2467 23.6692 75.2347 22.9007 75.1146 1.62118L71.9563 1.59716C69.3504 1.56114 68.774 1.52511 68.6299 1.381C68.5338 1.28493 68.4378 1.04476 68.4378 0.85262C68.4258 0.600437 68.4978 0.444323 68.702 0.300218C68.9541 0.144105 69.8308 0.120087 75.9552 0.120087ZM12.5491 31.1747C12.8734 31.2107 13.5579 31.2948 14.0502 31.3428C14.5426 31.4028 15.155 31.4869 15.3952 31.5229C15.6474 31.559 15.8755 31.643 15.9116 31.7031C15.9476 31.7751 16.1037 31.8231 16.2718 31.8231C16.44 31.8231 16.5961 31.8832 16.6321 31.9432C16.6681 32.0153 16.8242 32.0633 16.9924 32.0633C17.1605 32.0633 17.2926 32.1234 17.2926 32.1834C17.2926 32.2555 17.3766 32.3035 17.4727 32.3035C17.5688 32.3035 17.881 32.4236 18.1572 32.5557C18.4454 32.6998 19.0459 33.0721 19.5142 33.3843C19.9705 33.6845 20.4749 34.1168 20.619 34.321C20.7751 34.5371 20.8952 34.8013 20.8952 34.9214C20.8952 35.0295 20.8352 35.1976 20.7511 35.2817C20.667 35.3537 20.4509 35.4258 20.2707 35.4258C20.0786 35.4258 19.6343 35.2216 19.238 34.9694C18.8657 34.7173 18.2052 34.309 17.7729 34.0688C17.3406 33.8406 16.6441 33.5164 16.2118 33.3483C15.7795 33.1921 15.2391 33 15.0109 32.9279C14.7828 32.8559 14.0983 32.7358 13.5098 32.6517C12.6332 32.5317 12.1889 32.5317 11.1081 32.6638C10.3755 32.7478 9.40284 32.94 8.94651 33.0841C8.47817 33.2402 7.88974 33.4563 7.62555 33.5764C7.36135 33.6965 6.71288 34.0808 6.1845 34.417C5.65611 34.7653 4.87555 35.4138 4.44323 35.8701C4.01092 36.3144 3.4345 37.0109 3.17031 37.4072C2.8941 37.8035 2.56987 38.3439 2.43777 38.6081C2.30568 38.8723 2.08952 39.4127 1.95742 39.809C1.82533 40.2052 1.65721 40.7817 1.58515 41.1059C1.50109 41.4181 1.44105 42.3428 1.44105 43.1714C1.44105 44.0721 1.5131 44.9247 1.60917 45.3089C1.70524 45.6452 1.88537 46.2576 2.02948 46.6539C2.17358 47.0502 2.50983 47.7587 2.78603 48.2151C3.06223 48.6834 3.55459 49.3679 3.86681 49.7522C4.17904 50.1245 4.77948 50.7129 5.18777 51.0491C5.60808 51.3854 6.04039 51.7336 6.14847 51.8297C6.26856 51.9258 6.41266 51.9978 6.48472 51.9978C6.54476 51.9978 6.6048 52.0338 6.6048 52.0939C6.6048 52.1419 6.74891 52.25 6.94105 52.3341C7.12118 52.4181 7.33734 52.4782 7.40939 52.4782C7.49345 52.4782 7.5655 52.5382 7.5655 52.5983C7.5655 52.6703 7.64956 52.7183 7.74563 52.7183C7.8417 52.7183 8.03384 52.7784 8.16594 52.8384C8.29803 52.9105 8.51419 53.0186 8.64629 53.0786C8.77838 53.1507 9.00655 53.1987 9.15065 53.1987C9.30677 53.1987 9.47489 53.2467 9.54694 53.3068C9.60699 53.3668 9.90721 53.4509 10.2074 53.4989C10.5076 53.5469 11.5524 53.583 12.5491 53.583C13.5338 53.583 14.5906 53.5469 14.8908 53.4989C15.191 53.4509 15.4793 53.3668 15.5393 53.3068C15.6114 53.2467 15.7555 53.1987 15.8755 53.1987C15.9956 53.1987 16.1878 53.1507 16.2959 53.0906C16.4159 53.0306 16.9203 52.7904 17.4127 52.5622C17.905 52.3341 18.6376 51.9017 19.0338 51.6135C19.4301 51.3133 19.8624 51.0611 19.9945 51.0371C20.1266 51.0251 20.3308 51.0131 20.4389 51.0251C20.559 51.0251 20.7031 51.1452 20.7751 51.2773C20.8592 51.4454 20.8472 51.6135 20.7151 51.8777C20.619 52.0819 20.1987 52.4902 19.7784 52.7904C19.3701 53.0906 18.6376 53.5229 18.1572 53.7511C17.6889 53.9793 17.2205 54.1594 17.1365 54.1594C17.0524 54.1594 16.9323 54.2074 16.8603 54.2675C16.8002 54.3275 16.2598 54.4956 15.6714 54.6517C14.7347 54.9039 14.3144 54.94 12.429 54.94C10.976 54.94 10.0753 54.8919 9.66703 54.7718C9.33079 54.6878 8.74236 54.5076 8.34607 54.3755C7.94978 54.2434 7.27729 53.9672 6.84498 53.7631C6.41266 53.559 5.74017 53.1747 5.34389 52.9105C4.9476 52.6583 4.16703 51.9978 3.61463 51.4694C3.06223 50.929 2.3417 50.0884 2.00546 49.5961C1.66921 49.1037 1.24891 48.3712 1.06878 47.9749C0.888646 47.5786 0.66048 47.0022 0.552402 46.69C0.444323 46.3657 0.276201 45.7172 0.180131 45.2489C0.0840611 44.7686 0 43.8079 0 43.1114C0 42.4148 0.0840611 41.4541 0.180131 40.9858C0.276201 40.5055 0.444323 39.857 0.552402 39.5448C0.648472 39.2205 0.876638 38.6681 1.04476 38.3079C1.21288 37.9476 1.56114 37.2991 1.82533 36.8668C2.07751 36.4345 2.71397 35.6539 3.24236 35.1255C3.75873 34.5972 4.28712 34.0808 4.40721 33.9847C4.52729 33.8766 4.9476 33.5764 5.34389 33.3122C5.74017 33.048 6.3286 32.7118 6.66485 32.5557C6.98908 32.3996 7.38537 32.2314 7.52948 32.1714C7.68559 32.1114 7.92576 32.0153 8.06987 31.9432C8.22598 31.8832 8.76638 31.7151 9.27074 31.583C9.78712 31.4509 10.4956 31.3428 10.8319 31.3308C11.1801 31.3308 11.5764 31.2707 11.7085 31.2107C11.8406 31.1507 12.2129 31.1386 12.5491 31.1747ZM84.0611 31.3068C84.2293 31.3308 84.3974 31.3908 84.4334 31.4389C84.4814 31.4869 85.1299 32.3876 85.8865 33.4443C86.643 34.5011 88.2282 36.7227 89.417 38.3679C90.6059 40.0251 91.9269 41.8384 92.3472 42.4269C92.7795 43.0033 93.1758 43.4716 93.2478 43.4716C93.3079 43.4716 93.6921 43.0033 94.0884 42.4269C94.4847 41.8624 94.869 41.3341 94.929 41.262C95.0011 41.19 95.1932 40.9378 95.3493 40.7096C95.5055 40.4814 95.6856 40.2413 95.7456 40.1692C95.7937 40.1092 96.6463 38.9203 97.643 37.5273C98.6277 36.1463 99.7085 34.6332 100.033 34.1648C100.369 33.7085 100.897 32.9279 101.234 32.4596C101.558 31.9793 101.954 31.4989 102.098 31.3908C102.254 31.2828 102.507 31.2347 102.675 31.2707C102.843 31.2948 103.047 31.4629 103.119 31.631C103.239 31.8712 103.275 34.441 103.275 43.2314C103.275 54.3635 103.275 54.5197 103.035 54.7598C102.903 54.8919 102.663 55 102.495 55C102.314 55 102.122 54.8919 102.014 54.7358C101.858 54.4956 101.834 53.1507 101.834 44.2522C101.834 35.2096 101.822 34.0688 101.654 34.2249C101.558 34.321 101.306 34.6572 101.09 34.9694C100.873 35.2817 100.069 36.3865 99.3122 37.4312C98.5557 38.476 97.631 39.7609 97.2467 40.2893C96.8624 40.8177 96.1059 41.8745 95.5655 42.631C95.0251 43.3876 94.3886 44.2522 94.1725 44.5524C93.9563 44.8526 93.6801 45.1528 93.5721 45.2369C93.452 45.309 93.2238 45.333 93.0196 45.2969C92.7314 45.2249 92.3111 44.7085 90.6419 42.3908C89.5251 40.8417 88.3963 39.2686 88.1441 38.9083C87.8799 38.548 87.2435 37.6594 86.7031 36.9269C86.1747 36.2063 85.5262 35.2937 85.262 34.9214C84.9978 34.5371 84.7216 34.2009 84.6616 34.1648C84.5775 34.1288 84.5415 37.5633 84.5415 54.6397L84.2653 54.8199C84.1212 54.9159 83.905 55 83.7849 55C83.6769 55 83.4727 54.8799 83.3406 54.7358C83.1004 54.4596 83.1004 54.3275 83.1004 43.2074C83.1004 34.6692 83.1365 31.8712 83.2445 31.643C83.3286 31.4869 83.4727 31.3308 83.5808 31.2948C83.6769 31.2707 83.893 31.2707 84.0611 31.3068ZM31.0066 31.3428C31.2828 31.3428 31.3788 31.4269 31.5349 31.7991C31.691 32.1834 31.7151 32.9039 31.679 37.2511C31.655 40.0011 31.667 42.2828 31.7031 42.3188C31.7391 42.3548 34.5611 42.3788 37.9716 42.3908C41.3941 42.3908 44.2402 42.3668 44.3122 42.3308C44.3843 42.2948 44.4323 40.3974 44.4323 37.0229C44.4323 32.2074 44.4563 31.7391 44.6485 31.5469C44.7565 31.4269 44.9967 31.3308 45.1769 31.3428C45.429 31.3428 45.5611 31.4389 45.6932 31.7031C45.8493 32.0153 45.8734 33.5404 45.8734 43.1714C45.8734 51.8177 45.8373 54.3515 45.7172 54.5797C45.6452 54.7478 45.5491 54.8919 45.5131 54.8919C45.4771 54.8919 45.2969 54.9039 45.1168 54.9159C44.9247 54.9279 44.6965 54.8559 44.6124 54.7598C44.4683 54.6157 44.4323 53.619 44.3723 43.8919H31.643L31.583 49.2718C31.5229 54.4836 31.5109 54.6638 31.2828 54.8319C31.1507 54.9279 30.9825 55 30.9225 55C30.8504 55 30.6823 54.9159 30.262 54.6397V43.2314C30.262 32.6517 30.274 31.8111 30.4662 31.583C30.5862 31.4509 30.8144 31.3428 31.0066 31.3428ZM66.024 31.4389C69.3024 31.4629 71.9683 31.5349 72.0764 31.595C72.2085 31.667 72.2926 31.8472 72.2926 32.0993C72.3046 32.3035 72.2325 32.5437 72.1485 32.6277C72.0284 32.7358 70.5153 32.7838 60.2238 32.8439V42.571L70.6114 42.631L70.7915 42.9072C70.9356 43.1114 70.9476 43.2434 70.7314 43.8319H67.0928C65.0993 43.8319 62.7216 43.8679 60.1638 44.012L60.2238 53.619L66.1081 53.655C70.5153 53.679 72.0284 53.7271 72.1485 53.8351C72.2325 53.9192 72.3046 54.1594 72.2926 54.3755C72.2926 54.6397 72.2205 54.7958 72.0524 54.8799C71.8963 54.952 69.4945 55 65.5917 55C60.2598 55 59.3472 54.976 58.8428 54.6397V43.2675C58.8308 34.1048 58.8668 31.8592 58.9869 31.7391C59.071 31.655 59.3712 31.5469 59.6594 31.4989C59.9476 31.4389 62.8057 31.4148 66.024 31.4389Z" fill="#1A1A1A"/>
</svg>
