<svg width="118" height="60" viewBox="0 0 118 60" fill="none" xmlns="http://www.w3.org/2000/svg">
<path opacity="0.81" fill-rule="evenodd" clip-rule="evenodd" d="M8.29258 0.0917031C10.6114 0.117904 13.0087 0.196507 13.6245 0.275109C14.2402 0.366812 15.0262 0.510917 15.393 0.60262C15.7467 0.694323 16.3624 0.877729 16.7424 1.00873C17.1223 1.13974 17.4236 1.28384 17.4236 1.33624C17.4236 1.40175 17.5284 1.44105 17.6463 1.44105C17.7773 1.44105 18.0262 1.55895 18.2096 1.70306C18.393 1.84716 18.5764 1.96507 18.6288 1.96507C18.6943 1.96507 18.9301 2.13537 19.1528 2.35808C19.3886 2.56769 19.6376 2.75109 19.7162 2.75109C19.7817 2.75109 19.9651 2.9083 20.1092 3.0917C20.2533 3.28821 20.5022 3.60262 20.6725 3.78603C20.8297 3.96943 21.1703 4.53275 21.4192 5.04367C21.6812 5.54148 21.9694 6.31441 22.0873 6.74672C22.2445 7.29694 22.31 8.12227 22.31 9.43231C22.3231 10.6638 22.2707 11.5415 22.1528 11.9214C22.0611 12.2489 21.917 12.6812 21.8515 12.9039C21.7729 13.1135 21.5371 13.6769 21.3013 14.1485C21.0262 14.7249 20.5677 15.3406 19.8472 16.0611C18.9956 16.9258 18.5895 17.2271 17.6856 17.6594C17.0699 17.9476 16.1004 18.2882 15.524 18.4192C14.9476 18.5371 13.8865 18.6943 13.1659 18.7598C12.4454 18.8384 10.2314 18.9301 4.65066 19.0611L4.58515 22.3493C4.53275 25.0218 4.48035 25.6769 4.32314 25.8603C4.21834 25.9782 4.03493 26.083 3.93013 26.083C3.82533 26.0699 3.65502 26.0044 3.56332 25.9127C3.45342 25.8028 3.3 25.5 3.27511 25.2838C3.18341 25.2838 3.15721 21.1441 3.19651 12.9956C3.22271 6.24891 3.26201 0.720524 3.26201 0.720524C3.26201 0.720524 3.36681 0.60262 3.49782 0.445415C3.62882 0.30131 3.81223 0.144105 3.90393 0.117904C3.98253 0.0917031 5.9607 0.0786026 8.29258 0.0917031ZM4.65066 1.76856V17.3581C10.7424 17.3581 12.8908 17.3057 13.3624 17.2533C13.8341 17.2009 14.4498 17.083 14.738 17.0175C15.0262 16.9389 15.6419 16.7555 16.1135 16.6114C16.5852 16.4672 17.2533 16.1528 17.6201 15.9039C17.9738 15.6681 18.393 15.3668 18.5502 15.2358C18.6943 15.1048 19.0349 14.6987 19.31 14.345C19.5852 13.9782 19.8996 13.4803 20.0044 13.2314C20.1092 12.9825 20.2533 12.655 20.3057 12.5109C20.3712 12.3668 20.4498 12.0655 20.5022 11.8559C20.5415 11.6332 20.6463 11.0175 20.7118 10.4803C20.7773 9.94323 20.8035 9.0262 20.7511 8.44978C20.7118 7.87336 20.6201 7.19214 20.5546 6.94323C20.476 6.69432 20.2533 6.131 20.0437 5.69869C19.8341 5.26638 19.3624 4.61135 19.0087 4.25764C18.6419 3.89083 17.9869 3.37991 17.5284 3.1048C17.0699 2.84279 16.2314 2.47598 15.655 2.30568C15.0786 2.12227 14.2271 1.92576 13.7555 1.84716C13.2838 1.78166 11.9869 1.68996 10.8734 1.66376C9.75983 1.63755 7.89956 1.65065 6.74672 1.68996L4.65066 1.76856ZM49.4804 0C49.5721 0 49.7555 0.0393013 49.8734 0.104803C49.9913 0.157205 50.3712 0.615721 50.7249 1.11354C51.0655 1.62445 51.6288 2.42358 51.9694 2.9083C52.3231 3.37991 53.083 4.44105 53.6725 5.26638C54.2751 6.0786 55.2314 7.40175 55.8079 8.18777C56.3843 8.9869 57.1703 10.0742 57.5371 10.6114C57.9039 11.1485 58.2445 11.6201 58.2969 11.6594C58.3493 11.6987 58.6245 12.0786 58.9258 12.5109C59.2271 12.9432 59.9083 13.9127 60.4585 14.6725C60.9956 15.4323 61.5197 16.1397 61.6114 16.2445C61.7031 16.3493 62.5022 17.4629 63.4061 18.7074C64.31 19.9651 65.3319 21.4192 65.6987 21.9432C66.0524 22.4803 66.393 22.9127 66.4454 22.9127C66.5109 22.9258 66.5502 17.9345 66.5502 11.8297C66.5502 0.86463 66.5502 0.720524 66.8122 0.432314C66.9563 0.262009 67.2183 0.131004 67.4017 0.131004C67.6114 0.131004 67.7948 0.248908 67.9258 0.458515C68.0961 0.746725 68.1223 2.39738 68.1223 13.1397C68.1223 23.9214 68.0961 25.5197 67.9258 25.7817C67.7948 25.9651 67.5983 26.0699 67.3624 26.0699C67.1659 26.0699 66.917 25.9913 66.8122 25.8996C66.7074 25.8079 65.9345 24.7991 65.1092 23.6463C64.2838 22.4935 63.2751 21.0786 62.8559 20.5022C62.4367 19.9258 61.31 18.3668 60.3668 17.0306C59.4105 15.6943 58.3886 14.2795 58.0873 13.8865C57.786 13.4934 57.2227 12.7205 56.8428 12.1572C56.4498 11.607 55.5852 10.4017 54.9301 9.47162C54.262 8.55459 53.1747 7.06114 52.5196 6.15721C51.8646 5.25328 51.1441 4.24454 50.9214 3.90393C50.6856 3.56332 50.4629 3.27511 50.3974 3.27511C50.345 3.27511 50.3057 8.21397 50.3057 14.2533C50.3057 23.8035 50.2795 25.2707 50.1092 25.6507C49.9651 25.952 49.821 26.0699 49.5852 26.0699C49.4017 26.0699 49.179 25.9913 49.0873 25.9127C48.9825 25.821 48.9301 25.6638 48.9563 25.5852C48.9825 25.4935 48.9301 25.4148 48.8646 25.4148C48.7729 25.4148 48.7336 21.2227 48.7336 13.1004C48.7336 3.49782 48.7729 0.720524 48.8908 0.497817C48.9825 0.327511 49.1135 0.157205 49.1921 0.104803C49.2576 0.0524017 49.4017 0 49.4804 0ZM104.24 0C104.371 0 104.594 0.0786026 104.738 0.183406C104.882 0.28821 105.38 1.12664 105.852 2.05677C106.323 2.9738 106.729 3.75983 106.769 3.79913C106.808 3.83843 107.135 4.45415 107.502 5.17467C107.869 5.8952 108.472 7.07424 108.852 7.79476C109.245 8.51528 109.808 9.57642 110.109 10.1528C110.41 10.7293 111.079 12 111.59 12.9694C112.087 13.9389 112.847 15.393 113.253 16.179C113.672 16.9782 114.301 18.1834 114.655 18.8646C115.022 19.5459 115.847 21.1441 116.502 22.4017C117.144 23.6594 117.734 24.7598 117.799 24.8253C117.852 24.9039 117.904 25.1397 117.904 25.3493C117.917 25.6376 117.812 25.7948 117.576 25.9389C117.314 26.0961 117.197 26.1092 116.948 25.9651C116.79 25.8865 116.41 25.3493 116.122 24.786C115.821 24.2358 115.127 22.8996 114.563 21.8122C114 20.738 113.332 19.441 113.057 18.9301C112.795 18.4323 112.205 17.3057 111.747 16.441C111.301 15.5764 110.62 14.2795 110.24 13.559C109.86 12.8384 109.205 11.5677 108.773 10.7424C108.341 9.91703 107.581 8.47598 107.096 7.53275C106.611 6.60262 105.825 5.09607 105.354 4.19214C104.895 3.28821 104.437 2.47598 104.358 2.38428C104.279 2.29258 104.175 2.26638 104.135 2.31878C104.083 2.37118 103.808 2.8821 103.507 3.44541C103.218 3.99563 102.734 4.89956 102.445 5.43668C102.157 5.9738 101.686 6.86463 101.397 7.40175C101.109 7.93886 100.638 8.82969 100.349 9.36681C100.061 9.90393 99.6026 10.7817 99.3144 11.3057C99.0393 11.8166 98.5284 12.786 98.1878 13.4279C97.8472 14.083 97.4017 14.9083 97.2052 15.262C97.0087 15.6288 96.5502 16.4803 96.1965 17.1616C95.8297 17.8428 95.2271 18.9956 94.8472 19.7162C94.4672 20.4367 94.0087 21.2882 93.8253 21.6157C93.655 21.9432 93.1572 22.8865 92.7118 23.7118C92.2795 24.5371 91.7948 25.4148 91.6245 25.6507C91.428 25.9127 91.2052 26.0699 91.0087 26.0699C90.8515 26.0699 90.6157 25.9651 90.4847 25.8341C90.3537 25.7162 90.262 25.4935 90.262 25.3493C90.262 25.2052 90.3406 24.9432 90.4323 24.7598C90.524 24.5764 90.8122 24.0524 91.048 23.5808C91.2969 23.1092 91.5328 22.7031 91.5721 22.6638C91.6114 22.6245 91.8734 22.1528 92.1354 21.6157C92.4105 21.0786 92.8428 20.2533 93.1048 19.7817C93.3668 19.31 93.7991 18.524 94.0611 18.0131C94.3231 17.5153 94.7555 16.7162 95.0044 16.2445C95.2533 15.7729 95.7118 14.9214 96.0262 14.345C96.3275 13.7686 96.7598 12.9694 96.9825 12.5764C97.1921 12.1834 97.5197 11.5939 97.7031 11.2664C97.8865 10.9389 98.2533 10.2707 98.5153 9.75983C98.7904 9.26201 99.2882 8.31878 99.6288 7.66376C99.9694 7.02183 100.402 6.22271 100.585 5.8952C100.769 5.56769 101.135 4.89956 101.397 4.38865C101.672 3.89083 102.21 2.8559 102.59 2.10917C102.983 1.36245 103.454 0.58952 103.651 0.379913C103.834 0.170306 104.096 0 104.24 0ZM36.5109 0.131004C43.1921 0.131004 43.3755 0.144105 43.6245 0.393013C43.7686 0.537118 43.8865 0.772926 43.8865 0.917031C43.8865 1.06114 43.7686 1.29694 43.6245 1.44105C43.3755 1.68996 43.1921 1.70306 37.0087 1.70306C32.0437 1.70306 30.6419 1.74236 30.6026 1.87336C30.5764 1.95197 30.5371 3.58952 30.5371 5.50218C30.524 7.41485 30.5633 9.69432 30.7205 12.1834H36.0262C39.9301 12.1834 41.4498 12.2358 41.7511 12.3537C41.9869 12.4323 42.2489 12.6288 42.3275 12.7729C42.4454 12.9825 42.4323 13.1135 42.0524 13.7555H36.3537C31.4017 13.7555 30.6419 13.7817 30.5895 13.952C30.5502 14.0568 30.524 14.9345 30.524 15.8908C30.524 16.8341 30.5633 19.1659 30.7205 24.4978H43.4935L43.69 24.7991C43.8472 25.0218 43.8603 25.1659 43.6245 25.8079H36.5109C29.9607 25.7948 29.3974 25.7817 29.2533 25.5721C29.1223 25.4017 29.083 22.4672 29.0437 0.668122L29.345 0.393013C29.6463 0.131004 29.8035 0.131004 36.5109 0.131004ZM82.8603 0.131004C87.0393 0.144105 90.7205 0.196507 91.048 0.262009C91.3755 0.327511 91.7162 0.484716 91.8079 0.61572C91.8996 0.746725 91.9651 0.943231 91.9651 1.04803C91.9651 1.15284 91.8865 1.34935 91.7948 1.48035C91.6507 1.68996 91.2838 1.71616 83.6463 1.79476L83.5808 13.8603C83.5153 25.7293 83.5153 25.9258 83.2533 26.1223C83.1092 26.2402 82.8865 26.3319 82.7555 26.3319C82.6376 26.3319 82.428 26.214 82.2969 26.0699C82.0873 25.821 82.0742 24.9825 81.9432 1.76856L78.4978 1.74236C75.655 1.70306 75.0262 1.66376 74.869 1.50655C74.7642 1.40175 74.6594 1.13974 74.6594 0.930131C74.6463 0.655022 74.7249 0.484716 74.9476 0.327511C75.2227 0.157205 76.179 0.131004 82.8603 0.131004ZM13.69 34.0087C14.0437 34.048 14.7904 34.1397 15.3275 34.1921C15.8646 34.2576 16.5328 34.3493 16.7948 34.3886C17.0699 34.4279 17.3188 34.5197 17.3581 34.5852C17.3974 34.6638 17.5677 34.7162 17.7511 34.7162C17.9345 34.7162 18.1048 34.7817 18.1441 34.8472C18.1834 34.9258 18.3537 34.9782 18.5371 34.9782C18.7205 34.9782 18.8646 35.0437 18.8646 35.1092C18.8646 35.1878 18.9563 35.2402 19.0611 35.2402C19.1659 35.2402 19.5066 35.3712 19.8079 35.5153C20.1223 35.6725 20.7773 36.0786 21.2882 36.4192C21.786 36.7467 22.3362 37.2183 22.4935 37.441C22.6638 37.6769 22.7948 37.9651 22.7948 38.0961C22.7948 38.214 22.7293 38.3974 22.6376 38.4891C22.5459 38.5677 22.31 38.6463 22.1135 38.6463C21.9039 38.6463 21.4192 38.4236 20.9869 38.1485C20.5808 37.8734 19.8603 37.428 19.3886 37.1659C18.917 36.917 18.1572 36.5633 17.6856 36.3799C17.214 36.2096 16.6245 36 16.3755 35.9214C16.1266 35.8428 15.3799 35.7118 14.738 35.6201C13.7817 35.4891 13.2969 35.4891 12.1179 35.6332C11.3188 35.7249 10.2576 35.9345 9.75983 36.0917C9.24891 36.262 8.60699 36.4978 8.31878 36.6288C8.03057 36.7598 7.32314 37.179 6.74672 37.5459C6.17031 37.9258 5.31878 38.6332 4.84716 39.131C4.37555 39.6157 3.74673 40.3755 3.45852 40.8079C3.15721 41.2402 2.80349 41.8297 2.65939 42.1179C2.51528 42.4061 2.27948 42.9956 2.13537 43.4279C1.99127 43.8603 1.80786 44.4891 1.72926 44.8428C1.63755 45.1834 1.57205 46.1921 1.57205 47.0961C1.57205 48.0786 1.65066 49.0087 1.75546 49.4279C1.86026 49.7948 2.05677 50.4629 2.21397 50.8952C2.37118 51.3275 2.73799 52.1004 3.0393 52.5983C3.34061 53.1092 3.87773 53.8559 4.21834 54.2751C4.55895 54.6812 5.21397 55.3231 5.65939 55.69C6.1179 56.0568 6.58952 56.4367 6.70742 56.5415C6.83843 56.6463 6.99563 56.7249 7.07424 56.7249C7.13974 56.7249 7.20524 56.7642 7.20524 56.8297C7.20524 56.8821 7.36245 57 7.57205 57.0917C7.76856 57.1834 8.00437 57.2489 8.08297 57.2489C8.17467 57.2489 8.25328 57.3144 8.25328 57.3799C8.25328 57.4585 8.34498 57.5109 8.44978 57.5109C8.55459 57.5109 8.76419 57.5764 8.9083 57.6419C9.0524 57.7205 9.28821 57.8384 9.43231 57.9039C9.57642 57.9825 9.82533 58.0349 9.98253 58.0349C10.1528 58.0349 10.3362 58.0873 10.4148 58.1528C10.4803 58.2183 10.8079 58.31 11.1354 58.3624C11.4629 58.4148 12.6026 58.4542 13.69 58.4542C14.7642 58.4542 15.917 58.4148 16.2445 58.3624C16.5721 58.31 16.8865 58.2183 16.952 58.1528C17.0306 58.0873 17.1878 58.0349 17.3188 58.0349C17.4498 58.0349 17.6594 57.9825 17.7773 57.917C17.9083 57.8515 18.4585 57.5895 18.9956 57.3406C19.5328 57.0917 20.3319 56.6201 20.7642 56.3057C21.1965 55.9782 21.6681 55.7031 21.8122 55.6769C21.9563 55.6638 22.179 55.6507 22.2969 55.6638C22.4279 55.6638 22.5852 55.7948 22.6638 55.9389C22.7555 56.1223 22.7424 56.3057 22.5983 56.5939C22.4934 56.8166 22.0349 57.262 21.5764 57.5895C21.131 57.917 20.3319 58.3886 19.8079 58.6376C19.2969 58.8865 18.786 59.083 18.6943 59.083C18.6026 59.083 18.4716 59.1354 18.393 59.2009C18.3275 59.2664 17.738 59.4498 17.0961 59.6201C16.0742 59.8952 15.6157 59.9345 13.559 59.9345C11.9738 59.9345 10.9913 59.8821 10.5459 59.7511C10.179 59.6594 9.53712 59.4629 9.1048 59.3188C8.67249 59.1747 7.93886 58.8734 7.46725 58.6507C6.99563 58.4279 6.26201 58.0087 5.82969 57.7205C5.39738 57.4454 4.54585 56.7249 3.94323 56.1485C3.34061 55.559 2.55459 54.6419 2.18777 54.1048C1.82096 53.5677 1.36245 52.7686 1.16594 52.3362C0.969432 51.9039 0.720524 51.2751 0.60262 50.9345C0.484716 50.5808 0.30131 49.8734 0.196507 49.3624C0.091703 48.8384 0 47.7904 0 47.0306C0 46.2707 0.091703 45.2227 0.196507 44.7118C0.30131 44.1878 0.484716 43.4803 0.60262 43.1397C0.707424 42.786 0.956332 42.1834 1.13974 41.7904C1.32314 41.3974 1.70306 40.69 1.99127 40.2183C2.26638 39.7467 2.9607 38.8952 3.53712 38.3188C4.10044 37.7424 4.67686 37.179 4.80786 37.0742C4.93886 36.9563 5.39738 36.6288 5.82969 36.3406C6.26201 36.0524 6.90393 35.6856 7.27074 35.5153C7.62445 35.345 8.05677 35.1616 8.21397 35.0961C8.38428 35.0306 8.64629 34.9258 8.80349 34.8472C8.9738 34.7817 9.56332 34.5983 10.1135 34.4541C10.6769 34.31 11.4498 34.1921 11.8166 34.179C12.1965 34.179 12.6288 34.1135 12.7729 34.048C12.917 33.9825 13.3231 33.9694 13.69 34.0087ZM91.7031 34.1528C91.8865 34.179 92.0699 34.2445 92.1092 34.2969C92.1616 34.3493 92.869 35.3319 93.6943 36.4847C94.5197 37.6376 96.2489 40.0611 97.5459 41.8559C98.8428 43.6638 100.284 45.6419 100.742 46.2838C101.214 46.9127 101.646 47.4236 101.725 47.4236C101.79 47.4236 102.21 46.9127 102.642 46.2838C103.074 45.6681 103.493 45.0917 103.559 45.0131C103.638 44.9345 103.847 44.6594 104.017 44.4105C104.188 44.1616 104.384 43.8996 104.45 43.821C104.502 43.7555 105.432 42.4585 106.52 40.9389C107.594 39.4323 108.773 37.7817 109.127 37.2707C109.493 36.7729 110.07 35.9214 110.437 35.4105C110.79 34.8865 111.223 34.3624 111.38 34.2445C111.55 34.1266 111.825 34.0742 112.009 34.1135C112.192 34.1397 112.415 34.3231 112.493 34.5065C112.624 34.7686 112.664 37.5721 112.664 47.1616C112.664 59.3057 112.664 59.476 112.402 59.738C112.258 59.8821 111.996 60 111.812 60C111.616 60 111.406 59.8821 111.288 59.7118C111.118 59.4498 111.092 57.9825 111.092 48.2751C111.092 38.4105 111.079 37.1659 110.895 37.3362C110.79 37.441 110.515 37.8079 110.279 38.1485C110.044 38.4891 109.166 39.6943 108.341 40.8341C107.515 41.9738 106.507 43.3755 106.087 43.952C105.668 44.5284 104.843 45.6812 104.253 46.5066C103.664 47.3319 102.969 48.2751 102.734 48.6026C102.498 48.9301 102.197 49.2576 102.079 49.3493C101.948 49.4279 101.699 49.4542 101.476 49.4148C101.162 49.3362 100.703 48.7729 98.8821 46.2445C97.6638 44.5546 96.4323 42.8384 96.1572 42.4454C95.869 42.0524 95.1747 41.083 94.5852 40.2838C94.0087 39.4978 93.3013 38.5022 93.0131 38.0961C92.7249 37.6769 92.4236 37.31 92.3581 37.2707C92.2664 37.2314 92.2271 40.9782 92.2271 59.607L91.9258 59.8035C91.7686 59.9083 91.5328 60 91.4017 60C91.2838 60 91.0611 59.869 90.917 59.7118C90.655 59.4105 90.655 59.2664 90.655 47.1354C90.655 37.821 90.6943 34.7686 90.8122 34.5197C90.9039 34.3493 91.0611 34.179 91.179 34.1397C91.2838 34.1135 91.5197 34.1135 91.7031 34.1528ZM33.8253 34.1921C34.1266 34.1921 34.2314 34.2838 34.4017 34.69C34.5721 35.1092 34.5983 35.8952 34.5589 40.6376C34.5327 43.6376 34.5459 46.1266 34.5852 46.1659C34.6245 46.2052 37.7031 46.2314 41.4236 46.2445C45.1572 46.2445 48.262 46.2183 48.3406 46.179C48.4192 46.1397 48.4716 44.0699 48.4716 40.3886C48.4716 35.1354 48.4978 34.6245 48.7074 34.4148C48.8253 34.2838 49.0873 34.179 49.2838 34.1921C49.559 34.1921 49.7031 34.2969 49.8472 34.5852C50.0175 34.9258 50.0437 36.5895 50.0437 47.0961C50.0437 56.5284 50.0044 59.2926 49.8734 59.5415C49.7948 59.7249 49.69 59.8821 49.6507 59.8821C49.6114 59.8821 49.4149 59.8952 49.2183 59.9083C49.0087 59.9214 48.7598 59.8428 48.6681 59.738C48.5109 59.5808 48.4716 58.4934 48.4061 47.8821H34.5197L34.4541 53.7511C34.3886 59.4367 34.3755 59.6332 34.1266 59.8166C33.9825 59.9214 33.7991 60 33.7336 60C33.655 60 33.4716 59.9083 33.0131 59.607V47.1616C33.0131 35.6201 33.0262 34.7031 33.2358 34.4541C33.3668 34.31 33.6157 34.1921 33.8253 34.1921ZM72.0262 34.2969C75.6026 34.3231 78.5109 34.4017 78.6288 34.4673C78.7729 34.5459 78.8646 34.7424 78.8646 35.0175C78.8777 35.2402 78.7991 35.5022 78.7074 35.5939C78.5764 35.7118 76.9258 35.7642 65.6987 35.8297V46.441L77.0306 46.5066L77.2271 46.8079C77.3843 47.0306 77.3974 47.1747 77.1616 47.8166H73.1921C71.0175 47.8166 68.4236 47.8559 65.6332 48.0131L65.6987 58.4935L72.1179 58.5328C76.9258 58.559 78.5764 58.6114 78.7074 58.7293C78.7991 58.821 78.8777 59.083 78.8646 59.3188C78.8646 59.607 78.786 59.7773 78.6026 59.869C78.4323 59.9476 75.8122 60 71.5546 60C65.738 60 64.7424 59.9738 64.1921 59.607V47.2009C64.179 37.2052 64.2183 34.7555 64.3493 34.6245C64.4411 34.5328 64.7686 34.4148 65.083 34.3624C65.3974 34.2969 68.5153 34.2707 72.0262 34.2969Z" fill="white"/>
</svg>
