<svg width="331" height="56" viewBox="0 0 331 56" fill="none" xmlns="http://www.w3.org/2000/svg">
<g clip-path="url(#clip0_673_646)">
<path d="M326.893 32.7823H320.613V21.4614H309.1V32.7823H302.834V4.98644H309.1V16.075H320.613V4.98644H326.893V32.7823ZM299.097 10.0819H291.164V32.7823H284.884V10.0819H276.999V4.98644H299.097V10.0819ZM260.715 9.67811V17.4126H263.429C264.771 17.4126 265.851 17.0224 266.663 16.2487C267.491 15.4615 267.906 14.4826 267.906 13.3254C267.906 10.8916 266.451 9.68036 263.539 9.68036H260.713L260.715 9.67811ZM277.772 32.7823H270.581L266.262 25.6298C265.937 25.0862 265.626 24.6035 265.328 24.1749C265.03 23.7509 264.732 23.3877 264.428 23.0832C264.123 22.7787 263.805 22.5464 263.476 22.3817C263.145 22.2238 262.788 22.1426 262.405 22.1426H260.718V32.7823H254.451V4.98644H264.376C271.125 4.98644 274.499 7.50821 274.499 12.5427C274.499 13.5149 274.348 14.4081 274.05 15.2292C273.753 16.0502 273.335 16.79 272.794 17.4532C272.25 18.1073 271.596 18.678 270.829 19.1539C270.056 19.6366 269.201 20.0065 268.256 20.2795V20.3584C268.673 20.4915 269.07 20.6968 269.46 20.9877C269.85 21.2787 270.22 21.617 270.586 22.0073C270.949 22.3975 271.294 22.8148 271.623 23.2569C271.955 23.699 272.253 24.1366 272.523 24.5674L277.777 32.7846L277.772 32.7823ZM240.749 21.793L237.764 12.4503C237.546 11.7488 237.388 10.9142 237.295 9.94878H237.144C237.079 10.7631 236.919 11.5706 236.661 12.3713L233.639 21.793H240.751H240.749ZM250.985 32.7823H244.164L242.185 26.5952H232.301L230.344 32.7823H223.554L233.677 4.98644H241.101L250.985 32.7823ZM220.177 32.7823H213.898V21.4614H202.385V32.7823H196.119V4.98644H202.385V16.075H213.898V4.98644H220.177V32.7823ZM173.116 10.0819V27.7004H176.22C178.934 27.7004 181.056 26.8861 182.606 25.2599C184.146 23.6313 184.922 21.4163 184.922 18.6103C184.922 15.9645 184.155 13.8803 182.626 12.3645C181.09 10.842 178.947 10.0819 176.182 10.0819H173.119H173.116ZM166.85 32.7823V4.98644H176.703C186.573 4.98644 191.511 9.49766 191.511 18.5359C191.511 22.8621 190.162 26.3155 187.469 28.9027C184.776 31.4898 181.189 32.7801 176.705 32.7801H166.853L166.85 32.7823ZM143.845 10.0819V27.7004H146.949C149.663 27.7004 151.785 26.8861 153.335 25.2599C154.875 23.6313 155.651 21.4163 155.651 18.6103C155.651 15.9645 154.884 13.8803 153.355 12.3645C151.819 10.842 149.676 10.0819 146.911 10.0819H143.848H143.845ZM137.582 32.7823V4.98644H147.434C157.305 4.98644 162.242 9.49766 162.242 18.5359C162.242 22.8621 160.893 26.3155 158.2 28.9027C155.507 31.4898 151.921 32.7801 147.436 32.7801H137.584L137.582 32.7823ZM131.268 32.7823H125.002V4.98644H131.268V32.7823ZM101.476 31.7154V25.5102C102.602 26.4553 103.824 27.1636 105.141 27.635C106.459 28.1042 107.787 28.3433 109.132 28.3433C109.926 28.3433 110.614 28.2711 111.195 28.1312C111.784 27.9846 112.274 27.7929 112.671 27.5358C113.068 27.2831 113.359 26.9877 113.55 26.6493C113.749 26.3042 113.841 25.9343 113.841 25.5305C113.841 24.9869 113.688 24.5042 113.379 24.0824C113.068 23.6516 112.644 23.2546 112.109 22.8982C111.572 22.5351 110.938 22.1832 110.196 21.8539C109.461 21.5155 108.667 21.1727 107.814 20.8208C105.644 19.9208 104.023 18.8156 102.958 17.5051C101.893 16.2013 101.363 14.6269 101.363 12.7818C101.363 11.3337 101.647 10.0886 102.229 9.05105C102.811 8.0067 103.605 7.15183 104.605 6.4774C105.611 5.80974 106.768 5.31351 108.085 4.99546C109.402 4.67742 110.798 4.51953 112.274 4.51953C113.749 4.51953 115.005 4.61201 116.124 4.78344C117.236 4.95486 118.267 5.22779 119.214 5.59095V11.3879C118.745 11.0631 118.242 10.7788 117.692 10.5352C117.144 10.2894 116.573 10.0864 115.991 9.91946C115.416 9.76157 114.834 9.64202 114.259 9.56307C113.683 9.49089 113.14 9.45029 112.623 9.45029C111.908 9.45029 111.268 9.5157 110.686 9.64879C110.104 9.78863 109.614 9.98036 109.211 10.224C108.814 10.4698 108.502 10.7608 108.277 11.1037C108.058 11.4488 107.952 11.8322 107.952 12.254C107.952 12.7232 108.071 13.1405 108.315 13.5036C108.561 13.8735 108.911 14.2254 109.366 14.5547C109.815 14.8795 110.365 15.2021 111.013 15.5201C111.653 15.8382 112.389 16.163 113.203 16.4991C114.315 16.9615 115.307 17.4577 116.194 17.981C117.08 18.5043 117.841 19.0998 118.47 19.7539C119.106 20.4148 119.589 21.1704 119.925 22.0163C120.263 22.8576 120.428 23.8433 120.428 24.9666C120.428 26.5207 120.137 27.8177 119.548 28.8779C118.959 29.929 118.165 30.7838 117.153 31.4312C116.147 32.0853 114.976 32.5568 113.638 32.841C112.296 33.1252 110.886 33.265 109.398 33.265C107.909 33.265 106.427 33.1387 105.051 32.8816C103.675 32.6244 102.478 32.2342 101.472 31.7177L101.476 31.7154Z" fill="black"/>
<path d="M201.731 51.055H199.164V44.1551C199.164 43.4108 199.198 42.5875 199.261 41.6875H199.198C199.063 42.3958 198.943 42.9033 198.835 43.2168L196.135 51.055H194.01L191.261 43.2957C191.186 43.0882 191.067 42.5491 190.897 41.6875H190.825C190.893 42.8243 190.929 43.819 190.929 44.6784V51.055H188.588V39.5244H192.391L194.748 46.3589C194.935 46.9047 195.073 47.4551 195.156 48.0077H195.206C195.348 47.3671 195.501 46.8145 195.663 46.3408L198.018 39.5244H201.727V51.055H201.731ZM186.743 51.055H179.827V39.5244H186.476V41.6379H182.425V44.2047H186.197V46.3092H182.425V48.946H186.743V51.0528V51.055ZM177.19 51.055H174.585V46.3589H169.81V51.055H167.211V39.5244H169.81V44.1235H174.585V39.5244H177.19V51.055ZM165.201 50.6445C164.362 51.0505 163.262 51.2535 161.906 51.2535C160.138 51.2535 158.746 50.7347 157.735 49.6949C156.72 48.6551 156.215 47.2679 156.215 45.5378C156.215 43.6927 156.784 42.1973 157.923 41.0514C159.062 39.9033 160.541 39.3304 162.357 39.3304C163.483 39.3304 164.432 39.4725 165.204 39.7589V42.2582C164.432 41.798 163.555 41.5657 162.567 41.5657C161.486 41.5657 160.609 41.9063 159.946 42.5875C159.283 43.2687 158.949 44.1912 158.949 45.3551C158.949 46.519 159.262 47.3581 159.89 48.019C160.514 48.6799 161.36 49.0115 162.423 49.0115C163.485 49.0115 164.362 48.7633 165.204 48.2694V50.6423L165.201 50.6445ZM149.433 41.5657C148.521 41.5657 147.797 41.9063 147.263 42.592C146.728 43.2754 146.457 44.1777 146.457 45.3032C146.457 46.4288 146.726 47.3468 147.263 48.0145C147.797 48.6799 148.501 49.0115 149.367 49.0115C150.233 49.0115 150.973 48.6866 151.499 48.0415C152.022 47.3942 152.286 46.4987 152.286 45.3529C152.286 44.207 152.031 43.2258 151.523 42.5627C151.014 41.8973 150.317 41.5657 149.433 41.5657ZM149.322 51.2535C147.671 51.2535 146.324 50.7167 145.284 49.643C144.245 48.5671 143.726 47.1664 143.726 45.4408C143.726 43.6183 144.254 42.1454 145.309 41.0198C146.365 39.8943 147.763 39.3281 149.505 39.3281C151.151 39.3281 152.482 39.8695 153.497 40.9454C154.512 42.0236 155.02 43.4446 155.02 45.2085C155.02 46.9724 154.492 48.4836 153.438 49.5911C152.387 50.7009 151.011 51.2535 149.32 51.2535H149.322ZM136.488 46.0995V49.14H137.895C138.493 49.14 138.966 49.0002 139.305 48.7205C139.645 48.443 139.815 48.0618 139.815 47.5791C139.815 47.0964 139.648 46.7581 139.312 46.4942C138.973 46.2303 138.509 46.0995 137.906 46.0995H136.485H136.488ZM136.488 41.4371V44.1709H137.629C138.163 44.1709 138.588 44.0423 138.894 43.7807C139.206 43.519 139.359 43.1627 139.359 42.707C139.359 41.8589 138.725 41.4371 137.46 41.4371H136.488ZM133.889 51.055V39.5244H138.089C139.377 39.5244 140.365 39.7612 141.055 40.2326C141.748 40.7018 142.093 41.3695 142.093 42.2243C142.093 42.8469 141.881 43.3905 141.461 43.8574C141.039 44.3243 140.503 44.6469 139.848 44.8296V44.8634C140.669 44.9649 141.326 45.2694 141.815 45.7724C142.305 46.2777 142.551 46.8889 142.551 47.613C142.551 48.6686 142.172 49.5077 141.418 50.128C140.66 50.746 139.63 51.055 138.321 51.055H133.889ZM125.737 41.471V44.6784H126.863C127.42 44.6784 127.867 44.516 128.205 44.1957C128.548 43.8687 128.722 43.4627 128.722 42.9822C128.722 41.9717 128.117 41.471 126.91 41.471H125.737ZM132.813 51.055H129.829L128.036 48.0889C127.9 47.8633 127.772 47.6626 127.648 47.4844C127.524 47.3085 127.402 47.1573 127.276 47.031C127.149 46.9047 127.019 46.8077 126.881 46.7401C126.743 46.6746 126.594 46.6408 126.437 46.6408H125.737V51.055H123.139V39.5244H127.255C130.055 39.5244 131.455 40.571 131.455 42.6597C131.455 43.0634 131.392 43.4333 131.268 43.7739C131.144 44.1145 130.973 44.4213 130.747 44.6965C130.521 44.9694 130.251 45.204 129.933 45.4025C129.612 45.6032 129.258 45.7566 128.866 45.8694V45.9032C129.04 45.9574 129.204 46.0431 129.364 46.1649C129.527 46.2867 129.68 46.4265 129.831 46.5867C129.982 46.7491 130.125 46.9205 130.262 47.1055C130.4 47.2904 130.524 47.4709 130.634 47.6491L132.813 51.0573V51.055ZM117.455 46.4942L116.216 42.6191C116.126 42.3281 116.061 41.983 116.022 41.5815H115.959C115.932 41.9198 115.867 42.2537 115.759 42.5852L114.504 46.4942H117.455ZM121.7 51.055H118.871L118.05 48.4882H113.95L113.138 51.055H110.323L114.522 39.5244H117.601L121.702 51.055H121.7ZM109.549 50.6445C108.71 51.0505 107.609 51.2535 106.253 51.2535C104.485 51.2535 103.093 50.7347 102.083 49.6949C101.068 48.6551 100.562 47.2679 100.562 45.5378C100.562 43.6927 101.131 42.1973 102.27 41.0514C103.409 39.9033 104.889 39.3304 106.705 39.3304C107.83 39.3304 108.78 39.4725 109.551 39.7589V42.2582C108.78 41.798 107.902 41.5657 106.914 41.5657C105.834 41.5657 104.956 41.9063 104.293 42.5875C103.63 43.2687 103.296 44.1912 103.296 45.3551C103.296 46.519 103.61 47.3581 104.237 48.019C104.862 48.6799 105.708 49.0115 106.77 49.0115C107.832 49.0115 108.71 48.7633 109.551 48.2694V50.6423L109.549 50.6445Z" fill="#4A4A4A"/>
<path d="M285.694 50.5775V48.0038C286.161 48.3963 286.668 48.6895 287.214 48.8858C287.76 49.0798 288.313 49.179 288.87 49.179C289.199 49.179 289.486 49.1497 289.727 49.091C289.971 49.0301 290.174 48.9512 290.338 48.8452C290.503 48.7414 290.625 48.6174 290.704 48.4775C290.787 48.3354 290.825 48.182 290.825 48.0128C290.825 47.7873 290.762 47.5865 290.634 47.4129C290.505 47.2347 290.329 47.07 290.106 46.9211C289.883 46.77 289.621 46.6257 289.312 46.4881C289.007 46.3482 288.678 46.2061 288.324 46.0595C287.424 45.6873 286.752 45.2272 286.31 44.6836C285.868 44.1422 285.649 43.4904 285.649 42.7234C285.649 42.1235 285.766 41.6069 286.008 41.1761C286.249 40.743 286.578 40.3889 286.993 40.1092C287.411 39.8318 287.891 39.6265 288.437 39.4934C288.983 39.3626 289.562 39.2949 290.174 39.2949C290.785 39.2949 291.308 39.3333 291.771 39.4054C292.231 39.4776 292.659 39.5904 293.052 39.7393V42.1438C292.858 42.0084 292.648 41.8911 292.42 41.7896C292.192 41.6881 291.956 41.6024 291.714 41.5347C291.475 41.4693 291.234 41.4197 290.995 41.3859C290.756 41.3565 290.53 41.3385 290.316 41.3385C290.02 41.3385 289.754 41.3656 289.513 41.422C289.271 41.4806 289.068 41.5596 288.901 41.6611C288.737 41.7626 288.608 41.8844 288.514 42.0265C288.423 42.1686 288.378 42.3287 288.378 42.5047C288.378 42.6986 288.428 42.8723 288.529 43.0234C288.631 43.1768 288.777 43.3234 288.965 43.4588C289.152 43.5941 289.38 43.7272 289.648 43.8603C289.914 43.9911 290.219 44.1264 290.557 44.2663C291.017 44.458 291.43 44.6633 291.798 44.8821C292.165 45.0986 292.481 45.3467 292.743 45.6174C293.007 45.8926 293.207 46.2038 293.347 46.5557C293.487 46.9031 293.557 47.3136 293.557 47.7805C293.557 48.4256 293.435 48.9625 293.192 49.4023C292.948 49.8376 292.619 50.1918 292.199 50.4624C291.782 50.7331 291.297 50.9294 290.742 51.0466C290.185 51.1639 289.601 51.2226 288.983 51.2226C288.365 51.2226 287.751 51.1707 287.18 51.0624C286.61 50.9564 286.114 50.794 285.696 50.5797M284.672 41.6024H281.381V51.0196H278.776V41.6024H275.505V39.4889H284.672V41.6024ZM274.565 50.6113C273.726 51.0173 272.625 51.2203 271.269 51.2203C269.501 51.2203 268.109 50.7015 267.099 49.6617C266.084 48.6219 265.578 47.2347 265.578 45.5046C265.578 43.6595 266.147 42.1641 267.286 41.0182C268.425 39.8701 269.905 39.2972 271.721 39.2972C272.846 39.2972 273.796 39.4393 274.567 39.7257V42.225C273.796 41.7648 272.918 41.5325 271.93 41.5325C270.85 41.5325 269.975 41.8731 269.309 42.5543C268.646 43.2355 268.312 44.158 268.312 45.3197C268.312 46.4813 268.626 47.3226 269.253 47.9858C269.878 48.6467 270.724 48.9782 271.786 48.9782C272.848 48.9782 273.726 48.7301 274.567 48.2362V50.6091L274.565 50.6113ZM263.79 46.0279C263.79 49.488 262.177 51.2203 258.952 51.2203C255.726 51.2203 254.255 49.5286 254.255 46.1475V39.4889H256.861V46.1768C256.861 48.0422 257.591 48.976 259.048 48.976C260.506 48.976 261.194 48.076 261.194 46.2715V39.4866H263.79V46.0234V46.0279ZM244.845 41.6024V48.9106H246.133C247.258 48.9106 248.138 48.5722 248.781 47.8978C249.422 47.2234 249.742 46.3031 249.742 45.1392C249.742 44.0407 249.424 43.1768 248.79 42.5475C248.154 41.9159 247.263 41.6002 246.117 41.6002H244.847L244.845 41.6024ZM242.246 51.0196V39.4889H246.334C250.428 39.4889 252.476 41.3611 252.476 45.1099C252.476 46.9053 251.916 48.3377 250.8 49.4113C249.683 50.485 248.194 51.0196 246.334 51.0196H242.246ZM234.747 41.5325C233.835 41.5325 233.111 41.8731 232.577 42.5588C232.042 43.2422 231.771 44.1445 231.771 45.27C231.771 46.3956 232.04 47.3136 232.577 47.9813C233.111 48.6467 233.815 48.9782 234.681 48.9782C235.547 48.9782 236.287 48.6534 236.813 48.0083C237.336 47.361 237.6 46.4655 237.6 45.3197C237.6 44.1738 237.345 43.1926 236.838 42.5295C236.328 41.8663 235.631 41.5325 234.747 41.5325ZM234.634 51.2203C232.98 51.2203 231.636 50.6835 230.596 49.6098C229.556 48.5339 229.038 47.1332 229.038 45.4076C229.038 43.5851 229.565 42.1122 230.621 40.9866C231.677 39.8611 233.075 39.2949 234.816 39.2949C236.463 39.2949 237.794 39.8363 238.809 40.9122C239.824 41.9904 240.331 43.4114 240.331 45.1753C240.331 46.9392 239.804 48.4504 238.75 49.5579C237.699 50.6677 236.323 51.2203 234.632 51.2203H234.634ZM221.77 41.4355V44.643H222.896C223.453 44.643 223.899 44.4806 224.238 44.1603C224.581 43.8332 224.754 43.4272 224.754 42.9467C224.754 41.9362 224.15 41.4355 222.943 41.4355H221.77ZM228.846 51.0196H225.862L224.069 48.0534C223.933 47.8279 223.805 47.6271 223.681 47.4489C223.556 47.273 223.432 47.1219 223.308 46.9956C223.182 46.8693 223.051 46.7723 222.914 46.7046C222.776 46.6392 222.627 46.6053 222.469 46.6053H221.77V51.0196H219.172V39.4889H223.288C226.087 39.4889 227.488 40.5355 227.488 42.6242C227.488 43.028 227.425 43.3979 227.301 43.7385C227.177 44.0791 227.005 44.3858 226.78 44.661C226.554 44.9317 226.284 45.1685 225.965 45.367C225.645 45.5678 225.291 45.7211 224.899 45.8339V45.8678C225.072 45.9219 225.237 46.0076 225.397 46.1294C225.559 46.2512 225.713 46.3911 225.864 46.5512C226.015 46.7136 226.157 46.885 226.295 47.07C226.432 47.2527 226.556 47.4354 226.667 47.6136L228.846 51.0218V51.0196ZM211.654 41.4829V45.0783H212.675C214.058 45.0783 214.751 44.4715 214.751 43.2603C214.751 42.049 214.058 41.4829 212.675 41.4829H211.654ZM211.654 47.0474V51.0196H209.055V39.4889H213.124C216.032 39.4889 217.482 40.7137 217.482 43.1633C217.482 44.3204 217.065 45.2565 216.23 45.9738C215.396 46.6866 214.284 47.0474 212.89 47.0474H211.651H211.654Z" fill="#4A4A4A"/>
<path d="M329.103 51.4463C328.684 51.4463 328.334 51.3177 328.057 51.0628C327.777 50.8057 327.639 50.4899 327.639 50.1132C327.639 49.7365 327.781 49.4094 328.068 49.1636C328.356 48.9177 328.713 48.7937 329.141 48.7937C329.57 48.7937 329.931 48.92 330.208 49.1704C330.484 49.4162 330.621 49.732 330.621 50.1155C330.621 50.4989 330.481 50.826 330.202 51.0763C329.92 51.3267 329.554 51.4485 329.103 51.4485M319.494 41.8283V49.1365H320.782C321.908 49.1365 322.787 48.7982 323.43 48.1238C324.071 47.4493 324.391 46.529 324.391 45.3651C324.391 44.2667 324.073 43.4028 323.439 42.7734C322.803 42.1419 321.912 41.8261 320.766 41.8261H319.496L319.494 41.8283ZM316.896 51.2455V39.7148H320.983C325.077 39.7148 327.125 41.587 327.125 45.3358C327.125 47.1313 326.566 48.5636 325.449 49.6373C324.332 50.7109 322.844 51.2455 320.983 51.2455H316.896ZM315.344 41.8283H312.053V51.2455H309.448V41.8283H306.177V39.7148H315.344V41.8283ZM306.782 51.2455H299.916V39.7148H302.514V49.1365H306.782V51.2433V51.2455Z" fill="#4A4A4A"/>
<path fill-rule="evenodd" clip-rule="evenodd" d="M50.6754 0C54.7106 0 57.9835 3.27289 57.9835 7.30817C57.9835 11.3435 54.7106 14.6163 50.6754 14.6163C46.6401 14.6163 43.3672 11.3435 43.3672 7.30817C43.3672 3.27289 46.6401 0 50.6754 0Z" fill="#0D9549"/>
<path fill-rule="evenodd" clip-rule="evenodd" d="M46.9086 8.34766C47.7928 8.34766 48.5101 9.06494 48.5101 9.94914C48.5101 10.8333 47.7928 11.5506 46.9086 11.5506C46.0244 11.5506 45.3071 10.8333 45.3071 9.94914C45.3071 9.06494 46.0244 8.34766 46.9086 8.34766Z" fill="#1A1A18"/>
<path fill-rule="evenodd" clip-rule="evenodd" d="M54.3857 7.92383C55.3488 7.92383 56.1293 8.70427 56.1293 9.66741C56.1293 10.6306 55.3488 11.411 54.3857 11.411C53.4225 11.411 52.6421 10.6306 52.6421 9.66741C52.6421 8.70427 53.4225 7.92383 54.3857 7.92383Z" fill="#1A1A18"/>
<path fill-rule="evenodd" clip-rule="evenodd" d="M28.0064 20.9329L27.0522 19.5457L46.0535 9.76534C47.3279 9.22625 47.9617 10.5074 47.558 10.8706L47.1813 11.0646L28.0064 20.9351V20.9329Z" fill="#0D9549"/>
<path fill-rule="evenodd" clip-rule="evenodd" d="M27.3885 20.0292L27.0547 19.5419L46.0559 9.76163C46.7935 9.45938 47.089 9.6511 47.3326 9.87215L27.3908 20.0292H27.3885Z" fill="#D7E7DD"/>
<path fill-rule="evenodd" clip-rule="evenodd" d="M20.0125 27.2148C21.4832 27.2148 22.6764 28.4081 22.6764 29.8787C22.6764 31.3494 21.4832 32.5426 20.0125 32.5426C18.5418 32.5426 17.3486 31.3494 17.3486 29.8787C17.3486 28.4081 18.5418 27.2148 20.0125 27.2148Z" fill="#1A1A18"/>
<path fill-rule="evenodd" clip-rule="evenodd" d="M20.2066 31.7037C18.8916 30.1857 19.9089 28.5143 21.666 28.5098L46.7393 38.9555L47.4273 42.4269L20.2066 31.7037Z" fill="#0D9549"/>
<path fill-rule="evenodd" clip-rule="evenodd" d="M19.8208 29.4742C20.2832 28.7231 20.9373 28.4096 21.6997 28.5021L46.7415 38.9185L46.958 40.044L19.8231 29.4765L19.8208 29.4742Z" fill="#D7E7DD"/>
<path fill-rule="evenodd" clip-rule="evenodd" d="M65.181 28.6847L66.7238 28.008L55.7278 9.68344C54.9293 8.55338 53.7158 9.30901 53.8669 9.83006L54.0857 10.1932L65.1833 28.6847H65.181Z" fill="#0D9549"/>
<path fill-rule="evenodd" clip-rule="evenodd" d="M66.1828 28.2452L66.7242 28.0083L55.7281 9.68375C55.2612 9.03864 54.9093 9.04541 54.5845 9.10631L66.1828 28.2452Z" fill="#D7E7DD"/>
<path fill-rule="evenodd" clip-rule="evenodd" d="M57.3476 34.0487L52.9492 34.0217C52.1642 34.5901 52.2296 35.3412 52.683 36.1713L56.2311 36.178C58.6107 36.4645 58.6649 41.296 56.504 42.0719C54.5371 42.09 52.568 42.1103 50.6011 42.1283L50.5514 40.3802L55.604 40.3938C56.4431 40.3193 56.3619 38.2306 55.701 38.0727L52.0537 38.0276C49.983 37.2833 49.7597 32.7089 52.4123 32.2871L57.2957 32.3074L57.3453 34.051L57.3476 34.0487Z" fill="white"/>
<path fill-rule="evenodd" clip-rule="evenodd" d="M65.702 34.0892V32.332L61.4096 32.3704C60.2254 32.3839 59.0638 33.0719 59.0728 34.335L59.1157 40.4071C59.1224 41.5281 60.1284 42.1191 61.3938 42.1687H65.7923L65.772 40.1725L62.0976 40.1342C61.5247 40.159 61.0577 39.9244 61.0555 39.4778L61.0307 35.1809C61.0262 34.4794 61.378 34.0801 62.1269 34.0869H65.7043L65.702 34.0892Z" fill="white"/>
<path d="M68.9888 33.8956V36.988L70.9602 36.979C72.1511 36.9723 72.4263 36.5956 72.4263 35.2941C72.4263 34.2745 71.9256 33.8776 70.773 33.8843L68.9865 33.8956H68.9888ZM69.1264 38.6482V42.0654L66.9497 42.1038V32.1836L70.8203 32.1971C73.2428 32.2062 74.0594 33.2437 74.0594 35.3527C74.0594 36.6204 73.7842 38.5692 71.8015 38.6031L69.1264 38.6482Z" fill="white"/>
<path d="M81.5797 42.0044H76.8159C75.3858 41.9548 74.9347 41.4247 74.9302 40.3466V32.1542L77.0392 32.1113V40.1616L81.5797 40.2045V42.0044Z" fill="white"/>
<path fill-rule="evenodd" clip-rule="evenodd" d="M46.9086 8.34766C47.7928 8.34766 48.5101 9.06494 48.5101 9.94914C48.5101 10.8333 47.7928 11.5506 46.9086 11.5506C46.0244 11.5506 45.3071 10.8333 45.3071 9.94914C45.3071 9.06494 46.0244 8.34766 46.9086 8.34766Z" fill="#1A1A18"/>
<path fill-rule="evenodd" clip-rule="evenodd" d="M54.3857 7.92383C55.3488 7.92383 56.1293 8.70427 56.1293 9.66741C56.1293 10.6306 55.3488 11.411 54.3857 11.411C53.4225 11.411 52.6421 10.6306 52.6421 9.66741C52.6421 8.70427 53.4225 7.92383 54.3857 7.92383Z" fill="#1A1A18"/>
<path fill-rule="evenodd" clip-rule="evenodd" d="M27.8983 21.5511L27.1675 19.7849L46.2183 9.36177C47.4995 8.77983 48.1762 10.0655 47.7747 10.4467L47.3958 10.6542L27.896 21.5511H27.8983Z" fill="#0D9549"/>
<path fill-rule="evenodd" clip-rule="evenodd" d="M27.5194 20.2705L27.1675 19.7833L46.2184 9.36009C46.9604 9.03303 47.265 9.22025 47.5176 9.4413L27.5194 20.2705Z" fill="#D7E7DD"/>
<path fill-rule="evenodd" clip-rule="evenodd" d="M14.6711 11.3828C22.4485 11.3828 28.7529 17.6872 28.7529 25.4646C28.7529 33.2419 22.4485 39.5463 14.6711 39.5463C6.89378 39.5463 0.589355 33.2419 0.589355 25.4646C0.589355 17.6872 6.89378 11.3828 14.6711 11.3828Z" fill="#0D9549"/>
<path fill-rule="evenodd" clip-rule="evenodd" d="M20.0125 27.2148C21.4832 27.2148 22.6764 28.4081 22.6764 29.8787C22.6764 31.3494 21.4832 32.5426 20.0125 32.5426C18.5418 32.5426 17.3486 31.3494 17.3486 29.8787C17.3486 28.4081 18.5418 27.2148 20.0125 27.2148Z" fill="#1A1A18"/>
<path fill-rule="evenodd" clip-rule="evenodd" d="M19.1872 31.3018C17.8225 29.7274 18.8781 27.9928 20.7029 27.9883L46.7169 38.8265L47.4319 42.4287L19.1894 31.304L19.1872 31.3018Z" fill="#0D9549"/>
<path fill-rule="evenodd" clip-rule="evenodd" d="M18.7855 28.9877C19.2659 28.2096 19.9426 27.8825 20.7343 27.9795L46.7144 38.7861L46.9377 39.9545L18.7832 28.99L18.7855 28.9877Z" fill="#D7E7DD"/>
<path fill-rule="evenodd" clip-rule="evenodd" d="M65.181 28.6847L66.7238 28.008L55.7278 9.68344C54.9293 8.55338 53.7158 9.30901 53.8669 9.83006L54.0857 10.1932L65.1833 28.6847H65.181Z" fill="#0D9549"/>
<path fill-rule="evenodd" clip-rule="evenodd" d="M66.1828 28.2452L66.7242 28.0083L55.7281 9.68375C55.2612 9.03864 54.9093 9.04541 54.5845 9.10631L66.1828 28.2452Z" fill="#D7E7DD"/>
<path fill-rule="evenodd" clip-rule="evenodd" d="M65.0662 18.5781C75.4984 18.5781 83.9547 26.9555 83.9547 37.2907C83.9547 47.6259 75.4984 56.0032 65.0662 56.0032C54.634 56.0032 46.1777 47.6259 46.1777 37.2907C46.1777 26.9555 54.634 18.5781 65.0662 18.5781Z" fill="#0D9549"/>
<path fill-rule="evenodd" clip-rule="evenodd" d="M57.3476 34.0487L52.9492 34.0217C52.1642 34.5901 52.2296 35.3412 52.683 36.1713L56.2311 36.178C58.6107 36.4645 58.6649 41.296 56.504 42.0719C54.5371 42.09 52.568 42.1103 50.6011 42.1283L50.5514 40.3802L55.604 40.3938C56.4431 40.3193 56.3619 38.2306 55.701 38.0727L52.0537 38.0276C49.983 37.2833 49.7597 32.7089 52.4123 32.2871L57.2957 32.3074L57.3453 34.051L57.3476 34.0487Z" fill="white"/>
<path fill-rule="evenodd" clip-rule="evenodd" d="M65.702 34.0892V32.332L61.4096 32.3704C60.2254 32.3839 59.0638 33.0719 59.0728 34.335L59.1157 40.4071C59.1224 41.5281 60.1284 42.1191 61.3938 42.1687H65.7923L65.772 40.1725L62.0976 40.1342C61.5247 40.159 61.0577 39.9244 61.0555 39.4778L61.0307 35.1809C61.0262 34.4794 61.378 34.0801 62.1269 34.0869H65.7043L65.702 34.0892Z" fill="white"/>
<path d="M68.9888 33.8956V36.988L70.9602 36.979C72.1511 36.9723 72.4263 36.5956 72.4263 35.2941C72.4263 34.2745 71.9256 33.8776 70.773 33.8843L68.9865 33.8956H68.9888ZM69.1264 38.6482V42.0654L66.9497 42.1038V32.1836L70.8203 32.1971C73.2428 32.2062 74.0594 33.2437 74.0594 35.3527C74.0594 36.6204 73.7842 38.5692 71.8015 38.6031L69.1264 38.6482Z" fill="white"/>
<path d="M81.5797 42.0044H76.8159C75.3858 41.9548 74.9347 41.4247 74.9302 40.3466V32.1542L77.0392 32.1113V40.1616L81.5797 40.2045V42.0044Z" fill="white"/>
</g>
<defs>
<clipPath id="clip0_673_646">
<rect width="330.032" height="56" fill="white" transform="translate(0.589355)"/>
</clipPath>
</defs>
</svg>
