<svg width="202" height="56" viewBox="0 0 202 56" fill="none" xmlns="http://www.w3.org/2000/svg">
<g clip-path="url(#clip0_673_631)">
<path fill-rule="evenodd" clip-rule="evenodd" d="M64.3536 13.2073H72.8997C75.3289 13.2073 76.1883 13.2209 77.863 11.7627C80.3903 9.21844 85.2047 7.83807 88.6557 7.51665C92.9084 7.12081 96.8703 7.14788 100.785 8.90718C103.684 10.2097 105.812 11.7187 107.741 14.0599C108.908 15.4775 109.72 17.1116 110.194 18.969C111.594 24.4804 111.956 37.1237 108.786 42.3678C107.913 43.8124 106.844 45.1793 105.508 46.2112C104.124 47.2803 102.723 48.2039 101.066 48.8907C97.6281 50.3083 95.2497 50.5655 91.2642 50.5655C83.8717 50.5655 74.7233 45.3349 74.7233 37.0324C74.7233 34.8265 75.3391 33.0638 76.4488 31.3958L77.5112 30.0865C82.3492 25.1977 91.0612 23.3402 98.6228 23.3402H100.602C101.373 23.3402 101.823 23.4181 102.581 23.4181C102.453 22.87 102.175 22.5519 101.739 22.2813C98.6803 20.4036 92.9152 19.9333 89.285 19.9333C84.9713 19.9333 80.052 20.5896 75.9379 21.7806C75.5218 21.9023 75.2477 22.0038 74.8485 22.1155C72.9911 22.6365 70.6972 23.6109 69.0394 24.6157C68.7451 24.795 68.4981 24.9304 68.2004 25.1232C66.8234 26.0266 65.4938 27.0483 64.3739 28.2595C63.4638 29.2441 62.7668 30.3944 62.1646 31.5921C60.9872 33.9299 60.6793 37.4181 61.4169 40.0435C61.6639 40.9299 61.9075 41.5321 62.2289 42.317C62.7837 43.6771 63.9138 45.3214 64.9693 46.3837C65.355 46.7728 65.6595 47.2194 66.096 47.551C66.3869 47.7709 66.5899 48.0009 66.8978 48.2513C67.0771 48.3968 67.1177 48.4577 67.3275 48.6133C67.5034 48.7453 67.6151 48.8231 67.7775 48.955C68.0447 49.1783 68.356 49.3949 68.6436 49.5911C70.21 50.6568 71.878 51.5196 73.6373 52.274C74.0264 52.4398 74.3038 52.5515 74.7098 52.7037C75.8364 53.1232 77.0273 53.5461 78.2352 53.8472C80.8132 54.4901 83.2661 55.0382 86.037 55.2276C86.4126 55.2513 87.0689 55.3156 87.4072 55.363L88.8857 55.4678C93.761 55.6133 96.7552 55.39 101.387 54.4292C102.29 54.2431 103.322 53.9657 104.195 53.6747L109.862 51.347L111.574 50.3659C111.943 50.1189 112.264 49.9226 112.613 49.6621C112.799 49.5234 112.944 49.4185 113.11 49.29C113.333 49.1174 113.391 48.9652 113.661 48.8941C114.494 49.449 114.717 50.2305 116.984 51.347C119.46 52.5684 121.866 52.4533 124.66 52.4533V29.4234C124.66 24.6732 123.805 20.2242 121.49 16.2117C121.281 15.8463 121.044 15.4504 120.797 15.085C120.296 14.3407 119.839 13.6472 119.261 12.9806C116.497 9.8139 114.967 8.71095 111.124 6.47799C109.632 5.61187 107.514 4.86417 105.914 4.32622C95.676 0.902348 81.8553 2.11018 72.558 6.76218C71.4686 7.30689 70.4063 7.8922 69.4353 8.54517C68.0278 9.4891 65.8761 11.1368 64.8611 12.4393C64.6276 12.7404 64.4382 12.825 64.3536 13.1972" fill="#00B38B"/>
<path fill-rule="evenodd" clip-rule="evenodd" d="M133.125 27.5309C133.125 32.4265 134.242 36.3917 136.614 40.3468C137.382 41.6291 138.045 42.5459 138.972 43.6861C140.261 45.2661 140.91 45.8108 142.325 47.137C145.19 49.82 150.309 52.5841 154.007 53.8156C163.571 56.9925 174.229 56.776 183.299 52.6958C186.307 51.3424 188.039 50.2801 190.604 48.3685C191.473 47.719 192.898 46.4604 193.686 45.6755C200.744 38.6585 203.586 28.0215 199.285 18.4333C198.331 16.3086 197.672 15.3816 196.423 13.5411L195.154 11.9611C194.251 10.9461 193.835 10.3777 192.742 9.46424C192.553 9.30523 192.448 9.15636 192.262 8.99396C192.062 8.81803 191.954 8.75037 191.747 8.55752C191.152 8.00605 190.208 7.33954 189.562 6.8625C189.18 6.58169 188.807 6.30426 188.388 6.05728L185.962 4.60585C175.504 -1.02392 162.12 -1.50096 151.321 3.23224L148.712 4.50097C146.977 5.40431 145.491 6.38207 143.972 7.51885C142.575 8.56429 141.123 9.89392 139.943 11.166L139.07 12.1945C137.459 14.0452 136.407 15.8992 135.304 18.0848C135.074 18.5416 134.935 18.9205 134.743 19.4246C133.795 21.9215 133.115 24.4691 133.115 27.5309M167.946 51.0346C163.984 51.0346 161.284 50.588 158.104 49.0046C156.253 48.0843 154.981 47.0727 153.56 45.7127C153.489 45.645 153.462 45.6247 153.395 45.5638L153.232 45.4082C153.121 45.2931 153.053 45.2052 152.928 45.08C151.327 43.4763 150.739 42.2042 149.697 40.4787C149.5 40.1539 149.426 39.8765 149.267 39.5619C148.983 38.9867 148.726 38.3845 148.506 37.7112C148.384 37.3357 148.303 37.1564 148.188 36.7639C146.523 31.168 146.459 25.9306 147.86 20.267C149.213 14.7828 152.928 9.51161 158.053 6.95723C161.257 5.36032 163.927 4.9002 167.946 4.9002C170.67 4.9002 174.009 5.71557 176.411 6.964C178.647 8.12785 180.613 9.72813 182.247 11.6532C185.651 15.6556 187.572 21.7591 187.572 27.3787C187.572 31.4048 187.197 34.1723 186.02 37.5387C185.15 40.0288 183.783 42.4715 182.244 44.2883C181.554 45.1037 180.806 45.8683 179.997 46.5517C176.634 49.3971 172.409 51.038 167.943 51.038L167.946 51.0346Z" fill="#00B38B"/>
<path fill-rule="evenodd" clip-rule="evenodd" d="M0.0102539 43.2801C0.0102539 45.5503 0.477146 47.2521 1.73911 48.8321L2.95709 50.067C4.72316 51.6605 7.98802 52.4623 10.3766 52.4623H13.3031V28.3226C13.9121 28.732 15.2282 29.8857 15.7729 30.3628C16.1958 30.7315 16.6018 31.0496 17.0315 31.398L35.9948 46.545C40.7415 50.4696 44.5511 51.6673 50.7222 52.3168C53.4085 52.5977 59.0417 52.4623 61.9716 52.4623C61.7686 52.1578 55.0798 47.1337 54.2848 46.5382L50.9692 43.994C50.7797 43.8485 50.6545 43.7335 50.438 43.5745C46.5506 40.675 42.7952 37.5996 38.9416 34.6528C36.8643 33.066 34.2795 31.1105 32.3104 29.4899L29.0252 26.9186C28.714 26.6885 27.0325 25.457 26.8329 25.1559C28.5347 24.0157 33.2171 20.5919 34.6922 19.4821C37.2703 17.5401 39.9397 15.7098 42.5245 13.7813L56.6903 3.49277C56.8798 3.35068 57.0117 3.27286 57.2012 3.13076C57.4887 2.91423 58.003 2.6165 58.1722 2.36276C52.5356 2.36276 48.8479 2.53192 43.8609 5.54304C42.9305 6.10466 42.1016 6.64937 41.2456 7.28204L34.2219 12.3671C32.307 13.7441 30.4564 15.2158 28.5076 16.5421C26.9378 17.6112 24.9281 19.137 23.4394 20.2569L13.9324 27.2095C13.7227 27.3584 13.5095 27.5411 13.2998 27.6832V18.9002C13.2998 16.1564 13.4757 12.6412 13.1374 10.1984C12.4573 5.26561 8.87782 2.35938 3.24805 2.35938H0.0102539V43.2767V43.2801Z" fill="#00B38B"/>
</g>
<defs>
<clipPath id="clip0_673_631">
<rect width="201.305" height="56" fill="white" transform="translate(0.0107422)"/>
</clipPath>
</defs>
</svg>
