<svg width="232" height="56" viewBox="0 0 232 56" fill="none" xmlns="http://www.w3.org/2000/svg">
<g clip-path="url(#clip0_673_637)">
<path fill-rule="evenodd" clip-rule="evenodd" d="M189.299 3.97416C180.147 9.4571 174.312 20.4523 176.134 32.3136C178.227 45.9319 191.241 58.1811 208.177 55.6482C221.951 53.589 234.065 40.8188 231.419 23.4475C228.435 4.06663 206.206 -6.15722 189.297 3.9719" fill="#C41718"/>
<path fill-rule="evenodd" clip-rule="evenodd" d="M216.166 29.9426C216.829 29.9426 217.368 30.4636 217.368 31.1086C217.368 31.7537 216.829 32.2747 216.166 32.2747C215.503 32.2747 214.964 31.7537 214.964 31.1086C214.964 30.4636 215.503 29.9426 216.166 29.9426ZM191.21 23.3274C191.81 21.9877 194.798 20.03 196.763 20.9186C196.406 23.059 193.961 23.8055 191.21 23.3274ZM196.986 12.9975C196.057 11.4187 198.826 10.591 199.476 11.8991C199.997 13.6245 197.64 14.0756 196.986 12.9975ZM193.975 12.4946C188.242 13.8411 190.064 11.3443 186.974 11.43C185.578 14.5718 185.824 18.5346 189.123 19.536C189.656 16.3062 192.937 17.4294 192.849 18.5978C194.103 16.9175 197.507 16.7551 197.378 19.4232C193.138 19.3172 194.097 18.7692 190.368 20.7855C186.638 22.8019 185.961 19.5383 184.283 18.7556C184.069 20.984 184.227 22.0824 185.628 23.377C187.236 24.8656 188.39 24.2228 190.312 23.8484C192.252 31.2282 197.056 22.2967 202.155 23.9409C206.605 25.3753 208.41 32.7912 210.724 33.885C212.075 32.1281 211.306 30.9259 213.36 29.5028C215.354 28.1247 217.107 29.1396 219.403 28.3277C221.644 27.3826 227.236 24.1055 229.015 24.4123C229.173 25.1047 223.835 26.485 220.988 29.4622C217.334 32.9423 219.7 35.1481 218.034 39.7785C216.597 43.7728 214.387 44.4675 211.903 46.9034C210.015 48.7551 207.593 52.7179 204.729 53.399C205.155 51.3624 206.874 50.6835 207.783 48.6401C205.453 48.8701 199.343 53.3562 196.817 52.0097C197.96 50.0565 204.625 49.1498 206.502 44.7088C203.7 43.8585 202.412 43.094 200.703 40.0333C194.758 26.8098 191.036 37.1577 181.455 40.101C177.167 34.3068 177.641 23.5191 180.69 17.0145C187.486 2.52333 205.787 -2.20179 218.771 7.25522C233.188 17.7542 218.744 24.0897 217.402 18.8233C217.046 17.4565 220.381 18.2188 219.064 17.3731C216.328 16.0514 214.285 17.8805 213.015 15.9386C212.203 14.0147 216.028 15.7063 214.874 14.4207C213.22 12.9276 211.136 14.5651 209.109 13.4982C207.943 12.7156 208.694 12.1608 209.982 11.8991C212.465 11.3962 207.489 9.92564 205.378 10.8797C206.195 8.26114 206.826 5.65161 203.45 4.57352C203.249 8.08296 203.089 9.03926 199.228 9.06858C195.127 9.10016 195.166 9.55801 193.968 12.4968L193.975 12.4946Z" fill="white"/>
<path fill-rule="evenodd" clip-rule="evenodd" d="M108.995 9.6394C105.244 10.7649 106.791 16.5816 110.817 15.4855C114.787 14.4051 113.077 8.34478 108.995 9.6394ZM107.608 46.8878L112.367 47.0096L112.36 43.7324C112.36 35.9783 112.364 28.2264 112.36 20.4722L107.599 20.4993L107.605 46.8878H107.608ZM94.109 23.2013L94.1203 20.4677L89.3952 20.4722L89.3907 46.9938H94.1248C94.1248 41.7048 94.1406 36.4068 94.1203 31.1156C94.1068 27.4595 93.994 26.3002 96.1502 25.2627C98.9334 23.9117 100.063 24.5906 102.953 24.5748L102.986 20.3549C99.1634 19.3806 95.6269 21.0699 94.109 23.2013ZM118.648 42.1401L118.666 45.9834C123.001 47.5441 128.486 48.2884 132.566 45.9112C136.101 43.852 137.731 37.8074 133.983 34.2348C131.148 31.5306 124.327 30.9351 123.549 28.0978C121.643 21.1466 134.553 25.0146 134.558 25.0146V21.3857C131.154 19.1979 124.228 19.64 121.174 21.8931C117.385 24.6876 118.059 31.4787 122.117 33.4996C125.556 35.5091 132.458 36.0685 131.172 40.8906C129.873 45.7623 121.95 42.7513 118.648 42.1424V42.1401ZM0.842587 42.2574L0.871908 45.8819C4.7535 47.8531 11.0394 48.0403 14.7315 45.9585C18.0944 44.0617 19.8784 38.3645 16.5246 34.5957C13.8519 31.5915 6.94803 30.9013 5.93083 28.5602C4.62719 25.5627 6.85556 24.1102 9.3275 23.8802C12.7264 23.5621 14.1 24.5839 16.7366 25.0958L16.7727 21.2323C12.8392 19.5994 6.58942 19.4077 3.34611 21.9518C-0.449772 24.9312 0.463676 31.4336 4.23701 33.4748C7.49159 35.57 14.709 35.9738 13.3422 40.9064C11.9438 45.9585 2.4056 42.298 0.840332 42.2596L0.842587 42.2574ZM21.8722 51.8971C21.8496 55.932 21.076 56.0899 25.5215 55.9794C32.8561 55.7945 33.526 50.2596 35.9032 43.4821L43.7025 20.4722L38.8353 20.4767L32.7231 40.7214L25.4786 20.5038L20.4107 20.4812C21.7369 25.7228 24.8945 32.9831 26.8838 38.4254C28.4287 42.6521 31.9134 48.1373 27.6077 51.3468C25.9658 52.5692 23.9472 52.1677 21.8722 51.9016V51.8971ZM144.924 30.5066H157.099C156.754 26.4265 155.373 23.5599 150.892 23.8621C147.114 24.117 145.341 26.7897 144.922 30.5066H144.924ZM160.238 45.9788L160.387 41.9777C150.856 45.2368 145.375 44.0978 144.599 33.8131L161.785 33.7905C164.149 17.5311 145.289 15.808 140.857 27.3851C136.633 38.4164 143.237 52.0414 160.238 45.9811V45.9788ZM52.5189 22.4299L52.5415 20.47H47.5998V46.9983L52.3362 46.9938L52.3272 26.3882C53.4933 23.8125 62.1293 21.5187 62.6368 29.1308L62.6639 46.9329L67.3123 46.9712L67.1364 25.5988C72.3103 21.8029 77.7549 24.0764 77.7143 31.1066L77.6196 46.9013L82.5094 46.9442L82.5319 30.8652C82.5364 28.2534 82.2883 26.3363 81.8869 25.1815C80.9035 22.3487 78.5218 20.3527 75.2063 20.0662C70.4 19.6512 69.0287 21.2481 65.7357 22.5292C61.4076 19.4257 56.9486 18.8055 52.5212 22.4322L52.5189 22.4299Z" fill="#C41718"/>
</g>
<defs>
<clipPath id="clip0_673_637">
<rect width="230.944" height="56" fill="white" transform="translate(0.842773)"/>
</clipPath>
</defs>
</svg>
