<svg width="92" height="56" viewBox="0 0 92 56" fill="none" xmlns="http://www.w3.org/2000/svg">
<g clip-path="url(#clip0_673_643)">
<path fill-rule="evenodd" clip-rule="evenodd" d="M0.847077 56.002L15.7567 55.8869V22.7168H4.19583C4.71987 17.355 9.11244 12.9624 15.7588 12.9624V1.59325L0.619141 1.6039L0.844947 55.9998L0.847077 56.002ZM65.0656 22.5102V55.8848H80.2798V36.2226C80.2798 35.6261 80.4907 35.4472 81.1937 35.4472H91.8449V22.5102H80.282C80.806 17.1483 85.1986 12.9368 91.8449 12.9368V0.00195312C86.7281 0.00195312 84.3252 0.57073 80.1051 2.17907C72.0613 5.24237 65.0677 13.676 65.0677 22.5102H65.0656ZM27.0939 22.5102V55.8848H42.3081V36.2226C42.3081 35.6261 42.519 35.4472 43.222 35.4472H53.8732V22.5102H42.3103C42.8343 17.1483 47.2269 12.9368 53.8732 12.9368V0.00195312C48.7564 0.00195312 46.3535 0.57073 42.1313 2.17907C34.0875 5.24237 27.0939 13.676 27.0939 22.5102Z" fill="#0075CE"/>
</g>
<defs>
<clipPath id="clip0_673_643">
<rect width="91.2215" height="56" fill="white" transform="translate(0.621094)"/>
</clipPath>
</defs>
</svg>
