<svg width="98" height="56" viewBox="0 0 98 56" fill="none" xmlns="http://www.w3.org/2000/svg">
<g clip-path="url(#clip0_673_682)">
<path fill-rule="evenodd" clip-rule="evenodd" d="M47.5558 1.486C42.6605 1.51464 39.5111 3.02158 36.755 5.49348C34.8934 7.16344 31.7606 10.9187 31.657 14.9349C32.7354 14.6485 33.1111 14.9151 33.9384 15.1398C34.6775 13.4853 35.1743 12.7649 36.7264 12.0125C42.4754 9.22556 49.5309 13.6439 55.0971 9.62763C57.3961 7.96868 59.7314 3.81801 60.7107 0C59.1773 0.624584 58.6243 1.72614 54.8548 1.91561C52.3641 2.04009 50.0046 1.47058 47.5536 1.486M31.5931 19.2685C32.1197 22.7814 33.631 25.3116 35.7614 26.7888C38.2675 28.526 42.1637 28.8598 45.0156 27.4101C47.4732 26.1598 49.0628 23.9435 50.3824 21.1885C51.0125 19.8732 51.5358 18.6109 52.1868 17.1953C53.2366 14.9129 53.3919 15.0826 54.4824 13.8036C51.7957 13.7904 48.8292 13.3707 46.9742 14.7884C44.7215 16.5091 44.3679 23.6505 38.4261 22.7924C36.2461 22.4773 34.4495 20.9098 33.9736 19.0713C32.8665 19.3985 32.8831 19.5218 31.5931 19.2707V19.2685ZM36.6328 28.6736C37.1406 29.4601 39.1399 30.587 40.1743 30.9759C46.6085 33.396 52.1416 29.4645 55.4276 24.3522C55.9068 23.6064 56.0863 23.2352 56.4994 22.4366C57.0942 21.2865 57.2165 21.5818 56.7307 20.6058C55.6303 18.2826 57.8147 17.0147 58.8909 17.1215C59.0308 17.1359 59.1839 16.8318 59.4141 16.3791C60.3725 14.4998 60.7085 14.6089 61.278 13.7827C53.6453 13.9843 55.2668 14.7102 51.5237 22.1314C48.4624 28.2021 43.826 31.1697 36.6328 28.6747V28.6736ZM46.1657 32.3308L45.8716 32.5764C45.844 32.6007 45.779 32.659 45.7526 32.6822C45.725 32.7064 45.6689 32.7571 45.627 32.7945C49.3415 32.5313 50.5124 32.7945 53.7675 31.3052C62.7012 27.2537 63.0636 17.387 67.341 13.8786C67.374 13.851 67.1812 13.851 66.6293 13.8631L64.2632 13.9083C62.7023 14.0614 60.3934 16.2491 60.3714 17.6239C61.0466 18.2429 62.3112 21.4485 58.274 21.78C56.7913 24.6661 55.6049 26.6875 53.6342 28.5491C52.0491 30.0472 49.3888 32.2151 46.1657 32.3308ZM60.2722 20.2257C61.2592 18.0028 58.0901 16.9883 57.2044 18.6758C56.0676 20.8437 59.3602 22.279 60.2722 20.2257ZM34.0882 17.7957C35.0333 15.5639 31.8123 14.5858 31.0589 16.259C29.9893 18.6318 33.2697 19.7278 34.0882 17.7957ZM45.627 32.7934C45.6689 32.756 45.725 32.7053 45.7526 32.6811C45.7779 32.6579 45.8429 32.5996 45.8716 32.5753L46.1657 32.3297L44.9407 32.6502L45.627 32.7934Z" fill="#254287"/>
<path fill-rule="evenodd" clip-rule="evenodd" d="M70.4859 42.7023C69.8261 45.4838 68.5879 48.5957 67.7265 51.3804C66.1634 56.4333 69.8074 55.9023 73.8765 55.9012C77.9809 55.899 79.7555 54.619 80.7998 51.3683C81.6271 48.7983 82.863 45.28 83.5736 42.6924L79.1166 42.7254C78.806 44.0198 76.1369 52.6681 75.4374 53.4833C74.9296 54.5595 71.1733 54.7016 71.6381 53.2167L74.9384 42.6869L70.4859 42.7012V42.7023ZM57.9149 48.0911L59.5651 42.6891L55.1511 42.7056L50.9167 55.8924L55.3626 55.8759L57.0876 50.9772L61.1337 51.018L59.5551 55.9001L63.9592 55.8792L68.1925 42.6902L63.7389 42.6957L62.1207 48.09L57.9127 48.0922L57.9149 48.0911ZM94.6993 55.8682L97.4411 47.4379C99.1287 42.1813 95.6544 42.6968 91.4541 42.688C87.3078 42.6792 85.5773 43.9669 84.4647 47.1768L81.6712 55.899H85.965L87.5998 50.9343C87.6846 50.6776 87.8399 50.5399 88.0492 50.5432L91.8749 50.6148C92.0556 50.6181 91.9366 50.9144 91.8991 51.0246L90.3107 55.9012L94.7004 55.8693L94.6993 55.8682ZM88.6077 48.2476L89.3567 45.8682C90.0926 43.5307 94.3898 43.7962 93.4347 46.2493L92.6085 48.3709L88.6077 48.2487V48.2476ZM33.208 55.8814L35.9498 47.4511C37.6374 42.1945 34.1631 42.71 29.9628 42.7012C25.8166 42.6924 24.086 43.9801 22.9734 47.1901L20.1799 55.9122H24.4738L26.1085 50.9475C26.1933 50.6908 26.3486 50.5531 26.5579 50.5564L30.3836 50.628C30.5643 50.6313 30.4453 50.9277 30.4079 51.0378L28.8194 55.9144L33.2091 55.8825L33.208 55.8814ZM27.1164 48.2597L27.8655 45.8803C28.6013 43.5428 32.8985 43.8083 31.9434 46.2615L31.1173 48.3831L27.1164 48.2608V48.2597ZM52.818 42.6891H48.3644C48.1033 44.0363 46.8409 47.4996 46.3078 49.2235C46.1161 49.8426 45.8407 51.1711 45.4541 51.1689C44.9253 51.0907 44.488 44.0451 44.238 42.6902L39.781 42.7001L35.5466 55.899L39.9815 55.8682L41.3508 51.5622C41.5843 50.8153 41.831 50.0618 42.08 49.3007C42.1252 49.1608 42.9535 45.9001 43.1871 47.8664L44.1432 55.9001L48.6001 55.8582L52.818 42.6913V42.6891ZM17.7796 42.7122C17.0779 44.7358 14.79 53.6033 13.0891 53.8104C11.0325 54.0594 11.7364 52.7375 12.1385 51.5203L14.9805 42.6891L10.6745 42.7199C10.1226 43.5164 8.29846 49.8481 7.54389 52.1008C6.65273 54.7578 4.34276 54.1883 4.66992 52.5227C4.78448 51.9367 5.06428 51.495 5.27468 50.8296C6.05678 48.3676 7.30155 45.042 7.88427 42.688L3.56836 42.7299C3.1013 43.5164 0.565509 51.354 0.38265 52.4952C-0.327856 56.9234 4.71619 55.9001 9.7393 55.9001C18.1894 55.9001 18.1442 55.2105 20.5236 47.5635C21.0116 45.996 21.6923 44.2875 22.0702 42.6924L17.7796 42.7133V42.7122Z" fill="#254287"/>
</g>
<defs>
<clipPath id="clip0_673_682">
<rect width="97.5608" height="56" fill="white" transform="translate(0.315918)"/>
</clipPath>
</defs>
</svg>
