<svg width="70" height="56" viewBox="0 0 70 56" fill="none" xmlns="http://www.w3.org/2000/svg">
<g clip-path="url(#clip0_673_543)">
<path fill-rule="evenodd" clip-rule="evenodd" d="M0.832574 20.722L0.829102 33.3641H3.42097L3.51589 28.4767C3.52746 27.8933 3.9523 27.6548 4.49985 27.6548C5.81141 27.6548 8.60122 32.225 9.53193 33.547H12.8635L7.04193 25.4091L12.3298 19.7311C12.1273 19.6199 9.32703 19.5053 9.033 19.7947L3.61081 25.1324V19.6118C2.93477 19.5586 0.840678 19.268 0.83489 20.722" fill="#003C68"/>
<path fill-rule="evenodd" clip-rule="evenodd" d="M14.5502 32.1479C17.1629 34.7919 21.8941 33.9885 23.0227 30.1997L20.3579 30.2055C19.8625 31.0991 18.9156 31.4765 17.9003 31.3226C16.7682 31.1501 16.0412 30.1094 16.1419 28.865L21.7575 28.8754L23.2091 28.8302L23.2276 27.7548C23.2276 25.0414 21.688 22.5723 18.6007 22.5723C16.6258 22.5723 14.8408 23.0249 13.9136 25.1039C13.0245 27.1401 12.9586 30.503 14.5491 32.1479M20.2676 27.0672H16.1952C16.3133 25.7198 16.9337 24.9627 18.0543 24.9083C19.5349 24.8354 20.204 25.7001 20.2665 27.0672H20.2676Z" fill="#003C68"/>
<path fill-rule="evenodd" clip-rule="evenodd" d="M34.5047 25.6032H37.1845C37.225 25.6032 37.3512 25.0487 37.8976 24.7674C38.7577 24.324 40.8599 24.7998 40.5346 25.9007C40.1353 27.2504 37.0885 26.2236 35.3046 27.8003C33.7407 29.0296 34.1389 31.9676 35.2212 32.7907C37.3663 34.9774 43.02 34.365 43.1589 30.6075L43.2075 25.0301C43.2133 24.3101 42.7977 23.744 42.3903 23.4697C40.7279 22.15 34.8149 21.6118 34.5059 25.602M38.2623 31.7905C36.6405 31.5127 36.4333 29.5795 38.0689 28.878C38.6176 28.643 40.0496 28.239 40.6272 28.1256C40.956 29.7474 40.7557 32.1899 38.2623 31.7905Z" fill="#003C68"/>
<path fill-rule="evenodd" clip-rule="evenodd" d="M27.2477 33.5455H30.2621L33.9641 22.7578L31.2334 22.7891L28.6797 30.2405C28.6079 29.3839 26.8773 24.118 26.5601 22.7578H23.731L27.2477 33.5455Z" fill="#003C68"/>
<mask id="mask0_673_543" style="mask-type:luminance" maskUnits="userSpaceOnUse" x="39" y="2" width="31" height="40">
<path d="M39.759 41.5018C52.0214 36.5056 67.4962 33.8605 69.0173 28.1293C70.9262 20.9348 45.6731 5.37318 40.3829 2.40625C50.7064 14.9396 53.5795 28.0806 39.7578 41.503" fill="white"/>
</mask>
<g mask="url(#mask0_673_543)">
<path d="M70.9271 2.40625H39.7588V41.503H70.9271V2.40625Z" fill="url(#paint0_linear_673_543)"/>
</g>
<mask id="mask1_673_543" style="mask-type:luminance" maskUnits="userSpaceOnUse" x="31" y="31" width="37" height="25">
<path d="M67.3602 31.798C59.206 36.5095 45.3033 38.9439 36.8158 43.6819C27.57 49.5556 32.7503 59.6684 42.7797 54.6375C54.2249 48.8969 61.9519 40.0517 67.3602 31.7969" fill="white"/>
</mask>
<g mask="url(#mask1_673_543)">
<path d="M67.3614 31.7969H27.5713V59.6684H67.3614V31.7969Z" fill="url(#paint1_linear_673_543)"/>
</g>
<mask id="mask2_673_543" style="mask-type:luminance" maskUnits="userSpaceOnUse" x="31" y="-1" width="18" height="26">
<path d="M48.4771 24.7408C42.8014 13.945 37.6095 11.4573 34.0916 7.57012C28.3256 0.683569 34.6021 -3.04621 39.9815 3.13189C45.8609 9.88417 48.5766 17.3032 48.4759 24.7408" fill="white"/>
</mask>
<g mask="url(#mask2_673_543)">
<path d="M48.5767 -3.04492H28.3257V24.7409H48.5767V-3.04492Z" fill="url(#paint2_linear_673_543)"/>
</g>
</g>
<defs>
<linearGradient id="paint0_linear_673_543" x1="39.7588" y1="21.9535" x2="69.1213" y2="21.9535" gradientUnits="userSpaceOnUse">
<stop stop-color="#008CC1"/>
<stop offset="1" stop-color="#004D79"/>
</linearGradient>
<linearGradient id="paint1_linear_673_543" x1="34.6859" y1="51.5953" x2="58.8994" y2="40.4881" gradientUnits="userSpaceOnUse">
<stop stop-color="#F27621"/>
<stop offset="1" stop-color="#FFCA63"/>
</linearGradient>
<linearGradient id="paint2_linear_673_543" x1="27.7504" y1="1.90034" x2="47.4099" y2="18.3382" gradientUnits="userSpaceOnUse">
<stop stop-color="#597D21"/>
<stop offset="0.43" stop-color="#96AC1E"/>
<stop offset="0.81" stop-color="#C7D21B"/>
<stop offset="1" stop-color="#DBE11B"/>
</linearGradient>
<clipPath id="clip0_673_543">
<rect width="68.2925" height="56" fill="white" transform="translate(0.828613)"/>
</clipPath>
</defs>
</svg>
