<svg width="104" height="56" viewBox="0 0 104 56" fill="none" xmlns="http://www.w3.org/2000/svg">
<g clip-path="url(#clip0_673_565)">
<path fill-rule="evenodd" clip-rule="evenodd" d="M43.0976 9.96007C43.1056 22.1894 43.1136 34.4188 43.12 46.6465C43.0687 47.1822 43.2163 47.5687 43.8915 47.5527H47.0382C47.5146 47.5334 47.7632 47.2576 47.7824 46.7187L47.76 15.001C47.76 14.7283 47.8418 14.6465 48.1144 14.6465H50.8089L61.8081 46.8646C61.9604 47.3105 62.363 47.5383 63.019 47.5383H65.3301C66.0615 47.5383 66.3871 47.2897 66.541 46.8646L76.2171 20.2311C76.2732 20.0771 76.363 20.0066 76.4368 20.0066C76.5106 20.0066 76.602 20.0739 76.6565 20.2311L86.0615 46.8646C86.2187 47.3089 86.6148 47.5383 87.2724 47.5383H89.6718C90.4031 47.5383 90.7335 47.2913 90.8827 46.8646L103.263 11.2175C103.449 10.6834 103.078 10.4172 102.273 10.3947L99.7119 10.3193C99.0527 10.3001 98.6549 10.5471 98.501 10.9929L88.6277 39.5703C88.5731 39.7275 88.4817 39.7949 88.4079 39.7949C88.3341 39.7949 88.2427 39.7259 88.1882 39.5703L77.9332 10.948C77.7808 10.5246 77.4568 10.2744 76.7223 10.2744H76.2828C75.622 10.2744 75.2355 10.5054 75.0719 10.948L64.5491 39.5254C64.4913 39.6826 64.4031 39.75 64.3293 39.75C64.2556 39.75 64.1625 39.681 64.1096 39.5254L54.278 11.0379C54.1305 10.6096 53.8017 10.3642 53.0671 10.3642H50.6196C50.4865 10.3642 50.3678 10.3739 50.262 10.3915L47.8418 10.3129C47.7856 7.766 49.8819 4.75397 51.9925 3.99696L50.8217 0.000165187C47.1762 -0.129747 43.0976 5.74355 43.0976 9.96007ZM20.2844 13.7179C28.9741 13.7179 36.0198 20.5407 36.0198 28.9561C36.0198 37.3715 28.9757 44.1942 20.2844 44.1942C11.5932 44.1942 4.54907 37.3715 4.54907 28.9545C4.54907 20.5375 11.5932 13.7163 20.2844 13.7163V13.7179ZM20.2844 9.4324C31.4184 9.4324 40.4432 18.1734 40.4432 28.9545C40.4432 39.7355 31.4184 48.4765 20.2844 48.4765C13.8787 48.4765 8.17216 45.5832 4.4785 41.0715V55.9216H0.237918V31.0282C-1.05318 19.2159 8.48652 9.4324 20.2844 9.4324ZM80.2042 54.1958C82.1802 52.1878 82.5026 49.9809 81.513 47.2881C83.8081 47.3394 87.837 53.118 86.6357 54.5904L84.6998 54.6241L84.7367 55.9071H91.4232L91.375 54.6016L89.2852 54.592C88.9645 54.4909 87.9348 47.9232 80.9885 44.6353C79.2884 43.8302 78.7592 43.8494 77.2451 43.8109C77.1681 43.4837 77.4761 43.5896 77.7519 43.2832C79.1104 41.8815 78.0326 39.3169 75.9476 39.1565C73.4167 38.847 72.0551 42.6321 74.2652 43.5816C74.355 44.5423 72.0759 43.843 71.4488 46.4027C70.7463 49.1854 73.0302 51.5367 75.4617 51.2223C75.9027 51.1036 75.792 50.8614 75.4985 50.5679C75.3654 50.4348 75.1457 50.2552 75.0575 50.1205C74.4849 49.2977 75.1457 48.2616 76.0374 48.0178C77.5691 47.5992 78.5731 49.2255 78.4544 50.5856C78.1946 53.5511 74.0005 54.175 72.1978 52.4941C70.1176 50.5551 70.7383 48.5326 70.5587 46.8823L68.0727 46.8326C67.3654 49.8703 64.8073 52.2552 62.4801 54.029C60.6212 55.1886 59.6477 53.5735 59.8434 55.8237H64.0422C65.3654 53.5832 66.1577 52.2472 68.7993 50.677C69.4376 52.1285 70.3053 53.2143 70.5491 53.5431C73.0655 56.7363 77.5114 56.6609 80.2042 54.1926V54.1958Z" fill="#FF7100"/>
</g>
<defs>
<clipPath id="clip0_673_565">
<rect width="103.188" height="56" fill="white" transform="translate(0.121094)"/>
</clipPath>
</defs>
</svg>
