<svg width="382" height="56" viewBox="0 0 382 56" fill="none" xmlns="http://www.w3.org/2000/svg">
<g clip-path="url(#clip0_673_568)">
<path d="M0.512151 52.9551V50.9752H1.25495C1.40621 50.9752 1.52731 50.9954 1.61824 51.036C1.71008 51.0756 1.78166 51.1373 1.83298 51.221C1.8852 51.3038 1.91131 51.3907 1.91131 51.4816C1.91131 51.5663 1.88835 51.646 1.84243 51.7207C1.79651 51.7954 1.72719 51.8557 1.63445 51.9017C1.7542 51.9368 1.84603 51.9966 1.90996 52.0813C1.97478 52.1659 2.0072 52.2659 2.0072 52.3811C2.0072 52.4738 1.98739 52.5603 1.94777 52.6404C1.90906 52.7196 1.86089 52.7809 1.80327 52.8241C1.74564 52.8673 1.67316 52.9002 1.58583 52.9227C1.49939 52.9443 1.39315 52.9551 1.2671 52.9551H0.512151ZM0.774156 51.8071H1.20228C1.31842 51.8071 1.40171 51.7995 1.45213 51.7842C1.51875 51.7644 1.56872 51.7315 1.60204 51.6856C1.63625 51.6397 1.65336 51.582 1.65336 51.5127C1.65336 51.447 1.6376 51.3894 1.60609 51.3398C1.57457 51.2894 1.52956 51.2552 1.47103 51.2372C1.41251 51.2183 1.31212 51.2088 1.16986 51.2088H0.774156V51.8071ZM0.774156 52.7214H1.2671C1.35174 52.7214 1.41116 52.7183 1.44537 52.712C1.5057 52.7012 1.55612 52.6832 1.59663 52.658C1.63715 52.6327 1.67046 52.5963 1.69657 52.5486C1.72268 52.4999 1.73574 52.4441 1.73574 52.3811C1.73574 52.3073 1.71683 52.2433 1.67902 52.1893C1.6412 52.1344 1.58853 52.0961 1.521 52.0745C1.45438 52.052 1.35804 52.0408 1.23199 52.0408H0.774156V52.7214Z" fill="#1A1A18"/>
<path d="M7.10776 52.9551L7.86812 50.9752H8.15038L8.9607 52.9551H8.66223L8.43129 52.3554H7.60341L7.38598 52.9551H7.10776ZM7.67904 52.1421H8.35026L8.14363 51.5937C8.0806 51.4272 8.03378 51.2903 8.00317 51.1832C7.97796 51.3101 7.9424 51.4362 7.89648 51.5613L7.67904 52.1421Z" fill="#1A1A18"/>
<path d="M14.1147 52.9551V50.9752H14.3767V52.7214H15.3518V52.9551H14.1147Z" fill="#1A1A18"/>
<path d="M19.8299 52.9551L20.5903 50.9752H20.8725L21.6829 52.9551H21.3844L21.1535 52.3554H20.3256L20.1081 52.9551H19.8299ZM20.4012 52.1421H21.0724L20.8658 51.5937C20.8028 51.4272 20.756 51.2903 20.7253 51.1832C20.7001 51.3101 20.6646 51.4362 20.6186 51.5613L20.4012 52.1421Z" fill="#1A1A18"/>
<path d="M26.8469 52.9551V50.9752H27.1157L28.1556 52.5297V50.9752H28.4068V52.9551H28.138L27.0981 51.3993V52.9551H26.8469Z" fill="#1A1A18"/>
<path d="M35.5015 52.2609L35.7635 52.3271C35.7086 52.5423 35.6096 52.7066 35.4664 52.82C35.3242 52.9326 35.1499 52.9888 34.9438 52.9888C34.7304 52.9888 34.5566 52.9456 34.4225 52.8592C34.2892 52.7719 34.1875 52.6458 34.1172 52.481C34.0479 52.3163 34.0132 52.1394 34.0132 51.9503C34.0132 51.7441 34.0524 51.5645 34.1307 51.4114C34.21 51.2575 34.3221 51.1409 34.467 51.0616C34.6129 50.9815 34.7731 50.9414 34.9478 50.9414C35.1459 50.9414 35.3125 50.9918 35.4475 51.0927C35.5826 51.1935 35.6767 51.3353 35.7298 51.5181L35.4718 51.5789C35.4259 51.4348 35.3593 51.3299 35.2719 51.2642C35.1846 51.1985 35.0748 51.1656 34.9424 51.1656C34.7903 51.1656 34.6629 51.2021 34.5602 51.275C34.4585 51.3479 34.3869 51.4461 34.3455 51.5694C34.3041 51.6919 34.2834 51.8184 34.2834 51.9489C34.2834 52.1173 34.3077 52.2645 34.3563 52.3906C34.4058 52.5157 34.4823 52.6093 34.5859 52.6715C34.6894 52.7336 34.8015 52.7647 34.9222 52.7647C35.0689 52.7647 35.1932 52.7223 35.2949 52.6377C35.3966 52.5531 35.4655 52.4275 35.5015 52.2609Z" fill="#1A1A18"/>
<path d="M41.336 52.9551V50.9752H42.7675V51.2088H41.598V51.8152H42.6933V52.0475H41.598V52.7214H42.8135V52.9551H41.336Z" fill="#1A1A18"/>
<path d="M50.3779 53.5372V50.9414H50.59V53.5372H50.3779Z" fill="#1A1A18"/>
<path d="M57.5255 52.2609L57.7875 52.3271C57.7325 52.5423 57.6335 52.7066 57.4903 52.82C57.3481 52.9326 57.1739 52.9888 56.9677 52.9888C56.7543 52.9888 56.5805 52.9456 56.4464 52.8592C56.3131 52.7719 56.2114 52.6458 56.1412 52.481C56.0718 52.3163 56.0372 52.1394 56.0372 51.9503C56.0372 51.7441 56.0763 51.5645 56.1547 51.4114C56.2339 51.2575 56.346 51.1409 56.4909 51.0616C56.6368 50.9815 56.7971 50.9414 56.9717 50.9414C57.1698 50.9414 57.3364 50.9918 57.4714 51.0927C57.6065 51.1935 57.7006 51.3353 57.7537 51.5181L57.4958 51.5789C57.4498 51.4348 57.3832 51.3299 57.2959 51.2642C57.2085 51.1985 57.0987 51.1656 56.9663 51.1656C56.8142 51.1656 56.6868 51.2021 56.5841 51.275C56.4824 51.3479 56.4108 51.4461 56.3694 51.5694C56.328 51.6919 56.3073 51.8184 56.3073 51.9489C56.3073 52.1173 56.3316 52.2645 56.3802 52.3906C56.4297 52.5157 56.5063 52.6093 56.6098 52.6715C56.7133 52.7336 56.8254 52.7647 56.9461 52.7647C57.0928 52.7647 57.2171 52.7223 57.3188 52.6377C57.4206 52.5531 57.4894 52.4275 57.5255 52.2609Z" fill="#1A1A18"/>
<path d="M63.3413 52.9551V50.9752H63.6033V52.7214H64.5783V52.9551H63.3413Z" fill="#1A1A18"/>
<path d="M69.0565 52.9551L69.8168 50.9752H70.0991L70.9094 52.9551H70.611L70.38 52.3554H69.5521L69.3347 52.9551H69.0565ZM69.6278 52.1421H70.299L70.0924 51.5937C70.0293 51.4272 69.9825 51.2903 69.9519 51.1832C69.9267 51.3101 69.8911 51.4362 69.8452 51.5613L69.6278 52.1421Z" fill="#1A1A18"/>
<path d="M76.0802 52.9551V50.9752H76.9581C77.1346 50.9752 77.2687 50.9932 77.3605 51.0292C77.4524 51.0643 77.5258 51.1269 77.5807 51.2169C77.6356 51.307 77.6631 51.4065 77.6631 51.5154C77.6631 51.6559 77.6176 51.7743 77.5267 51.8706C77.4357 51.9669 77.2953 52.0282 77.1053 52.0543C77.1746 52.0876 77.2273 52.1204 77.2633 52.1529C77.3398 52.2231 77.4123 52.3109 77.4807 52.4162L77.8251 52.9551H77.4956L77.2336 52.5432C77.1571 52.4243 77.094 52.3334 77.0445 52.2704C76.995 52.2073 76.9504 52.1632 76.9108 52.138C76.8721 52.1128 76.8325 52.0952 76.792 52.0853C76.7623 52.079 76.7136 52.0759 76.6461 52.0759H76.3422V52.9551H76.0802ZM76.3422 51.849H76.9054C77.0252 51.849 77.1188 51.8368 77.1863 51.8125C77.2538 51.7873 77.3052 51.7477 77.3403 51.6937C77.3754 51.6388 77.393 51.5793 77.393 51.5154C77.393 51.4218 77.3587 51.3448 77.2903 51.2845C77.2228 51.2241 77.1156 51.194 76.9689 51.194H76.3422V51.849Z" fill="#1A1A18"/>
<path d="M83.36 52.9551V50.9752H83.622V52.9551H83.36Z" fill="#1A1A18"/>
<path d="M87.5296 52.9551V51.2088H86.8773V50.9752H88.4467V51.2088H87.7916V52.9551H87.5296Z" fill="#1A1A18"/>
<path d="M93.9401 52.9551V52.1164L93.177 50.9752H93.4958L93.8861 51.5721C93.9581 51.6838 94.0252 51.7954 94.0873 51.9071C94.1467 51.8035 94.2188 51.6869 94.3034 51.5573L94.687 50.9752H94.9922L94.2021 52.1164V52.9551H93.9401Z" fill="#1A1A18"/>
<path d="M102.288 53.5372V50.9414H102.5V53.5372H102.288Z" fill="#1A1A18"/>
<path d="M108.068 52.9551V50.9752H108.33V52.9551H108.068Z" fill="#1A1A18"/>
<path d="M111.731 52.9551V50.9752H111.999L113.039 52.5297V50.9752H113.291V52.9551H113.022L111.982 51.3993V52.9551H111.731Z" fill="#1A1A18"/>
<path d="M119.478 52.9551V51.2088H118.826V50.9752H120.395V51.2088H119.74V52.9551H119.478Z" fill="#1A1A18"/>
<path d="M125.335 52.9551V50.9752H126.766V51.2088H125.597V51.8152H126.692V52.0475H125.597V52.7214H126.812V52.9551H125.335Z" fill="#1A1A18"/>
<path d="M133.058 52.1785V51.9462L133.897 51.9449V52.6796C133.768 52.7822 133.635 52.8596 133.498 52.9119C133.361 52.9632 133.221 52.9888 133.077 52.9888C132.882 52.9888 132.705 52.9474 132.546 52.8646C132.388 52.7809 132.268 52.6602 132.187 52.5026C132.106 52.3451 132.065 52.1691 132.065 51.9746C132.065 51.7819 132.105 51.6023 132.185 51.4357C132.266 51.2683 132.383 51.144 132.534 51.063C132.685 50.9819 132.859 50.9414 133.056 50.9414C133.2 50.9414 133.329 50.9648 133.444 51.0117C133.56 51.0576 133.651 51.1219 133.717 51.2048C133.783 51.2876 133.833 51.3957 133.867 51.5289L133.63 51.5937C133.601 51.4929 133.564 51.4137 133.52 51.356C133.476 51.2984 133.413 51.2525 133.331 51.2183C133.249 51.1832 133.158 51.1656 133.058 51.1656C132.938 51.1656 132.835 51.1841 132.747 51.221C132.66 51.257 132.589 51.3047 132.535 51.3641C132.482 51.4236 132.441 51.4888 132.411 51.56C132.36 51.6824 132.335 51.8152 132.335 51.9584C132.335 52.1349 132.365 52.2825 132.426 52.4014C132.487 52.5202 132.576 52.6084 132.692 52.6661C132.808 52.7237 132.931 52.7525 133.062 52.7525C133.175 52.7525 133.286 52.7309 133.394 52.6877C133.502 52.6436 133.584 52.5967 133.64 52.5472V52.1785H133.058Z" fill="#1A1A18"/>
<path d="M139.816 52.9551V50.9752H140.694C140.87 50.9752 141.005 50.9932 141.096 51.0292C141.188 51.0643 141.262 51.1269 141.317 51.2169C141.371 51.307 141.399 51.4065 141.399 51.5154C141.399 51.6559 141.353 51.7743 141.262 51.8706C141.172 51.9669 141.031 52.0282 140.841 52.0543C140.91 52.0876 140.963 52.1204 140.999 52.1529C141.076 52.2231 141.148 52.3109 141.217 52.4162L141.561 52.9551H141.231L140.969 52.5432C140.893 52.4243 140.83 52.3334 140.78 52.2704C140.731 52.2073 140.686 52.1632 140.647 52.138C140.608 52.1128 140.568 52.0952 140.528 52.0853C140.498 52.079 140.449 52.0759 140.382 52.0759H140.078V52.9551H139.816ZM140.078 51.849H140.641C140.761 51.849 140.855 51.8368 140.922 51.8125C140.99 51.7873 141.041 51.7477 141.076 51.6937C141.111 51.6388 141.129 51.5793 141.129 51.5154C141.129 51.4218 141.095 51.3448 141.026 51.2845C140.959 51.2241 140.851 51.194 140.705 51.194H140.078V51.849Z" fill="#1A1A18"/>
<path d="M147.098 52.9551V50.9752H147.36V52.9551H147.098Z" fill="#1A1A18"/>
<path d="M151.268 52.9551V51.2088H150.616V50.9752H152.185V51.2088H151.53V52.9551H151.268Z" fill="#1A1A18"/>
<path d="M157.678 52.9551V52.1164L156.915 50.9752H157.234L157.624 51.5721C157.696 51.6838 157.763 51.7954 157.826 51.9071C157.885 51.8035 157.957 51.6869 158.042 51.5573L158.425 50.9752H158.73L157.94 52.1164V52.9551H157.678Z" fill="#1A1A18"/>
<mask id="mask0_673_568" style="mask-type:luminance" maskUnits="userSpaceOnUse" x="178" y="0" width="204" height="53">
<path d="M373.624 40.603L373.681 40.6318C374.229 40.9024 374.812 41.0311 375.425 41.0311C375.691 41.0311 375.955 40.9978 376.21 40.9246C376.436 40.8603 376.642 40.7671 376.835 40.6163C376.997 40.4965 377.126 40.3147 377.214 40.1417C377.341 39.88 377.383 39.585 377.383 39.2989C377.383 38.9551 377.314 38.6047 377.086 38.3341C376.822 38.0236 376.496 37.773 376.139 37.5778C375.686 37.3316 375.218 37.1187 374.746 36.9346C374.163 36.7172 373.606 36.4378 373.087 36.094C372.548 35.7369 372.098 35.2711 371.743 34.7344C371.306 34.0757 371.157 33.2772 371.157 32.4988C371.157 31.5983 371.304 30.6934 371.67 29.8639C371.998 29.1209 372.459 28.4555 373.069 27.9166C373.644 27.4109 374.307 27.0227 375.028 26.7633C375.751 26.5015 376.509 26.3662 377.279 26.3662C377.554 26.3662 377.827 26.4128 378.097 26.455C378.479 26.5148 378.856 26.6036 379.215 26.7189C379.614 26.8387 379.998 27.005 380.346 27.2357C380.774 27.5151 381.082 27.9232 381.082 28.4533C381.082 29.1098 380.672 29.6088 379.993 29.6088C379.745 29.6088 379.494 29.5024 379.275 29.3937C379.055 29.2872 378.827 29.1963 378.603 29.0987C378.334 28.9834 378.057 28.8902 377.769 28.8104C377.54 28.7394 377.301 28.7039 377.061 28.7039C376.578 28.7039 376.112 28.7815 375.653 28.9523C375.223 29.1009 374.83 29.3382 374.495 29.6443C374.134 29.9726 373.87 30.3674 373.668 30.8087C373.442 31.3033 373.36 31.8578 373.36 32.399C373.36 32.7915 373.422 33.2196 373.67 33.539C373.932 33.8761 374.262 34.1445 374.633 34.3574C375.085 34.6146 375.558 34.8342 376.037 35.0205C376.609 35.2334 377.159 35.4952 377.685 35.8034C378.228 36.1206 378.694 36.5442 379.066 37.0521C379.512 37.6598 379.67 38.4028 379.67 39.1458C379.67 39.7757 379.565 40.4034 379.306 40.98C379.075 41.4902 378.76 41.9515 378.346 42.3308C377.944 42.6967 377.469 42.9806 376.959 43.1469C376.451 43.3222 375.924 43.4109 375.385 43.4109C375.13 43.4109 374.877 43.382 374.622 43.3532C374.247 43.3111 373.874 43.2401 373.513 43.1336C373.158 43.0294 372.807 42.8963 372.492 42.7122C372.038 42.4616 371.73 42.0602 371.73 41.5279C371.73 41.0266 371.96 40.552 372.477 40.4211C372.674 40.3701 372.878 40.3457 373.082 40.3457H373.413L373.63 40.6008L373.624 40.603ZM354.924 29.336H351.138C350.815 29.336 350.515 29.2229 350.28 28.9967C350.041 28.766 349.921 28.4466 349.921 28.1162C349.921 27.7059 350.074 27.3089 350.464 27.1248L350.504 27.107C350.702 27.0205 350.926 26.9939 351.138 26.9939H354.958L355.301 15.7802C355.301 15.4852 355.39 15.2146 355.563 14.9751C355.778 14.6801 356.089 14.516 356.455 14.516C356.821 14.516 357.176 14.669 357.389 14.9928C357.546 15.2301 357.606 15.5051 357.606 15.7935L357.333 26.9939H363.266C363.596 26.9939 363.896 27.127 364.113 27.3643C364.342 27.5994 364.468 27.8944 364.468 28.2226C364.468 28.5952 364.311 28.9324 363.991 29.1364C363.774 29.2761 363.523 29.3382 363.266 29.3382H357.249L357.242 29.6377C357.218 30.6601 357.191 31.6848 357.167 32.7072C357.133 34.0557 357.118 35.4064 357.118 36.7549C357.118 37.4092 357.153 38.0657 357.244 38.7156C357.309 39.1791 357.442 39.6382 357.686 40.0419C357.894 40.3879 358.178 40.6385 358.533 40.827C359.001 41.0732 359.615 41.1286 360.137 41.1286C360.698 41.1286 361.299 41.0466 361.796 40.7716C362.228 40.5342 362.647 40.2548 363.004 39.9132C363.29 39.6404 363.565 39.3499 363.798 39.0305C364.062 38.669 364.413 38.2919 364.896 38.2919C365.158 38.2919 365.408 38.3762 365.632 38.5337L365.648 38.5448C365.927 38.7555 366.067 39.0682 366.067 39.4142C366.067 39.687 365.963 39.9398 365.781 40.1417L365.75 40.1772L365.717 40.2504L365.695 40.2858C365.087 41.2285 364.304 42.018 363.33 42.5814C362.35 43.1514 361.274 43.4286 360.141 43.4286C359.256 43.4286 358.316 43.3199 357.506 42.9429C356.805 42.6169 356.222 42.1445 355.785 41.5035C355.348 40.8603 355.093 40.1128 354.967 39.3499C354.825 38.4893 354.785 37.6155 354.8 36.7438L354.929 29.3382L354.924 29.336ZM302.726 42.5525C302.504 42.7788 302.222 42.9229 301.901 42.9229C301.497 42.9229 301.129 42.7411 300.96 42.3574C300.87 42.1489 300.832 41.9249 300.832 41.6987V27.7103C300.832 27.4242 300.921 27.1558 301.091 26.9252C301.304 26.6346 301.621 26.4705 301.983 26.4705C302.427 26.4705 302.799 26.7211 302.945 27.1336C303.028 27.351 303.072 27.5817 303.072 27.8168V41.7009C303.072 42.0247 302.952 42.3241 302.724 42.5548L302.726 42.5525ZM301.947 15.0283C302.455 15.0283 302.89 15.2368 303.223 15.6205C303.544 15.9909 303.691 16.45 303.691 16.9379C303.691 17.4259 303.527 17.8628 303.212 18.2332C302.886 18.6169 302.455 18.8387 301.947 18.8387C301.44 18.8387 301.02 18.608 300.692 18.2332C300.37 17.8694 300.198 17.4236 300.198 16.9379C300.198 16.4522 300.351 15.9953 300.672 15.6382C301.005 15.2545 301.435 15.0283 301.947 15.0283ZM242.015 30.0857L242.468 29.6332C243.004 29.0965 243.565 28.5886 244.151 28.1073C244.794 27.5794 245.484 27.107 246.22 26.7189C246.945 26.3374 247.728 26.0979 248.551 26.0979C249.753 26.0979 250.82 26.4949 251.625 27.4109C252.428 28.3247 252.734 29.4735 252.734 30.6712C252.734 31.1858 252.637 31.6981 252.497 32.1927C252.344 32.7339 252.122 33.2551 251.84 33.743C251.559 34.2332 251.197 34.6745 250.76 35.0338C250.292 35.422 249.749 35.646 249.137 35.646C248.795 35.646 248.505 35.4774 248.321 35.1935C248.196 35.0028 248.13 34.7766 248.13 34.5481C248.13 34.0957 248.451 33.7696 248.809 33.539C249.066 33.3726 249.31 33.1841 249.545 32.9867C249.807 32.7671 250.015 32.4855 250.184 32.1905C250.39 31.8267 250.443 31.3455 250.443 30.9351C250.443 30.3008 250.332 29.6066 249.913 29.1054C249.523 28.6396 248.962 28.511 248.376 28.511C247.866 28.511 247.331 28.7594 246.901 29.0144C246.229 29.4159 245.595 29.8794 245 30.3873C244.375 30.924 243.774 31.4918 243.202 32.0885C242.827 32.4788 242.45 32.8692 242.082 33.2662L242 33.3549V42.1311C242 42.4816 241.873 42.7965 241.62 43.0383C241.387 43.2601 241.097 43.382 240.773 43.382C240.347 43.382 239.952 43.2113 239.779 42.7987C239.691 42.5858 239.666 42.3574 239.666 42.1311V31.1015C239.666 30.74 239.657 30.3784 239.642 30.0169C239.629 29.7242 239.586 29.4314 239.493 29.1519C239.429 28.9612 239.331 28.7949 239.181 28.6596C239.043 28.5354 238.835 28.5132 238.657 28.5132C238.336 28.5132 238.025 28.6241 237.743 28.7705C237.362 28.9701 236.996 29.2007 236.648 29.4558C236.328 29.6887 236.011 29.9304 235.698 30.1744C235.406 30.4006 235.049 30.6623 234.665 30.6623C234.39 30.6623 234.13 30.5448 233.931 30.3496L233.902 30.3208C233.8 30.2121 233.707 30.0923 233.638 29.9615L233.556 29.8062V29.631C233.556 29.0344 233.924 28.5509 234.357 28.1783C234.8 27.7924 235.295 27.4708 235.807 27.1736C236.322 26.8897 236.854 26.6368 237.404 26.4306C237.837 26.2687 238.34 26.1023 238.806 26.1023C239.535 26.1023 240.254 26.2775 240.795 26.7943C241.25 27.229 241.549 27.7702 241.727 28.369C241.831 28.7239 241.902 29.0876 241.944 29.4536L242.017 30.0879L242.015 30.0857ZM333.346 29.3427L333.817 28.99C334.413 28.542 335.041 28.1339 335.7 27.7835C336.374 27.4242 337.079 27.1336 337.811 26.9163C338.574 26.6901 339.368 26.5836 340.162 26.5836C341.051 26.5836 341.967 26.7167 342.77 27.1181C343.462 27.4641 344.052 27.9543 344.494 28.5886C344.933 29.2229 345.212 29.9415 345.37 30.6956C345.534 31.4807 345.607 32.2836 345.607 33.0865V41.814C345.607 42.5525 345.104 43.0383 344.369 43.0383C343.635 43.0383 343.167 42.537 343.167 41.814V32.8536C343.167 32.2725 343.118 31.6937 342.992 31.1214C342.908 30.7 342.75 30.2942 342.495 29.9459C342.256 29.6177 341.932 29.3893 341.559 29.2229C341.085 28.9989 340.466 28.9501 339.947 28.9501C339.319 28.9501 338.703 29.0544 338.115 29.2717C337.476 29.5046 336.862 29.804 336.283 30.1611C335.684 30.5315 335.112 30.9484 334.573 31.4009C334.158 31.7491 333.748 32.104 333.349 32.4677L333.249 32.5586V41.8162C333.249 42.5525 332.756 43.0405 332.02 43.0405C331.639 43.0405 331.275 42.9207 331.058 42.5858C330.909 42.3574 330.862 42.0846 330.862 41.8162V27.8301C330.862 27.4952 330.991 27.1802 331.228 26.9562C331.472 26.7122 331.783 26.5903 332.127 26.5903C332.779 26.5903 333.111 27.1403 333.207 27.7103C333.273 28.0585 333.309 28.4089 333.322 28.7638L333.344 29.3516L333.346 29.3427ZM194.501 29.3427L194.971 28.99C195.568 28.542 196.195 28.1339 196.854 27.7835C197.526 27.4242 198.234 27.1336 198.965 26.9163C199.728 26.6901 200.522 26.5836 201.316 26.5836C202.206 26.5836 203.122 26.7167 203.925 27.1181C204.617 27.4641 205.207 27.9543 205.648 28.5886C206.087 29.2229 206.367 29.9415 206.524 30.6956C206.688 31.4807 206.761 32.2836 206.761 33.0865V41.814C206.761 42.5525 206.258 43.0383 205.524 43.0383C204.79 43.0383 204.322 42.537 204.322 41.814V32.8536C204.322 32.2748 204.268 31.6959 204.149 31.1281C204.058 30.7045 203.907 30.2964 203.65 29.9459C203.41 29.6177 203.086 29.3893 202.714 29.2229C202.239 28.9989 201.62 28.9501 201.101 28.9501C200.474 28.9501 199.857 29.0544 199.269 29.2717C198.631 29.5046 198.016 29.804 197.437 30.1611C196.838 30.5315 196.266 30.9484 195.727 31.4009C195.313 31.7491 194.902 32.104 194.503 32.4677L194.403 32.5586V41.8162C194.403 42.5525 193.911 43.0405 193.175 43.0405C192.793 43.0405 192.427 42.9207 192.212 42.5858C192.063 42.3574 192.017 42.0846 192.017 41.8162V27.8301C192.017 27.4952 192.145 27.1802 192.383 26.9562C192.627 26.7122 192.937 26.5903 193.281 26.5903C193.933 26.5903 194.266 27.1403 194.361 27.7103C194.428 28.0585 194.463 28.4089 194.476 28.7638L194.499 29.3516L194.501 29.3427ZM182.952 9.69644H179.778C179.455 9.69644 179.184 9.49904 179.055 9.2085C178.989 9.0599 178.964 8.90242 178.964 8.74052C178.964 8.48767 179.024 8.24814 179.211 8.06849C179.364 7.91989 179.565 7.83561 179.778 7.83561H188.608C188.932 7.83561 189.202 8.03522 189.331 8.32577C189.395 8.47215 189.422 8.62962 189.422 8.79153C189.422 9.03106 189.371 9.25507 189.202 9.43694C189.049 9.60328 188.834 9.69865 188.608 9.69865H184.815V40.5853H188.617C188.941 40.5853 189.211 40.7849 189.34 41.0776C189.404 41.224 189.431 41.3815 189.431 41.5412C189.431 41.7829 189.38 42.0047 189.211 42.1866C189.056 42.3529 188.843 42.4483 188.617 42.4483H179.787C179.463 42.4483 179.193 42.2509 179.064 41.9604C178.998 41.8118 178.973 41.6543 178.973 41.4924C178.973 41.2395 179.033 41 179.219 40.8204C179.372 40.6718 179.574 40.5875 179.787 40.5875H182.952V9.69644ZM310.841 35.4907L310.883 35.8367C310.948 36.3513 311.065 36.8592 311.252 37.3449C311.518 38.0369 311.899 38.6668 312.429 39.188C312.95 39.7025 313.576 40.0796 314.261 40.3324C315.062 40.6296 315.916 40.745 316.765 40.745C317.526 40.745 318.309 40.6474 319.016 40.359C319.598 40.1217 320.17 39.84 320.678 39.4697C321.075 39.1813 321.465 38.8775 321.827 38.5426C322.153 38.2387 322.563 37.9149 323.029 37.9149C323.694 37.9149 324.144 38.3784 324.144 39.0394C324.144 39.2723 324.087 39.4918 323.973 39.7025L323.951 39.7402C323.869 39.8733 323.769 39.9886 323.672 40.1018L323.641 40.1372C322.711 41.0665 321.645 41.8805 320.434 42.4039C319.218 42.9274 317.885 43.1203 316.57 43.1203C315.421 43.1203 314.272 42.9473 313.203 42.5171C312.216 42.1223 311.336 41.5412 310.606 40.7649C309.872 39.982 309.335 39.0549 308.976 38.0458C308.586 36.9479 308.422 35.7857 308.422 34.6235C308.422 33.4613 308.612 32.3369 309.036 31.2678C309.433 30.2653 309.998 29.3515 310.753 28.5775C311.502 27.8101 312.394 27.2246 313.383 26.812C314.428 26.3773 315.543 26.1799 316.674 26.1799C317.717 26.1799 318.737 26.3951 319.691 26.8209C320.62 27.2357 321.469 27.799 322.188 28.5221C322.907 29.2451 323.477 30.0901 323.896 31.0194C324.337 32.0019 324.548 33.0421 324.548 34.1178C324.548 34.9739 323.976 35.4974 323.133 35.4974H310.841V35.4907ZM310.912 33.0932L322.115 33.1153L322.008 32.725C321.913 32.3812 321.791 32.0463 321.638 31.7269C321.336 31.0948 320.933 30.5182 320.42 30.0391C319.908 29.5622 319.325 29.1941 318.675 28.9346C317.987 28.6596 317.262 28.5309 316.521 28.5309C315.781 28.5309 315.071 28.6618 314.394 28.9346C313.749 29.1941 313.148 29.5578 312.633 30.028C312.112 30.5026 311.702 31.0749 311.394 31.707C311.238 32.0263 311.112 32.3613 311.019 32.705L310.914 33.0932H310.912ZM290.421 35.2468L289.842 36.3025C289.749 36.4733 289.654 36.6418 289.556 36.8082C289.05 37.6798 288.48 38.516 287.859 39.31C287.249 40.0884 286.564 40.8115 285.801 41.4414C285.069 42.0469 284.26 42.5459 283.388 42.9229C282.507 43.3066 281.569 43.504 280.609 43.504C279.256 43.504 277.981 43.1359 276.987 42.1844C275.931 41.173 275.59 39.7602 275.59 38.3407C275.59 37.4758 275.707 36.6152 275.962 35.7901C276.202 35.0139 276.535 34.2687 276.963 33.5767C277.382 32.898 277.879 32.2725 278.426 31.6937C278.968 31.1214 279.549 30.5869 280.165 30.099C281.693 28.8858 283.406 27.9321 285.269 27.3443C286.841 26.8497 288.474 26.5769 290.119 26.5126L290.417 26.5015V1.25507C290.417 0.964526 290.499 0.676198 290.676 0.443317C290.893 0.157207 291.219 0.00195312 291.576 0.00195312C291.973 0.00195312 292.357 0.188258 292.535 0.547559C292.65 0.767132 292.721 1.00445 292.721 1.25507V42.0047C292.721 42.2376 292.685 42.4705 292.586 42.6767C292.408 43.0649 292.036 43.2379 291.625 43.2379C291.299 43.2379 290.995 43.1203 290.756 42.8808L290.734 42.8586C290.516 42.6235 290.414 42.3219 290.414 42.0047V35.2468H290.421ZM290.263 28.8725L289.851 28.8924C289.166 28.9257 288.485 29.0211 287.815 29.1564C286.85 29.3515 285.91 29.6465 284.996 30.0125C284.047 30.3917 283.14 30.8708 282.279 31.4186C281.447 31.9465 280.684 32.5764 280.012 33.2972C279.374 33.9825 278.852 34.761 278.466 35.6149C278.076 36.4733 277.896 37.3915 277.896 38.3319C277.896 39.1081 278.065 39.8999 278.644 40.4588C279.192 40.9867 279.862 41.1863 280.611 41.1863C281.461 41.1863 282.268 41.0022 283.029 40.6185C283.84 40.2082 284.568 39.6626 285.209 39.0194C285.927 38.3008 286.557 37.4957 287.103 36.6396C287.682 35.7347 288.201 34.7876 288.636 33.8029C289.066 32.8292 289.436 31.8312 289.742 30.8132C289.895 30.303 290.037 29.7907 290.164 29.2717L290.261 28.8703L290.263 28.8725ZM257.711 35.4907L257.753 35.8367C257.818 36.3513 257.935 36.8592 258.122 37.3449C258.385 38.0369 258.771 38.6668 259.299 39.188C259.82 39.7025 260.446 40.0796 261.131 40.3324C261.932 40.6296 262.786 40.745 263.635 40.745C264.396 40.745 265.179 40.6474 265.886 40.359C266.468 40.1217 267.04 39.84 267.548 39.4697C267.945 39.1813 268.335 38.8775 268.697 38.5426C269.023 38.2387 269.431 37.9149 269.899 37.9149C270.564 37.9149 271.012 38.3784 271.012 39.0394C271.012 39.27 270.952 39.4896 270.846 39.6937L270.817 39.7469C270.737 39.8755 270.635 39.9909 270.54 40.1018L270.504 40.1395C269.575 41.0688 268.51 41.8805 267.299 42.4017C266.084 42.9252 264.751 43.1181 263.436 43.1181C262.287 43.1181 261.138 42.9451 260.069 42.5148C259.082 42.1201 258.201 41.539 257.472 40.7627C256.738 39.9798 256.201 39.0527 255.842 38.0435C255.451 36.9457 255.287 35.7835 255.287 34.6213C255.287 33.4591 255.478 32.3346 255.901 31.2634C256.298 30.2609 256.864 29.3471 257.618 28.5731C258.368 27.8057 259.259 27.2201 260.249 26.8076C261.293 26.3729 262.409 26.1755 263.54 26.1755C264.582 26.1755 265.603 26.3906 266.556 26.8165C267.488 27.2312 268.335 27.7946 269.054 28.5176C269.772 29.2407 270.344 30.0857 270.761 31.015C271.203 31.9975 271.413 33.0377 271.413 34.1134C271.413 34.9673 270.841 35.4929 269.998 35.4929H257.707L257.711 35.4907ZM257.782 33.0932L268.983 33.1153L268.876 32.725C268.783 32.3812 268.659 32.0463 268.506 31.7269C268.204 31.0948 267.801 30.5182 267.288 30.0391C266.776 29.5622 266.193 29.1963 265.543 28.9346C264.855 28.6596 264.13 28.5287 263.389 28.5287C262.648 28.5287 261.939 28.6596 261.262 28.9324C260.617 29.1919 260.016 29.5556 259.501 30.0258C258.98 30.5004 258.57 31.0726 258.261 31.7047C258.106 32.0241 257.98 32.359 257.886 32.7028L257.782 33.0909V33.0932ZM226.561 35.2401L225.98 36.338C225.92 36.4511 225.858 36.5642 225.796 36.6773C225.312 37.5578 224.769 38.4051 224.172 39.2146C223.593 39.9997 222.934 40.7272 222.2 41.3726C221.502 41.9848 220.725 42.5038 219.88 42.8919C219.033 43.2822 218.124 43.4863 217.192 43.4863C215.861 43.4863 214.635 43.0871 213.688 42.1267C212.668 41.0909 212.355 39.6648 212.355 38.2542C212.355 37.041 212.566 35.8545 213.034 34.7344C213.479 33.6654 214.085 32.6718 214.824 31.7824C215.564 30.8908 216.42 30.1012 217.354 29.4137C218.279 28.7328 219.268 28.1384 220.311 27.6548C221.309 27.1935 222.356 26.832 223.425 26.5769C224.394 26.3463 225.387 26.1999 226.383 26.1999C226.539 26.1999 226.694 26.1999 226.849 26.191C227.095 26.1799 227.344 26.191 227.588 26.2398C227.876 26.2953 228.164 26.4173 228.375 26.6147C228.69 26.8919 228.825 27.2623 228.825 27.6748V43.5839C228.825 44.8259 228.692 46.0768 228.355 47.2745C228.056 48.3391 227.585 49.3527 226.898 50.2221C226.237 51.0604 225.405 51.7169 224.44 52.1738C223.402 52.6662 222.26 52.8614 221.116 52.8614C219.723 52.8614 218.392 52.5442 217.192 51.8278C215.937 51.0782 215.023 49.9204 214.367 48.6296L214.358 48.6141C214.227 48.399 214.176 48.1483 214.176 47.8977C214.176 47.6471 214.238 47.3987 214.358 47.1968C214.553 46.8509 214.872 46.6291 215.276 46.6291C215.68 46.6291 216.006 46.8974 216.252 47.2124C216.429 47.4497 216.598 47.6937 216.762 47.9376C216.964 48.2393 217.19 48.5232 217.425 48.8004C217.682 49.1065 217.997 49.3615 218.328 49.5833C218.734 49.8561 219.188 50.0535 219.65 50.2066C220.233 50.4017 220.865 50.466 221.477 50.466C222.265 50.466 223.056 50.3308 223.748 49.9404C224.38 49.5811 224.899 49.0932 225.308 48.4921C225.762 47.8201 226.055 47.0505 226.239 46.2631C226.461 45.3183 226.554 44.3468 226.554 43.3776V35.2445L226.561 35.2401ZM226.414 28.6196L226.004 28.644C225.365 28.684 224.731 28.7838 224.103 28.9168C223.183 29.1098 222.285 29.4092 221.42 29.7796C220.51 30.17 219.641 30.6468 218.825 31.2035C218.028 31.7447 217.292 32.3768 216.656 33.102C216.039 33.8051 215.54 34.5991 215.172 35.4597C214.792 36.3446 214.622 37.285 214.622 38.2454C214.622 39.0327 214.779 39.8467 215.347 40.43C215.853 40.9512 216.478 41.1553 217.194 41.1553C218.004 41.1553 218.767 40.9667 219.481 40.5853C220.264 40.1661 220.956 39.6027 221.562 38.9595C222.251 38.2254 222.857 37.4136 223.378 36.5509C223.937 35.6238 224.429 34.6568 224.848 33.6587C225.263 32.6718 225.616 31.6582 225.909 30.6268C226.059 30.0968 226.199 29.5622 226.321 29.0233L226.412 28.6219L226.414 28.6196Z" fill="white"/>
</mask>
<g mask="url(#mask0_673_568)">
<path d="M381.08 0.00390625H178.964V52.8567H381.08V0.00390625Z" fill="url(#paint0_linear_673_568)"/>
</g>
<mask id="mask1_673_568" style="mask-type:luminance" maskUnits="userSpaceOnUse" x="0" y="9" width="162" height="34">
<path d="M144.964 39.0745L159.689 10.1862L159.722 10.1396C159.791 10.0442 159.875 9.97327 159.966 9.90008C160.134 9.76479 160.325 9.67385 160.543 9.67385C160.795 9.67385 161.037 9.75813 161.226 9.91782C161.467 10.1152 161.594 10.3991 161.594 10.7096C161.594 11.0046 161.259 11.5813 161.119 11.8629C160.751 12.5971 160.378 13.329 160.008 14.0631C159.462 15.141 158.915 16.2189 158.365 17.2968C157.695 18.6098 157.029 19.9228 156.362 21.238C155.63 22.6797 154.896 24.1213 154.159 25.5607C153.412 27.0201 152.667 28.4817 151.924 29.9411C151.223 31.314 150.52 32.6847 149.817 34.0553C149.216 35.2286 148.615 36.4019 148.016 37.5729C147.57 38.4424 147.126 39.314 146.683 40.1856C146.448 40.6492 146.217 41.1149 145.973 41.5763C145.922 41.6716 145.867 41.767 145.804 41.8469C145.68 42.0176 145.518 42.1507 145.328 42.2394L145.186 42.306H145.028C144.72 42.306 144.434 42.1906 144.228 41.96C144.123 41.8446 144.032 41.7182 143.955 41.5718L143.937 41.5341C143.731 41.0817 143.493 40.6447 143.267 40.2034C142.821 39.334 142.384 38.4623 141.943 37.5907C141.349 36.4152 140.754 35.2419 140.162 34.0642C139.47 32.6891 138.78 31.314 138.086 29.9411C137.348 28.4795 136.607 27.0201 135.866 25.5607C135.134 24.1191 134.409 22.6775 133.679 21.2336C133.016 19.9206 132.351 18.6098 131.687 17.2968C131.144 16.2211 130.605 15.1454 130.064 14.0698C129.698 13.3401 129.33 12.6126 128.964 11.8829C128.824 11.6034 128.494 11.0379 128.487 10.7385C128.487 10.4834 128.582 10.2483 128.738 10.0465C128.933 9.79362 129.217 9.6428 129.538 9.6428C129.787 9.6428 130.017 9.74483 130.195 9.92448L130.224 9.95553C130.295 10.0354 130.359 10.1197 130.419 10.2239L144.959 39.0767L144.964 39.0745ZM74.0285 11.5369V40.831C74.0285 41.1127 73.9221 41.3811 73.7224 41.5807C73.5206 41.7825 73.2522 41.8934 72.9661 41.8934C72.6357 41.8934 72.3407 41.7493 72.1499 41.4765C72.0169 41.2857 71.9481 41.0639 71.9481 40.831V10.5655C71.9481 10.3126 72.0368 10.0753 72.2054 9.88899C72.3473 9.73152 72.5203 9.63393 72.7266 9.56296C72.8308 9.53191 72.9395 9.50751 73.0482 9.49199C73.148 9.47868 73.2478 9.46759 73.3476 9.46759H83.4724C84.9894 9.46759 86.5087 9.63615 87.9747 10.0354C89.3254 10.4035 90.5985 10.9957 91.7052 11.8607C92.8053 12.7213 93.637 13.8169 94.2248 15.0789C94.8924 16.5161 95.1319 18.1174 95.1319 19.6922C95.1319 20.8455 95.0011 22.0099 94.6529 23.1122C94.349 24.0725 93.9143 24.9841 93.3177 25.7958C92.7499 26.5699 92.0623 27.2375 91.2705 27.7809C90.481 28.322 89.6182 28.7523 88.7177 29.0761C87.7818 29.4132 86.8081 29.6506 85.8256 29.7969C85.1846 29.8923 84.537 29.9589 83.8893 29.9966L82.96 30.0476L83.7385 30.5599C84.2021 30.866 84.6656 31.1743 85.1291 31.4848C85.8965 31.9993 86.6684 32.5095 87.4358 33.024C88.252 33.5718 89.0682 34.1197 89.8843 34.6653C90.6894 35.2042 91.4923 35.7454 92.2974 36.2843C93.0338 36.7767 93.7701 37.2713 94.4998 37.7703C95.1053 38.1851 95.713 38.5998 96.3118 39.0235C96.7244 39.3162 97.1369 39.6112 97.5472 39.9084C97.7779 40.0747 98.1283 40.3121 98.257 40.5649L98.3346 40.7157V40.8865C98.3346 41.1593 98.2348 41.4099 98.0463 41.6073C97.8533 41.8114 97.5871 41.92 97.3077 41.92C96.955 41.92 96.4205 41.5119 96.1255 41.3146C95.4801 40.8865 94.8347 40.4607 94.1893 40.0326C93.2822 39.4271 92.3728 38.8238 91.4657 38.2183C90.4166 37.5175 89.3631 36.8233 88.3163 36.118C87.2539 35.4016 86.1893 34.6874 85.1247 33.9733C84.1644 33.3301 83.2084 32.6802 82.2503 32.0326C81.5184 31.538 80.7843 31.0434 80.0479 30.5533C79.6598 30.296 79.2739 30.0387 78.888 29.7792C78.8259 29.7371 78.766 29.6971 78.7083 29.6594C78.4 29.4687 78.2403 29.1626 78.2403 28.8055C78.2403 28.2533 78.6728 27.9428 79.1763 27.8674C79.4668 27.823 79.7618 27.8075 80.0568 27.8075C80.252 27.8075 80.4449 27.8141 80.6401 27.8252C80.802 27.8363 80.9617 27.8408 81.1236 27.8474C81.2744 27.8541 81.423 27.8651 81.5738 27.8785C81.6204 27.8829 81.667 27.8895 81.7047 27.8918H81.7313C82.512 27.8918 83.2905 27.8718 84.0712 27.8474C84.8253 27.823 85.5794 27.7565 86.3246 27.6323C87.3426 27.4659 88.3451 27.1665 89.2633 26.6897C90.0596 26.2771 90.7759 25.736 91.3637 25.0551C91.9492 24.3764 92.3706 23.589 92.6501 22.7396C92.9739 21.757 93.1003 20.7168 93.1003 19.6855C93.1003 18.7606 92.9761 17.838 92.6989 16.953C92.4394 16.1302 92.0623 15.3539 91.5433 14.6619C91.0288 13.9744 90.3989 13.3911 89.6825 12.9209C88.9107 12.4174 88.0568 12.0714 87.1585 11.8696C86.4954 11.7188 85.8189 11.6301 85.138 11.5946C84.4327 11.5591 83.7296 11.5325 83.0244 11.5325H74.0285V11.5369ZM128.562 32.4008H108.457L103.844 41.4986L103.764 41.5785C103.709 41.6339 103.646 41.6849 103.584 41.7337C103.416 41.869 103.225 41.9577 103.008 41.9577C102.735 41.9577 102.478 41.8579 102.28 41.6694C102.074 41.472 101.956 41.2125 101.956 40.9242C101.956 40.6869 102.107 40.4119 102.209 40.1989C102.371 39.8574 102.544 39.5203 102.717 39.1854C102.954 38.724 103.185 38.2627 103.418 37.7992C103.689 37.2646 103.959 36.7279 104.232 36.1956C104.509 35.6522 104.789 35.1066 105.07 34.5655C105.325 34.0775 105.585 33.5918 105.836 33.1039C105.878 33.0196 105.922 32.9375 105.964 32.8532L106.195 32.4052H104.214C103.595 32.4052 103.163 31.9816 103.163 31.3606C103.163 31.0101 103.309 30.6908 103.624 30.5178C103.806 30.418 104.006 30.378 104.212 30.378H107.208L117.573 10.0997L117.584 10.0775C117.622 9.99323 117.664 9.91117 117.708 9.82911L117.728 9.79584C117.899 9.51416 118.187 9.33008 118.522 9.33008C118.819 9.33008 119.094 9.43654 119.307 9.64724C119.429 9.76922 119.529 9.90673 119.615 10.0709L119.631 10.1019C119.833 10.5521 120.072 10.9869 120.299 11.426C120.747 12.2932 121.183 13.1648 121.623 14.0343C122.215 15.2098 122.807 16.3875 123.401 17.563C124.096 18.9336 124.785 20.3065 125.477 21.6772C126.218 23.1388 126.957 24.6026 127.693 26.0664C128.421 27.5103 129.144 28.9586 129.873 30.4024C130.536 31.7132 131.197 33.0262 131.858 34.3392C132.402 35.4149 132.941 36.4906 133.482 37.5663C133.848 38.296 134.216 39.0235 134.582 39.7531C134.722 40.0326 135.05 40.596 135.057 40.8954C135.057 41.1438 134.974 41.3744 134.828 41.574C134.633 41.8424 134.338 41.991 134.007 41.991H133.854L133.715 41.9289C133.431 41.8025 133.231 41.4809 133.074 41.2236C132.861 40.8821 132.668 40.5272 132.473 40.1745C132.211 39.7044 131.958 39.2275 131.71 38.7507C131.424 38.205 131.149 37.6528 130.874 37.1027C130.596 36.5438 130.321 35.9849 130.044 35.426C129.791 34.9181 129.538 34.4102 129.288 33.9023C129.088 33.4986 128.893 33.0928 128.7 32.6847C128.682 32.6447 128.662 32.607 128.645 32.5671L128.56 32.3941L128.562 32.4008ZM109.495 30.378H127.524L118.553 12.546L109.495 30.378ZM40.5647 32.749H38.5841C37.9653 32.749 37.5328 32.3254 37.5328 31.7044C37.5328 31.3539 37.6792 31.0345 37.9941 30.8615C38.176 30.7617 38.3756 30.724 38.5819 30.724H41.5783L51.9426 10.4457C51.9847 10.3525 52.0291 10.2616 52.0823 10.1684L52.0978 10.1441C52.2686 9.86016 52.5569 9.67607 52.8918 9.67607C53.1913 9.67607 53.4641 9.78253 53.677 9.99323C53.7967 10.1152 53.8988 10.2527 53.9853 10.4169L54.0008 10.4479C54.2026 10.8981 54.4422 11.3329 54.6684 11.772C55.1164 12.6392 55.5533 13.5108 55.9925 14.3803C56.5847 15.5558 57.1768 16.7335 57.7712 17.909C58.4654 19.2796 59.1552 20.6525 59.8472 22.0232C60.588 23.4848 61.3265 24.9486 62.0629 26.4124C62.7904 27.8563 63.5134 29.3046 64.2431 30.7484C64.9063 32.0592 65.5672 33.3722 66.2281 34.683C66.7715 35.7587 67.3105 36.8344 67.8516 37.9101C68.2176 38.6398 68.5858 39.3672 68.9517 40.0969C69.0914 40.3764 69.4197 40.9397 69.4263 41.2391C69.4263 41.4875 69.3421 41.7182 69.1979 41.9178C69.0027 42.1862 68.7077 42.3348 68.3773 42.3348H68.2242L68.0867 42.2727C67.8028 42.1463 67.6032 41.8225 67.4458 41.5674C67.2328 41.2258 67.0399 40.871 66.8447 40.5205C66.583 40.0503 66.3301 39.5735 66.0795 39.0966C65.7956 38.551 65.5184 37.9988 65.2434 37.4487C64.9661 36.8898 64.6911 36.3309 64.4139 35.772C64.161 35.2641 63.9082 34.7562 63.6576 34.2483C63.458 33.8446 63.2628 33.4388 63.0698 33.0329C63.0521 32.993 63.0321 32.9553 63.0144 32.9175L62.9301 32.7423H42.8247L38.2115 41.8402L38.1316 41.92C38.0762 41.9755 38.0141 42.0265 37.952 42.0753C37.7834 42.2084 37.5927 42.2993 37.3753 42.2993C37.1025 42.2993 36.8453 42.1995 36.6479 42.011C36.4416 41.8136 36.324 41.5541 36.324 41.2658C36.324 41.0284 36.4749 40.7534 36.5769 40.5405C36.7388 40.1989 36.9118 39.8618 37.0848 39.5269C37.3221 39.0656 37.5528 38.6021 37.7857 38.1407C38.0562 37.6062 38.3268 37.0717 38.5996 36.5372C38.8769 35.9938 39.1541 35.4482 39.438 34.907C39.6931 34.4191 39.9525 33.9333 40.2032 33.4454C40.2453 33.3611 40.2875 33.2791 40.3318 33.197L40.5647 32.7468V32.749ZM43.8649 30.7218H61.8943L52.9229 12.8898L43.8649 30.7218ZM27.0687 32.7423H6.96114L2.34789 41.8402L2.26805 41.92C2.2126 41.9755 2.1505 42.0265 2.08839 42.0753C1.92205 42.2106 1.72909 42.2993 1.51174 42.2993C1.23894 42.2993 0.981658 42.1995 0.784264 42.011C0.577998 41.8136 0.460449 41.5541 0.460449 41.2658C0.460449 41.0284 0.611267 40.7534 0.713291 40.5405C0.875198 40.1989 1.0482 39.8618 1.22119 39.5269C1.45851 39.0656 1.68917 38.6043 1.92205 38.1407C2.19264 37.6062 2.46322 37.0717 2.73602 36.5372C3.01326 35.9938 3.29272 35.4482 3.57439 34.907C3.82945 34.4191 4.08673 33.9333 4.33957 33.4454C4.38171 33.3611 4.42607 33.2791 4.46821 33.197L4.70109 32.7468H2.7205C2.1017 32.7468 1.66921 32.3231 1.66921 31.7021C1.66921 31.3517 1.81559 31.0323 2.13054 30.8593C2.3124 30.7595 2.51423 30.7218 2.71828 30.7218H5.71468L16.079 10.4435C16.1211 10.3503 16.1655 10.2594 16.2231 10.1596L16.2298 10.1485C16.4006 9.86016 16.6889 9.67385 17.0282 9.67385C17.3277 9.67385 17.6005 9.78031 17.8134 9.99102C17.9354 10.113 18.0352 10.2505 18.1217 10.4124L18.1372 10.4435C18.3368 10.8981 18.5786 11.3306 18.807 11.7698C19.255 12.637 19.6919 13.5086 20.1311 14.378C20.7233 15.5535 21.3155 16.7312 21.9099 17.9067C22.6041 19.2774 23.2938 20.6503 23.9858 22.021C24.7266 23.4826 25.4652 24.9464 26.2015 26.4102C26.929 27.8563 27.652 29.3024 28.3817 30.7462C29.0449 32.057 29.7058 33.37 30.3667 34.6808C30.9101 35.7565 31.4491 36.8322 31.9903 37.9078C32.3562 38.6375 32.7244 39.365 33.0903 40.0947C33.2301 40.3742 33.5583 40.9375 33.5672 41.2369C33.5672 41.4853 33.4851 41.716 33.3387 41.9156C33.1436 42.184 32.8486 42.3326 32.5181 42.3326H32.3651L32.2276 42.2705C31.9437 42.1441 31.7441 41.8225 31.5866 41.5652C31.3737 41.2236 31.1807 40.8688 30.9855 40.5183C30.7238 40.0481 30.471 39.5713 30.2204 39.0944C29.9365 38.5488 29.6592 37.9966 29.3842 37.4465C29.107 36.8876 28.8319 36.3287 28.5547 35.7698C28.3019 35.2619 28.049 34.754 27.7984 34.2461C27.5988 33.8424 27.4036 33.4365 27.2107 33.0307C27.1929 32.9907 27.173 32.953 27.1552 32.9153L27.0709 32.7401L27.0687 32.7423ZM8.00134 30.7218H26.0307L17.0593 12.8898L8.00134 30.7218Z" fill="white"/>
</mask>
<g mask="url(#mask1_673_568)">
<path d="M161.594 9.33203H0.460449V42.339H161.594V9.33203Z" fill="url(#paint1_linear_673_568)"/>
</g>
</g>
<defs>
<linearGradient id="paint0_linear_673_568" x1="193.696" y1="27.2665" x2="364.042" y2="25.6163" gradientUnits="userSpaceOnUse">
<stop stop-color="#18908E"/>
<stop offset="0.11" stop-color="#238C99"/>
<stop offset="0.32" stop-color="#4284B6"/>
<stop offset="0.35" stop-color="#4883BC"/>
<stop offset="0.53" stop-color="#8053A7"/>
<stop offset="0.67" stop-color="#983B9A"/>
<stop offset="1" stop-color="#DA61AD"/>
</linearGradient>
<linearGradient id="paint1_linear_673_568" x1="12.1976" y1="26.2392" x2="149.027" y2="25.4341" gradientUnits="userSpaceOnUse">
<stop stop-color="#18908E"/>
<stop offset="0.12" stop-color="#238C99"/>
<stop offset="0.32" stop-color="#4284B6"/>
<stop offset="0.36" stop-color="#4883BC"/>
<stop offset="0.51" stop-color="#6371B7"/>
<stop offset="0.72" stop-color="#8053A7"/>
<stop offset="1" stop-color="#A72C92"/>
</linearGradient>
<clipPath id="clip0_673_568">
<rect width="380.768" height="56" fill="white" transform="translate(0.30957)"/>
</clipPath>
</defs>
</svg>
