<svg width="256" height="56" viewBox="0 0 256 56" fill="none" xmlns="http://www.w3.org/2000/svg">
<g clip-path="url(#clip0_673_607)">
<path fill-rule="evenodd" clip-rule="evenodd" d="M28.6447 0.0497782C17.2251 1.64442 24.0953 12.7762 18.3248 18.1148C14.0455 21.5532 14.1167 19.3844 9.8632 18.8636C5.28468 18.4771 2.20861 21.0664 0.858177 23.9969C-0.686327 27.4692 0.216116 31.7259 2.2458 34.7405C7.74295 42.1832 14.4757 37.1793 17.5518 38.5653C19.8289 39.4516 22.216 41.3713 23.2769 45.1525C23.7977 46.7488 23.754 49.972 26.7412 51.7333C33.2054 55.5048 38.7689 48.2787 35.2529 43.1196C32.9628 39.2381 29.6992 39.9821 26.4484 39.6311C18.1291 38.7335 14.7619 26.8109 19.8806 20.8739C25.1465 14.7654 30.3703 20.0038 35.5424 15.139C40.4444 10.5298 38.109 -0.862369 28.6447 0.0497782Z" fill="#ED582B"/>
<path fill-rule="evenodd" clip-rule="evenodd" d="M224.093 42.8825L223.957 39.3682C223.734 38.5337 222.696 38.9105 221.112 38.5466C219.17 38.2118 217.014 36.284 216.484 35.3234C218.226 34.9465 218.523 35.1972 220.365 34.4614C226.221 32.1244 227.493 24.3517 223.642 19.453C222.82 18.4082 221.292 17.0901 219.746 16.4335C218.607 15.9483 216.875 15.4567 214.976 15.4486L206.89 15.4146L207.602 42.9343H211.42L211.383 36.3568C213.269 36.9989 215.986 43.4162 224.09 42.8825M51.8073 42.9877H55.485L55.5432 40.4744L59.0026 35.8166L67.6001 42.9181L73.301 42.9068L61.2409 32.6581L74.0789 15.5958H68.8599C64.4836 21.5926 59.8306 27.8046 55.3119 33.7012L55.1308 15.6702L51.3237 15.6912L51.8089 42.986L51.8073 42.9877ZM121.145 15.5893L121.234 42.9084L125.355 42.9278L125.398 34.953L131.028 34.8932C134.522 34.856 138.541 33.022 139.943 27.2208C140.7 24.0913 139.283 20.5091 137.48 18.7543C135.081 16.4206 132.764 15.6136 129.81 15.6071L121.143 15.5909L121.145 15.5893ZM125.101 19.7554L130.603 19.7376C135.516 20.2584 137.345 26.1922 134.067 29.4348C133.315 30.1788 131.683 30.9179 130.451 30.8775L125.115 30.7028L125.103 19.7554H125.101ZM177.886 15.4534L177.984 30.5799C178.036 33.0996 177.795 35.1309 176.492 36.58C175.301 37.9045 173.733 38.7746 171.258 38.8345C169.031 38.8895 167.053 37.6474 165.991 36.5185C164.558 34.9951 164.195 33.195 164.174 30.706C164.129 25.6682 164.15 20.4945 164.144 15.413H160.17L160.092 30.837C160.012 46.9257 181.916 46.819 182.102 32.0338L181.829 15.4631L177.884 15.4518L177.886 15.4534ZM145.461 32.477L141.359 32.4575C140.137 40.8092 149.502 45.9052 155.558 41.3769C159.415 38.4916 160.469 32.6435 157.104 28.948C153.423 24.583 146.596 24.3954 148.831 20.281C149.928 18.5036 153.167 19.8783 153.162 22.6584L157.338 22.6309C157.602 21.0444 156.701 14.8906 149.677 15.4648C143.837 16.1278 142.346 23.7647 146.236 26.8262C147.882 28.1216 150.212 29.2456 151.909 30.25C154.317 31.6764 155.349 33.5735 154.193 36.3131C152.355 39.9245 144.534 39.6075 145.461 32.477ZM183.263 19.4384L192.268 19.4028L192.828 42.9327H197.072L196.645 19.3592L205.54 19.3026L205.444 15.371L183.137 15.4615L183.263 19.4384ZM102.959 15.5941V42.9505L120.126 43.0426L120.061 39.0334L106.911 39.0124L106.856 15.62L102.959 15.5941ZM227.245 42.9327L232.045 42.9294C234.135 39.8518 237.492 38.1827 240.673 38.0647C245.939 37.869 249.148 41.2459 250.376 42.9294H255.378L242.55 15.2626L237.235 15.248L227.247 42.9327H227.245ZM233.921 35.8263L240.256 19.4433L247.637 35.5352C244.094 34.3789 240.18 33.0576 233.921 35.8263ZM74.3571 42.9909L79.1572 42.9877C81.2467 39.91 84.6042 38.2409 87.7853 38.1229C93.0512 37.9272 96.2599 41.3041 97.4874 42.9877H102.49L89.6614 15.3208L84.347 15.3063L74.3587 42.9909H74.3571ZM81.0316 35.8846L87.3665 19.5015L94.7477 35.5935C91.2043 34.4371 87.2905 33.1158 81.0316 35.8846ZM211.173 19.6341C213.126 19.4271 217.137 19.3284 218.599 20.1258C223.488 22.7927 222.555 28.8251 219.088 30.5961C218.399 30.9486 217.406 31.1944 216.304 31.188L211.279 31.1589L211.173 19.6325V19.6341Z" fill="#323877"/>
<path fill-rule="evenodd" clip-rule="evenodd" d="M12.6528 50.3608C11.0565 50.8088 10.4355 52.9954 11.0711 54.2957C12.5331 57.2909 17.7359 56.1911 16.2868 52.1317C15.8129 50.8298 14.1714 49.9338 12.6528 50.3608ZM14.469 40.6911C9.64624 41.9283 11.8296 50.77 17.2976 49.4778C22.7042 48.1322 20.5467 39.0334 14.469 40.6911ZM35.0262 33.2742C30.8488 34.2689 32.1507 41.2604 36.4866 40.4841C40.7013 39.7304 40.4506 32.2731 35.0262 33.2742ZM26.115 22.9899C18.3553 24.8595 21.7112 35.7745 28.4827 34.0343C31.7674 33.2775 33.1777 29.6693 31.9696 26.4719C31.1658 24.3436 28.6574 22.453 26.1166 22.9915L26.115 22.9899ZM11.8457 6.38854C5.43322 7.42521 7.32221 17.6804 13.5584 16.4416C19.5521 15.2512 18.7467 5.45698 11.8457 6.38854ZM1.7814 12.0086C-1.70061 13.4269 0.804563 18.8901 4.08118 17.3472C7.84621 15.5747 5.16961 10.6824 1.7814 12.0086ZM3.68818 38.9169C0.473021 40.2771 2.35877 45.7742 5.8618 44.296C8.83922 43.2334 7.23326 37.7492 3.68818 38.9169Z" fill="#323877"/>
</g>
<defs>
<clipPath id="clip0_673_607">
<rect width="255.299" height="56" fill="white" transform="translate(0.078125)"/>
</clipPath>
</defs>
</svg>
