<svg width="231" height="56" viewBox="0 0 231 56" fill="none" xmlns="http://www.w3.org/2000/svg">
<g clip-path="url(#clip0_673_613)">
<path fill-rule="evenodd" clip-rule="evenodd" d="M197.536 44.244L196.491 41.783L195.467 44.2623L197.536 44.244ZM118.266 40.8676V43.6885L119.122 43.6935C120.911 43.7051 120.918 40.8659 119.244 40.8659H118.266V40.8676ZM60.1416 44.2241L59.0968 41.7631L58.0719 44.2424L60.1416 44.2241ZM52.46 40.8228V43.6437L53.3157 43.6487C55.1051 43.6603 55.1117 40.8212 53.4384 40.8212H52.46V40.8228ZM70.2046 40.851V43.6719L71.0603 43.6769C72.8497 43.6885 72.8563 40.8494 71.183 40.8494H70.2046V40.851ZM77.8779 44.244L76.8331 41.783L75.8082 44.2623L77.8779 44.244ZM175.374 40.8394V43.7681H176.022C176.835 43.7681 177.591 43.3436 177.591 42.4547C177.591 40.856 176.652 40.8394 175.372 40.8394H175.374ZM129.055 40.8394V45.2092L129.627 45.2009C130.545 45.2009 131.472 44.8941 131.893 44.0169C132.173 43.4348 132.148 42.7499 131.938 42.1512C131.478 40.8427 130.21 40.8394 129.055 40.8411V40.8394ZM164.064 44.72L162.753 43.1114C162.219 43.2009 161.724 43.8908 161.724 44.4149C161.724 45.5077 163.452 45.4746 164.064 44.72ZM163.009 42.0218C163.145 41.9671 163.329 41.8361 163.417 41.7465C163.506 41.657 163.573 41.526 163.606 41.4049C163.722 40.982 163.486 40.7648 163.062 40.7648C162.354 40.7648 162.659 41.7117 163.009 42.0218ZM150.986 40.8411V46.0401H150.06V40.8411L148.259 40.8344V39.9273H152.752L152.735 40.8477L150.986 40.8411ZM217.485 41.2507C217.485 40.9455 217.74 40.5044 217.972 40.3154C218.871 39.5873 220.362 39.846 220.926 40.8941L220.977 40.9887L220.888 41.0484C220.666 41.1943 220.505 41.3038 220.236 41.3668L220.148 41.3867L220.105 41.3071C219.651 40.463 218.409 40.6586 218.409 41.4016C218.409 42.6487 221.286 42.395 221.286 44.4099C221.286 46.6885 217.536 46.5757 217.102 44.7432L217.075 44.6271L217.191 44.6006C217.415 44.5492 217.573 44.4281 217.805 44.3751L217.893 44.3552L217.936 44.4348C218.239 44.9986 218.631 45.2772 219.289 45.2772C219.987 45.2772 220.321 45.0135 220.321 44.3087C220.321 43.2739 217.483 43.3452 217.483 41.5525V41.2507H217.485ZM213.191 40.8079V43.1877H215.788V44.0434H213.191V45.1843H216.249V46.0318H212.332V39.9538H216.08V40.8096H213.191V40.8079ZM209.681 46.0401V39.929L210.566 39.9174L210.608 46.0401H209.681ZM197.861 45.0965L195.135 45.118L194.727 45.9754H193.808L196.487 39.725L199.206 45.9538H198.279L197.863 45.0981L197.861 45.0965ZM191.783 46.0401V39.929L192.669 39.9174L192.71 46.0401H191.783ZM190.418 44.9489C189.715 45.6703 188.881 46.1313 187.851 46.1313C186.964 46.1313 186.193 45.8311 185.545 45.2241C184.928 44.6255 184.593 43.8991 184.593 43.0351C184.593 42.1711 184.891 41.4016 185.516 40.8046C186.16 40.191 186.969 39.8825 187.856 39.8825C188.744 39.8825 189.709 40.3286 190.302 41.0202L190.375 41.1047L189.704 41.7366L189.622 41.6553C189.117 41.1412 188.571 40.783 187.833 40.783C187.211 40.783 186.649 41.0351 186.2 41.458C185.755 41.8759 185.571 42.4364 185.571 43.0351C185.571 43.6338 185.805 44.1379 186.244 44.5508C186.695 44.9754 187.229 45.1827 187.85 45.1827C188.568 45.1827 189.226 44.9107 189.679 44.3436L189.752 44.2507L190.506 44.856L190.415 44.9489H190.418ZM180.569 40.8079V43.1877H183.166V44.0434H180.569V45.1843H183.627V46.0318H179.71V39.9538H183.458V40.8096H180.569V40.8079ZM169.049 44.6006C169.273 44.5492 169.43 44.4281 169.662 44.3751L169.75 44.3552L169.793 44.4348C170.097 44.9986 170.488 45.2772 171.147 45.2772C171.845 45.2772 172.178 45.0135 172.178 44.3087C172.178 43.2739 169.341 43.3452 169.341 41.5525V41.2507C169.341 40.9455 169.594 40.5044 169.828 40.3154C170.727 39.5873 172.218 39.846 172.782 40.8941L172.833 40.9887L172.744 41.0484C172.521 41.1943 172.36 41.3038 172.092 41.3668L172.004 41.3867L171.961 41.3071C171.506 40.463 170.264 40.6586 170.264 41.4016C170.264 42.6487 173.142 42.395 173.142 44.4099C173.142 46.6885 169.392 46.5757 168.957 44.7432L168.931 44.6271L169.047 44.6006H169.049ZM143.155 41.9986V46.0434H142.331L142.307 39.7167L146.268 44.0981V40.0467H147.115L147.065 46.3071L143.155 41.9986ZM137.865 40.8079V43.1877H140.462V44.0434H137.865V45.1843H140.923V46.0318H137.006V39.9538H140.754V40.8096H137.865V40.8079ZM134.316 46.0401V39.929L135.201 39.9174L135.243 46.0401H134.316ZM123.752 40.8079V43.1877H126.349V44.0434H123.752V45.1843H126.81V46.0318H122.893V39.9538H126.641V40.8096H123.752V40.8079ZM118.266 44.516V46.0417H117.322V40.0334H119.289C121.858 40.0334 122.019 43.4961 120.224 44.2208L121.614 46.0417L120.508 46.0865L120.472 46.0368C120.283 45.788 119.548 44.594 119.39 44.5177L118.266 44.5127V44.516ZM114.936 44.8278V43.8411H113.176V42.8792H115.953V45.1462L115.934 45.1744C115.448 45.9422 114.115 46.1628 113.284 46.1014C112.445 46.0384 111.727 45.7863 111.127 45.1727C110.538 44.5475 110.238 43.8029 110.238 42.9439C110.238 42.0848 110.531 41.3402 111.127 40.7217C112.294 39.5094 114.485 39.4779 115.614 40.7598L115.697 40.8543L114.951 41.4348L114.878 41.3568C114.103 40.5276 112.576 40.5923 111.8 41.39C111.379 41.8228 111.17 42.3386 111.17 42.9439C111.17 43.5492 111.379 44.0649 111.8 44.4978C112.485 45.2009 114.135 45.4911 114.934 44.8261L114.936 44.8278ZM104.954 41.9953V46.0434H104.122L104.097 39.7217L108.117 44.1031V40.0484H108.972L108.923 46.3054L104.954 41.997V41.9953ZM60.4666 45.0782L57.7402 45.0998L57.3306 45.9555H56.4119L59.0902 39.7051L61.8099 45.9339H60.8829L60.4666 45.0782ZM52.46 44.4729V45.9986H51.5164V39.9903H53.4832C56.052 39.9903 56.2129 43.453 54.4185 44.1777L55.8082 46.0003L54.7021 46.045L54.6656 45.9953C54.4766 45.7465 53.7419 44.5525 53.5843 44.4762L52.46 44.4713V44.4729ZM47.3273 40.851V43.2308H50.0089V44.0865H47.3273V46.0749H46.4683V39.9953H50.2162V40.851H47.3273ZM66.8729 44.8278V43.8411H65.1117V42.8792H67.8878V45.1462L67.8696 45.1744C67.3837 45.9422 66.0503 46.1628 65.2195 46.1014C64.3804 46.0384 63.6623 45.7863 63.062 45.1727C62.4732 44.5475 62.1731 43.8029 62.1731 42.9439C62.1731 42.0848 62.4666 41.3402 63.062 40.7217C64.2295 39.5094 66.4202 39.4779 67.5495 40.7598L67.6324 40.8543L66.8862 41.4348L66.8132 41.3568C66.0387 40.5276 64.5114 40.5923 63.7353 41.39C63.314 41.8228 63.1051 42.3386 63.1051 42.9439C63.1051 43.5492 63.314 44.0649 63.7353 44.4978C64.4202 45.2009 66.0703 45.4911 66.8696 44.8261L66.8729 44.8278ZM70.2046 44.5011V46.0268H69.261V40.0185H71.2278C73.7966 40.0185 73.9575 43.4812 72.1631 44.2059L73.5528 46.0268L72.4467 46.0716L72.4102 46.0218C72.2212 45.7731 71.4865 44.5807 71.329 44.5028L70.2046 44.4978V44.5011ZM78.2029 45.0965L75.4766 45.118L75.0669 45.9754H74.1482L76.8265 39.725L79.5462 45.9538H78.6192L78.2029 45.0981V45.0965ZM81.5678 41.9986V46.0434H80.7436L80.7203 39.7167L84.6805 44.0981V40.0467H85.528L85.4782 46.3071L81.5678 41.9986ZM92.591 44.9489C91.8878 45.6703 91.0537 46.1313 90.0238 46.1313C89.1366 46.1313 88.3654 45.8311 87.717 45.2241C87.1001 44.6238 86.7651 43.8991 86.7651 43.0351C86.7651 42.1711 87.0636 41.4016 87.6888 40.8046C88.3323 40.191 89.1416 39.8825 90.0288 39.8825C90.916 39.8825 91.8795 40.3286 92.4749 41.0202L92.5479 41.1047L91.8762 41.7366L91.795 41.6553C91.2892 41.1412 90.7436 40.783 90.0056 40.783C89.3837 40.783 88.8215 41.0351 88.3721 41.458C87.9276 41.8759 87.7435 42.4364 87.7435 43.0351C87.7435 43.6338 87.9774 44.1379 88.4168 44.5508C88.8679 44.9754 89.4019 45.1827 90.0222 45.1827C90.7402 45.1827 91.3986 44.9107 91.8513 44.3436L91.9243 44.2507L92.6789 44.856L92.5893 44.9489H92.591ZM94.6739 40.8079V43.1877H97.2709V44.0434H94.6739V45.1843H97.7319V46.0318H93.8149V39.9538H97.5628V40.8096H94.6739V40.8079ZM101.52 46.0401V39.929L102.405 39.9174L102.447 46.0401H101.52ZM201.294 45.2009H204.055V46.0384H200.369L200.357 39.9754H201.283L201.294 45.1993V45.2009ZM206.815 40.8411V46.0401H205.889V40.8411L204.088 40.8344V39.9273H208.581L208.564 40.8477L206.817 40.8411H206.815ZM153.742 41.2507C153.742 40.9455 153.997 40.5044 154.229 40.3154C155.128 39.5873 156.619 39.846 157.183 40.8941L157.234 40.9887L157.145 41.0484C156.923 41.1943 156.762 41.3038 156.493 41.3668L156.405 41.3867L156.362 41.3071C155.908 40.463 154.666 40.6586 154.666 41.4016C154.666 42.6487 157.543 42.395 157.543 44.4099C157.543 46.6885 153.793 46.5757 153.359 44.7432L153.332 44.6271L153.448 44.6006C153.672 44.5492 153.83 44.4281 154.062 44.3751L154.15 44.3552L154.193 44.4348C154.496 44.9986 154.888 45.2772 155.546 45.2772C156.244 45.2772 156.578 45.0135 156.578 44.3087C156.578 43.2739 153.74 43.3452 153.74 41.5525V41.2507H153.742ZM175.374 44.6089V46.0401H174.448V40.2706C174.448 40.0285 174.556 39.9273 174.797 39.9273C175.621 39.9273 176.826 39.8858 177.533 40.3336C178.2 40.7565 178.53 41.4829 178.54 42.2573C178.548 42.8726 178.337 43.6338 177.83 44.0268C176.962 44.6984 176.372 44.6155 175.374 44.6089ZM128.13 46.0401V39.9406H128.248C129.374 39.9406 130.896 39.8809 131.845 40.5492C132.551 41.0467 132.972 41.8079 133.054 42.6636C133.231 44.516 131.885 46.0401 130.011 46.0401H128.13ZM163.558 42.657L164.528 43.9074C164.618 43.516 164.676 43.1843 164.69 42.7581L164.694 42.6454L165.558 42.6387V42.7565C165.558 43.4513 165.482 44.0434 165.166 44.662L166.291 46.0251L165.234 46.0898L164.651 45.3999C164.037 45.8162 163.793 46.1147 162.909 46.1147C162.384 46.1147 161.802 46.055 161.377 45.715C160.569 45.0683 160.609 43.7018 161.362 43.0334C161.616 42.8096 161.904 42.6437 162.201 42.4878C161.851 41.982 161.719 41.8112 161.719 41.0981C161.719 40.8394 161.934 40.4132 162.123 40.244C162.689 39.7018 163.579 39.6968 164.133 40.2557C164.697 40.8228 164.566 41.5989 164.137 42.2026L164.133 42.2076L164.13 42.2125C164.006 42.3535 163.767 42.5492 163.559 42.657H163.558Z" fill="#1E234A"/>
<path fill-rule="evenodd" clip-rule="evenodd" d="M14.6924 19.1031L20.8052 16.8444C21.4884 16.5824 26.4436 14.7117 27.102 14.7117C27.3707 14.7117 28.7504 15.6985 29.2098 15.9423C30.0406 15.2192 30.4403 14.3386 29.9975 13.2225C29.4851 11.929 29.0158 11.6371 28.4486 10.7897L21.2363 14.5841C20.6592 14.9356 20.0539 15.2159 19.4519 15.5509L16.7803 16.9771C16.4519 17.1545 16.1783 17.3088 15.8632 17.4646C15.6642 17.5625 15.0788 17.8295 14.976 17.9837C14.9129 18.0782 14.6957 18.9307 14.6924 19.1048M4.03733 32.8643C4.03733 34.0285 4.09703 34.7532 4.15673 35.8494C4.17497 36.1811 4.24462 36.6404 4.30433 36.9904C4.50333 38.1379 5.12522 37.798 5.45192 36.9738C6.01909 35.5409 5.98592 35.5078 6.46021 34.0583C6.92124 32.6471 7.5166 29.1379 7.7438 27.5542C7.81676 27.0484 8.01909 25.6487 8.01909 25.1943C8.01909 24.0401 6.99421 23.7399 6.16005 22.8378C6.04396 22.7117 6.03567 22.6686 5.92622 22.5459C5.4287 21.9887 4.97099 21.3171 4.70068 20.6089C4.636 20.4381 4.63434 20.3685 4.50665 20.2756C4.50665 21.2574 4.55474 23.3967 4.4569 24.2656L4.03899 32.866L4.03733 32.8643ZM5.38393 17.9323C5.38393 19.5476 5.77199 21.1064 6.86154 22.1927L8.31096 23.6122C8.59123 23.9356 9.42207 24.3104 9.42207 25.4282C9.42207 26.3668 6.67083 38.0832 6.67083 39.2474C6.67083 40.1081 7.34579 40.1728 7.92456 40.2773C9.08708 40.4879 10.8665 40.7084 11.8566 39.9854C13.8532 38.5277 12.5763 38.4895 11.7985 35.4083C11.3707 33.7117 11.641 33.2822 12.6426 31.871L13.3209 30.8527C14.4486 29.1363 14.0954 27.8991 13.5663 25.9688C13.4105 25.4 13.2065 24.7681 13.0639 24.1877C12.5183 21.9837 11.9212 19.3801 13.0921 17.2109C13.1916 17.0268 13.2596 16.9224 13.3657 16.7234C13.8201 15.8693 14.4154 15.0865 15.0887 14.4066C15.2546 14.2391 15.3027 14.128 15.4652 13.9638C15.8367 13.5923 17.1982 12.4348 17.7007 12.0998C18.6343 11.4796 18.7554 11.4248 19.7836 10.9638C21.5017 10.1927 24.3441 9.51108 26.2877 9.33032C26.7537 9.2872 27.3408 9.2076 27.8052 9.2076C27.6924 8.78637 26.7322 7.8809 26.3872 7.58073C26.1086 7.33695 25.845 7.12136 25.5348 6.91075C25.1949 6.68189 24.8864 6.53927 24.5382 6.327C23.4005 5.6338 21.0224 5.1081 19.6095 5.1081C18.1202 5.1081 17.2645 5.11639 15.7803 5.43646C13.0788 6.01854 11.2944 6.77808 9.29106 8.78306C8.13683 9.93728 7.92787 10.3734 7.2098 11.5608C6.17995 13.2656 5.38393 15.5857 5.38393 17.9323ZM0.876465 16.8776V39.1297C0.876465 40.7582 1.35076 43.0268 1.87978 44.4497C2.05391 44.919 2.29272 45.5409 2.51494 45.9804C2.75209 46.4497 2.96933 46.8991 3.24297 47.3618C4.45855 49.4199 6.34081 51.5426 8.33418 52.8676C9.25623 53.4796 10.6824 54.3768 11.7869 54.7433C12.0904 54.8444 12.2596 54.9174 12.563 55.0202C14.0672 55.5277 14.3259 55.5907 16.0207 55.8361C17.4867 56.0501 19.0937 56.0517 20.5647 55.8361C21.1849 55.7449 21.7819 55.6554 22.3508 55.5144C25.0058 54.8527 27.9743 53.4 29.9577 51.4696C30.165 51.2673 30.3358 51.1728 30.5448 50.9439C30.6642 50.8146 30.6675 50.7698 30.7853 50.6587C31.1551 50.3104 31.3126 50.0633 31.5382 49.8311C32.6078 48.7316 34.2198 45.9307 34.6642 44.4663C35.2479 42.5426 35.6509 41.3685 35.6509 39.0716V16.8195C35.6509 14.8378 35.2231 13.2159 34.6493 11.4978C33.8151 8.99699 31.9113 6.26233 29.9594 4.53596C28.7703 3.48455 27.6775 2.6537 26.2479 1.92402C21.3392 -0.581787 16.0655 -0.583446 11.0489 1.57576C10.0722 1.99699 8.26784 3.0799 7.45358 3.77642C7.10532 4.07493 6.02904 4.98206 5.77199 5.31539C5.6758 5.43977 5.62605 5.48455 5.51826 5.58903C4.1219 6.96548 2.54313 9.58571 1.89471 11.5094C1.33749 13.1612 0.878123 15.002 0.878123 16.8759L0.876465 16.8776ZM17.0921 53.7117C16.6741 53.6769 14.1037 52.5111 13.6194 52.2673C13.4055 52.1595 13.2612 52.1048 13.0539 52.0136C12.3043 51.6802 11.0705 51.0069 10.4071 50.5625L9.46851 49.861C9.31925 49.73 9.20151 49.5957 9.05889 49.4514C8.90134 49.2922 8.82008 49.1081 8.54645 49.0849C8.58791 49.2607 8.63434 49.3469 8.73882 49.4779C9.00582 49.8112 9.00748 49.8461 9.34247 50.1048L11.0075 51.5443C11.7189 52.0981 12.3143 52.6122 13.1037 53.1379C13.2894 53.2607 13.7106 53.5078 13.8184 53.6537C13.2944 53.531 12.5166 53.0467 12.0423 52.7947L10.3756 51.7681C9.87481 51.4282 9.34081 50.9605 8.91627 50.5343C7.90632 49.5244 7.05059 48.4016 6.27779 47.201C6.17829 47.0467 6.11693 46.9141 6.02074 46.7549C5.32588 45.599 4.77365 44.3651 4.27448 43.1131C4.18326 42.8842 4.06552 42.5973 3.9826 42.3303C3.91129 42.1015 3.74545 41.9025 3.74877 42.2607C3.75375 42.6918 3.78525 42.861 3.903 43.2507C4.01577 43.6272 4.11195 43.9074 4.23965 44.2607C4.70234 45.5542 5.23633 46.8444 5.79852 48.0882C6.06055 48.667 6.47348 49.3452 6.61776 49.9622C6.17663 49.667 4.64927 47.5326 4.43368 47.1695C2.87647 44.5575 1.99421 41.8477 1.99421 38.6603V22.6736C1.99421 19.4166 1.75209 16.1496 2.51991 13.2457C2.58625 12.9953 2.66917 12.7051 2.74711 12.4779C3.31593 10.7963 4.05889 9.21755 5.11361 7.81788L6.4569 6.17443C6.61776 6.0003 6.78028 5.84276 6.95441 5.67692L7.48177 5.20926C8.84993 3.81291 11.4022 2.52601 13.2115 1.92236C17.3342 0.545908 22.8549 0.977085 26.5929 3.39665L27.5266 3.98538C27.7322 4.13961 27.8947 4.25238 28.0954 4.41324C28.6476 4.85768 29.1965 5.29383 29.699 5.79632L30.6642 6.8212C30.83 7.00694 30.9478 7.17609 31.107 7.37344C31.5564 7.92733 31.9494 8.53098 32.3309 9.13629L33.0207 10.4365C33.2397 10.8693 33.437 11.4066 33.6128 11.8925C34.3889 14.0434 34.6012 15.934 34.6012 18.8676V34.8544C34.6012 36.0617 34.694 37.6769 34.5979 38.8328C34.5382 39.3419 34.5697 41.6935 34.0738 42.3502C34.0174 39.8179 30.6078 41.5244 29.4967 42.2209L27.6012 43.4282C26.2745 44.2076 24.9411 44.9937 23.4851 45.5177C23.243 45.6056 23.0307 45.6918 22.7554 45.7831C22.4635 45.8776 22.2314 45.9257 21.9229 46.0036C21.3989 46.1363 20.7355 46.269 20.1932 46.322C17.6659 46.5724 15.4569 46.0086 13.1551 45.2408C12.6144 45.06 12.1385 44.9025 11.6559 44.6902C11.2994 44.5326 10.4751 44.2773 10.3657 43.8726C11.0871 43.526 13.1368 43.9472 14.3972 43.8063C15.0307 43.735 15.7106 43.7018 16.364 43.6073C18.1766 43.3436 19.9362 42.9539 21.6725 42.4166L24.0987 41.6239C24.3358 41.5326 24.6841 41.3768 24.9428 41.3552C24.505 42.0086 23.7289 42.4315 23.0672 42.8162C22.8781 42.9273 22.7388 42.9821 22.5083 43.0782C19.9843 44.1263 17.8483 44.6338 14.7554 44.6338C14.8234 44.8229 14.7438 44.6985 14.9279 44.8129C16.7853 45.9705 19.2579 45.8311 21.2994 45.2656C21.7023 45.1545 22.0838 44.9804 22.505 44.8311C24.2927 44.196 26.1418 43.0832 27.636 41.9406C27.7869 41.8245 27.9312 41.7051 28.0904 41.5741C28.8267 40.9655 29.6028 40.3801 30.4337 39.8776C30.9345 39.5758 32.0937 39.0103 32.845 39.0103C32.8334 38.4962 31.9246 38.2441 31.5116 38.2673C30.3624 38.332 29.2911 38.8278 28.2861 39.2524C27.7338 39.4862 26.5962 40.5078 26.1003 39.8411C25.7521 39.3734 26.7571 38.8925 25.9992 38.4232C25.1086 37.8726 23.0556 39.3884 21.9577 39.4796C22.1169 38.7947 22.0871 37.6454 22.0771 36.7831C22.0722 36.3237 21.8483 34.5857 21.7239 34.3253C22.5415 34.3436 26.4602 35.8859 28.5398 35.0534C28.9942 34.871 29.4436 34.5957 29.6509 34.1728C30.1501 33.1512 29.0589 32.5807 28.9859 31.9738C28.9047 31.3021 29.6294 31.1462 29.3939 30.521C29.2994 30.269 29.0688 30.133 28.7488 30.1064V29.9887C30.1368 29.6653 29.301 28.6388 29.3972 27.8262C29.505 26.9091 30.9146 27.2424 31.2678 26.536C31.4917 26.0865 31.1833 25.5841 31.0556 25.2789L29.3491 21.4232C29.0091 20.6653 29.6261 20.5044 29.772 19.7101C29.8483 19.2988 29.6874 18.7333 29.6111 18.3502C29.5199 17.8942 29.495 17.4945 29.1153 17.2656C28.4702 16.8776 27.17 17.2756 26.4536 17.4464C26.0141 17.5509 25.5829 17.6172 25.1335 17.7068L15.8831 19.5791C15.5149 19.6554 15.044 19.793 14.7985 20.0749C14.573 20.3353 14.4619 20.8958 14.4635 21.3801C14.4635 21.9091 14.495 22.3602 14.5232 22.9041C14.5382 23.1761 14.5863 23.264 14.5829 23.6056C14.578 24.3552 14.7073 25.1977 14.699 25.8909C14.694 26.2507 14.7421 26.3685 14.7571 26.652L14.9329 30.458C14.9295 31.0136 14.9909 31.3884 14.9909 31.9804C14.9909 33.0103 15.0058 34.0335 14.8499 35.06C14.6609 36.2889 14.1932 37.5011 13.5033 38.4564C13.2645 38.788 13.0473 39.0169 12.8002 39.3336C11.3392 41.2093 8.72058 40.0384 8.23136 42.7283C8.13683 43.2524 8.23633 43.7549 8.36734 44.1114C8.82837 45.3768 9.96933 46.2557 11.1285 46.8544C13.9693 48.322 18.0871 48.851 21.2562 48.3187C22.1169 48.1744 23.0357 47.9489 23.84 47.6819C24.6244 47.4215 25.3906 47.1297 26.0954 46.7764C27.5067 46.07 28.8383 45.2972 30.1799 44.4779L31.8831 43.3701C32.0489 43.2607 31.9378 43.2773 32.1451 43.2225C31.9843 43.9124 31.0738 44.8428 30.6178 45.3834L28.2977 47.7466C28.1601 47.8859 28.1219 47.9008 27.9809 48.0152C26.9478 48.8461 25.9411 49.6753 24.6327 50.1114C23.6377 50.4431 21.7753 50.7797 20.3375 50.5841C18.9511 50.395 17.5166 50.3054 16.1285 49.992C13.5033 49.3983 10.8964 48.2889 8.97929 46.3701L7.71726 45.1728C7.50499 44.9953 7.25955 44.7117 6.97431 44.6869C6.98758 45.2789 7.87315 46.4547 8.22804 46.9456C9.50831 48.7151 10.5879 49.9522 12.4304 51.1744C13.1567 51.657 13.9312 52.0517 14.6775 52.4995C14.961 52.6686 15.1833 52.7731 15.4834 52.924L16.6758 53.4879C16.7571 53.5227 16.8052 53.5326 16.8864 53.5691C17.0141 53.6272 17.0191 53.6338 17.102 53.7051L17.0921 53.7117ZM23.6493 20.8013C23.6493 21.1811 25.0473 20.9754 25.364 20.934L27.2214 20.7416C26.0838 22.8909 27.908 24.2872 25.7222 25.0401C25.238 25.2076 24.84 25.3187 24.3325 25.4646C23.8267 25.6106 23.4287 25.7449 22.9544 25.9025C22.0406 26.2043 21.8499 26.7532 21.4005 27.5111C21.3275 27.6338 21.296 27.6686 21.228 27.8079C20.8516 28.5807 20.5614 29.6404 20.3657 30.5774C20.1617 31.5592 19.961 32.5791 19.7156 33.5575C19.4801 34.4995 19.228 35.5161 19.0307 36.5028C18.8466 37.4199 18.4702 38.3651 18.1053 39.2076C17.9478 39.5724 17.0241 41.4746 16.7421 41.4746C16.0523 41.4746 15.4005 41.2242 14.9859 40.9472C15.1285 40.735 15.3524 40.6753 15.5216 40.4879C16.1352 39.8063 16.2231 39.3867 16.374 38.3552C16.636 36.5708 16.7421 34.5111 16.6858 32.6321L16.5431 30.7847C16.3823 29.6421 16.3591 27.8776 16.2496 27.1545L16.1236 24.5874C16.0672 24.2176 16.0539 21.4812 16.2214 21.1048C16.311 20.9041 16.641 20.6902 16.8831 20.5957C18.0937 20.118 19.2795 19.8743 20.5912 19.6205C20.8964 19.5608 21.233 19.4995 21.5763 19.4348C22.0605 19.3452 23.2347 19.06 23.631 19.6537C23.7853 19.8859 23.6509 20.4315 23.6509 20.8063L23.6493 20.8013ZM17.3856 53.8295C17.107 53.8295 17.2745 53.8295 17.2098 53.7714C17.4884 53.7714 17.3209 53.7714 17.3856 53.8295Z" fill="#1E234A"/>
<path fill-rule="evenodd" clip-rule="evenodd" d="M224.857 9.92758H225.698L225.706 12.2792H226.231V9.92758L227.084 9.9309L227.089 9.3969H224.855V9.92758H224.857ZM227.686 12.2758H228.222V10.6838L229.047 11.5047H229.228L230.033 10.581V12.2792L230.591 12.2758V9.377H230.459L229.139 10.7601L227.8 9.37368H227.683L227.688 12.2758H227.686ZM70.8584 23.6457V29.8612H74.1453V23.3422L75.2315 21.1598L75.4703 20.7136L81.5682 9.39358L78.268 9.36871L72.4653 20.5362L66.6179 9.38032L63.0176 9.37534L63.3725 10.0768L64.3625 11.8248L67.3791 17.246L67.8965 18.173L68.9081 19.974L70.8633 23.644L70.8584 23.6457ZM46.8617 13.9442C46.8617 16.4666 47.3542 17.8364 49.5665 19.2957L53.6328 21.251C54.8368 21.911 56.4919 22.5876 56.4919 24.4782C56.4919 25.9972 55.2813 26.8463 53.9894 27.1498C52.7108 27.45 50.8816 27.0901 49.8401 26.2991C49.0093 25.6672 48.792 25.2228 48.2365 24.4019C47.9214 24.4748 47.2663 24.916 46.938 25.0851C46.5632 25.2775 45.9711 25.6722 45.5615 25.7667C45.5715 26.2344 46.2929 27.2045 46.6113 27.5312C47.1337 28.0669 47.4952 28.3952 48.1154 28.843C50.4653 30.5445 55.2962 30.6838 57.6478 28.8082C59.7522 27.1299 60.4653 23.9143 59.0574 21.5528C58.5184 20.649 58.3376 20.513 57.6577 19.9093C55.3841 17.8961 50.865 17.1813 50.1917 15.2626C49.1287 12.236 52.8617 11.1946 54.7141 12.5213C55.1104 12.8049 55.7622 13.4433 55.8799 13.9425C56.1685 13.8762 56.3028 13.7617 56.5366 13.6092C56.7738 13.4533 56.9579 13.3538 57.2033 13.2095L58.5549 12.4284C57.6759 10.78 56.2182 9.58761 54.331 9.26589C53.0109 9.04035 51.263 9.10005 50.0375 9.59093C48.2962 10.2858 46.8617 12.0171 46.8617 13.9458V13.9442ZM109.301 29.8612H112.434L113.732 27.0569H122.827L124.125 29.8612H127.565C124.596 22.9392 121.532 16.052 118.497 9.15809L118.117 9.16804C115.1 16.0287 112.188 22.9475 109.299 29.8612H109.301ZM118.276 15.2659L120.863 21.9574L121.759 24.2526H114.727C115.926 21.2626 117.1 18.2642 118.276 15.2659ZM207.968 9.54781V29.8612H221.571V26.979L211.255 26.9823V22.8894H220.044V20.0801L211.255 20.0851V12.2029H221.114V9.32891L207.969 9.33388V9.54947L207.968 9.54781ZM87.137 29.8612H90.1934L90.0408 15.8397L90.8053 16.7501L100.752 27.4251L101.603 28.3256L103.339 30.0901H103.721V9.3372L100.676 9.35378L100.817 23.3422C96.5781 18.5047 92.0292 13.8811 87.6345 9.16639H87.137V29.8596V29.8612ZM133.145 9.54781V29.8612H136.432V24.6307H138.343C139.037 24.6307 139.419 24.5544 140.1 24.5544C140.61 25.508 143.188 28.916 143.693 29.8596H147.437C147.353 29.4981 145.734 27.2941 145.343 26.707L143.157 23.5694C144.271 22.984 145.402 22.3389 146.087 21.246C147.487 19.0155 147.704 15.8845 146.547 13.5379C146.417 13.2758 146.308 13.1233 146.162 12.8596C145.84 12.2808 145.17 11.5727 144.643 11.183C142.646 9.70702 140.505 9.32227 137.883 9.32227L133.154 9.33554L133.145 9.54947V9.54781ZM138.114 21.8264H136.432V12.2012C139.918 12.2012 143.921 12.241 143.921 17.052C143.921 17.8281 143.742 18.6374 143.508 19.2195C142.686 21.2609 140.494 21.8264 138.114 21.8264ZM163.105 30.1647C164.625 30.1647 165.766 30.0735 167.167 29.5694C168.248 29.1797 168.784 28.9044 169.756 28.2725C170.316 27.9077 171.031 27.2891 171.46 26.7783L172.061 26.0851C173.359 24.4815 174.188 21.9044 174.188 19.6307C174.188 17.0984 173.351 14.7402 171.832 12.8729C171.27 12.1813 170.507 11.4798 169.757 10.9889C168.993 10.4898 168.923 10.4301 168.051 10.0287C165.427 8.82144 161.666 8.74682 159.057 10.0039C157.489 10.7601 157.943 10.4831 156.623 11.4549C155.814 12.0503 154.674 13.3869 154.218 14.3007C154.044 14.649 153.897 14.8148 153.741 15.1913C153.595 15.5412 153.487 15.7369 153.376 16.1166C152.586 18.7982 152.62 21.2609 153.654 23.8546C153.794 24.2045 153.895 24.4268 154.077 24.7253C154.251 25.0088 154.381 25.2709 154.555 25.5412C154.689 25.7485 154.931 26.0719 155.109 26.2792C155.923 27.2277 156.824 28.1034 157.94 28.702C159.47 29.5229 161.066 30.168 163.11 30.168L163.105 30.1647ZM156.15 19.7037C156.15 17.173 157.16 14.9757 159.042 13.4765C159.324 13.251 159.825 12.9574 160.173 12.78C162.129 11.7883 164.897 11.775 166.862 12.7949C170.562 14.717 171.661 19.2277 170.258 22.7054C170.046 23.2327 169.636 24.0122 169.273 24.4566C169.119 24.6457 169.023 24.785 168.858 24.9541C166.562 27.319 163.217 27.8248 160.28 26.5246C159.222 26.0569 157.916 24.8778 157.377 23.9458C156.681 22.7402 156.152 21.2195 156.152 19.7037H156.15ZM180.377 29.8612H183.51L183.489 16.5876C185.77 19.3853 188.004 22.2609 190.399 24.9607L190.787 24.9491L197.726 16.5213L197.649 29.8612H200.784V9.1697H200.404L190.694 20.5395L180.797 9.17634L180.376 9.1697V29.8612H180.377Z" fill="#1E234A"/>
</g>
<defs>
<clipPath id="clip0_673_613">
<rect width="229.713" height="56" fill="white" transform="translate(0.876465)"/>
</clipPath>
</defs>
</svg>
