<svg width="144" height="56" viewBox="0 0 144 56" fill="none" xmlns="http://www.w3.org/2000/svg">
<g clip-path="url(#clip0_673_619)">
<path d="M52.5243 34.8574H0.377441V40.9999H52.5243V34.8574Z" fill="#EC1B34"/>
<path fill-rule="evenodd" clip-rule="evenodd" d="M0.377441 30.8447H12.7873V26.2066H5.76675V0.383892H0.377441V30.8447ZM14.6683 30.8447L20.0299 30.8665L21.5263 23.3682L26.9414 23.3524L28.206 30.8447H33.7221L27.3279 0.383892H21.4372L14.6683 30.8447ZM24.216 8.42325L26.0752 18.8253H22.3152L24.216 8.42325ZM36.6041 30.8447H41.4919L41.5296 10.8355L45.3253 30.8129L52.5223 30.8447V0.383892H47.3827L47.3609 19.7331L43.5474 0.383892H36.6041V30.8447ZM63.9312 20.6904L55.4082 40.9969H62.619L67.61 29.0846L72.581 40.9969H79.7265C76.8802 34.2202 74.028 27.4612 71.1361 20.7043L79.7245 0.383892H72.4542L67.61 12.215L62.629 0.383892H55.4082L63.9312 20.6904ZM82.6084 40.9989H99.0281V34.8564H89.7539V23.3246L98.5266 23.3088L98.5206 17.0414L89.7539 17.0572V6.52837L99.0102 6.52243L99.0281 0.385874H82.6064V40.9989H82.6084ZM104.411 16.8134C106.003 19.4694 108.952 22.2979 111.156 24.4841C112.607 26.0203 114.704 28.04 114.681 30.6286L114.659 33.0091C114.647 34.2499 113.848 35.5501 111.815 35.4847C109.973 35.4788 109.501 33.8872 109.519 31.9982L109.559 28.0896H102.538V33.9803C102.538 37.6849 105.01 39.883 108.201 40.8939C110.128 41.5043 114.344 41.4706 116.526 40.4479C117.261 40.1426 118.092 39.5956 118.635 39.0465C121.075 36.446 121.255 33.7365 121.34 29.9706C121.34 26.3988 119.88 23.8558 117.802 21.4753L115.919 19.3485C115.198 18.633 114.689 17.9888 113.977 17.2812C112.086 15.3982 109.688 12.6669 109.581 10.5481C109.256 6.82965 110.247 5.81086 112.08 5.76725C113.263 5.75536 114.237 6.76622 114.229 8.09224L114.197 12.4231H120.841V6.90695C120.841 -0.967894 109.006 -1.54468 105.141 2.36202C101.51 6.03285 101.904 12.6312 104.413 16.8174L104.411 16.8134ZM126.823 16.8134C128.415 19.4694 131.364 22.2979 133.568 24.4841C135.019 26.0203 137.116 28.04 137.092 30.6286L137.07 33.0091C137.058 34.2499 136.26 35.5501 134.226 35.4847C132.385 35.4788 131.913 33.8872 131.931 31.9982L131.97 28.0896H124.95V33.9803C124.95 37.6849 127.422 39.883 130.611 40.8939C132.537 41.5043 136.753 41.4706 138.937 40.4479C139.673 40.1426 140.503 39.5956 141.046 39.0465C143.486 36.446 143.665 33.7365 143.752 29.9706C143.752 26.3988 142.291 23.8558 140.214 21.4753L138.331 19.3485C137.609 18.633 137.1 17.9888 136.388 17.2812C134.498 15.3982 132.099 12.6669 131.992 10.5481C131.667 6.82965 132.658 5.81086 134.492 5.76725C135.675 5.75536 136.648 6.76622 136.64 8.09224L136.609 12.4231H143.252V6.90695C143.252 -0.967894 131.417 -1.54468 127.552 2.36202C123.921 6.03285 124.316 12.6312 126.825 16.8174L126.823 16.8134Z" fill="black"/>
<path d="M136.149 53.8468V49.2483L137.048 49.2404L137.056 50.0352C137.55 49.3395 137.825 49.2245 138.525 49.2087L138.499 50.0134C137.917 49.9381 137.08 50.3087 137.068 50.8161L137.05 51.5991V53.8448H136.15L136.149 53.8468ZM126.444 53.7576V49.2979H127.263V53.7576H126.444ZM126.456 47.954V47.0046H127.275V47.954H126.456ZM114.568 51.0322H117.156C117.122 50.6417 117.021 50.3484 116.859 50.1541C116.609 49.8509 116.284 49.6982 115.886 49.6982C115.525 49.6982 115.222 49.8191 114.976 50.061C114.732 50.3028 114.595 50.6259 114.568 51.0322ZM117.146 52.2948L117.981 52.2809C117.87 52.824 117.598 53.2442 117.251 53.5058C116.904 53.7675 116.462 53.8983 115.925 53.8983C115.247 53.8983 114.71 53.6902 114.314 53.2719C113.917 52.8557 113.719 52.269 113.719 51.5158C113.719 50.7626 113.919 50.1323 114.32 49.7022C114.722 49.2721 115.241 49.056 115.882 49.056C116.522 49.056 117.007 49.2661 117.4 49.6883C117.792 50.1105 117.989 50.7032 117.989 51.4702C117.989 51.5158 117.989 51.5872 117.985 51.6784H114.524C114.554 52.1877 114.696 52.5782 114.956 52.8478C115.214 53.1173 115.539 53.2541 115.925 53.2541C116.213 53.2541 116.46 53.1788 116.663 53.0262C116.867 52.8735 117.027 52.6317 117.148 52.2968L117.146 52.2948ZM93.9121 51.4484C93.9121 52.0807 94.041 52.4593 94.2987 52.7487C94.5583 53.04 94.8814 53.1847 95.2699 53.1847C95.6584 53.1847 95.9814 53.04 96.2431 52.7526C96.5047 52.4652 96.6355 52.0926 96.6355 51.4742C96.6355 50.8558 96.5008 50.5208 96.2312 50.2215C95.9616 49.9222 95.6366 49.7736 95.258 49.7736C94.8794 49.7736 94.5662 49.9202 94.3046 50.2156C94.043 50.5109 93.9121 50.8657 93.9121 51.4484ZM93.2144 54.148L94.1341 54.1639C94.2709 55.7654 96.3065 55.4324 96.5126 54.5603C96.5523 54.3938 96.5741 53.7179 96.5701 53.1847C95.8249 54.0529 94.487 54.1916 93.6129 53.2283C93.2045 52.7784 93.0519 52.1759 93.0519 51.5079C93.0519 51.0461 93.1312 50.6179 93.3076 50.2314C93.8923 48.9589 95.5414 48.6061 96.5582 49.7637L96.5642 49.1948H97.4204V53.2858C97.4204 54.0806 97.5354 55.0499 96.6672 55.595C95.3928 56.3957 93.3294 55.9478 93.2144 54.1461V54.148ZM88.1958 53.8388V49.2404H88.9311V49.9401C89.284 49.4029 89.7953 49.1373 90.4633 49.1373C90.8736 49.1373 91.4107 49.3771 91.6486 49.7161C91.9538 50.1502 91.9479 50.6338 91.9479 51.1432V53.8408H91.1293V51.1749C91.1293 50.4197 90.8954 49.7022 90.0134 49.8112C89.5416 49.8707 88.9886 50.2968 88.9926 50.8835L89.0144 53.8388H88.1958ZM138.763 55.9081L138.745 55.1609L139.435 55.1767C140.018 55.1906 140.414 53.9637 140.245 53.4127L138.729 49.2265H139.603L140.719 52.7606L141.928 49.2047H142.81L141.072 54.043C140.838 54.6971 140.418 55.9299 139.78 55.922L138.763 55.9101V55.9081ZM135.136 53.1867L135.14 53.7695C134.763 53.8487 133.889 53.8448 133.705 53.4206C133.643 53.2759 133.611 52.9746 133.611 52.5128V49.9024H132.886V49.3078H133.611V47.7439H134.373V49.3078H135.134V49.9024H134.373V52.5564C134.373 52.7764 134.375 52.9548 134.402 53.0182C134.428 53.0797 134.472 53.1312 134.531 53.1689C134.612 53.2184 135.027 53.2046 135.134 53.1887L135.136 53.1867ZM128.335 52.2214L129.146 52.2314C129.189 52.5386 129.338 52.8914 129.54 53.0559C129.742 53.2204 130.03 53.3017 130.393 53.3017C130.755 53.3017 131.035 53.2303 131.213 53.0837C131.391 52.939 131.481 52.7685 131.481 52.5723C131.481 52.3978 131.399 52.2591 131.241 52.158C131.128 52.0886 130.856 52.0014 130.42 51.8944C129.834 51.7517 129.429 51.6268 129.201 51.5237C128.975 51.4167 128.803 51.274 128.686 51.0877C128.569 50.9034 128.51 50.6992 128.51 50.4752C128.51 50.2711 128.559 50.0808 128.654 49.9083C128.751 49.7339 128.882 49.5892 129.047 49.4743C129.172 49.3851 129.342 49.3098 129.556 49.2483C129.772 49.1869 130 49.1551 130.248 49.1551C130.618 49.1551 130.944 49.2087 131.223 49.3117C131.883 49.5555 132.087 50.1085 132.117 50.6219L131.336 50.6179C131.249 50.0174 130.89 49.7914 130.307 49.7914C129.941 49.7914 129.679 49.8509 129.522 49.9678C129.366 50.0847 129.287 50.2235 129.287 50.3821C129.287 50.4831 129.318 50.5743 129.384 50.6556C129.449 50.7388 129.55 50.8082 129.691 50.8617C129.772 50.8915 130.006 50.9569 130.396 51.0599C130.961 51.2066 131.356 51.3275 131.58 51.4187C131.804 51.5119 131.98 51.6486 132.109 51.825C132.238 52.0034 132.301 52.2234 132.301 52.489C132.301 52.7546 132.224 52.9905 132.067 53.2184C131.911 53.4464 131.687 53.6248 131.393 53.7496C131.098 53.8745 130.767 53.9359 130.396 53.9359C129.784 53.9359 129.314 53.8131 128.993 53.5653C128.672 53.3175 128.399 52.6971 128.335 52.2175V52.2214ZM119.013 53.8349V49.2324H119.713V49.8826C119.856 49.6586 120.048 49.4762 120.286 49.3395C120.524 49.2027 120.795 49.1333 121.1 49.1333C121.439 49.1333 121.719 49.2047 121.935 49.3454C122.151 49.4881 122.306 49.6844 122.393 49.9381C122.758 49.4009 123.231 49.1333 123.816 49.1333C124.274 49.1333 124.625 49.2582 124.87 49.5119C125.116 49.7656 125.241 50.1541 125.241 50.6774V53.8329H124.462V50.9351C124.462 50.6239 124.436 50.3999 124.385 50.2631C124.335 50.1264 124.244 50.0154 124.109 49.9321C123.976 49.8469 123.82 49.8073 123.642 49.8073C123.316 49.8073 123.049 49.9143 122.835 50.1303C122.621 50.3464 122.516 50.6913 122.516 51.163V53.8329H121.737V50.8459C121.737 50.501 121.673 50.2394 121.546 50.0669C121.42 49.8945 121.211 49.8073 120.924 49.8073C120.706 49.8073 120.504 49.8647 120.318 49.9797C120.131 50.0947 119.998 50.2631 119.913 50.4871C119.83 50.7091 119.79 51.0302 119.79 51.4484V53.8329H119.011L119.013 53.8349ZM108.915 53.8349V47.0383H109.733V49.73C110.114 49.2761 110.591 49.1314 111.172 49.1314C112.357 49.1314 112.667 49.8429 112.667 50.9628V53.8349H111.941V50.9628C111.941 50.2612 111.707 49.7557 110.946 49.7716C110.147 49.7894 109.749 50.277 109.747 51.0104L109.733 53.8329H108.915V53.8349ZM107.162 51.2145L108.104 51.3454C107.9 52.0867 107.345 52.9826 106.818 53.373C106.29 53.7635 105.779 53.9498 105.016 53.9498C104.253 53.9498 103.585 53.8012 103.089 53.4999C102.594 53.2006 102.219 52.7685 101.959 52.2016C100.847 49.7518 102.027 46.8163 105.028 46.8639C105.761 46.8757 106.381 47.0759 106.881 47.4228C107.38 47.7716 107.729 48.2573 107.926 48.8856L107.113 49.064C106.823 48.2137 105.92 47.5814 105.014 47.5536C101.759 47.4525 102.088 51.8924 103.694 52.8577C104.07 53.0837 104.491 53.1788 104.935 53.1788C105.478 53.1788 105.936 53.0341 106.312 52.7427C106.689 52.4514 107.083 51.823 107.162 51.2165V51.2145ZM86.1424 53.8349V49.1551H86.961V53.8349H86.1424ZM86.1265 47.9659V47.0165H86.9451V47.9659H86.1265ZM81.5617 53.7536V53.155L84.1761 49.9123L81.8432 49.9401V49.2661H85.1216V49.8152L82.5131 53.0618L85.0958 53.046V53.7516H81.5617V53.7536ZM79.76 53.7576V49.2979H80.5786V53.7576H79.76ZM79.7699 47.954V47.0046H80.5885V47.954H79.7699ZM75.0863 51.4683C75.0863 52.1005 75.2151 52.4791 75.4728 52.7685C75.7324 53.0599 76.0555 53.2046 76.444 53.2046C76.8325 53.2046 77.1556 53.0599 77.4172 52.7725C77.6788 52.4851 77.8096 52.1124 77.8096 51.494C77.8096 50.8756 77.6749 50.5406 77.4053 50.2413C77.1357 49.942 76.8107 49.7934 76.4321 49.7934C76.0535 49.7934 75.7403 49.9401 75.4787 50.2354C75.2171 50.5307 75.0863 50.8855 75.0863 51.4683ZM74.3886 54.1679L75.3082 54.1837C75.445 55.7852 77.4806 55.4522 77.6868 54.5801C77.7264 54.4136 77.7482 53.7377 77.7442 53.2046C76.999 54.0727 75.6611 54.2115 74.787 53.2482C74.3786 52.7982 74.226 52.1957 74.226 51.5277C74.226 51.0679 74.3053 50.6378 74.4817 50.2512C75.0664 48.9787 76.7155 48.6259 77.7323 49.7835L77.7383 49.2146H78.5945V53.3056C78.5945 54.1005 78.7095 55.0697 77.8414 55.6148C76.5669 56.4155 74.5035 55.9676 74.3886 54.1659V54.1679ZM71.3005 53.8349V49.2364L72.2003 49.2285L72.2083 50.0233C72.7018 49.3276 72.9773 49.2126 73.677 49.1968L73.6512 50.0015C73.0685 49.9262 72.232 50.2968 72.2201 50.8042L72.2023 51.5872V53.8329H71.3024L71.3005 53.8349ZM66.8863 51.052H69.4749C69.4413 50.6615 69.3402 50.3682 69.1776 50.1739C68.9279 49.8707 68.6028 49.7181 68.2044 49.7181C67.8437 49.7181 67.5404 49.839 67.2947 50.0808C67.0509 50.3226 66.9141 50.6457 66.8863 51.052ZM69.467 52.3146L70.3015 52.3007C70.1905 52.8438 69.9189 53.264 69.5721 53.5257C69.2252 53.7873 68.7832 53.9181 68.2461 53.9181C67.5682 53.9181 67.031 53.71 66.6346 53.2918C66.2382 52.8755 66.04 52.2888 66.04 51.5356C66.04 50.7824 66.2402 50.1521 66.6406 49.722C67.0429 49.2919 67.5622 49.0759 68.2025 49.0759C68.8427 49.0759 69.3283 49.286 69.7207 49.7081C70.1132 50.1303 70.3094 50.723 70.3094 51.4881C70.3094 51.5337 70.3094 51.605 70.3054 51.6962H66.8447C66.8744 52.2056 67.0172 52.5961 67.2768 52.8656C67.5345 53.1352 67.8595 53.2719 68.2461 53.2719C68.5335 53.2719 68.7812 53.1966 68.9834 53.044C69.1876 52.8914 69.3481 52.6496 69.469 52.3146H69.467ZM61.2215 53.8349V49.2364H61.9569V49.9361C62.3097 49.3989 62.8211 49.1333 63.489 49.1333C63.8993 49.1333 64.4365 49.3732 64.6743 49.7121C64.9796 50.1462 64.9736 50.6298 64.9736 51.1392V53.8368H64.155V51.1709C64.155 50.4158 63.9211 49.6982 63.0391 49.8073C62.5674 49.8667 62.0144 50.2929 62.0183 50.8796L62.0401 53.8349H61.2215ZM55.418 53.8349V47.0383H60.2265V47.8351H56.302V49.9222H59.729V50.719H56.302V53.0341H60.3851V53.8309H55.418V53.8349Z" fill="black"/>
</g>
<defs>
<clipPath id="clip0_673_619">
<rect width="143.375" height="56" fill="white" transform="translate(0.377441)"/>
</clipPath>
</defs>
</svg>
