<svg width="131" height="56" viewBox="0 0 131 56" fill="none" xmlns="http://www.w3.org/2000/svg">
<g clip-path="url(#clip0_673_625)">
<path fill-rule="evenodd" clip-rule="evenodd" d="M4.02685 45.8348C4.15284 43.0344 3.88594 41.4384 4.69477 40.364C5.96423 38.9347 8.3582 39.2138 9.24696 40.3017C10.4162 41.5373 10.2739 43.4733 9.10199 44.7672C7.86233 46.1342 6.16746 45.8348 4.0282 45.8348M16.3733 45.3335C16.2852 46.7059 15.2298 46.3523 15.7636 47.1666L19.9053 47.1544C20.3795 46.3537 19.4785 46.6395 19.3498 45.4866L19.3417 34.6237C19.3431 31.8124 18.9502 31.8043 16.3746 31.8043L16.3719 45.3335H16.3733ZM51.3696 47.1747C51.8139 46.9579 53.5183 41.8895 52.2394 42.4558C51.6785 42.7038 51.2883 43.9746 49.6069 45.1804C48.1857 46.1992 47.1182 45.9188 45.1537 45.9188L45.1591 33.3041C45.1293 31.5956 43.9194 31.8449 42.4467 31.8449V45.4744C42.4725 46.5582 41.5322 45.8659 41.6555 47.1516L51.3696 47.1733V47.1747ZM59.4104 41.2948C58.3591 41.2948 58.5989 41.1742 58.9186 40.4223L60.4333 36.4486C60.5715 35.9934 60.6419 36.1004 60.7625 36.4229L62.624 40.7637C62.8611 41.3151 62.8002 41.3083 62.2189 41.3097L59.4104 41.2934V41.2948ZM57.0964 47.1706C57.7074 46.7222 56.6059 46.1247 56.6113 46.1139L57.4757 44.0613C57.7643 43.35 57.8659 42.739 58.5948 42.6875L63.0007 42.7227C63.3489 42.7255 63.6442 43.2051 63.9125 43.8608C64.3325 44.885 64.9638 46.1748 65.247 47.1584H68.3183L62.0686 32.6822C61.8653 32.1796 61.6702 31.9086 61.2516 31.849C60.3493 31.7474 59.5757 34.732 58.7885 36.5976L54.9395 45.8971C54.7282 46.2778 54.4138 46.3184 54.2607 46.5393C54.1347 46.7208 54.1605 47.1638 54.3867 47.1638L57.095 47.1706H57.0964ZM128.493 39.7638C126.714 38.1977 123.663 37.4755 122.55 36.1248C121.088 34.1955 124.917 31.284 127.684 35.1114C127.97 35.5205 128.441 36.141 128.986 35.7712C129.076 35.6371 129.154 35.381 129.082 35.0789L128.306 31.8368L123.76 31.8287C122.08 31.826 120.591 32.7323 119.963 34.3242C118.075 39.352 124.629 39.7828 126.897 42.2431C129.244 44.7888 124.746 48.0445 120.985 43.5194C120.095 42.4491 119.128 41.5007 119.375 43.5641L120.391 47.1557L126.299 47.1815C130.068 46.5095 131.269 42.1009 128.494 39.7625L128.493 39.7638ZM105.695 47.1787L115.76 47.1815L116.788 43.4245C117.061 42.0548 115.996 42.2838 115.488 43.2254C114.997 44.1358 113.791 44.9582 113.497 45.1709C112.64 45.7928 110.162 46.4932 109.192 45.2183L109.173 40.8016C109.23 39.6636 111.884 39.8641 112.255 40.1825C112.389 40.2732 112.783 40.8206 113.077 40.7528C113.18 40.7285 113.474 40.5957 113.476 40.3803L113.48 38.3629C113.48 38.2248 113.213 38.1543 113.13 38.1475C112.507 38.0811 112.792 38.7396 111.243 38.7572C110.272 38.768 109.203 38.974 109.201 37.9091L109.197 33.2052L111.999 33.2228C112.903 33.2282 113.64 33.8148 114.398 34.6792C114.742 35.0707 115.07 36.0476 115.944 35.8511C116.483 35.6276 115.635 32.6036 115.339 31.8111L106.332 31.8463L106.303 45.4825C106.175 46.084 105.229 46.4702 105.695 47.1787ZM71.6105 45.45C71.5441 46.019 70.6174 46.7899 71.2976 47.1598L73.6319 47.1625C74.5329 46.6693 73.3041 45.8402 73.2715 45.4419L73.258 37.2317C73.7024 37.4688 74.186 38.0839 74.5559 38.4659C77.7411 41.4181 80.5022 41.8082 82.6347 47.1557L84.0234 47.1638L84.0301 31.8422H82.6591L82.6563 41.6416C80.9506 39.2653 76.6369 37.2547 74.0072 33.7295C73.5737 33.0683 73.3691 32.2053 73.2065 31.8476L71.6254 31.8273L71.6105 45.4486V45.45ZM91.4762 33.3379C101.211 32.2243 100.992 42.2472 98.1595 44.3011C97.2708 45.1804 95.9701 45.7372 94.3403 45.8605C92.7511 45.9811 91.464 45.828 91.4654 44.8891L91.4776 33.3379H91.4762ZM88.2097 47.1638L95.878 47.1801C96.6435 47.1815 97.4401 46.8116 98.2097 46.4919C104.925 43.8784 105.07 31.6512 94.1818 31.8436H88.8519L88.8181 45.6221C88.6555 46.6463 88.1732 45.8727 88.2084 46.8143V47.1625L88.2097 47.1638ZM28.61 33.1862C35.1931 31.4629 38.8429 44.274 33.0132 45.8321C26.2662 47.2411 22.913 35.2076 28.61 33.1862ZM37.2199 44.8444C40.7112 40.2909 38.7251 31.3504 30.5934 31.4859C23.1853 31.4669 21.0501 39.352 24.3572 44.3269C27.6183 48.8316 34.8408 48.2978 37.2199 44.843V44.8444ZM4.10678 33.1754H5.63637C9.90133 33.1754 9.99481 38.1191 5.70004 38.1408C4.67716 38.1408 4.14201 37.9931 4.14201 36.9499L4.10813 33.1754H4.10678ZM0.950057 46.4011C0.691287 46.6029 0.677739 47.0473 0.966315 47.1611L6.84893 47.1584C14.2557 47.6434 15.2298 39.646 8.84457 38.703C13.7897 36.7616 11.3374 31.8395 7.45047 31.8409H1.32399V43.4151C1.32399 44.9176 1.37276 45.8971 0.948702 46.4024L0.950057 46.4011Z" fill="#008869"/>
<path fill-rule="evenodd" clip-rule="evenodd" d="M74.457 15.1821C74.457 15.5018 74.0682 19.569 73.5208 18.9078C73.1239 18.4282 72.4045 17.7725 71.8395 17.4162C66.4568 13.937 65.8485 15.8473 65.8499 10.3061L65.8526 0L70.9697 6.71447C72.4234 8.79141 74.4584 11.7381 74.4584 15.1821M56.3607 15.1821C56.3607 15.5018 56.7496 19.569 57.2969 18.9078C57.6939 18.4282 58.4146 17.7725 58.9782 17.4162C64.3609 13.937 64.9692 15.8473 64.9679 10.3061L64.9652 0L59.848 6.71447C58.3943 8.79141 56.3594 11.7381 56.3594 15.1821H56.3607ZM65.0058 15.7389C63.5602 15.9801 57.389 18.6125 58.0813 20.5404C58.7994 22.5401 62.8056 24.6915 66.003 24.5141C69.5146 24.3176 73.5886 21.3682 72.9166 19.615C72.4722 18.454 66.9161 15.4205 65.0058 15.7403V15.7389Z" fill="#008869"/>
<path fill-rule="evenodd" clip-rule="evenodd" d="M96.001 54.9483L96.44 55.1678C95.642 56.5863 93.1681 56.1812 93.1681 54.0392C93.1681 53.6558 93.2141 53.4147 93.3442 53.122C93.8279 52.0287 95.8045 51.6642 96.4196 52.9798L95.9509 53.0936C95.4076 52.198 93.6639 52.5191 93.6639 54.0365C93.6639 55.2477 94.9781 56.0267 96.0023 54.9483M98.4803 55.898V52.2102H100.03C100.319 52.2102 100.538 52.2441 100.687 52.3091C100.836 52.3755 100.957 52.4934 101.046 52.66C101.282 53.0963 101.413 54.3576 100.502 54.5541C100.866 54.7519 101.174 55.5553 101.442 55.898H100.838C100.651 55.5526 100.164 54.6733 99.8676 54.6719L98.9084 54.6679V55.898H98.479H98.4803ZM98.9098 54.2452H99.9449C100.14 54.2452 100.293 54.2221 100.403 54.1761C100.762 54.027 100.825 53.0421 100.573 52.7847C100.464 52.6722 100.288 52.6167 100.049 52.6167H98.9098V54.2452ZM103.397 55.9102V52.2224H105.757V52.6546H103.778V53.7872H105.59V54.2194H103.778V55.4767H105.825V55.9089H103.397V55.9102ZM126.688 54.676L127.136 54.6353C127.158 54.821 127.206 54.9727 127.285 55.0919C127.364 55.2098 127.484 55.306 127.648 55.3805C127.812 55.4537 127.998 55.4902 128.202 55.4902C128.385 55.4902 128.545 55.4631 128.685 55.4076C128.824 55.352 128.927 55.2748 128.996 55.1786C129.064 55.0811 129.099 54.9754 129.099 54.863C129.099 54.7505 129.067 54.6475 129 54.5608C128.935 54.4755 128.827 54.4023 128.675 54.3441C128.579 54.3061 128.364 54.2452 128.032 54.1639C127.7 54.0826 127.468 54.0054 127.335 53.9336C127.163 53.8414 127.034 53.7263 126.95 53.5894C126.865 53.4526 126.823 53.2995 126.823 53.1301C126.823 52.9432 126.875 52.7684 126.979 52.6072C127.082 52.4446 127.232 52.3227 127.431 52.2373C127.631 52.1533 127.851 52.1113 128.094 52.1113C128.361 52.1113 128.598 52.1547 128.801 52.2441C129.006 52.3322 129.163 52.4609 129.273 52.6329C129.382 52.8036 129.442 52.9974 129.45 53.2141L128.991 53.2507C128.966 53.0177 128.882 52.8416 128.741 52.7237C128.599 52.6045 128.389 52.5449 128.112 52.5449C127.834 52.5449 127.612 52.5991 127.479 52.7074C127.347 52.8158 127.281 52.9459 127.281 53.099C127.281 53.2318 127.328 53.3401 127.422 53.4269C127.514 53.5122 127.754 53.6003 128.143 53.6897C128.532 53.7805 128.797 53.8577 128.942 53.9254C129.152 54.0243 129.306 54.149 129.407 54.3007C129.507 54.4511 129.556 54.6259 129.556 54.8237C129.556 55.0215 129.5 55.2044 129.39 55.3778C129.281 55.5512 129.122 55.6867 128.918 55.7815C128.712 55.8777 128.48 55.9251 128.223 55.9251C127.896 55.9251 127.624 55.8764 127.403 55.7788C127.182 55.6813 127.01 55.5363 126.884 55.3399C126.758 55.1448 126.692 54.9239 126.686 54.6773L126.688 54.676ZM122.291 55.898V52.2102H123.841C124.13 52.2102 124.349 52.2441 124.498 52.3091C124.647 52.3755 124.768 52.4934 124.857 52.66C125.093 53.0963 125.224 54.3576 124.313 54.5541C124.677 54.7519 124.985 55.5553 125.253 55.898H124.649C124.462 55.5526 123.975 54.6733 123.679 54.6719L122.719 54.6679V55.898H122.29H122.291ZM122.719 54.2452H123.754C123.95 54.2452 124.103 54.2221 124.212 54.1761C124.571 54.027 124.635 53.0421 124.383 52.7847C124.273 52.6722 124.097 52.6167 123.859 52.6167H122.719V54.2452ZM86.0919 55.898V52.2102H87.6418C87.9303 52.2102 88.1498 52.2441 88.2989 52.3091C88.4479 52.3755 88.5685 52.4934 88.6579 52.66C88.8936 53.0963 89.025 54.3576 88.1132 54.5541C88.4777 54.7519 88.7852 55.5553 89.0535 55.898H88.4492C88.2623 55.5526 87.7759 54.6733 87.4792 54.6719L86.52 54.6679V55.898H86.0905H86.0919ZM86.5213 54.2452H87.5564C87.7515 54.2452 87.9046 54.2221 88.0143 54.1761C88.3734 54.027 88.437 53.0421 88.185 52.7847C88.0753 52.6722 87.8992 52.6167 87.6607 52.6167H86.5213V54.2452ZM50.5279 55.898V52.2102H52.0778C52.3664 52.2102 52.5859 52.2441 52.7349 52.3091C52.8839 52.3755 53.0045 52.4934 53.0939 52.66C53.3297 53.0963 53.4611 54.3576 52.5493 54.5541C52.9137 54.7519 53.2213 55.5553 53.4895 55.898H52.8853C52.6983 55.5526 52.212 54.6733 51.9153 54.6719L50.956 54.6679V55.898H50.5266H50.5279ZM50.9574 54.2452H51.9925C52.1889 54.2452 52.3407 54.2221 52.4504 54.1761C52.8094 54.027 52.8718 53.0421 52.6211 52.7847C52.5114 52.6722 52.3352 52.6167 52.0968 52.6167H50.9574V54.2452ZM117.086 54.1232C117.086 54.5676 117.215 54.9172 117.472 55.1719C117.73 55.4266 118.052 55.5553 118.441 55.5553C118.83 55.5553 119.162 55.4266 119.418 55.1691C119.672 54.9117 119.801 54.5459 119.801 54.0717C119.801 53.7723 119.747 53.5109 119.637 53.2873C119.527 53.0638 119.368 52.8903 119.158 52.7684C118.946 52.6451 118.71 52.5842 118.449 52.5842C118.078 52.5842 117.757 52.702 117.49 52.9391C117.221 53.1762 117.087 53.5705 117.087 54.1246L117.086 54.1232ZM116.541 54.1151C116.541 53.5041 116.719 53.0245 117.072 52.679C117.426 52.3335 117.884 52.1601 118.444 52.1601C118.811 52.1601 119.141 52.2414 119.435 52.404C119.729 52.5665 119.954 52.7928 120.109 53.0841C120.263 53.374 120.34 53.7046 120.34 54.0717C120.34 54.4389 120.259 54.7803 120.096 55.0743C119.934 55.3697 119.704 55.5932 119.405 55.7436C119.107 55.8953 118.785 55.9712 118.441 55.9712C118.067 55.9712 117.732 55.8872 117.437 55.7192C117.143 55.5512 116.919 55.3236 116.768 55.0337C116.616 54.7437 116.54 54.4375 116.54 54.1137L116.541 54.1151ZM113.352 55.9102V52.6546H112.161V52.2224H115.021V52.6546H113.83V55.9102H113.351H113.352ZM108.482 54.3739H109.904L109.469 53.351C109.338 53.0407 109.239 52.7833 109.17 52.5814C109.113 52.8212 109.036 53.0583 108.939 53.2914L108.482 54.3739ZM107.28 55.8886L108.881 52.2007H109.488L111.187 55.8886H110.558L110.076 54.7708H108.319L107.866 55.8886H107.281H107.28ZM80.2214 54.13C80.2214 53.519 80.3989 53.0394 80.7539 52.6939C81.1088 52.3484 81.5668 52.175 82.1277 52.175C82.4962 52.175 82.8267 52.2563 83.1221 52.4189C83.4161 52.5814 83.6424 52.8077 83.7968 53.099C83.9513 53.3889 84.0298 53.7195 84.0298 54.0866C84.0298 54.4538 83.9485 54.7952 83.7846 55.0892C83.622 55.3846 83.3904 55.6081 83.0923 55.7585C82.7929 55.9102 82.4704 55.9861 82.125 55.9861C81.7497 55.9861 81.415 55.9021 81.1197 55.7341C80.8243 55.5675 80.6008 55.3385 80.449 55.0486C80.2973 54.7586 80.2214 54.4524 80.2214 54.1286V54.13ZM80.7661 54.1381C80.7661 54.5825 80.8948 54.9321 81.1522 55.1868C81.4096 55.4415 81.7334 55.5702 82.1222 55.5702C82.5111 55.5702 82.8444 55.4415 83.1004 55.1841C83.3565 54.9266 83.4838 54.5608 83.4838 54.0866C83.4838 53.7872 83.4296 53.5258 83.3199 53.3022C83.2102 53.0787 83.0503 52.9052 82.8403 52.7833C82.629 52.66 82.3932 52.5991 82.1304 52.5991C81.7578 52.5991 81.4367 52.7183 81.1685 52.954C80.9002 53.1911 80.7647 53.5854 80.7647 54.1395L80.7661 54.1381ZM76.18 55.8804V52.1926H78.616V52.6248H76.6583V53.7737H78.3531V54.2059H76.6583V55.8804H76.1787H76.18ZM65.8103 55.9102V52.6546H64.6194V52.2224H67.4794V52.6546H66.2885V55.9102H65.8089H65.8103ZM62.831 54.9483L63.27 55.1678C62.472 56.5863 59.9981 56.1812 59.9981 54.0392C59.9981 53.6558 60.0442 53.4147 60.1742 53.122C60.6579 52.0287 62.6346 51.6642 63.2496 52.9798L62.7809 53.0936C62.2376 52.198 60.4939 52.5191 60.4939 54.0365C60.4939 55.2477 61.8081 56.0267 62.8324 54.9483H62.831ZM54.9148 55.8804L56.4092 52.1926H56.9755L58.5606 55.8804H57.974L57.5228 54.7627H55.8835L55.4608 55.8804H54.9148ZM56.0854 54.3671H57.3155L56.9389 53.3442C56.8251 53.034 56.7398 52.7765 56.6801 52.5747C56.63 52.8145 56.5636 53.0516 56.481 53.2846L56.0854 54.3671ZM47.0284 55.9102V52.6546H45.8375V52.2224H48.6976V52.6546H47.5067V55.9102H47.0271H47.0284ZM41.3965 55.9102L42.7919 53.9972L41.5631 52.2224H42.1321L42.7906 53.1654C42.9274 53.3605 43.0222 53.5109 43.0778 53.6138C43.1591 53.4851 43.2553 53.3483 43.365 53.202L44.0858 52.2211H44.6101L43.3555 53.9742L44.7063 55.9089H44.1196L43.2078 54.5933C43.1564 54.5188 43.1062 54.4443 43.0602 54.3698C42.9789 54.4931 42.922 54.5798 42.8867 54.6286L41.9709 55.9075H41.3965V55.9102ZM37.4255 55.9102V52.2224H39.7856V52.6546H37.8062V53.7872H39.6189V54.2194H37.8062V55.4767H39.8533V55.9089H37.4255V55.9102ZM30.5674 55.9102V52.2224H31.047V55.478H32.8232V55.9102H30.5688H30.5674ZM24.972 55.9102L26.5422 52.2224H27.137L28.8034 55.9102H28.187L27.7128 54.7925H25.9895L25.5451 55.9102H24.9706H24.972ZM26.236 54.3955H27.4662L27.0896 53.3727C26.9758 53.0624 26.8904 52.805 26.8308 52.6031C26.7807 52.8429 26.7143 53.08 26.6317 53.3131L26.236 54.3955ZM20.8344 55.9102V52.2224H22.3843C22.6729 52.2224 22.8924 52.2563 23.0414 52.3213C23.1904 52.3877 23.311 52.5056 23.4004 52.6722C23.6362 53.1085 23.7676 54.3698 22.8558 54.5663C23.2202 54.7641 23.5278 55.5675 23.796 55.9102H23.1918C23.0048 55.5648 22.5184 54.6855 22.2217 54.6841L21.2625 54.6801V55.9102H20.833H20.8344ZM21.2625 54.2574H22.2976C22.4927 54.2574 22.6458 54.2343 22.7555 54.1883C23.1146 54.0392 23.1782 53.0543 22.9262 52.7969C22.8165 52.6844 22.6404 52.6289 22.4019 52.6289H21.2625V54.2574ZM17.9026 52.2224H18.3822V54.3522C18.3822 54.7221 18.3415 55.0174 18.2589 55.2355C18.1762 55.4523 18.0286 55.6311 17.8145 55.7666C17.6004 55.9035 17.32 55.9712 16.9718 55.9712C16.6236 55.9712 16.3581 55.9116 16.144 55.7924C15.9286 55.6731 15.7755 55.5011 15.6834 55.2762C15.5926 55.0513 15.5452 54.7424 15.5452 54.3522V52.2224H16.0248V54.3508C16.0248 54.6706 16.0546 54.9077 16.1129 55.0594C16.1711 55.2111 16.27 55.329 16.4123 55.4103C16.5532 55.4929 16.7266 55.5336 16.9312 55.5336C17.2807 55.5336 17.53 55.4523 17.679 55.2897C17.8281 55.1271 17.9026 54.8142 17.9026 54.3508V52.2224ZM12.0172 55.9102V52.6546H10.8264V52.2224H13.6864V52.6546H12.4955V55.9102H12.0159H12.0172ZM6.08992 55.9102L7.61951 52.2224H8.19937L9.82244 55.9102H9.22226L8.76162 54.7925H7.083L6.65082 55.9102H6.09128H6.08992ZM7.30519 54.3955H8.53537L8.15873 53.3727C8.04492 53.0624 7.95957 52.805 7.89996 52.6031C7.84983 52.8429 7.78344 53.08 7.7008 53.3131L7.30519 54.3955ZM1.2749 55.9102V52.2224H1.81276L3.88834 55.1177V52.2224H4.39098V55.9102H3.85312L1.77754 53.015V55.9102H1.2749ZM68.8085 54.676L69.2569 54.6353C69.2786 54.821 69.3274 54.9727 69.4059 55.0919C69.4845 55.2098 69.6051 55.306 69.769 55.3805C69.933 55.4537 70.1186 55.4902 70.3231 55.4902C70.506 55.4902 70.6659 55.4631 70.8055 55.4076C70.945 55.352 71.048 55.2748 71.1171 55.1786C71.1848 55.0811 71.22 54.9754 71.22 54.863C71.22 54.7505 71.1875 54.6475 71.1211 54.5608C71.0561 54.4755 70.9477 54.4023 70.796 54.3441C70.6998 54.3061 70.4844 54.2452 70.1524 54.1639C69.8205 54.0826 69.5888 54.0054 69.4561 53.9336C69.284 53.8414 69.1553 53.7263 69.0713 53.5894C68.9859 53.4526 68.9439 53.2995 68.9439 53.1301C68.9439 52.9432 68.9968 52.7684 69.0997 52.6072C69.2027 52.4446 69.3531 52.3227 69.5523 52.2373C69.7514 52.1533 69.9723 52.1113 70.2148 52.1113C70.4817 52.1113 70.7188 52.1547 70.9233 52.2441C71.1279 52.3322 71.2851 52.4609 71.3948 52.6329C71.5045 52.8036 71.5642 52.9974 71.5723 53.2141L71.113 53.2507C71.0886 53.0177 71.0046 52.8416 70.8637 52.7237C70.7215 52.6045 70.5115 52.5449 70.2337 52.5449C69.956 52.5449 69.7338 52.5991 69.601 52.7074C69.4696 52.8158 69.4032 52.9459 69.4032 53.099C69.4032 53.2318 69.4506 53.3401 69.5441 53.4269C69.6363 53.5122 69.8761 53.6003 70.2649 53.6897C70.6537 53.7805 70.9193 53.8577 71.0642 53.9254C71.2742 54.0243 71.4287 54.149 71.5289 54.3007C71.6292 54.4511 71.678 54.6259 71.678 54.8237C71.678 55.0215 71.6224 55.2044 71.5127 55.3778C71.4029 55.5512 71.2444 55.6867 71.0398 55.7815C70.8339 55.8777 70.6022 55.9251 70.3448 55.9251C70.0183 55.9251 69.746 55.8764 69.5252 55.7788C69.3043 55.6813 69.1323 55.5363 69.0063 55.3399C68.8803 55.1448 68.8152 54.9239 68.8085 54.6773V54.676Z" fill="#008869"/>
</g>
<defs>
<clipPath id="clip0_673_625">
<rect width="129.259" height="56" fill="white" transform="translate(0.751953)"/>
</clipPath>
</defs>
</svg>
