<svg width="512" height="512" viewBox="0 0 512 512" fill="none" xmlns="http://www.w3.org/2000/svg">
<path d="M488.91 497.003H480.885V427.561C480.885 425.572 480.095 423.665 478.689 422.259C477.283 420.853 475.376 420.063 473.387 420.063C471.398 420.063 469.491 420.853 468.085 422.259C466.679 423.665 465.889 425.572 465.889 427.561V434.889H410.72C415.947 428.151 418.78 419.863 418.771 411.335C418.771 405.188 415.808 396.686 411.65 387.779H465.889V394.887C465.889 396.876 466.679 398.783 468.085 400.189C469.491 401.595 471.398 402.385 473.387 402.385C475.376 402.385 477.283 401.595 478.689 400.189C480.095 398.783 480.885 396.876 480.885 394.887V318.045C480.885 282.22 453.632 252.641 418.77 248.949V240.07C418.77 230.141 412.304 221.695 403.362 218.719V82.101C403.363 36.83 366.533 0 321.262 0H221.785C176.515 0 139.684 36.83 139.684 82.101V93.287H115.718C103.314 93.287 93.2229 103.378 93.2229 115.782V124.79C58.3629 128.484 31.1129 158.062 31.1129 193.885V497.003H23.0839C21.0953 497.003 19.1882 497.793 17.7821 499.199C16.3759 500.605 15.5859 502.512 15.5859 504.501C15.5859 506.49 16.3759 508.397 17.7821 509.803C19.1882 511.209 21.0953 511.999 23.0839 511.999H488.91C490.899 511.999 492.806 511.209 494.212 509.803C495.618 508.397 496.408 506.49 496.408 504.501C496.408 502.512 495.618 500.605 494.212 499.199C492.806 497.793 490.899 497.003 488.91 497.003ZM465.889 497.005H294.55V449.886H465.888V497.005H465.889ZM217.444 279.187V310.703H170.33V279.187H217.444ZM170.33 264.19V232.674H217.444V264.19H170.33ZM217.444 325.699V357.214H170.33V325.699H217.444ZM217.444 372.211V403.727H170.33V372.211H217.444ZM217.444 217.678H170.33V186.162H217.444V217.678ZM170.33 418.723H217.444V450.239H170.33V418.723ZM217.444 171.166H170.33V139.398H217.444V171.166ZM170.33 465.235H217.444V497.003H170.33V465.235ZM232.44 139.895C259.009 143.505 279.553 166.341 279.553 193.885L279.551 497.003H232.44V139.895ZM294.55 387.781H348.785C344.627 396.687 341.664 405.19 341.664 411.337C341.655 419.865 344.488 428.153 349.715 434.891H294.55V387.781ZM379.836 434.89C367.022 434.686 356.66 424.198 356.66 411.336C356.66 402.751 368.962 380.322 380.217 362.774C391.472 380.322 403.774 402.751 403.774 411.336C403.774 425.398 391.929 433.186 379.836 434.89ZM465.889 318.047V372.784H403.851C396.645 360.034 389 348.746 386.387 344.964C382.274 340.649 378.161 340.649 374.048 344.964C371.436 348.746 363.79 360.034 356.584 372.784H294.55V317.605C294.788 287.763 319.138 263.559 349.035 263.559H411.401C441.445 263.559 465.889 288.002 465.889 318.047ZM403.774 248.563H356.66V240.072C356.66 236.068 359.815 232.787 363.77 232.584C364.034 232.612 396.403 232.612 396.666 232.584C400.62 232.788 403.774 236.068 403.774 240.072V248.563ZM154.681 82.101C154.681 45.099 184.784 14.996 221.785 14.996H321.262C358.264 14.996 388.367 45.099 388.367 82.101V217.577H372.071V82.101C372.071 54.085 349.278 31.293 321.262 31.293H287.33C285.341 31.293 283.434 32.083 282.028 33.4891C280.622 34.8953 279.832 36.8024 279.832 38.791C279.832 40.7796 280.622 42.6867 282.028 44.0929C283.434 45.499 285.341 46.289 287.33 46.289H321.262C341.009 46.289 357.074 62.354 357.074 82.101V218.72C348.131 221.695 341.664 230.142 341.664 240.072V248.951C322.622 250.968 305.85 260.709 294.55 274.972V193.885C294.55 158.062 267.3 128.484 232.44 124.79V115.782C232.44 103.378 222.349 93.287 209.945 93.287H185.972V82.101C185.972 62.355 202.037 46.289 221.784 46.289H254.657C256.646 46.289 258.553 45.499 259.959 44.0929C261.365 42.6867 262.155 40.7796 262.155 38.791C262.155 36.8024 261.365 34.8953 259.959 33.4891C258.553 32.083 256.646 31.293 254.657 31.293H221.784C193.768 31.293 170.976 54.086 170.976 82.101V93.287H154.68V82.101H154.681ZM108.22 115.782C108.22 111.647 111.583 108.284 115.718 108.284H209.945C214.08 108.284 217.443 111.647 217.443 115.782V124.401H108.22V115.782ZM46.1099 193.885C46.1099 163.841 70.5529 139.398 100.597 139.398H119.561C103.525 152.137 93.2249 171.801 93.2249 193.825V255.071C93.2249 257.06 94.0149 258.967 95.4211 260.373C96.8272 261.779 98.7343 262.569 100.723 262.569C102.712 262.569 104.619 261.779 106.025 260.373C107.431 258.967 108.221 257.06 108.221 255.071V193.825C108.221 166.281 128.764 143.446 155.334 139.835V497.003H108.221V287.753C108.221 285.764 107.431 283.857 106.025 282.451C104.619 281.045 102.712 280.255 100.723 280.255C98.7343 280.255 96.8272 281.045 95.4211 282.451C94.0149 283.857 93.2249 285.764 93.2249 287.753V497.003H46.1099V193.885Z" fill="#858585"/>
</svg>
