<svg width="512" height="512" viewBox="0 0 512 512" fill="none" xmlns="http://www.w3.org/2000/svg">
<path d="M111.468 205.302C111.226 210.534 106.787 214.58 101.554 214.337C96.3217 214.094 92.2757 209.656 92.5187 204.423C92.7617 199.19 97.1997 195.145 102.433 195.388C107.665 195.631 111.71 200.07 111.468 205.302ZM489.996 363.111L461.534 374.145C459.013 375.125 456.333 375.628 453.629 375.629C444.831 375.629 436.513 370.3 433.147 361.618L430.664 355.214L407.5 364.879C408.617 371.441 407.543 378.262 404.285 384.187C400.42 391.215 394.018 396.309 386.26 398.529C385.941 398.621 385.62 398.707 385.299 398.788C387.833 406.423 387.326 415.021 383.189 422.542C377.084 433.644 364.908 439.336 353.04 437.762C353.414 443.387 352.168 449.003 349.45 453.943C345.596 460.951 339.218 466.035 331.493 468.258C326.664 469.648 321.69 469.807 316.941 468.775C317.105 474.079 315.841 479.329 313.281 483.978C309.426 490.987 302.775 496.251 295.037 498.42C292.412 499.16 289.697 499.537 286.97 499.54C281.944 499.54 277.005 498.24 272.563 495.688L264.717 491.182C260.826 496.659 255.257 500.685 248.692 502.674C245.794 503.555 242.782 504.005 239.754 504.008C234.758 504.005 229.84 502.766 225.439 500.402C218.971 496.952 213.965 491.285 211.34 484.442C203.053 487.966 193.333 487.804 184.938 483.315C178.993 480.135 174.42 475.146 171.689 469.28C162.955 474.009 152.103 474.416 142.734 469.405C131.018 463.138 125.048 450.273 126.952 437.83C121.709 437.956 116.522 436.723 111.898 434.25C104.727 430.415 99.4717 423.994 97.1007 416.17C94.7297 408.346 95.5367 400.088 99.3717 392.917L107.032 378.595C105.32 374.524 104.476 370.075 103.667 365.726C102.2 357.837 101.058 352.95 97.5697 351.596C96.1967 351.064 92.9407 349.709 81.0037 344.388L77.9267 351.35C75.5637 356.696 71.2467 360.808 65.7717 362.927C63.2364 363.913 60.5401 364.42 57.8197 364.424C54.8127 364.424 51.8157 363.798 48.9897 362.549L21.0697 350.209C10.0057 345.317 4.98173 332.336 9.87173 321.272L73.9707 176.236C76.3337 170.89 80.6517 166.779 86.1267 164.66C91.6047 162.541 97.5647 162.676 102.909 165.039L130.828 177.379C136.174 179.742 140.286 184.059 142.404 189.534C144.523 195.01 144.388 200.97 142.026 206.316L137.218 217.194L155.391 225.578C155.585 225.668 155.776 225.765 155.962 225.87C161.323 228.887 166.816 229.568 172.794 229.085C153.397 206.1 142.859 177.147 142.859 146.073V61.0556C142.859 59.4899 143.318 57.9587 144.18 56.6516C145.042 55.3446 146.269 54.3192 147.708 53.7026L252.849 8.64256C253.845 8.21602 254.917 7.99609 256 7.99609C257.084 7.99609 258.156 8.21602 259.152 8.64256L364.294 53.7026C365.733 54.3192 366.959 55.3446 367.821 56.6516C368.683 57.9587 369.143 59.4899 369.143 61.0556V146.073C369.143 177.973 358.023 207.671 337.607 230.945C349.029 235.316 356.961 237.345 364.346 233.503L380.192 225.021L375.831 213.77C371.458 202.491 377.077 189.756 388.357 185.383L416.818 174.349C428.093 169.977 440.833 175.595 445.206 186.875L502.522 334.723C506.895 346.003 501.275 358.737 489.996 363.111ZM158.86 146.072C158.86 176.47 170.335 204.528 191.252 225.56C195.825 224.494 200.669 223.412 205.776 222.674C183.885 203.871 170.86 176.674 170.86 146.072V79.5186C170.86 76.3186 172.767 73.4256 175.709 72.1656L252.85 39.1056C253.846 38.679 254.918 38.4591 256.001 38.4591C257.085 38.4591 258.157 38.679 259.153 39.1056L336.295 72.1656C337.734 72.7823 338.96 73.8078 339.822 75.1148C340.684 76.4218 341.144 77.9529 341.144 79.5186V146.072C341.144 175.277 329.134 201.969 308.196 220.923C312.875 221.926 317.32 223.28 321.539 224.762C341.953 203.822 353.144 176.071 353.144 146.073V66.3306L256.001 24.6996L158.86 66.3306V146.072ZM282.484 219.966C309.607 204.25 325.142 177.391 325.142 146.072V84.7946L256.001 55.1626L186.86 84.7936V146.072C186.86 186.537 214.063 219.977 254.855 230.154C264.708 224.385 273.904 221.275 282.484 219.966ZM127.392 199.847C127.706 199.133 127.877 198.365 127.892 197.586C127.908 196.806 127.769 196.032 127.484 195.307C127.207 194.578 126.788 193.912 126.252 193.346C125.716 192.781 125.073 192.327 124.361 192.012L96.4407 179.672C93.4497 178.352 89.9297 179.707 88.6057 182.704L24.5027 327.738C23.8676 329.179 23.8301 330.813 24.3985 332.282C24.967 333.751 26.0948 334.934 27.5347 335.573L55.4547 347.912C56.8927 348.548 58.5047 348.58 59.9937 348.003C61.4827 347.426 62.6537 346.317 63.2887 344.88L127.392 199.847ZM135.234 418.776L153.519 387.129C156.526 380.21 153.729 372.078 147.059 368.518C139.981 364.741 131.153 367.414 127.374 374.478L113.478 400.462C111.658 403.864 111.279 407.795 112.41 411.528C113.542 415.261 116.039 418.32 119.441 420.139C124.51 422.851 130.717 422.277 135.234 418.776ZM170.002 449.246L190.201 410.128C191.42 403.926 188.413 397.428 182.829 394.448C177.714 391.717 171.463 392.317 166.942 395.88L144.314 435.618C140.534 442.687 143.209 451.514 150.279 455.296C157.34 459.071 166.186 456.358 170.002 449.246ZM210.888 465.193L228.802 430.762C230.016 424.563 227.009 418.071 221.429 415.093C215.866 412.123 208.838 413.193 204.363 417.575L184.849 455.366C184.467 461.048 187.432 466.504 192.482 469.205C198.762 472.564 206.59 470.824 210.888 465.193ZM252.661 480.33L265.987 455.412C268.61 450.507 268.155 444.412 264.827 439.886C263.558 438.158 261.917 436.739 260.024 435.735C254.462 432.763 247.428 433.838 242.952 438.23L225.389 471.987C224.798 477.846 227.754 483.497 232.984 486.293C236.385 488.112 240.315 488.491 244.05 487.36C247.783 486.229 250.842 483.733 252.661 480.33ZM293.759 457.33C293.328 457.088 283.525 451.387 283.525 451.387C283.165 455.381 282.04 459.323 280.097 462.957L272.484 477.193L280.53 481.814C283.59 483.572 287.209 483.997 290.718 483.014C294.348 481.996 297.462 479.537 299.261 476.267C302.935 469.585 300.467 461.091 293.759 457.33ZM390.522 363.781C389.252 361.162 387.216 358.991 384.684 357.556L308.986 314.41C296.132 307.082 280.073 313.584 261.481 321.111C247.581 326.738 231.956 333.061 216.124 333.063C200.655 333.064 184.99 327.03 170.522 308.415C169.593 307.221 168.929 305.842 168.577 304.371C168.224 302.9 168.19 301.37 168.477 299.885C168.764 298.399 169.366 296.992 170.241 295.759C171.116 294.525 172.246 293.492 173.553 292.731C194.9 280.273 212.929 266.673 227.14 252.312C230.931 248.481 234.64 245.061 238.269 242.003C221.903 234.823 207.905 238.092 193.227 241.53C178.72 244.929 163.723 248.443 148.411 239.977L130.748 231.829L87.4677 329.752C98.1827 334.527 102.067 336.179 103.357 336.679C114.022 340.819 117.052 351.006 118.775 359.567C128.046 350.461 142.533 347.965 154.592 354.402C163.525 359.169 169.163 367.835 170.447 377.253C177.242 375.996 184.263 377.081 190.362 380.333C193.966 382.25 197.147 384.874 199.716 388.046C202.285 391.219 204.189 394.877 205.315 398.801C209.201 397.564 213.297 397.119 217.358 397.493C221.42 397.866 225.365 399.051 228.961 400.977C232.564 402.894 235.745 405.517 238.314 408.69C240.883 411.862 242.788 415.519 243.914 419.443C247.801 418.204 251.898 417.759 255.96 418.134C260.023 418.508 263.969 419.695 267.565 421.623C271.098 423.502 274.222 426.068 276.753 429.169L316.6 451.724C319.787 453.495 323.502 453.906 327.064 452.881C330.669 451.843 333.639 449.482 335.427 446.231C339.081 439.587 336.595 431.11 329.884 427.333C329.446 427.087 273.963 395.706 273.963 395.706C273.047 395.19 272.242 394.5 271.593 393.674C270.944 392.847 270.465 391.901 270.181 390.889C269.898 389.878 269.817 388.82 269.943 387.777C270.068 386.734 270.398 385.726 270.913 384.81C271.428 383.894 272.119 383.089 272.945 382.44C273.772 381.792 274.718 381.312 275.729 381.029C276.741 380.746 277.799 380.664 278.842 380.79C279.885 380.916 280.893 381.245 281.809 381.761L350.311 420.307C357.017 423.992 365.478 421.536 369.166 414.83C372.821 408.186 370.334 399.708 363.623 395.931L363.616 395.927C347.542 386.924 329.326 376.721 311.473 366.501C307.639 364.306 306.31 359.418 308.504 355.584C310.698 351.75 315.584 350.419 319.422 352.616C337.219 362.804 355.408 372.992 371.456 381.981C374.612 383.748 378.304 384.163 381.854 383.147C385.481 382.109 388.466 379.74 390.261 376.477C392.433 372.534 392.526 367.907 390.522 363.781ZM424.878 340.291L386.018 240.05L371.812 247.654C356.395 255.675 341.305 249.668 326.712 243.861C302.482 234.216 277.425 224.245 238.513 263.568C224.568 277.661 207.298 291 187.118 303.275C207.838 325.57 230.024 316.586 255.476 306.282C276.044 297.954 297.315 289.344 316.908 300.511L392.607 343.657C395.682 345.405 398.429 347.677 400.723 350.37L424.878 340.291ZM487.604 340.506L430.288 192.658C429.716 191.19 428.586 190.009 427.145 189.373C425.703 188.737 424.069 188.699 422.6 189.267L394.14 200.3C392.672 200.871 391.491 202 390.855 203.441C390.219 204.882 390.18 206.516 390.748 207.986L448.064 355.835C448.635 357.302 449.765 358.484 451.206 359.12C452.647 359.755 454.281 359.794 455.751 359.227L484.213 348.193C485.68 347.621 486.861 346.491 487.497 345.05C488.132 343.609 488.171 341.975 487.604 340.506ZM415.887 204.69C410.663 204.69 406.402 208.95 406.402 214.175C406.402 219.399 410.663 223.66 415.887 223.66C421.111 223.66 425.372 219.399 425.372 214.175C425.372 208.95 421.111 204.69 415.887 204.69ZM259.397 182.149C257.466 184.09 255.17 185.629 252.64 186.676C250.111 187.724 247.399 188.259 244.661 188.252C241.923 188.259 239.211 187.724 236.682 186.676C234.153 185.629 231.856 184.09 229.926 182.149L201.476 153.699C193.352 145.574 193.351 132.353 201.476 124.228C205.412 120.292 210.645 118.125 216.212 118.125C221.779 118.125 227.013 120.292 230.948 124.228L244.604 137.885L281.041 101.086C282.96 99.1375 285.247 97.5901 287.768 96.5331C290.29 95.4762 292.997 94.9308 295.732 94.9286H295.813C298.539 94.9211 301.239 95.4524 303.759 96.492C306.279 97.5317 308.568 99.0591 310.496 100.987C318.619 109.065 318.663 122.263 310.593 130.408C304.253 136.806 297.929 143.221 291.605 149.636C281.077 160.313 270.19 171.355 259.397 182.149ZM248.083 170.835C258.837 160.081 269.703 149.06 280.211 138.402C286.545 131.978 292.878 125.554 299.228 119.146C301.099 117.257 301.093 114.201 299.214 112.332C298.298 111.422 297.081 110.962 295.793 110.929C295.163 110.929 294.54 111.054 293.959 111.297C293.379 111.54 292.852 111.896 292.41 112.345L250.317 154.857C249.575 155.605 248.693 156.2 247.721 156.607C246.749 157.014 245.706 157.225 244.652 157.228H244.632C242.51 157.227 240.475 156.385 238.975 154.885L219.633 135.543C218.72 134.629 217.504 134.126 216.211 134.126C214.918 134.126 213.702 134.629 212.789 135.543C211.882 136.451 211.373 137.681 211.373 138.965C211.373 140.248 211.882 141.478 212.789 142.387L241.238 170.836C241.686 171.286 242.219 171.644 242.807 171.887C243.394 172.13 244.024 172.255 244.66 172.253C245.296 172.254 245.926 172.13 246.513 171.886C247.101 171.643 247.634 171.285 248.083 170.835Z" fill="#858585"/>
</svg>
