<svg width="512" height="512" viewBox="0 0 512 512" fill="none" xmlns="http://www.w3.org/2000/svg">
<path d="M472.996 329.477C468.691 322.289 451.053 300.928 404.844 327.839L324.594 374.581C321.286 376.507 317.931 377.959 314.463 378.948C315.625 376.73 316.535 374.389 317.174 371.968C321.397 356.204 312.042 339.752 295.877 334.511C295.535 334.4 295.185 334.312 294.83 334.248C271.839 330.101 249.113 321.885 230.853 315.284C224.491 312.984 218.482 310.812 213.365 309.153C192.492 302.381 173.702 310.716 158.076 319.764L99.1395 353.887L93.9475 344.713C91.3465 340.118 87.1005 336.807 81.9905 335.391C76.8835 333.975 71.5365 334.628 66.9415 337.228L44.4265 349.971C34.9175 355.353 31.5605 367.467 36.9415 376.976L103.138 493.942C105.739 498.537 109.985 501.848 115.095 503.264C116.862 503.754 118.657 503.996 120.439 503.996C123.811 503.996 127.138 503.129 130.144 501.428L152.661 488.684C162.17 483.302 165.528 471.188 160.146 461.679L153.75 450.378L166.29 443.139L268.722 470.585C274.471 472.126 280.189 472.892 285.815 472.891C297.193 472.891 308.186 469.758 318.234 463.572L463.869 373.896C477.53 365.484 481.881 344.312 472.996 329.477ZM144.779 474.759L122.262 487.503C121.081 488.172 119.942 488.004 119.367 487.846C118.793 487.687 117.73 487.243 117.062 486.062L50.8655 369.096C49.8465 367.296 50.5075 364.914 52.3065 363.896L74.8225 351.153C75.384 350.833 76.0193 350.666 76.6655 350.668C77.0965 350.668 77.4625 350.74 77.7175 350.811C78.2915 350.97 79.3535 351.413 80.0225 352.594L146.22 469.559C147.239 471.36 146.578 473.741 144.779 474.759ZM281.6 394.002L291.581 395.625C306.715 398.045 320.147 395.684 332.645 388.407L412.896 341.665C435.526 328.484 452.862 327 459.269 337.697C463.656 345.022 461.743 356.414 455.477 360.271L309.843 449.947C298.508 456.925 286.067 458.67 272.862 455.13L167.228 426.826C165.179 426.278 162.996 426.566 161.158 427.625L145.868 436.452L107.02 367.811L166.092 333.609C179.3 325.962 193.57 319.548 208.428 324.37C213.293 325.948 218.909 327.978 225.412 330.329C244.087 337.081 267.291 345.47 291.404 349.886C299.31 352.681 303.731 360.311 301.717 367.825C299.065 377.722 290.762 378.948 284.143 378.193C272.377 375.77 261.178 372.575 249.329 369.191C243.69 367.581 237.859 365.915 231.862 364.308C230.848 364.036 229.789 363.967 228.748 364.104C227.706 364.241 226.702 364.582 225.792 365.107C224.882 365.632 224.085 366.332 223.445 367.165C222.805 367.999 222.336 368.95 222.064 369.965C221.793 370.98 221.723 372.038 221.86 373.08C221.997 374.121 222.338 375.126 222.864 376.035C223.389 376.945 224.088 377.743 224.922 378.382C225.755 379.022 226.707 379.491 227.721 379.763C233.591 381.336 239.358 382.983 244.935 384.575C257.202 388.078 268.788 391.387 281.28 393.941M80.9235 372.978C81.0763 374.022 81.0218 375.087 80.7631 376.11C80.5045 377.134 80.0467 378.097 79.416 378.943C78.7853 379.79 77.9939 380.504 77.0872 381.045C76.1805 381.585 75.1761 381.942 74.1315 382.095C73.0868 382.248 72.0224 382.193 70.9988 381.934C69.9752 381.676 69.0127 381.218 68.166 380.587C67.3194 379.957 66.6053 379.165 66.0646 378.259C65.5238 377.352 65.167 376.347 65.0145 375.303C64.7423 373.21 65.3039 371.094 66.578 369.412C67.852 367.73 69.7365 366.616 71.8247 366.31C73.9128 366.005 76.0373 366.533 77.7395 367.781C79.4418 369.028 80.5853 370.895 80.9235 372.978ZM198.921 132.957C202.622 140.175 204.48 143.797 205.011 146.809C205.542 149.82 205.035 153.859 204.027 161.907C203.773 163.932 203.49 166.187 203.187 168.721C201.521 182.658 209.071 195.735 221.974 201.262C224.32 202.267 226.414 203.149 228.294 203.942L229.289 204.362L199.555 268.226C198.938 269.551 198.696 271.02 198.856 272.474C199.015 273.927 199.569 275.309 200.459 276.469C201.348 277.629 202.539 278.524 203.901 279.055C205.263 279.586 206.744 279.734 208.184 279.483L240.867 273.773L257.536 302.459C258.271 303.723 259.338 304.762 260.621 305.462C261.905 306.163 263.356 306.498 264.816 306.432C266.277 306.365 267.691 305.9 268.906 305.086C270.121 304.273 271.089 303.141 271.706 301.816L301.223 238.417L300.64 238.146C305.694 236.617 308.676 235.848 311.121 235.848C314.179 235.848 318.069 237.048 325.819 239.44L328.387 240.231L349.689 289.687C350.268 291.03 351.203 292.189 352.393 293.037C353.584 293.886 354.985 294.392 356.443 294.501C357.901 294.609 359.361 294.316 360.664 293.653C361.967 292.99 363.064 291.982 363.834 290.74L381.328 262.55L413.83 269.207C415.263 269.5 416.748 269.396 418.125 268.904C419.502 268.413 420.718 267.553 421.641 266.419C422.564 265.285 423.158 263.92 423.36 262.472C423.561 261.023 423.362 259.548 422.783 258.205L398.571 201.989C399.138 201.748 399.704 201.506 400.269 201.264C413.172 195.738 420.722 182.66 419.056 168.723C418.753 166.189 418.471 163.934 418.217 161.91C417.207 153.862 416.701 149.823 417.232 146.811C417.763 143.8 419.621 140.177 423.321 132.96C424.252 131.144 425.289 129.122 426.441 126.845C432.774 114.318 430.151 99.4468 419.917 89.8418C418.248 88.2768 416.574 86.7167 414.895 85.1618C408.949 79.6448 405.964 76.8768 404.435 74.2278C402.906 71.5798 402 67.6108 400.197 59.7038C399.743 57.7138 399.238 55.4978 398.655 53.0128C395.454 39.3458 383.886 29.6398 369.871 28.8608C367.323 28.7188 365.054 28.6068 363.016 28.5048C354.915 28.1018 350.849 27.8988 347.975 26.8528C345.101 25.8068 341.856 23.3488 335.392 18.4508C333.765 17.2188 331.954 15.8468 329.911 14.3168C318.674 5.90481 303.574 5.90481 292.337 14.3168C290.294 15.8468 288.483 17.2188 286.856 18.4508C280.391 23.3488 277.147 25.8068 274.273 26.8528C271.399 27.8988 267.334 28.1018 259.232 28.5048C257.194 28.6068 254.924 28.7188 252.377 28.8608C238.362 29.6408 226.794 39.3468 223.593 53.0128C223.011 55.4978 222.506 57.7128 222.051 59.7028C220.247 67.6108 219.342 71.5788 217.812 74.2278C216.283 76.8758 213.298 79.6448 207.353 85.1608C205.675 86.716 204 88.276 202.33 89.8408C192.095 99.4468 189.473 114.317 195.805 126.844C196.837 128.885 197.876 130.923 198.921 132.957ZM263.67 281.167L251.9 260.912C251.078 259.498 249.843 258.369 248.36 257.679C246.877 256.989 245.218 256.769 243.606 257.051L220.529 261.083L243.34 212.088C245.228 214.191 247.335 217.451 250.812 222.836C251.919 224.551 253.152 226.46 254.549 228.597C260.484 237.672 270.301 242.818 280.656 242.818C280.949 242.818 281.245 242.794 281.539 242.786L263.67 281.167ZM379.075 245.755C377.473 245.427 375.808 245.598 374.306 246.245C372.804 246.892 371.536 247.984 370.673 249.374L358.321 269.279L346.731 242.37C355.12 240.962 362.753 236.15 367.692 228.597C368.944 226.681 370.189 224.761 371.428 222.838C375.828 216.024 378.036 212.604 380.379 210.638C381.293 209.871 382.427 209.161 383.909 208.395L402.024 250.455L379.075 245.755ZM213.276 101.506C215.112 99.7828 216.755 98.2578 218.232 96.8888C232.432 83.7158 233.339 82.1438 237.648 63.2598C238.096 61.2968 238.594 59.1118 239.169 56.6598C240.761 49.8638 246.294 45.2218 253.263 44.8338C255.777 44.6938 258.015 44.5828 260.026 44.4818C279.372 43.5188 281.077 42.8978 296.516 31.2008C298.12 29.9848 299.908 28.6308 301.924 27.1218C304.718 25.0298 307.92 23.9848 311.123 23.9848C314.325 23.9848 317.527 25.0298 320.322 27.1218C322.129 28.4752 323.932 29.8345 325.729 31.1998C341.168 42.8968 342.873 43.5168 362.219 44.4808C364.23 44.5808 366.468 44.6918 368.982 44.8328C375.952 45.2208 381.484 49.8628 383.076 56.6588C383.65 59.1108 384.149 61.2968 384.597 63.2598C388.905 82.1428 389.812 83.7148 404.013 96.8878C405.67 98.4218 407.321 99.9608 408.968 101.505C414.058 106.282 415.312 113.394 412.162 119.624C411.026 121.871 410.003 123.866 409.085 125.657C400.247 142.893 399.932 144.68 402.342 163.899C402.592 165.896 402.871 168.12 403.17 170.62C403.999 177.551 400.388 183.805 393.971 186.553C391.657 187.544 389.591 188.415 387.735 189.197C369.886 196.719 368.496 197.885 357.988 214.157C356.765 216.054 355.537 217.948 354.302 219.838C350.482 225.679 343.697 228.149 337.013 226.131C334.603 225.402 332.461 224.742 330.538 224.148C312.031 218.438 310.216 218.437 291.705 224.148C289.782 224.742 287.64 225.402 285.23 226.131C278.55 228.15 271.761 225.68 267.941 219.838C266.707 217.947 265.478 216.053 264.254 214.156C253.747 197.885 252.357 196.718 234.507 189.197C232.652 188.415 230.587 187.545 228.272 186.553C221.855 183.805 218.244 177.551 219.073 170.619C219.372 168.119 219.651 165.894 219.902 163.897C222.312 144.678 221.997 142.892 213.158 125.655C212.24 123.864 211.217 121.87 210.081 119.623C206.932 113.395 208.186 106.283 213.276 101.506ZM311.12 198.762C351.568 198.762 384.475 165.855 384.475 125.407C384.475 84.9588 351.568 52.0528 311.12 52.0528C270.672 52.0528 237.766 84.9598 237.766 125.407C237.766 165.855 270.673 198.762 311.12 198.762ZM311.12 68.0518C342.745 68.0518 368.475 93.7808 368.475 125.406C368.475 157.031 342.746 182.761 311.12 182.761C279.494 182.761 253.766 157.032 253.766 125.406C253.766 93.7798 279.495 68.0518 311.12 68.0518ZM290.755 153.755L270.167 133.166C269.425 132.423 268.835 131.541 268.433 130.571C268.031 129.6 267.824 128.56 267.824 127.509C267.824 126.459 268.031 125.419 268.433 124.448C268.835 123.477 269.425 122.596 270.167 121.853C270.91 121.11 271.792 120.521 272.763 120.119C273.733 119.717 274.773 119.51 275.824 119.51C276.874 119.51 277.915 119.717 278.885 120.119C279.856 120.521 280.738 121.11 281.48 121.853L296.679 137.053L341.041 96.7928C342.613 95.3669 344.686 94.6235 346.805 94.7263C348.925 94.8291 350.917 95.7695 352.342 97.3408C353.768 98.9121 354.512 100.985 354.409 103.105C354.306 105.224 353.366 107.216 351.794 108.642L301.788 154.023C300.318 155.36 298.401 156.101 296.413 156.099C295.363 156.1 294.322 155.893 293.351 155.491C292.38 155.089 291.498 154.499 290.755 153.755Z" fill="#858585"/>
</svg>
