<svg width="512" height="512" viewBox="0 0 512 512" fill="none" xmlns="http://www.w3.org/2000/svg">
<path d="M256 102.555C171.364 102.555 102.555 171.364 102.555 256C102.555 340.635 171.364 409.444 256 409.444C340.635 409.444 409.444 340.635 409.444 256C409.444 171.364 340.635 102.555 256 102.555ZM390.593 216.591C376.242 202.705 354.443 191.457 327.835 184.164C320.543 157.556 309.294 135.757 295.408 121.406C317.962 128.058 338.49 140.254 355.117 156.882C371.745 173.509 383.941 194.037 390.593 216.591ZM336.833 249.483C336.52 232.573 334.703 215.724 331.403 199.137C366.467 210.23 391.292 228.615 395.636 249.483H336.833ZM323.723 249.483H262.516V188.276C281.832 188.741 300.14 191.146 316.819 195.18C320.853 211.781 323.258 230.167 323.723 249.483ZM262.516 175.166V116.363C283.384 120.707 301.769 145.532 312.863 180.596C297.27 177.415 280.358 175.553 262.516 175.166ZM249.483 116.363V175.166C231.718 175.553 214.807 177.415 199.137 180.596C210.23 145.532 228.615 120.707 249.483 116.363ZM249.483 188.276V249.483H188.276C188.741 230.167 191.146 211.859 195.18 195.18C211.781 191.146 230.167 188.741 249.483 188.276ZM175.166 249.483H116.363C120.707 228.615 145.532 210.23 180.596 199.137C177.415 214.729 175.553 231.641 175.166 249.483ZM175.166 262.516C175.553 280.281 177.415 297.192 180.596 312.863C145.532 301.769 120.707 283.384 116.363 262.516H175.166ZM188.276 262.516H249.483V323.723C230.167 323.258 211.859 320.853 195.18 316.819C191.146 300.218 188.664 281.832 188.276 262.516ZM249.483 336.833V395.636C228.615 391.292 210.23 366.467 199.137 331.403C214.729 334.584 231.641 336.446 249.483 336.833ZM262.516 395.636V336.833C280.281 336.446 297.192 334.584 312.863 331.403C301.769 366.467 283.384 391.292 262.516 395.636ZM262.516 323.723V262.516H323.723C323.258 281.832 320.853 300.14 316.819 316.819C300.218 320.853 281.832 323.258 262.516 323.723ZM336.833 262.516H395.636C391.292 283.384 366.467 301.769 331.403 312.863C334.584 297.27 336.446 280.358 336.833 262.516ZM216.591 121.406C202.705 135.757 191.457 157.556 184.164 184.164C157.556 191.457 135.757 202.705 121.406 216.591C134.826 170.821 170.821 134.826 216.591 121.406ZM121.406 295.408C135.757 309.294 157.556 320.543 184.164 327.835C191.457 354.443 202.705 376.242 216.591 390.593C194.037 383.941 173.509 371.745 156.882 355.117C140.254 338.49 128.058 317.962 121.406 295.408ZM295.408 390.593C309.294 376.242 320.543 354.443 327.835 327.835C354.443 320.543 376.242 309.294 390.593 295.408C383.929 317.956 371.728 338.477 355.103 355.103C338.477 371.728 317.956 383.929 295.408 390.593Z" fill="#858585"/>
<path d="M472.669 226.597C469.721 226.597 466.851 227.063 464.058 227.916L383.845 88.9778C389.275 83.5475 392.378 76.2554 392.378 68.3426C392.378 52.1293 379.19 38.9414 362.977 38.9414C349.013 38.9414 337.377 48.716 334.352 61.8263H176.562C173.537 48.7935 161.901 38.9414 147.937 38.9414C131.724 38.9414 118.536 52.1293 118.536 68.3426C118.536 76.4105 121.949 84.0905 127.767 89.5984L47.9418 227.916C45.1491 227.063 42.2788 226.597 39.3309 226.597C23.1176 226.597 9.92969 239.785 9.92969 255.998C9.92969 272.212 23.1176 285.4 39.3309 285.4C42.2788 285.4 45.1491 284.934 47.9418 284.081L127.767 422.398C121.949 427.906 118.536 435.431 118.536 443.732C118.536 459.945 131.724 473.133 147.937 473.133C161.901 473.133 173.537 463.358 176.562 450.248H334.352C337.377 463.281 349.013 473.133 362.977 473.133C379.19 473.133 392.378 459.945 392.378 443.732C392.378 435.819 389.198 428.449 383.845 423.097L464.058 284.158C466.851 285.012 469.721 285.477 472.669 285.477C480.36 285.301 487.677 282.121 493.054 276.62C498.43 271.118 501.441 263.73 501.441 256.037C501.441 248.344 498.43 240.957 493.054 235.455C487.677 229.953 480.36 226.774 472.669 226.597ZM362.977 414.253C349.013 414.253 337.377 424.027 334.352 437.138H176.562C173.537 424.105 161.901 414.253 147.937 414.253C144.912 414.253 141.886 414.796 139.016 415.727L59.2679 277.487C65.1636 271.979 68.6545 264.221 68.6545 255.998C68.6545 247.775 65.1636 240.018 59.2679 234.51L139.093 96.1923C141.964 97.1232 144.989 97.6663 148.015 97.6663C161.978 97.6663 173.615 87.8917 176.64 74.859H334.507C336.004 81.3333 339.647 87.1107 344.844 91.2516C350.042 95.3925 356.487 97.6532 363.132 97.6663C366.468 97.6663 369.804 97.0456 372.907 95.882L452.887 234.432C446.992 239.94 443.423 247.698 443.423 255.921C443.423 264.221 446.992 271.979 452.887 277.409L372.752 416.037C369.648 414.874 366.39 414.253 362.977 414.253ZM362.977 52.0517C371.976 52.0517 379.268 59.3438 379.268 68.3426C379.268 73.8505 376.475 78.9705 371.821 81.9184C369.369 83.509 366.535 84.4104 363.615 84.5278C360.695 84.6452 357.798 83.9743 355.227 82.5856C352.656 81.1969 350.506 79.1415 349.003 76.6354C347.5 74.1293 346.7 71.2648 346.686 68.3426C346.686 59.3438 353.978 52.0517 362.977 52.0517ZM147.937 52.0517C156.936 52.0517 164.228 59.3438 164.228 68.3426C164.228 77.2638 156.936 84.556 147.937 84.556C144.989 84.556 142.196 83.7802 139.636 82.2287C137.198 80.8048 135.177 78.7655 133.775 76.3149C132.372 73.8643 131.638 71.0884 131.646 68.265C131.646 59.3438 138.938 52.0517 147.937 52.0517ZM22.9624 255.998C22.9624 247 30.2545 239.707 39.2533 239.707C42.1236 239.707 44.9164 240.483 47.3988 241.957C52.4412 244.827 55.5442 250.258 55.5442 256.076C55.5442 261.894 52.4412 267.247 47.3988 270.195C44.9939 271.514 42.2012 272.289 39.3309 272.289C30.3321 272.289 22.9624 264.997 22.9624 255.998ZM147.937 459.945C143.616 459.945 139.473 458.229 136.418 455.174C133.362 452.118 131.646 447.975 131.646 443.654C131.646 437.836 134.594 432.638 139.636 429.613C142.196 428.061 144.989 427.286 147.937 427.286C156.936 427.286 164.228 434.578 164.228 443.577C164.228 452.575 156.936 459.945 147.937 459.945ZM362.977 459.945C360.44 459.952 357.936 459.366 355.665 458.234C353.394 457.101 351.419 455.455 349.897 453.424C348.376 451.394 347.349 449.036 346.9 446.538C346.451 444.041 346.591 441.473 347.31 439.04C348.029 436.606 349.306 434.374 351.04 432.522C352.774 430.669 354.916 429.247 357.297 428.37C359.678 427.492 362.23 427.182 364.752 427.465C367.274 427.748 369.694 428.617 371.821 430.001C376.475 432.949 379.268 438.069 379.268 443.654C379.345 452.653 371.976 459.945 362.977 459.945ZM472.669 272.289C469.799 272.289 467.006 271.514 464.524 270.04C462.026 268.632 459.952 266.579 458.519 264.095C457.086 261.611 456.347 258.788 456.378 255.921C456.378 250.025 459.404 244.75 464.601 241.802C467.006 240.406 469.799 239.63 472.669 239.63C481.668 239.63 488.96 246.922 488.96 255.921C489.038 264.997 481.668 272.289 472.669 272.289Z" fill="#858585"/>
</svg>
