<svg width="512" height="512" viewBox="0 0 512 512" fill="none" xmlns="http://www.w3.org/2000/svg">
<g clip-path="url(#clip0_629_1895)">
<path fill-rule="evenodd" clip-rule="evenodd" d="M211.005 504C208.005 504 205.005 503 202.005 502C193.005 497 186.005 487 182.005 477C174.005 478 168.005 476 165.005 473C158.005 469 154.005 461 153.005 455C143.005 457 136.005 455 130.005 451C124.005 446 122.005 439 121.005 433C106.005 435 100.005 429 97.0049 424C91.0049 414 94.0049 399 100.005 394C113.005 383 126.005 372 139.005 360C163.005 339 189.005 317 214.005 295C215.005 294 216.005 293 218.005 293L232.005 292C248.005 290 266.005 307 279.005 319L282.005 322C287.005 326 294.005 326 297.005 323C302.005 319 301.005 311 295.005 302C293.005 300 292.005 297 290.005 294C286.005 287 282.005 281 278.005 276C270.005 266 242.005 255 232.005 252C208.005 244 193.005 252 192.005 253L137.005 286C136.005 287 134.005 287 133.005 287L110.005 289C106.005 289 102.005 286 102.005 282C102.005 278 105.005 274 109.005 274L130.005 272L184.005 240C186.005 239 205.005 228 237.005 237C241.005 239 277.005 251 290.005 266C295.005 272 299.005 279 303.005 286C305.005 289 306.005 292 308.005 294C320.005 313 315.005 327 307.005 334C297.005 342 282.005 342 272.005 333L269.005 330C260.005 322 242.005 306 233.005 307L222.005 308C197.005 329 173.005 351 149.005 372L110.005 405C109.005 407 108.005 413 110.005 416C112.005 419 118.005 419 126.005 416C128.005 415 131.005 416 133.005 417C135.005 419 136.005 422 136.005 424C135.005 427 135.005 436 140.005 439C144.005 442 151.005 441 157.005 439C159.005 438 161.005 438 163.005 440C165.005 441 167.005 443 167.005 446C167.005 449 168.005 458 173.005 461C176.005 463 180.005 462 186.005 460C188.005 459 190.005 460 192.005 461C194.005 462 196.005 464 196.005 467C196.005 474 202.005 485 208.005 488C211.005 489 213.005 489 215.005 487L240.005 471L244.005 468C247.005 465 252.005 466 254.005 469C257.005 473 256.005 477 253.005 480L249.005 483L224.005 500C220.005 503 216.005 504 211.005 504ZM367.005 394C365.005 394 362.005 393 361.005 391C358.005 387 359.005 383 362.005 380L400.005 353C403.005 350 408.005 351 410.005 354C413.005 357 412.005 362 409.005 365L371.005 392C370.005 393 368.005 394 367.005 394Z" fill="#858585"/>
<path fill-rule="evenodd" clip-rule="evenodd" d="M106.001 405.998C105.001 405.998 104.001 405.998 103.001 404.998L70.0013 389.998C66.0013 387.998 65.0013 383.998 66.0013 379.998C68.0013 375.998 73.0013 374.998 76.0013 375.998L110.001 391.998C113.001 393.998 115.001 397.998 113.001 401.998C112.001 404.998 109.001 405.998 106.001 405.998ZM332.001 270.998C314.001 270.998 307.001 266.998 298.001 259.998C292.001 255.998 285.001 250.998 267.001 245.998C259.001 243.998 243.001 244.998 239.001 248.998C237.001 251.998 232.001 252.998 229.001 249.998C226.001 247.998 225.001 242.998 228.001 239.998C237.001 227.998 261.001 228.998 271.001 231.998C291.001 236.998 300.001 242.998 307.001 247.998C315.001 253.998 320.001 256.998 348.001 254.998C352.001 253.998 356.001 256.998 356.001 260.998C357.001 265.998 354.001 268.998 349.001 269.998C343.001 269.998 337.001 270.998 332.001 270.998ZM360.001 432.998H356.001C349.001 431.998 343.001 427.998 339.001 422.998C336.001 418.998 337.001 414.998 340.001 411.998C344.001 409.998 348.001 409.998 351.001 413.998C352.001 415.998 355.001 416.998 358.001 417.998C361.001 417.998 364.001 417.998 366.001 415.998C368.001 413.998 370.001 411.998 370.001 408.998C371.001 405.998 370.001 402.998 368.001 400.998L346.001 370.998C344.001 368.998 342.001 366.998 339.001 366.998C336.001 365.998 333.001 366.998 331.001 368.998C329.001 370.998 327.001 372.998 327.001 375.998C326.001 378.998 327.001 381.998 329.001 383.998C331.001 386.998 331.001 391.998 327.001 394.998C324.001 396.998 319.001 395.998 317.001 392.998C313.001 387.998 311.001 380.998 312.001 373.998C313.001 366.998 316.001 360.998 322.001 356.998C327.001 352.998 334.001 350.998 341.001 351.998C348.001 352.998 354.001 356.998 358.001 361.998L380.001 391.998C384.001 396.998 386.001 403.998 385.001 410.998C384.001 417.998 381.001 423.998 375.001 427.998C370.001 430.998 365.001 432.998 360.001 432.998Z" fill="#858585"/>
<path fill-rule="evenodd" clip-rule="evenodd" d="M338.003 465C329.003 465 322.003 461 317.003 455L279.003 405C271.003 393 273.003 377 285.003 369C289.003 365 295.003 363 300.003 363C308.003 363 316.003 367 321.003 374L358.003 424C367.003 435 365.003 452 353.003 460C349.003 464 343.003 465 338.003 465ZM300.003 379C298.003 379 296.003 379 294.003 381C289.003 384 288.003 391 292.003 396L329.003 446C331.003 449 334.003 450 338.003 450C340.003 450 342.003 449 344.003 448C349.003 445 350.003 438 346.003 433L309.003 383C307.003 380 304.003 379 300.003 379Z" fill="#858585"/>
<path fill-rule="evenodd" clip-rule="evenodd" d="M306.001 484.999C305.001 484.999 304.001 484.999 302.001 483.999C295.001 482.999 289.001 479.999 285.001 473.999C283.001 470.999 283.001 465.999 287.001 463.999C290.001 460.999 295.001 461.999 297.001 464.999C299.001 467.999 302.001 468.999 304.001 468.999C307.001 469.999 310.001 468.999 313.001 466.999C317.001 463.999 318.001 456.999 315.001 451.999C312.001 448.999 313.001 443.999 316.001 441.999C320.001 438.999 324.001 439.999 327.001 442.999C335.001 454.999 333.001 470.999 322.001 479.999C317.001 482.999 312.001 484.999 306.001 484.999ZM260.001 434.999C257.001 434.999 255.001 433.999 253.001 431.999C249.001 425.999 248.001 418.999 249.001 411.999C250.001 405.999 253.001 398.999 259.001 394.999C270.001 386.999 287.001 388.999 295.001 400.999C298.001 403.999 297.001 408.999 294.001 410.999C290.001 413.999 286.001 412.999 283.001 409.999C279.001 404.999 273.001 403.999 268.001 406.999C266.001 408.999 264.001 411.999 264.001 414.999C263.001 416.999 264.001 419.999 266.001 422.999C268.001 425.999 267.001 430.999 264.001 432.999C263.001 433.999 261.001 434.999 260.001 434.999Z" fill="#858585"/>
<path fill-rule="evenodd" clip-rule="evenodd" d="M275.004 505C267.004 505 259.004 501 254.004 494L224.004 453C220.004 448 218.004 441 219.004 434C220.004 427 224.004 421 229.004 417C234.004 414 239.004 412 245.004 412C253.004 412 261.004 416 265.004 422L296.004 463C304.004 475 302.004 491 291.004 500C286.004 503 281.004 505 275.004 505ZM245.004 427C242.004 427 240.004 428 238.004 429C236.004 431 234.004 433 234.004 436C233.004 439 234.004 442 236.004 444L266.004 485C268.004 488 272.004 490 275.004 490C277.004 490 280.004 489 282.004 488C286.004 484 287.004 477 284.004 472L253.004 431C251.004 429 248.004 427 245.004 427ZM128.004 431C126.004 431 124.004 430 123.004 429C120.004 426 120.004 421 123.004 418L158.004 383C160.004 380 165.004 380 168.004 383C171.004 386 171.004 391 168.004 394L134.004 428C132.004 430 130.004 431 128.004 431ZM159.004 453C157.004 453 155.004 453 154.004 451C151.004 448 151.004 443 154.004 441L182.004 413C185.004 410 189.004 410 192.004 413C195.004 416 195.004 421 192.004 424L164.004 451C163.004 453 161.004 453 159.004 453ZM188.004 475C186.004 475 184.004 474 183.004 473C180.004 470 180.004 465 183.004 462L199.004 446C202.004 443 207.004 443 210.004 446C213.004 449 213.004 454 210.004 457L194.004 473C192.004 474 190.004 475 188.004 475ZM432.004 377C416.004 377 401.004 368 393.004 354L345.004 270C332.004 248 340.004 220 362.004 208L396.004 188C403.004 184 411.004 182 419.004 182C435.004 182 450.004 191 458.004 205L506.004 288C518.004 310 511.004 338 489.004 351L455.004 370C448.004 374 440.004 377 432.004 377ZM419.004 197C413.004 197 408.004 198 404.004 201L369.004 221C355.004 229 349.004 248 358.004 262L406.004 346C411.004 356 421.004 361 432.004 361C437.004 361 443.004 360 447.004 357L482.004 338C496.004 329 501.004 311 493.004 296L445.004 212C440.004 203 429.004 197 419.004 197ZM49.0037 416C46.0037 416 43.0037 416 40.0037 414L19.0037 407C4.00366 402 -3.99634 385 2.00366 371L46.0037 248C50.0037 236 61.0037 229 73.0037 229C76.0037 229 79.0037 229 82.0037 231L103.004 238C118.004 243 125.004 260 120.004 274L76.0037 397C72.0037 408 61.0037 416 49.0037 416ZM73.0037 244C67.0037 244 62.0037 248 60.0037 253L16.0037 376C13.0037 383 17.0037 390 24.0037 393L45.0037 400C46.0037 401 48.0037 401 49.0037 401C55.0037 401 60.0037 397 62.0037 392L106.004 269C108.004 262 105.004 255 98.0037 252L77.0037 245C76.0037 244 74.0037 244 73.0037 244Z" fill="#858585"/>
<path fill-rule="evenodd" clip-rule="evenodd" d="M443 335C434 335 425 330 421 322C418 317 417 310 418 303C420 297 424 291 430 288C434 285 438 284 443 284C452 284 460 289 465 297C468 303 469 310 468 316C466 323 462 328 456 332C452 334 447 335 443 335ZM443 299C441 299 439 300 438 301C435 302 434 304 433 307C432 310 433 312 434 315C436 318 439 320 443 320C445 320 447 320 448 319C451 317 452 315 453 312C454 310 453 307 452 305C450 301 447 299 443 299ZM256 111C254 111 252 110 251 109L238 96C235 93 235 88 238 85C240 82 245 82 248 85L256 93L283 65C286 63 291 63 294 65C297 68 297 73 294 76L261 109C260 110 258 111 256 111Z" fill="#858585"/>
<path fill-rule="evenodd" clip-rule="evenodd" d="M266 143C235 143 210 118 210 87C210 56 235 31 266 31C296 31 321 56 321 87C321 118 296 143 266 143ZM266 47C243 47 225 65 225 87C225 109 243 128 266 128C288 128 306 109 306 87C306 65 288 47 266 47Z" fill="#858585"/>
<path fill-rule="evenodd" clip-rule="evenodd" d="M225 217C224 217 223 216 222 216C219 215 217 212 217 209V167H202C187 167 175 155 175 140V34C175 19 187 7 202 7H330C344 7 356 19 356 34V140C356 155 344 167 330 167H278L230 214C229 216 227 217 225 217ZM202 22C195 22 190 27 190 34V140C190 147 195 152 202 152H225C229 152 232 155 232 159V191L269 154C270 153 272 152 274 152H330C336 152 341 147 341 140V34C341 27 336 22 330 22H202Z" fill="#858585"/>
</g>
<defs>
<clipPath id="clip0_629_1895">
<rect width="512" height="512" fill="white"/>
</clipPath>
</defs>
</svg>
