<svg width="512" height="512" viewBox="0 0 512 512" fill="none" xmlns="http://www.w3.org/2000/svg">
<g clip-path="url(#clip0_629_1906)">
<path d="M481.315 169.272C481.134 168.236 480.75 167.247 480.185 166.36C479.621 165.472 478.887 164.705 478.026 164.102C477.165 163.499 476.193 163.071 475.167 162.843C474.14 162.616 473.079 162.593 472.043 162.776L432.667 169.712C431.631 169.894 430.641 170.278 429.753 170.843C428.865 171.408 428.098 172.142 427.494 173.004C426.891 173.866 426.463 174.839 426.236 175.866C426.009 176.894 425.987 177.956 426.171 178.992L427.883 188.68L405.483 192.592L392.003 190.528V72C392.003 63.5131 388.632 55.3737 382.631 49.3726C376.63 43.3714 368.49 40 360.003 40H304.003V24C304.003 17.6348 301.475 11.5303 296.974 7.02944C292.473 2.52856 286.369 0 280.003 0L232.003 0C225.638 0 219.534 2.52856 215.033 7.02944C210.532 11.5303 208.003 17.6348 208.003 24V40H152.003C143.517 40 135.377 43.3714 129.376 49.3726C123.375 55.3737 120.003 63.5131 120.003 72V190.552L106.467 192.624L84.1315 188.688L85.8355 178.992C86.0196 177.956 85.9976 176.894 85.7706 175.866C85.5436 174.839 85.1162 173.866 84.5128 173.004C83.9093 172.142 83.1418 171.408 82.2541 170.843C81.3664 170.278 80.3759 169.894 79.3395 169.712L40.0035 162.776C38.9675 162.592 37.9053 162.614 36.8778 162.841C35.8504 163.068 34.8778 163.495 34.0157 164.099C33.1537 164.702 32.4192 165.47 31.8542 166.357C31.2893 167.245 30.905 168.236 30.7235 169.272L0.123456 342.576C-0.0606884 343.612 -0.0386452 344.674 0.188323 345.702C0.415291 346.729 0.842725 347.702 1.44614 348.564C2.04956 349.426 2.81711 350.16 3.70483 350.725C4.59255 351.29 5.583 351.674 6.61946 351.856L46.0035 358.792C47.0389 358.975 48.1002 358.952 49.1267 358.725C50.1533 358.497 51.1249 358.069 51.9861 357.466C52.8472 356.863 53.581 356.096 54.1454 355.208C54.7098 354.321 55.0938 353.332 55.2755 352.296L56.0035 348L62.6115 349.168C68.702 362.583 77.5628 374.558 88.6115 384.304C88.188 391.527 90.2445 398.679 94.4404 404.574C98.6362 410.469 104.72 414.754 111.683 416.72C107.941 422.936 106.435 430.245 107.416 437.434C108.398 444.623 111.807 451.261 117.078 456.246C122.35 461.232 129.167 464.266 136.399 464.846C143.632 465.425 150.845 463.515 156.843 459.432C157.639 464.744 159.773 469.767 163.046 474.026C166.318 478.286 170.621 481.642 175.549 483.78C180.477 485.917 185.868 486.765 191.214 486.244C196.56 485.723 201.685 483.849 206.107 480.8C206.856 485.7 208.745 490.355 211.622 494.391C214.499 498.427 218.284 501.731 222.671 504.036C227.059 506.342 231.927 507.585 236.883 507.664C241.839 507.744 246.744 506.659 251.203 504.496V504.544L254.403 506.672C257.908 508.992 261.835 510.599 265.961 511.401C270.087 512.204 274.33 512.185 278.449 511.347C282.567 510.509 286.481 508.868 289.965 506.518C293.449 504.167 296.436 501.153 298.755 497.648C302.258 492.316 304.05 486.042 303.891 479.664C306.487 480.371 309.162 480.742 311.851 480.768C316.079 480.781 320.267 479.955 324.172 478.337C328.078 476.719 331.624 474.343 334.604 471.344C337.584 468.346 339.94 464.786 341.534 460.871C343.128 456.956 343.93 452.763 343.891 448.536C346.438 449.206 349.058 449.555 351.691 449.576C355.913 449.576 360.094 448.741 363.991 447.118C367.889 445.495 371.427 443.118 374.401 440.122C377.376 437.125 379.728 433.57 381.323 429.661C382.917 425.752 383.722 421.566 383.691 417.344C388.568 418.615 393.678 418.706 398.597 417.609C403.516 416.512 408.103 414.26 411.978 411.037C415.853 407.815 418.905 403.716 420.881 399.08C422.856 394.443 423.699 389.403 423.339 384.376C434.398 374.614 443.26 362.616 449.339 349.176L456.003 348.04L456.755 352.296C456.937 353.332 457.321 354.323 457.886 355.211C458.451 356.098 459.186 356.866 460.048 357.469C460.91 358.073 461.882 358.5 462.91 358.727C463.937 358.954 464.999 358.976 466.035 358.792L505.411 351.856C506.448 351.674 507.438 351.29 508.326 350.725C509.214 350.16 509.981 349.426 510.585 348.564C511.188 347.702 511.616 346.729 511.843 345.702C512.07 344.674 512.092 343.612 511.907 342.576L481.315 169.272ZM224.003 24C224.003 21.8783 224.846 19.8434 226.347 18.3431C227.847 16.8429 229.882 16 232.003 16H280.003C282.125 16 284.16 16.8429 285.66 18.3431C287.161 19.8434 288.003 21.8783 288.003 24V40H224.003V24ZM136.003 72C136.003 67.7565 137.689 63.6869 140.69 60.6863C143.69 57.6857 147.76 56 152.003 56H360.003C364.247 56 368.317 57.6857 371.317 60.6863C374.318 63.6869 376.003 67.7565 376.003 72V96C376.003 102.365 373.475 108.47 368.974 112.971C364.473 117.471 358.369 120 352.003 120V112C352.003 109.878 351.161 107.843 349.66 106.343C348.16 104.843 346.125 104 344.003 104H312.003C309.882 104 307.847 104.843 306.347 106.343C304.846 107.843 304.003 109.878 304.003 112V120H208.003V112C208.003 109.878 207.161 107.843 205.66 106.343C204.16 104.843 202.125 104 200.003 104H168.003C165.882 104 163.847 104.843 162.347 106.343C160.846 107.843 160.003 109.878 160.003 112V120C153.638 120 147.534 117.471 143.033 112.971C138.532 108.47 136.003 102.365 136.003 96V72ZM336.003 120V136H320.003V120H336.003ZM192.003 120V136H176.003V120H192.003ZM136.003 127.792C142.887 133.086 151.32 135.971 160.003 136V144C160.003 146.122 160.846 148.157 162.347 149.657C163.847 151.157 165.882 152 168.003 152H200.003C202.125 152 204.16 151.157 205.66 149.657C207.161 148.157 208.003 146.122 208.003 144V136H304.003V144C304.003 146.122 304.846 148.157 306.347 149.657C307.847 151.157 309.882 152 312.003 152H344.003C346.125 152 348.16 151.157 349.66 149.657C351.161 148.157 352.003 146.122 352.003 144V136C360.687 135.971 369.12 133.086 376.003 127.792V188.08L315.203 178.784C301.983 176.793 288.468 178.507 276.163 183.736L256.003 192.328L235.899 183.76C223.575 178.508 210.03 176.799 196.787 178.824L136.003 188.112V127.792ZM40.9075 341.656L17.2755 337.48L45.0515 179.88L68.6915 184.048L40.9075 341.656ZM108.243 396.24C105.517 392.99 104.193 388.791 104.562 384.565C104.931 380.339 106.963 376.432 110.211 373.704L140.859 348C142.469 346.649 144.329 345.628 146.333 344.996C148.337 344.364 150.446 344.132 152.539 344.315C154.632 344.498 156.669 345.091 158.533 346.061C160.398 347.031 162.052 348.359 163.403 349.968C164.754 351.577 165.775 353.437 166.408 355.441C167.04 357.445 167.271 359.554 167.088 361.648C166.906 363.741 166.312 365.778 165.342 367.642C164.373 369.506 163.045 371.161 161.435 372.512L130.787 398.232C129.177 399.582 127.316 400.601 125.311 401.232C123.306 401.862 121.196 402.091 119.103 401.906C117.009 401.721 114.973 401.126 113.109 400.153C111.246 399.181 109.593 397.851 108.243 396.24ZM149.379 445.272C147.769 446.623 145.909 447.644 143.905 448.276C141.9 448.908 139.791 449.139 137.697 448.956C135.603 448.773 133.566 448.179 131.702 447.209C129.837 446.238 128.182 444.91 126.831 443.3C125.48 441.69 124.46 439.83 123.828 437.825C123.196 435.821 122.964 433.711 123.148 431.618C123.331 429.524 123.924 427.487 124.895 425.622C125.865 423.758 127.193 422.103 128.803 420.752L165.603 389.896C168.871 387.338 173.005 386.15 177.132 386.583C181.26 387.015 185.057 389.034 187.724 392.214C190.391 395.393 191.718 399.484 191.425 403.624C191.133 407.763 189.243 411.627 186.155 414.4L149.379 445.272ZM198.619 466.616C197.009 467.967 195.149 468.987 193.145 469.618C191.141 470.25 189.032 470.481 186.938 470.297C184.845 470.114 182.808 469.52 180.944 468.549C179.08 467.578 177.426 466.25 176.075 464.64C174.725 463.03 173.705 461.17 173.073 459.165C172.442 457.161 172.211 455.052 172.394 452.959C172.578 450.865 173.172 448.829 174.143 446.965C175.113 445.101 176.441 443.447 178.051 442.096L202.571 421.528C205.828 418.855 210.008 417.574 214.204 417.964C218.399 418.354 222.271 420.383 224.98 423.61C227.688 426.838 229.014 431.004 228.67 435.203C228.325 439.403 226.338 443.297 223.139 446.04L198.619 466.616ZM247.851 488C244.596 490.689 240.408 491.982 236.203 491.597C231.998 491.212 228.115 489.18 225.402 485.944C222.688 482.708 221.364 478.531 221.718 474.323C222.072 470.115 224.076 466.217 227.291 463.48L251.803 442.912C253.413 441.561 255.273 440.54 257.277 439.907C259.281 439.275 261.39 439.044 263.483 439.226C265.577 439.409 267.614 440.002 269.478 440.972C271.342 441.943 272.997 443.27 274.347 444.88C275.698 446.49 276.719 448.35 277.35 450.354C277.982 452.359 278.213 454.468 278.029 456.561C277.846 458.655 277.252 460.692 276.281 462.555C275.31 464.419 273.982 466.074 272.371 467.424L247.851 488ZM285.395 488.848C283.275 492.08 280.046 494.426 276.317 495.442C272.587 496.459 268.615 496.077 265.147 494.368L282.659 479.68C284.316 478.295 285.828 476.746 287.171 475.056C287.929 477.333 288.162 479.751 287.855 482.131C287.547 484.511 286.707 486.79 285.395 488.8V488.848ZM404.907 395.2C403.748 396.953 402.254 398.46 400.512 399.635C398.77 400.81 396.813 401.631 394.754 402.05C392.695 402.469 390.573 402.478 388.51 402.077C386.447 401.676 384.484 400.872 382.731 399.712L316.003 355.576C315.129 354.942 314.135 354.492 313.081 354.253C312.028 354.013 310.937 353.99 309.874 354.184C308.811 354.377 307.799 354.784 306.898 355.38C305.996 355.976 305.225 356.748 304.63 357.65C304.036 358.551 303.63 359.564 303.437 360.627C303.245 361.69 303.269 362.781 303.51 363.834C303.75 364.888 304.201 365.881 304.836 366.755C305.471 367.629 306.276 368.366 307.203 368.92L360.595 404.256C364.132 406.602 366.593 410.256 367.435 414.416C368.278 418.575 367.433 422.899 365.087 426.436C362.742 429.973 359.087 432.433 354.928 433.276C350.768 434.118 346.444 433.274 342.907 430.928L289.523 395.6C288.634 395.004 287.632 394.596 286.579 394.4C284.763 394.058 282.884 394.355 281.261 395.242C279.639 396.128 278.374 397.549 277.681 399.263C276.988 400.977 276.91 402.878 277.46 404.643C278.011 406.408 279.155 407.928 280.699 408.944L320.699 435.448C324.215 437.802 326.655 441.452 327.486 445.6C328.317 449.748 327.471 454.057 325.134 457.583C322.796 461.109 319.157 463.566 315.013 464.417C310.869 465.267 306.556 464.441 303.019 462.12L293.899 456.088C294.12 450.218 292.706 444.402 289.816 439.289C286.926 434.175 282.672 429.965 277.53 427.126C272.387 424.288 266.557 422.933 260.69 423.213C254.823 423.493 249.148 425.397 244.299 428.712C243.679 424.553 242.233 420.559 240.045 416.968C237.858 413.376 234.974 410.258 231.564 407.798C228.153 405.338 224.285 403.585 220.186 402.643C216.088 401.701 211.842 401.588 207.699 402.312C207.839 394.74 205.235 387.373 200.366 381.572C195.497 375.77 188.693 371.927 181.211 370.752C183.553 364.147 183.654 356.954 181.5 350.286C179.345 343.617 175.055 337.843 169.292 333.856C163.529 329.869 156.614 327.89 149.614 328.226C142.614 328.561 135.919 331.192 130.563 335.712L99.9155 361.432C97.7728 363.277 95.8891 365.403 94.3155 367.752C86.309 359.498 79.9981 349.754 75.7395 339.072C75.2351 337.802 74.4136 336.682 73.3535 335.819C72.2933 334.956 71.0298 334.38 69.6835 334.144L58.7955 332.224L81.3315 204.424L104.963 208.592C105.824 208.74 106.703 208.74 107.563 208.592L199.203 194.64C209.497 193.061 220.026 194.391 229.603 198.48L235.555 201.016L203.611 214.616C196.434 217.685 190.315 222.792 186.011 229.304L155.907 274.688C152.425 280.018 151.188 286.509 152.468 292.746C153.747 298.984 157.439 304.463 162.739 307.992C171.591 313.824 182.393 315.909 192.779 313.79C203.166 311.672 212.288 305.521 218.147 296.688L231.883 276L261.091 270.024C264.24 279.73 269.587 288.577 276.717 295.876C283.847 303.176 292.566 308.729 302.195 312.104C305.608 313.321 309.109 314.276 312.667 314.96L400.387 373.04C403.924 375.381 406.386 379.029 407.234 383.185C408.081 387.34 407.245 391.661 404.907 395.2ZM442.307 334.16C440.956 334.395 439.687 334.975 438.624 335.842C437.56 336.709 436.738 337.835 436.235 339.112C431.975 349.843 425.641 359.63 417.595 367.912C415.343 364.671 412.502 361.881 409.219 359.688L341.219 314.704C350.056 312.938 358.473 309.5 366.019 304.576L378.587 296.336C380.361 295.169 381.599 293.345 382.028 291.266C382.457 289.186 382.042 287.022 380.875 285.248C379.709 283.474 377.885 282.237 375.805 281.808C373.726 281.379 371.561 281.793 369.787 282.96L357.259 291.2C350.014 295.959 341.759 298.965 333.15 299.98C324.541 300.995 315.813 299.991 307.659 297.048C300.156 294.434 293.376 290.082 287.875 284.348C282.373 278.615 278.306 271.661 276.003 264.056C275.504 262.413 275.082 260.747 274.739 259.064C274.306 256.994 273.071 255.179 271.303 254.017C269.536 252.855 267.38 252.441 265.307 252.864L225.459 261.024C223.386 261.448 221.565 262.676 220.395 264.44L204.883 287.872C201.366 293.168 195.894 296.856 189.665 298.129C183.436 299.402 176.957 298.156 171.643 294.664C169.871 293.483 168.635 291.651 168.203 289.565C167.772 287.479 168.18 285.307 169.339 283.52L199.427 238.144C202.008 234.247 205.67 231.189 209.963 229.344L282.451 198.464C292.034 194.396 302.557 193.064 312.851 194.616L404.451 208.616C405.308 208.748 406.179 208.748 407.035 208.616L430.715 204.472L453.203 332.272L442.307 334.16ZM471.107 341.64L443.323 184.04L466.963 179.872L494.739 337.472L471.107 341.64Z" fill="#858585"/>
</g>
<defs>
<clipPath id="clip0_629_1906">
<rect width="512" height="512" fill="white"/>
</clipPath>
</defs>
</svg>
