<svg width="110" height="110" viewBox="0 0 110 110" fill="none" xmlns="http://www.w3.org/2000/svg">
<path d="M105.9 98.068C103.505 95.1909 100.522 92.8608 97.1499 91.2346C99.5459 87.7856 100.826 83.6843 100.817 79.4846C100.817 79.0426 100.641 78.6187 100.328 78.3061C100.016 77.9936 99.592 77.818 99.1499 77.818C94.9902 77.819 90.9263 79.0671 87.4833 81.4013C85.8066 77.1409 82.7876 73.5427 78.8833 71.1513C78.0328 65.3715 75.8572 59.8667 72.5265 55.0672C69.1958 50.2677 64.8001 46.3036 59.6833 43.4846C57.6041 42.3904 55.8692 40.7408 54.6717 38.7193C53.4741 36.6979 52.8608 34.3839 52.8999 32.0346V21.868C54.0153 21.5662 54.9918 20.8875 55.6633 19.9472C56.3348 19.0068 56.6598 17.8629 56.5832 16.71C56.5066 15.5571 56.0331 14.4662 55.2431 13.623C54.4531 12.7798 53.3954 12.2362 52.2499 12.0846V6.36797C52.2499 5.12433 51.757 3.93139 50.8792 3.05045C50.0014 2.1695 48.8102 1.67238 47.5666 1.66797H35.4666C34.2214 1.67236 33.0285 2.16895 32.148 3.04942C31.2676 3.92989 30.771 5.1228 30.7666 6.36797V12.0846C29.6294 12.2445 28.5819 12.791 27.8002 13.6322C27.0184 14.4734 26.5501 15.5581 26.4738 16.7039C26.3975 17.8497 26.718 18.9869 27.3814 19.9243C28.0448 20.8617 29.0106 21.5421 30.1166 21.8513V32.0346C30.1519 34.3831 29.537 36.6956 28.3398 38.7164C27.1427 40.7371 25.4099 42.3874 23.3333 43.4846C17.7157 46.5694 12.9742 51.0312 9.55403 56.4511C6.13387 61.871 4.14724 68.0712 3.78067 74.4695C3.4141 80.8678 4.67962 87.2543 7.4584 93.0294C10.2372 98.8044 14.4381 103.779 19.6666 107.485C20.4644 108.038 21.4123 108.335 22.3833 108.335H60.6333C61.0807 108.33 61.5247 108.257 61.9499 108.118C62.6863 108.258 63.4338 108.33 64.1832 108.335C70.2666 108.335 75.3499 103.951 77.6499 101.668C79.9999 103.951 84.9999 108.335 91.1333 108.335C99.2833 108.335 105.633 100.468 105.9 100.135C106.132 99.8404 106.259 99.4763 106.259 99.1013C106.259 98.7263 106.132 98.3622 105.9 98.068ZM93.0999 91.0346C92.7999 91.368 92.4833 91.6846 92.1666 92.0013L91.7166 92.418C91.4999 92.618 91.2833 92.818 91.0499 93.0013L90.4333 93.4846L89.8333 93.9013L89.1166 94.368L88.5333 94.7013L87.7666 95.118L87.1499 95.4013L86.3499 95.7513L85.7166 95.968L84.8666 96.2513L84.2666 96.4013L83.3333 96.668H83.1499C82.6999 96.668 82.2666 96.818 81.7999 96.8513V96.668C81.7999 96.5346 81.7999 96.4013 81.7999 96.2513C81.7999 95.8402 81.8666 95.4235 81.9999 95.0013C81.9999 94.7846 82.1166 94.568 82.1666 94.3513C82.2166 94.1346 82.3499 93.6346 82.4499 93.2846C82.5499 92.9346 82.6166 92.8513 82.6833 92.618C82.7499 92.3846 82.9333 91.968 83.0833 91.6346C83.1694 91.4118 83.2696 91.1947 83.3833 90.9846C83.5333 90.668 83.6999 90.368 83.8666 90.0513L84.2166 89.4346L84.8166 88.5346L85.2166 87.968C85.4666 87.6513 85.7166 87.3513 85.9833 87.068L86.3666 86.618C86.7666 86.1846 87.1999 85.768 87.6499 85.368C90.3626 83.0138 93.7414 81.5632 97.3166 81.218C96.9698 84.85 95.4954 88.2826 93.0999 91.0346ZM71.9666 96.668L71.1833 96.4846L70.4332 96.3013L69.6833 96.0513L68.9499 95.7846L68.2166 95.468L67.5333 95.1513C67.2833 95.0346 67.0499 94.9013 66.8166 94.768L66.1666 94.4013L65.4999 93.968L64.8499 93.5013L64.2833 93.068L63.5499 92.4346L63.1666 92.068C62.7999 91.718 62.4666 91.368 62.1333 90.9846C59.7527 88.2753 58.2784 84.8897 57.9166 81.3013C61.4918 81.6466 64.8705 83.0971 67.5833 85.4513C68.0333 85.8513 68.4666 86.268 68.8666 86.7013L69.2499 87.1513C69.5166 87.4513 69.7666 87.7346 69.9999 88.0513C70.2333 88.368 70.2833 88.4346 70.4166 88.618C70.5499 88.8013 70.8166 89.2013 70.9999 89.518C71.1833 89.8346 71.2499 89.9346 71.3666 90.1346L71.8499 91.0513L72.1499 91.7346C72.2949 92.0498 72.4228 92.3725 72.5333 92.7013C72.5333 92.918 72.6999 93.1513 72.7666 93.3846C72.8863 93.7287 72.9865 94.0793 73.0666 94.4346C73.0666 94.6513 73.1833 94.868 73.2333 95.0846C73.2833 95.3013 73.3666 95.918 73.4333 96.3346V96.7846V96.868L72.5499 96.668H71.9666ZM49.4166 98.118C49.3603 98.2032 49.3102 98.2923 49.2666 98.3846H24.2666C21.0024 95.7795 18.3624 92.4772 16.5398 88.7195C14.7172 84.9619 13.7583 80.8442 13.7333 76.668C13.7239 73.302 14.3341 69.9631 15.5333 66.818H67.5166C68.7158 69.9631 69.3259 73.302 69.3166 76.668C69.3166 77.2846 69.3166 77.9013 69.2333 78.518C68.6881 79.4588 68.2145 80.4394 67.8166 81.4513C64.3735 79.1171 60.3096 77.869 56.1499 77.868C55.7079 77.868 55.284 78.0436 54.9714 78.3561C54.6588 78.6687 54.4832 79.0926 54.4832 79.5346C54.4756 83.7315 55.749 87.8308 58.1333 91.2846C54.7792 92.9015 51.8078 95.2139 49.4166 98.068V98.118ZM84.7499 83.668C84.5859 83.8265 84.4302 83.9934 84.2833 84.168C84.0833 84.3513 83.8999 84.5513 83.7166 84.7513C83.5333 84.9513 83.1166 85.4513 82.8333 85.818L82.3999 86.368C82.0268 86.8707 81.6819 87.3937 81.3666 87.9346L81.2666 88.0846C80.9171 88.6725 80.6 89.2789 80.3166 89.9013L80.0666 90.4846C79.8833 90.918 79.6999 91.368 79.5499 91.818C79.3999 92.268 79.3833 92.3013 79.3166 92.5513C79.2499 92.8013 79.0666 93.3846 78.9666 93.818C78.8666 94.2513 78.8499 94.3346 78.7999 94.5846C78.7499 94.8346 78.6499 95.3513 78.5999 95.7513C78.2499 96.068 77.9333 96.3846 77.6499 96.668C77.3833 96.3846 77.0666 96.0846 76.7166 95.7513C76.7166 95.368 76.5999 94.9846 76.5166 94.5846C76.4333 94.1846 76.4166 94.068 76.3499 93.818C76.2833 93.568 76.1333 92.968 75.9999 92.5513C75.8666 92.1346 75.8499 92.0513 75.7666 91.818C75.6833 91.5846 75.4333 90.9346 75.2499 90.4846L74.9999 89.8513C74.7165 89.2289 74.3994 88.6225 74.0499 88.0346L73.9333 87.8513C73.6166 87.3346 73.2666 86.818 72.8999 86.318C72.7666 86.118 72.6166 85.9513 72.4833 85.768C72.3499 85.5846 71.8999 85.0513 71.5833 84.7013C71.2666 84.3513 71.2333 84.318 71.0333 84.118C70.8864 83.9434 70.7306 83.7765 70.5666 83.618C71.7863 79.786 74.2875 76.4904 77.6499 74.2846C81.0167 76.4896 83.5234 79.7848 84.7499 83.618V83.668ZM34.0999 6.36797C34.1084 6.00817 34.2551 5.66545 34.5096 5.41096C34.7641 5.15648 35.1068 5.00977 35.4666 5.0013H47.5666C47.929 5.0013 48.2767 5.14529 48.533 5.40159C48.7893 5.65789 48.9333 6.00551 48.9333 6.36797V12.0513H34.0999V6.36797ZM29.5666 17.018C29.5666 16.5759 29.7422 16.152 30.0547 15.8395C30.3673 15.5269 30.7912 15.3513 31.2333 15.3513H51.8666C52.3086 15.3513 52.7325 15.5269 53.0451 15.8395C53.3577 16.152 53.5333 16.5759 53.5333 17.018C53.5333 17.46 53.3577 17.8839 53.0451 18.1965C52.7325 18.509 52.3086 18.6846 51.8666 18.6846H31.1832C30.7499 18.6716 30.3388 18.4903 30.0369 18.1791C29.7351 17.868 29.5664 17.4515 29.5666 17.018ZM22.3999 105.001C22.1181 105.009 21.842 104.921 21.6166 104.751C16.8462 101.377 13.0125 96.8448 10.476 91.5809C7.93954 86.317 6.78361 80.4945 7.11696 74.6609C7.45031 68.8272 9.26198 63.1743 12.3816 58.2336C15.5012 53.2929 19.8262 49.2269 24.9499 46.418C27.5531 45.0349 29.7241 42.9602 31.2239 40.4224C32.7236 37.8846 33.4939 34.9821 33.4499 32.0346V22.0346H49.5833V32.0346C49.5371 34.9846 50.3083 37.8897 51.8115 40.4284C53.3146 42.967 55.4911 45.0401 58.0999 46.418C62.7715 48.9879 66.7842 52.6051 69.8233 56.986C72.8625 61.3669 74.8454 66.3922 75.6166 71.668C74.5089 72.4165 73.4763 73.2705 72.5333 74.218C72.282 70.8552 71.4826 67.5561 70.1666 64.4513C70.039 64.1501 69.8256 63.893 69.5529 63.7122C69.2802 63.5314 68.9604 63.4349 68.6333 63.4346H14.4166C14.0894 63.4349 13.7696 63.5314 13.4969 63.7122C13.2243 63.893 13.0108 64.1501 12.8833 64.4513C11.2278 68.3105 10.3825 72.4687 10.3999 76.668C10.4127 81.4415 11.5172 86.1489 13.6289 90.43C15.7405 94.7111 18.8034 98.4525 22.5833 101.368C22.8742 101.594 23.2317 101.717 23.5999 101.718H50.7999C52.0037 102.95 53.3206 104.066 54.7333 105.051L22.3999 105.001ZM64.1832 105.001C59.1832 105.001 54.8166 101.035 52.9499 99.1013C55.0314 96.8768 57.5586 95.1163 60.3666 93.9346C60.3941 93.9405 60.4224 93.9405 60.4499 93.9346L61.1999 94.6513C61.4499 94.8846 61.6999 95.118 61.9499 95.318L62.5666 95.8013C62.8833 96.0513 63.1999 96.3013 63.5499 96.5346L64.1166 96.9013C64.4833 97.1346 64.8499 97.368 65.2333 97.5846L65.8499 97.9013C66.2332 98.0846 66.6166 98.2846 66.9999 98.4513L67.6833 98.7346C68.0833 98.8846 68.4666 99.0346 68.8499 99.1513L69.5999 99.368C69.9999 99.4846 70.3999 99.6013 70.7999 99.6846L71.5499 99.8346L72.8166 100.018H73.5499H74.2499C72.0333 102.285 68.3332 105.001 64.1832 105.001ZM91.1333 105.001C87.0166 105.001 83.2833 102.285 81.1333 100.251H81.8333H82.5666L83.8499 100.068L84.5833 99.918C84.9999 99.918 85.4166 99.718 85.8333 99.6013L86.5166 99.4013C86.9333 99.268 87.3499 99.1013 87.7499 98.9513L88.3666 98.7013C88.7999 98.518 89.2166 98.3013 89.6166 98.1013L90.1499 97.8346C90.5666 97.6013 90.9666 97.3513 91.3666 97.0846C91.5166 96.9846 91.6833 96.9013 91.8333 96.7846C91.9833 96.668 92.5666 96.2513 92.9166 95.968L93.4333 95.5846L94.2666 94.818L94.9333 94.1846L95.0333 94.0846C97.8412 95.2663 100.368 97.0268 102.45 99.2513C100.517 101.035 96.1166 105.001 91.1333 105.001Z" fill="#0E0E0E"/>
</svg>
