<?xml version="1.0" standalone="no"?>
<!DOCTYPE svg PUBLIC "-//W3C//DTD SVG 20010904//EN"
 "http://www.w3.org/TR/2001/REC-SVG-20010904/DTD/svg10.dtd">
<svg version="1.0" xmlns="http://www.w3.org/2000/svg"
 width="97.000000pt" height="97.000000pt" viewBox="0 0 97.000000 97.000000"
 preserveAspectRatio="xMidYMid meet">

<g transform="translate(0.000000,97.000000) scale(0.100000,-0.100000)"
fill="#000000" stroke="none">
<path d="M221 956 c-35 -20 -50 -54 -51 -118 l0 -58 -33 0 c-42 0 -57 -15 -57
-60 0 -40 14 -60 42 -60 13 0 18 -8 18 -30 0 -27 -3 -30 -33 -30 -25 0 -42 -9
-70 -38 l-37 -38 0 -237 0 -238 25 -24 24 -25 217 0 216 0 28 30 c26 28 33 30
102 30 139 0 244 45 302 128 30 44 56 119 56 164 l0 28 -220 0 -220 0 0 73 c0
71 -1 74 -38 110 -28 27 -46 37 -70 37 -29 0 -32 3 -32 30 0 22 5 30 18 30 28
0 42 20 42 60 0 45 -15 60 -57 60 l-33 0 0 66 c0 59 -3 68 -29 95 -32 32 -70
37 -110 15z m88 -42 c15 -20 21 -41 21 -80 l0 -54 -65 0 -65 0 0 55 c0 46 4
60 25 80 31 32 58 32 84 -1z m111 -194 l0 -30 -155 0 -155 0 0 30 0 30 155 0
155 0 0 -30z m-60 -90 l0 -30 -95 0 -95 0 0 30 0 30 95 0 95 0 0 -30z m100
-85 c11 -13 -12 -15 -195 -15 -183 0 -206 2 -195 15 10 12 45 15 195 15 150 0
185 -3 195 -15z m40 -264 c0 -186 -2 -222 -16 -235 -24 -24 -409 -24 -436 1
-16 15 -18 36 -18 235 l0 218 235 0 235 0 0 -219z m430 23 c-10 -45 -12 -47
-44 -34 -48 18 -146 12 -208 -14 -56 -23 -59 -23 -103 -7 -42 15 -45 18 -45
53 l0 38 204 0 204 0 -8 -36z m-54 -64 c25 -10 26 -12 11 -27 -8 -9 -38 -18
-65 -21 -55 -5 -155 15 -146 29 15 25 150 38 200 19z m-225 -51 c52 -17 108
-29 140 -29 l54 0 -24 -19 c-39 -30 -91 -41 -195 -41 l-96 0 0 66 c0 59 2 65
18 59 9 -4 56 -20 103 -36z"/>
<path d="M97 432 l-38 -38 3 -165 3 -164 164 -3 165 -3 38 38 38 37 0 168 0
168 -168 0 -168 0 -37 -38z m343 -7 c0 -13 -25 -15 -161 -15 -142 0 -160 2
-149 15 18 22 310 22 310 0z m-2 -157 l3 -108 -176 0 -175 0 0 103 c0 57 3
107 7 111 4 3 81 5 172 4 l166 -3 3 -107z m-30 -150 c-5 -15 -318 -24 -318
-10 0 19 20 22 168 22 118 0 153 -3 150 -12z"/>
<path d="M330 339 c-14 -6 -37 -22 -52 -36 -25 -24 -28 -24 -49 -9 -13 9 -43
16 -67 16 -40 0 -43 -2 -37 -22 19 -68 56 -98 120 -98 24 0 35 4 35 15 0 9 9
15 23 15 37 0 84 36 97 74 6 20 9 40 5 46 -8 12 -42 12 -75 -1z m38 -41 c-7
-20 -55 -50 -74 -46 -17 3 -16 6 8 31 27 27 73 38 66 15z m-140 -45 c24 -25
25 -28 8 -31 -19 -4 -67 26 -74 46 -7 23 39 12 66 -15z"/>
<path d="M714 962 c-6 -4 -45 -59 -85 -122 l-74 -115 0 -71 c0 -62 3 -75 29
-108 109 -144 335 -66 336 115 0 40 -10 62 -67 158 -93 151 -106 165 -139 143z
m53 -64 c105 -167 123 -202 123 -243 0 -111 -121 -185 -222 -136 -97 46 -113
146 -43 256 21 33 53 84 71 113 19 28 36 52 39 52 2 0 17 -19 32 -42z"/>
<path d="M808 734 c-11 -10 3 -34 19 -34 8 0 13 7 11 17 -3 18 -20 27 -30 17z"/>
<path d="M830 655 c0 -34 -30 -74 -65 -85 -19 -6 -35 -18 -35 -26 0 -33 83 3
110 48 24 39 26 78 5 78 -8 0 -15 -7 -15 -15z"/>
</g>
</svg>
