<?xml version="1.0" standalone="no"?>
<!DOCTYPE svg PUBLIC "-//W3C//DTD SVG 20010904//EN"
 "http://www.w3.org/TR/2001/REC-SVG-20010904/DTD/svg10.dtd">
<svg version="1.0" xmlns="http://www.w3.org/2000/svg"
 width="50.000000pt" height="50.000000pt" viewBox="0 0 50.000000 50.000000"
 preserveAspectRatio="xMidYMid meet">

<g transform="translate(0.000000,50.000000) scale(0.100000,-0.100000)"
fill="#000000" stroke="none">
<path d="M303 489 c-35 -10 -73 -52 -73 -80 0 -16 8 -19 55 -19 46 0 60 5 85
28 16 15 31 38 32 52 3 22 -1 25 -32 27 -19 1 -49 -3 -67 -8z m22 -24 c-34
-16 -65 -39 -65 -49 0 -3 17 5 38 18 41 28 92 43 92 29 0 -23 -51 -56 -94 -60
-41 -5 -46 -4 -46 15 0 27 45 62 79 62 l26 -1 -30 -14z"/>
<path d="M30 394 c-11 -12 -11 -18 1 -30 13 -12 18 -12 34 0 16 12 17 16 6 30
-17 20 -25 20 -41 0z m30 -8 c0 -3 -4 -8 -10 -11 -5 -3 -10 -1 -10 4 0 6 5 11
10 11 6 0 10 -2 10 -4z"/>
<path d="M131 397 c-6 -7 -6 -18 -1 -26 7 -12 10 -12 23 0 11 12 12 17 1 26
-9 9 -15 9 -23 0z"/>
<path d="M210 346 c-6 -8 -10 -25 -8 -38 4 -28 39 -36 58 -14 10 13 9 20 -4
41 -19 29 -29 31 -46 11z m36 -43 c-3 -3 -13 -3 -22 1 -13 5 -14 9 -3 22 11
14 13 14 22 -1 5 -9 6 -19 3 -22z"/>
<path d="M324 345 c-8 -19 12 -36 33 -28 19 7 12 37 -10 41 -9 2 -20 -4 -23
-13z"/>
<path d="M75 290 c-9 -15 14 -40 31 -33 22 8 18 43 -5 43 -11 0 -23 -5 -26
-10z"/>
<path d="M167 254 c-11 -11 -8 -54 3 -54 17 0 11 -28 -15 -80 -28 -55 -32 -92
-11 -109 9 -8 43 -11 91 -9 65 3 80 6 91 23 12 18 10 28 -16 84 -32 66 -37 91
-19 91 6 0 9 12 7 28 -3 26 -6 27 -63 30 -34 2 -64 0 -68 -4z m113 -24 c0 -5
-22 -10 -50 -10 -27 0 -50 5 -50 10 0 6 23 10 50 10 28 0 50 -4 50 -10z m-20
-50 c0 -11 12 -44 27 -74 37 -76 30 -86 -57 -86 -87 0 -94 10 -57 86 15 30 27
63 27 74 0 16 7 20 30 20 23 0 30 -4 30 -20z"/>
<path d="M365 250 c-9 -15 4 -30 20 -23 8 3 15 9 15 13 0 12 -29 20 -35 10z"/>
</g>
</svg>
