<svg width="111" height="110" viewBox="0 0 111 110" fill="none" xmlns="http://www.w3.org/2000/svg">
<g clip-path="url(#clip0_323_1952)">
<path d="M86.7696 5.06843C83.6282 5.75352 69.5433 9.25046 60.1773 18.5367C60.0617 18.6534 59.9243 18.7462 59.7728 18.8096C59.6208 18.8732 59.4578 18.906 59.2931 18.9062C59.1284 18.9063 58.9653 18.8738 58.8132 18.8106C58.6612 18.7473 58.5232 18.6545 58.4072 18.5376C58.2912 18.4206 58.1996 18.2819 58.1376 18.1293C58.0756 17.9767 58.0444 17.8133 58.046 17.6486C58.0475 17.4839 58.0817 17.3212 58.1465 17.1698C58.2112 17.0188 58.3051 16.882 58.4228 16.7675C58.4231 16.7672 58.4234 16.7669 58.4237 16.7666L58.5979 16.9459C66.0763 9.5313 76.1207 5.70188 82.0507 3.96053L86.7696 5.06843ZM86.7696 5.06843C86.2629 9.17202 84.3965 12.9918 81.4631 15.9152L81.4623 15.916C79.733 17.6552 77.6761 19.0342 75.4104 19.9732C73.1447 20.9122 70.7153 21.3926 68.2628 21.3865H68.2622H63.5031H63.2827H53.6151C53.9296 16.71 55.9915 12.3187 59.3966 9.08844C62.8655 5.79764 67.4642 3.96235 72.2457 3.96053C72.2457 3.96053 72.2458 3.96053 72.2458 3.96053H81.1814L86.7696 5.06843ZM72.2457 1.46875L72.2456 1.46875C66.6333 1.47069 61.2514 3.70104 57.2828 7.66956C53.3143 11.6381 51.084 17.02 51.082 22.6323V22.6324C51.082 22.9629 51.2133 23.2798 51.4469 23.5134C51.6806 23.7471 51.9975 23.8783 52.3279 23.8783H63.2827H63.5031H68.2615C71.0418 23.8854 73.7959 23.3409 76.3644 22.2764C78.9327 21.2121 81.2644 19.6489 83.2246 17.6774C85.1962 15.7173 86.7594 13.3856 87.8238 10.8172C88.8884 8.24866 89.4329 5.49444 89.4258 2.71401C89.4257 2.3838 89.2944 2.06716 89.0609 1.83366C88.8273 1.60001 88.5104 1.46875 88.1799 1.46875H72.2457Z" fill="black" stroke="black" stroke-width="0.5"/>
<path d="M62.0499 72.7849V66.7716H64.2254C64.8023 66.7716 65.3557 66.5424 65.7637 66.1345C66.1717 65.7265 66.4009 65.1731 66.4009 64.5962V55.8942C66.4009 55.3173 66.1717 54.7639 65.7637 54.3559C65.3557 53.948 64.8023 53.7188 64.2254 53.7188H38.1196C37.5426 53.7188 36.9893 53.948 36.5813 54.3559C36.1733 54.7639 35.9441 55.3173 35.9441 55.8942V64.5962C35.9441 65.1731 36.1733 65.7265 36.5813 66.1345C36.9893 66.5424 37.5426 66.7716 38.1196 66.7716H40.2951V72.7849L29.4177 94.5397C28.5886 96.1981 28.1972 98.0409 28.2805 99.8931C28.3639 101.745 28.9194 103.545 29.8941 105.123C30.8689 106.7 32.2306 108.002 33.85 108.904C35.4694 109.807 37.2926 110.281 39.1467 110.281H63.1983C65.0525 110.281 66.8759 109.807 68.4955 108.904C70.115 108.002 71.4768 106.7 72.4516 105.122C73.4264 103.545 73.9818 101.745 74.065 99.8923C74.1483 98.0399 73.7566 96.1971 72.9273 94.5387L62.0499 72.7849ZM40.2951 58.0697H62.0499V62.4207H40.2951V58.0697ZM68.7506 102.835C68.1687 103.784 67.3521 104.567 66.3797 105.109C65.4073 105.652 64.3116 105.934 63.1983 105.93H39.1467C38.0342 105.93 36.9402 105.646 35.9686 105.104C34.9969 104.562 34.1799 103.781 33.5951 102.835C33.0102 101.888 32.677 100.808 32.6271 99.6969C32.5771 98.5856 32.8121 97.4799 33.3096 96.4849L44.4165 74.2711C44.5675 73.9689 44.6461 73.6358 44.646 73.2981V66.7716H57.6989V73.2981C57.6989 73.6358 57.7774 73.9689 57.9284 74.2711L69.0354 96.4849C69.5369 97.4788 69.7742 98.585 69.7243 99.6971C69.6744 100.809 69.3391 101.89 68.7506 102.835Z" fill="black"/>
<path d="M58.9796 41.246C58.9796 37.4829 53.723 31.433 52.6685 30.2593C52.4819 30.0649 52.258 29.9103 52.0101 29.8046C51.7623 29.699 51.4956 29.6445 51.2261 29.6445C50.9567 29.6445 50.69 29.699 50.4422 29.8046C50.1943 29.9103 49.9703 30.0649 49.7838 30.2593C48.7305 31.433 43.4727 37.4829 43.4727 41.246C43.4727 43.3024 44.2895 45.2745 45.7436 46.7286C47.1977 48.1826 49.1698 48.9995 51.2261 48.9995C53.2825 48.9995 55.2546 48.1826 56.7087 46.7286C58.1628 45.2745 58.9796 43.3024 58.9796 41.246ZM47.3494 41.246C47.3494 40.0103 49.1705 37.127 51.2261 34.5565C53.2857 37.1393 55.1029 40.045 55.1029 41.246C55.1029 42.2742 54.6945 43.2603 53.9674 43.9873C53.2404 44.7143 52.2543 45.1228 51.2261 45.1228C50.198 45.1228 49.2119 44.7143 48.4849 43.9873C47.7578 43.2603 47.3494 42.2742 47.3494 41.246Z" fill="black"/>
<path d="M81.9653 35.3948C81.9653 34.2861 81.6366 33.2023 81.0206 32.2804C80.4046 31.3586 79.5291 30.6401 78.5048 30.2158C77.4805 29.7915 76.3534 29.6805 75.266 29.8968C74.1786 30.1131 73.1798 30.647 72.3958 31.4309C71.6118 32.2149 71.0779 33.2138 70.8616 34.3012C70.6453 35.3886 70.7563 36.5157 71.1806 37.54C71.6049 38.5643 72.3234 39.4398 73.2453 40.0558C74.1671 40.6717 75.2509 41.0005 76.3596 41.0005C77.8458 40.9988 79.2707 40.4077 80.3216 39.3568C81.3725 38.3059 81.9637 36.881 81.9653 35.3948ZM74.491 35.3948C74.491 35.0252 74.6006 34.6639 74.806 34.3567C75.0113 34.0494 75.3031 33.8099 75.6446 33.6684C75.986 33.527 76.3617 33.49 76.7242 33.5621C77.0866 33.6342 77.4196 33.8122 77.6809 34.0735C77.9422 34.3348 78.1202 34.6678 78.1923 35.0302C78.2644 35.3927 78.2274 35.7684 78.086 36.1098C77.9445 36.4513 77.705 36.7431 77.3977 36.9484C77.0905 37.1538 76.7292 37.2633 76.3596 37.2633C75.8642 37.2629 75.3892 37.0658 75.0389 36.7155C74.6886 36.3652 74.4915 35.8902 74.491 35.3948Z" fill="black"/>
<path d="M21.7948 43C20.7174 43 19.6643 43.3195 18.7685 43.918C17.8727 44.5165 17.1746 45.3673 16.7623 46.3626C16.35 47.3579 16.2421 48.4531 16.4523 49.5098C16.6625 50.5664 17.1813 51.537 17.9431 52.2988C18.7049 53.0606 19.6754 53.5794 20.7321 53.7895C21.7887 53.9997 22.8839 53.8918 23.8793 53.4796C24.8746 53.0673 25.7253 52.3691 26.3239 51.4733C26.9224 50.5776 27.2419 49.5244 27.2419 48.4471C27.2402 47.0029 26.6658 45.6184 25.6446 44.5972C24.6235 43.576 23.2389 43.0016 21.7948 43ZM21.7948 50.2628C21.4356 50.2628 21.0846 50.1563 20.786 49.9568C20.4874 49.7573 20.2547 49.4737 20.1173 49.1419C19.9798 48.8102 19.9439 48.4451 20.0139 48.0929C20.084 47.7407 20.2569 47.4171 20.5109 47.1632C20.7648 46.9093 21.0883 46.7363 21.4405 46.6663C21.7927 46.5962 22.1578 46.6322 22.4896 46.7696C22.8214 46.907 23.1049 47.1398 23.3045 47.4384C23.504 47.7369 23.6105 48.088 23.6105 48.4471C23.6098 48.9284 23.4183 49.3899 23.0779 49.7303C22.7376 50.0706 22.2761 50.2621 21.7948 50.2628Z" fill="black"/>
<path d="M17.1036 26.1905C17.1036 25.0418 16.763 23.919 16.1249 22.9639C15.4867 22.0089 14.5797 21.2645 13.5185 20.8249C12.4572 20.3853 11.2895 20.2703 10.1629 20.4944C9.03636 20.7185 8.00153 21.2716 7.18931 22.0838C6.3771 22.8961 5.82397 23.9309 5.59988 25.0575C5.37579 26.184 5.4908 27.3518 5.93037 28.413C6.36994 29.4742 7.11432 30.3812 8.06939 31.0194C9.02446 31.6576 10.1473 31.9982 11.296 31.9982C12.8357 31.9964 14.3119 31.384 15.4007 30.2952C16.4895 29.2065 17.1019 27.7303 17.1036 26.1905ZM11.296 28.1264C10.9131 28.1264 10.5388 28.0128 10.2204 27.8001C9.90208 27.5874 9.65395 27.2851 9.50743 26.9313C9.36091 26.5776 9.32257 26.1883 9.39727 25.8128C9.47196 25.4373 9.65634 25.0923 9.92708 24.8216C10.1978 24.5509 10.5428 24.3665 10.9183 24.2918C11.2938 24.2171 11.6831 24.2554 12.0368 24.402C12.3905 24.5485 12.6929 24.7966 12.9056 25.115C13.1183 25.4333 13.2319 25.8076 13.2319 26.1905C13.2311 26.7037 13.027 27.1957 12.6641 27.5586C12.3012 27.9215 11.8092 28.1257 11.296 28.1264Z" fill="black"/>
<path d="M29.8449 29.1806C29.8449 29.663 30.0365 30.1256 30.3776 30.4668C30.7188 30.8079 31.1814 30.9995 31.6638 30.9995C32.1462 30.9995 32.6089 30.8079 32.95 30.4668C33.2911 30.1256 33.4827 29.663 33.4827 29.1806V27.3617H35.3017C35.7841 27.3617 36.2467 27.17 36.5879 26.8289C36.929 26.4878 37.1206 26.0251 37.1206 25.5427C37.1206 25.0603 36.929 24.5977 36.5879 24.2565C36.2467 23.9154 35.7841 23.7238 35.3017 23.7238H33.4827V21.9049C33.4827 21.4225 33.2911 20.9598 32.95 20.6187C32.6089 20.2776 32.1462 20.0859 31.6638 20.0859C31.1814 20.0859 30.7188 20.2776 30.3776 20.6187C30.0365 20.9598 29.8449 21.4225 29.8449 21.9049V23.7238H28.026C27.5436 23.7238 27.0809 23.9154 26.7398 24.2565C26.3987 24.5977 26.207 25.0603 26.207 25.5427C26.207 26.0251 26.3987 26.4878 26.7398 26.8289C27.0809 27.17 27.5436 27.3617 28.026 27.3617H29.8449V29.1806Z" fill="black"/>
<path d="M86.6465 55.3742H84.9594V53.6871C84.9594 53.2397 84.7817 52.8105 84.4653 52.4941C84.1489 52.1777 83.7197 52 83.2723 52C82.8248 52 82.3957 52.1777 82.0793 52.4941C81.7629 52.8105 81.5852 53.2397 81.5852 53.6871V55.3742H79.8981C79.4506 55.3742 79.0215 55.552 78.7051 55.8684C78.3887 56.1848 78.2109 56.6139 78.2109 57.0614C78.2109 57.5088 78.3887 57.9379 78.7051 58.2543C79.0215 58.5707 79.4506 58.7485 79.8981 58.7485H81.5852V60.4356C81.5852 60.883 81.7629 61.3122 82.0793 61.6286C82.3957 61.945 82.8248 62.1227 83.2723 62.1227C83.7197 62.1227 84.1489 61.945 84.4653 61.6286C84.7817 61.3122 84.9594 60.883 84.9594 60.4356V58.7485H86.6465C87.094 58.7485 87.5231 58.5707 87.8395 58.2543C88.1559 57.9379 88.3336 57.5088 88.3336 57.0614C88.3336 56.6139 88.1559 56.1848 87.8395 55.8684C87.5231 55.552 87.094 55.3742 86.6465 55.3742Z" fill="black"/>
</g>
<defs>
<clipPath id="clip0_323_1952">
<rect width="110" height="110" fill="white" transform="translate(0.332031)"/>
</clipPath>
</defs>
</svg>
