<svg width="111" height="110" viewBox="0 0 111 110" fill="none" xmlns="http://www.w3.org/2000/svg">
<path d="M9.26172 64.6009V101.406H46.067L53.9492 93.5241V56.7188H17.1439L9.26172 64.6009ZM12.6992 91.0938V67.0312H50.5117V91.0938H12.6992ZM44.6439 97.9688H12.6992V94.5312H48.0814L44.6439 97.9688ZM50.5117 60.1562V63.5938H15.1295L18.567 60.1562H50.5117Z" fill="black"/>
<path d="M41.918 70.4688C36.7377 70.4688 32.3239 73.767 30.6327 78.3681C28.4258 75.6491 25.0605 73.9062 21.293 73.9062H16.1367V75.625C16.1367 82.2577 21.5336 87.6562 28.168 87.6562H33.3242V85.9375C33.3242 85.3531 33.2675 84.7825 33.1867 84.2188H35.043C41.6773 84.2188 47.0742 78.8202 47.0742 72.1875V70.4688H41.918ZM28.168 84.2188C24.0172 84.2188 20.5453 81.2608 19.7478 77.3438H21.293C25.4437 77.3438 28.9156 80.3017 29.7131 84.2188H28.168ZM35.043 80.7812H33.4978C34.2953 76.8642 37.7689 73.9062 41.918 73.9062H43.4631C42.6656 77.8233 39.1937 80.7812 35.043 80.7812Z" fill="black"/>
<path d="M60.8242 67.0312V50.8509L52.942 42.9688H45.3555V36.0938H47.0742C49.917 36.0938 52.2305 33.7803 52.2305 30.9375V27.5C52.2305 24.6572 49.917 22.3438 47.0742 22.3438H41.918V12.0312C41.918 6.34391 37.2928 1.71875 31.6055 1.71875C25.9181 1.71875 21.293 6.34391 21.293 12.0312V22.3438H16.1367C13.2939 22.3438 10.9805 24.6572 10.9805 27.5V30.9375C10.9805 33.7803 13.2939 36.0938 16.1367 36.0938H17.8555V42.9688H10.2689L2.38672 50.8509V99.6875C2.38672 104.426 6.24188 108.281 10.9805 108.281H52.2305C56.3795 108.281 59.8514 105.323 60.6506 101.406H76.293C94.3003 101.406 108.949 86.7573 108.949 68.75V67.0312H60.8242ZM24.7305 12.0312C24.7305 8.23969 27.8139 5.15625 31.6055 5.15625C35.397 5.15625 38.4805 8.23969 38.4805 12.0312V22.3438H24.7305V12.0312ZM14.418 30.9375V27.5C14.418 26.553 15.1897 25.7812 16.1367 25.7812H47.0742C48.0212 25.7812 48.793 26.553 48.793 27.5V30.9375C48.793 31.8845 48.0212 32.6562 47.0742 32.6562H16.1367C15.1897 32.6562 14.418 31.8845 14.418 30.9375ZM21.293 36.0938H41.918V42.9688H21.293V36.0938ZM11.692 46.4062H51.5189L54.9564 49.8438H8.25453L11.692 46.4062ZM52.2305 104.844H10.9805C8.13766 104.844 5.82422 102.53 5.82422 99.6875V53.2812H57.3867V99.6875C57.3867 102.53 55.0733 104.844 52.2305 104.844ZM60.8242 97.9688V82.9555C63.423 83.8114 66.1506 84.8306 68.813 85.8292C75.7172 88.4159 82.8552 91.0938 88.3242 91.0938C90.5431 91.0938 93.2089 90.9081 95.7733 90.475C90.5981 95.1208 83.7781 97.9688 76.293 97.9688H60.8242ZM100.02 85.7725C97.3614 86.9206 92.8583 87.6562 88.3242 87.6562C84.708 87.6562 79.9797 86.2262 75.0623 84.4697C80.3853 82.06 84.9314 80.7812 88.3242 80.7812C97.8255 80.7812 100.749 82.2783 101.646 83.2253C101.144 84.1019 100.606 84.9561 100.02 85.7725ZM103.198 80.0611C100.587 78.222 95.7355 77.3438 88.3242 77.3438C83.7197 77.3438 77.7384 79.1948 70.5609 82.8111C70.3805 82.7441 70.2 82.677 70.0195 82.6083C66.9567 81.4602 63.8131 80.2914 60.8242 79.3495V70.4688H105.462C105.264 73.8564 104.458 77.0773 103.198 80.0611Z" fill="black"/>
<path d="M82.9617 56.7188H83.3742C94.6337 56.7188 103.793 47.5595 103.793 36.3C103.793 32.4689 102.719 28.7272 100.689 25.4788L87.2552 3.98406C86.3683 2.56609 84.842 1.71875 83.168 1.71875C81.4939 1.71875 79.9677 2.56609 79.0808 3.98406L65.647 25.4788C63.6172 28.7272 62.543 32.4706 62.543 36.3C62.543 47.5595 71.7022 56.7188 82.9617 56.7188ZM68.562 27.3006L81.9958 5.80594C82.2502 5.39859 82.6884 5.15625 83.168 5.15625C83.6475 5.15625 84.0858 5.39859 84.3402 5.80594L97.7739 27.3006C99.4617 30.0025 100.355 33.1152 100.355 36.3C100.355 45.6638 92.738 53.2812 83.3742 53.2812H82.9617C73.598 53.2812 65.9805 45.6638 65.9805 36.3C65.9805 33.1152 66.8742 30.0025 68.562 27.3006Z" fill="black"/>
<path d="M96.918 36.3006C96.918 35.5616 96.8578 34.8191 96.7375 34.0938L93.3464 34.6558C93.4358 35.1972 93.4805 35.7489 93.4805 36.3006C93.4805 41.8728 88.9464 46.4069 83.3742 46.4069H83.168V49.8444H83.3742C90.8422 49.8444 96.918 43.7686 96.918 36.3006Z" fill="black"/>
<path d="M92.3789 31.7186L95.4417 30.158C95.263 29.8056 95.067 29.4619 94.8573 29.1233L93.2744 26.5898L90.3594 28.4117L91.9423 30.9452C92.0987 31.1961 92.2448 31.4539 92.3789 31.7186Z" fill="black"/>
</svg>
