<svg width="110" height="110" viewBox="0 0 110 110" fill="none" xmlns="http://www.w3.org/2000/svg">
<path d="M105.771 30.0474L91.8309 5.91053C91.4528 5.25567 90.7546 4.85284 89.9985 4.85284H62.0957C61.3396 4.85284 60.6413 5.25567 60.2633 5.91053L50.3139 23.1383C49.6192 22.9501 48.8985 22.8543 48.1556 22.8543C44.3424 22.8543 41.1556 25.4688 40.2141 28.9897H21.5728L16.9392 19.3062C19.0541 17.8106 20.447 15.3577 20.447 12.5769C20.447 8.02798 16.745 4.32812 12.1961 4.32812C7.64724 4.32812 3.94531 8.02798 3.94531 12.5769C3.94531 17.1258 7.64724 20.8277 12.1961 20.8277C12.4508 20.8277 12.6909 20.775 12.9398 20.7523L17.8474 31.008L4.48036 54.207C4.10231 54.8598 4.10231 55.6655 4.48036 56.3203L17.8345 79.477L13.7238 87.6038C13.3303 87.546 12.9378 87.483 12.5287 87.483C7.97983 87.483 4.27791 91.1849 4.27791 95.7338C4.27791 100.283 7.97983 103.983 12.5287 103.983C17.0776 103.983 20.7775 100.283 20.7775 95.7338C20.7775 93.1123 19.5256 90.7999 17.614 89.2875L21.5455 81.5149H40.2141C41.1556 85.0353 44.3427 87.6482 48.1556 87.6482C48.8993 87.6482 49.6208 87.5519 50.3131 87.365L60.2633 104.615C60.6413 105.27 61.3396 105.672 62.0957 105.672H89.9985C90.7546 105.672 91.4528 105.27 91.8309 104.615L105.771 80.4572C106.149 79.8023 106.149 78.9967 105.771 78.3418L95.5684 60.6704C97.0971 59.1525 97.9932 57.0516 97.9932 54.8185C97.9932 52.7578 97.2219 50.8025 95.868 49.3028L105.771 32.1628C106.149 31.5079 106.149 30.7023 105.771 30.0474ZM8.17608 12.5769C8.17608 10.3623 9.97953 8.55889 12.1961 8.55889C14.4127 8.55889 16.2162 10.3623 16.2162 12.5769C16.2162 14.7935 14.4127 16.5969 12.1961 16.5969C9.97953 16.5969 8.17608 14.7935 8.17608 12.5769ZM12.5287 99.7518C10.3121 99.7518 8.50868 97.9484 8.50868 95.7338C8.50868 93.5172 10.3121 91.7138 12.5287 91.7138C14.7433 91.7138 16.5467 93.5172 16.5467 95.7338C16.5467 97.9484 14.7433 99.7518 12.5287 99.7518ZM48.1556 27.085C50.3776 27.085 52.1757 28.8919 52.1757 31.1051C52.1757 33.374 50.3383 35.1231 48.1556 35.1231C45.939 35.1231 44.1356 33.3196 44.1356 31.1051C44.1356 28.8885 45.939 27.085 48.1556 27.085ZM21.4551 33.2205H40.1795C41.328 37.5449 45.8914 40.2603 50.3097 39.0719C50.3108 39.0714 50.3123 39.0714 50.3133 39.0711L59.6529 55.2621L50.3893 71.3023L50.3144 71.4317C50.3113 71.4306 50.3077 71.4306 50.3043 71.4296C45.823 70.2195 41.3067 73.0387 40.1795 77.2841H21.4551L8.75451 55.2626L21.4551 33.2205ZM44.1356 79.3995C44.1356 77.1829 45.939 75.3794 48.1556 75.3794C50.3776 75.3794 52.1757 77.1863 52.1757 79.3995C52.1757 81.6684 50.3383 83.4175 48.1556 83.4175C45.939 83.4175 44.1356 81.614 44.1356 79.3995ZM88.7776 101.442H63.3166L53.9791 85.2519C55.5615 83.6815 56.4064 81.4353 56.4064 79.3995C56.4064 77.178 55.4205 74.9961 53.9771 73.5558C53.9763 73.5551 53.976 73.5543 53.9755 73.5538L63.3171 57.378H81.9005C83.1819 61.3377 87.5507 63.9546 91.8928 62.7863C91.8965 62.7852 91.8998 62.7852 91.9032 62.7842L101.497 79.3995L88.7776 101.442ZM93.7624 54.8185C93.7624 57.0759 91.9363 58.8365 89.7444 58.8365C87.6373 58.8365 85.8793 57.2045 85.7429 55.1242C85.7388 55.0622 85.7326 54.8784 85.7244 54.8185C85.7244 52.6019 87.5278 50.7984 89.7444 50.7984C91.8703 50.7984 93.7624 52.5408 93.7624 54.8185ZM92.3205 46.9849C92.2934 46.9759 92.2647 46.9731 92.2376 46.9645C91.7933 46.822 90.7481 46.5676 89.7444 46.5676C85.9806 46.5676 82.454 49.3118 81.663 53.1472H63.3181L53.9791 36.9575C55.5357 35.4127 56.4064 33.1818 56.4064 31.1051C56.4064 28.8819 55.4395 26.7206 53.9771 25.2614C53.976 25.2604 53.9758 25.2596 53.975 25.2589L63.3166 9.08361H88.7776L101.495 31.1051L92.3205 46.9849Z" fill="#040404"/>
<path d="M87.309 67.5188C86.2968 68.1034 85.9497 69.3966 86.5343 70.4089L91.7278 79.4013L83.8922 92.9819H68.2065L63.2651 84.4171C62.6805 83.4048 61.3832 83.0557 60.3751 83.6424C59.3628 84.227 59.0158 85.5202 59.6004 86.5325L65.1533 96.155C65.5313 96.8099 66.2296 97.2127 66.9856 97.2127H85.1131C85.8692 97.2127 86.5674 96.8099 86.9454 96.155L96.0019 80.459C96.38 79.8041 96.38 78.9985 96.0019 78.3436L90.1991 68.2935C89.6124 67.2792 88.3151 66.9342 87.309 67.5188Z" fill="#040404"/>
<path d="M85.1154 13.3125H66.9817C66.2256 13.3125 65.5274 13.7153 65.1494 14.3702L59.5965 23.9844C59.0119 24.9967 59.3589 26.2899 60.3712 26.8745C61.3793 27.4571 62.6745 27.1121 63.2612 26.0998L68.2026 17.5433H83.8945L91.7239 31.1011L87.0531 39.1867C86.4685 40.1969 86.8155 41.4921 87.8278 42.0768C88.8365 42.6595 90.1328 42.3152 90.7178 41.3021L96.0001 32.1588C96.3781 31.504 96.3781 30.6983 96.0001 30.0435L86.9477 14.3702C86.5697 13.7153 85.8715 13.3125 85.1154 13.3125Z" fill="#040404"/>
<path d="M25.1207 73.0552H36.2678C37.437 73.0552 38.3832 72.1091 38.3832 70.9398C38.3832 69.7706 37.437 68.8244 36.2678 68.8244H26.3437L18.5225 55.2624L26.3457 41.6839H36.2678C37.437 41.6839 38.3832 40.7378 38.3832 39.5685C38.3832 38.3993 37.437 37.4531 36.2678 37.4531H25.1228C24.3667 37.4531 23.6684 37.858 23.2904 38.5129L14.2484 54.2068C13.8703 54.8596 13.8703 55.6653 14.2484 56.3201L23.2883 71.9975C23.6664 72.6524 24.3646 73.0552 25.1207 73.0552Z" fill="#040404"/>
</svg>
