<?xml version="1.0" standalone="no"?>
<!DOCTYPE svg PUBLIC "-//W3C//DTD SVG 20010904//EN"
 "http://www.w3.org/TR/2001/REC-SVG-20010904/DTD/svg10.dtd">
<svg version="1.0" xmlns="http://www.w3.org/2000/svg"
 width="100.000000pt" height="100.000000pt" viewBox="0 0 100.000000 100.000000"
 preserveAspectRatio="xMidYMid meet">

<g transform="translate(0.000000,100.000000) scale(0.100000,-0.100000)"
fill="#000000" stroke="none">
<path d="M62 937 c-31 -33 -29 -80 4 -106 15 -12 32 -21 39 -21 6 0 22 -21 34
-48 l22 -47 -60 -105 c-34 -58 -61 -109 -61 -114 0 -5 27 -56 61 -113 58 -99
60 -106 48 -135 -8 -21 -26 -36 -55 -49 -30 -12 -45 -26 -50 -44 -10 -39 4
-73 35 -90 65 -33 134 35 98 97 -15 27 -15 31 0 63 l17 35 87 0 c76 0 88 -2
94 -18 5 -19 44 -42 70 -42 8 0 35 -36 61 -80 l46 -80 138 0 139 0 57 97 c86
146 84 136 32 227 -41 70 -44 81 -35 107 8 19 8 37 1 56 -8 24 -4 38 33 103
24 41 43 81 43 88 0 16 -119 224 -134 235 -6 4 -69 6 -141 5 l-130 -3 -49 -82
c-39 -68 -53 -83 -73 -83 -13 0 -35 -11 -49 -25 -23 -23 -33 -25 -108 -25
l-83 0 -17 39 c-17 36 -17 40 -1 71 14 27 15 37 4 61 -21 53 -80 66 -117 26z
m79 -33 c17 -21 0 -49 -32 -49 -24 0 -36 23 -25 51 7 19 40 18 57 -2z m722
-84 c31 -55 57 -101 57 -104 0 -2 -18 -36 -41 -75 -26 -46 -45 -68 -54 -65
-17 7 -56 -13 -73 -38 -11 -15 -27 -18 -96 -18 l-82 0 -41 73 c-26 45 -38 76
-32 82 12 12 12 68 -2 82 -7 7 1 29 27 74 20 35 41 70 47 77 6 8 44 12 121 12
l112 0 57 -100z m-398 -105 c0 -25 -4 -30 -24 -30 -32 0 -49 28 -31 50 7 9 23
15 34 13 16 -2 21 -10 21 -33z m-87 -40 c12 -14 36 -28 53 -32 24 -4 37 -19
69 -74 22 -37 40 -70 40 -72 0 -3 -18 -37 -41 -76 -33 -58 -45 -71 -65 -71
-14 0 -36 -11 -50 -25 -23 -23 -33 -25 -107 -25 l-82 0 -58 99 -57 99 51 88
c28 49 55 95 61 102 7 8 38 12 87 12 70 0 79 -2 99 -25z m462 -150 c20 -25 8
-50 -25 -50 -21 0 -31 5 -33 18 -4 21 14 47 33 47 7 0 18 -7 25 -15z m-80 -70
c13 -14 35 -25 49 -25 22 0 33 -13 69 -74 23 -40 42 -76 42 -79 0 -3 -25 -49
-56 -101 l-56 -96 -117 0 -117 0 -41 72 c-30 53 -39 76 -31 85 9 11 8 61 -3
89 -2 6 14 43 36 82 l40 72 81 0 c73 0 83 -2 104 -25z m-292 -177 c2 -20 -2
-28 -19 -33 -29 -9 -53 15 -44 44 10 34 59 25 63 -11z m-318 -147 c0 -28 -28
-47 -48 -34 -24 15 -27 44 -7 59 22 17 55 1 55 -25z"/>
<path d="M585 855 c-8 -14 -22 -37 -31 -51 -15 -26 -13 -54 5 -54 5 0 21 20
35 45 l27 45 72 0 72 0 34 -62 34 -61 -24 -44 c-15 -28 -20 -46 -14 -52 14
-14 27 -3 57 50 l27 45 -36 65 c-56 101 -53 99 -154 99 -84 0 -89 -1 -104 -25z"/>
<path d="M213 648 c-20 -26 -83 -139 -83 -150 0 -6 19 -44 42 -84 l42 -74 68
0 c54 0 68 3 68 15 0 11 -13 15 -54 15 l-54 0 -37 65 -36 65 34 57 c33 58 33
58 88 63 39 4 54 9 54 20 0 20 -117 27 -132 8z"/>
<path d="M785 381 c-3 -6 7 -32 22 -58 l27 -49 -35 -57 -34 -57 -75 0 -76 0
-17 35 c-17 35 -42 54 -55 41 -3 -4 6 -32 22 -62 l28 -54 98 0 97 0 45 78 c44
75 45 78 30 107 -35 71 -63 98 -77 76z"/>
</g>
</svg>
