<svg width="1440" height="1962" viewBox="0 0 1440 1962" fill="none" xmlns="http://www.w3.org/2000/svg">
<path d="M1947.79 1510.63C1918.59 1530.1 1887.97 1547.83 1856.69 1564.34L1853.66 1565.94L1853.66 1565.94C1799.61 1594.58 1744.1 1621.16 1691.42 1653.48C1639.5 1685.09 1590.66 1721.67 1547.19 1764.64L1545.12 1766.69L1545.12 1766.69C1501.34 1810.59 1464.03 1860.17 1431.87 1913.02C1422.2 1928.78 1413.06 1944.86 1404.19 1961.06H1399.29C1407.92 1945.17 1416.81 1929.38 1426.23 1913.81L1428.14 1910.66L1428.15 1910.65C1460.12 1857.86 1497.84 1807.45 1541.74 1763.31C1585.09 1720.17 1634.65 1682.89 1686.63 1651.2L1689.11 1649.69L1689.11 1649.69C1741.96 1617.41 1797.78 1590.8 1851.73 1562.35L1851.73 1562.35C1884.87 1545.04 1917.15 1526.53 1947.79 1506.04V1510.63Z" fill="#F5F5F5" stroke="#F9F9F9"/>
<path d="M1947.78 1277.95C1927.78 1299.99 1906.17 1320.82 1883.07 1340.09L1880.82 1341.95L1880.82 1341.95C1836.04 1379.16 1785.57 1410.18 1733.31 1437.87L1728.25 1440.54L1728.25 1440.54C1675.04 1468.74 1620.42 1494.94 1568.49 1526.58L1566.01 1528.09L1566.01 1528.09L1546.44 1540.41C1539.93 1544.52 1533.29 1548.51 1527.08 1553.15L1508.23 1566.57L1498.79 1573.29C1495.59 1575.47 1492.5 1577.81 1489.55 1580.31C1477.65 1590.08 1465.48 1599.57 1453.73 1609.61L1453.72 1609.61L1453.72 1609.62L1419.66 1641.35L1419.64 1641.37L1419.63 1641.38L1388.1 1675.21L1388.09 1675.22L1388.08 1675.23C1378.05 1686.98 1368.52 1699.19 1358.74 1711.11C1356.23 1714.07 1353.89 1717.15 1351.71 1720.35L1345 1729.77L1331.6 1748.6C1326.96 1754.78 1322.95 1761.46 1318.83 1767.98L1319.25 1768.25L1318.83 1767.98V1767.98L1306.48 1787.62L1306.47 1787.62C1275.26 1838.5 1249.22 1892.37 1221.63 1944.75L1218.96 1949.81C1216.96 1953.58 1214.93 1957.32 1212.91 1961.07H1208.38C1210.72 1956.7 1213.08 1952.34 1215.38 1947.93L1215.38 1947.93C1243.43 1894.72 1269.55 1840.01 1301.24 1787.75L1302.75 1785.26V1785.26C1334.25 1733.26 1371.19 1683.69 1414.36 1639.93L1416.42 1637.85L1450.51 1606.18L1450.51 1606.17C1460.87 1597.35 1471.6 1588.92 1482.21 1580.33L1486.75 1576.64L1486.76 1576.64C1489.36 1574.45 1492.05 1572.39 1494.83 1570.45L1496.03 1569.63L1496.03 1569.62L1505.55 1562.88L1505.55 1562.88L1524.57 1549.39L1524.58 1549.39C1530.79 1544.75 1537.43 1540.78 1544.01 1536.64L1544.01 1536.64L1563.72 1524.29L1563.72 1524.29C1616.58 1492.01 1672.39 1465.4 1726.35 1436.95L1726.34 1436.95C1780.47 1408.68 1832.37 1377.22 1878.46 1339.09L1878.46 1339.09C1903.42 1318.55 1926.53 1296.26 1947.78 1272.64V1277.95Z" fill="#F5F5F5" stroke="#F9F9F9"/>
<path d="M1947.78 1334.67C1946.57 1335.92 1945.37 1337.14 1944.17 1338.38C1933.05 1348.4 1921.91 1358.46 1910.73 1368.54C1866.14 1406.28 1815.92 1438.38 1763.61 1466.48L1758.54 1469.19L1758.54 1469.19C1705.22 1497.9 1650.19 1523.59 1597.58 1554.87L1595.08 1556.36L1595.07 1556.37C1581.99 1564.6 1568.89 1572.84 1555.79 1581.09L1555.76 1581.11L1517.86 1608.08L1517.85 1608.09L1517.83 1608.1L1481.76 1637.35L1481.75 1637.36L1481.74 1637.37L1447.53 1669.23L1447.51 1669.25L1447.5 1669.26L1415.84 1703.24L1415.82 1703.25L1415.81 1703.26L1386.5 1739.42L1386.5 1739.43L1386.49 1739.44L1359.56 1777.28L1359.55 1777.29L1359.54 1777.31L1334.74 1816.71L1334.73 1816.72C1306.63 1863.64 1282.88 1913 1257.69 1961.08H1253.07C1278.54 1912.33 1302.38 1862.39 1330.94 1814.47C1339.19 1801.3 1347.45 1788.12 1355.72 1774.93L1382.84 1736.66L1412.3 1700.19L1444.29 1665.73L1478.52 1633.94L1515.07 1604.41L1553.26 1577.34C1566.49 1569.05 1579.7 1560.77 1592.91 1552.5C1646.23 1520.7 1702.67 1494.51 1756.61 1465.6L1756.62 1465.6C1810.87 1436.93 1862.38 1404.41 1908.35 1365.69L1908.36 1365.68C1919.53 1355.65 1930.66 1345.64 1941.76 1335.67L1941.77 1335.66L1941.78 1335.65C1943.78 1333.61 1945.78 1331.55 1947.78 1329.51V1334.67Z" fill="#F5F5F5" stroke="#F9F9F9"/>
<path d="M1947.79 1388.19C1945.35 1390.37 1942.9 1392.55 1940.47 1394.77C1895.87 1433.03 1845.99 1465.88 1793.76 1494.72L1788.7 1497.5L1788.7 1497.5C1761.63 1512.42 1734.05 1526.43 1706.5 1540.64C1679.8 1554.4 1653.13 1568.36 1627 1583.51L1624.47 1584.98C1571.46 1615.73 1521.38 1651.64 1477.54 1694.96L1475.46 1697.03L1475.46 1697.03C1431.3 1741.25 1394.62 1792.16 1363.38 1846.06C1341.43 1883.67 1321.95 1922.58 1302.04 1961.07H1297.37C1316.9 1923.17 1335.98 1884.8 1357.47 1847.47L1359.57 1843.84L1359.57 1843.83C1390.24 1790.69 1426.57 1739.83 1470.01 1695.75L1472.08 1693.65C1483.03 1683.57 1493.51 1673.53 1504.49 1663.75L1506.69 1661.79L1525.05 1646.96L1534.23 1639.55L1534.24 1639.54C1536.87 1637.33 1539.58 1635.24 1542.38 1633.28L1543.59 1632.45L1543.6 1632.45L1562.8 1618.84L1562.8 1618.84C1568.83 1614.59 1574.72 1610.23 1580.97 1606.42L1582.22 1605.66L1582.24 1605.65L1602.15 1593.18L1612.08 1586.96L1622.27 1581.13L1622.28 1581.13C1649.25 1565.46 1676.88 1551.06 1704.52 1536.88C1732.15 1522.7 1759.77 1508.73 1786.7 1493.95L1786.71 1493.95C1840.84 1464.55 1892.15 1431.13 1937.96 1392.03L1937.96 1392.03C1941.29 1389.19 1944.53 1386.29 1947.78 1383.4L1947.79 1388.19Z" fill="#F5F5F5" stroke="#F9F9F9"/>
<path d="M1947.76 962.042C1926.4 1003.2 1903.79 1044.87 1876.6 1084.17L1875.3 1086.04L1875.29 1086.04C1842.6 1133.27 1802.89 1177 1757.58 1214.77L1755.42 1216.56L1755.41 1216.56C1710.64 1253.77 1660.16 1284.8 1607.91 1312.48L1602.85 1315.15L1602.84 1315.15C1549.64 1343.34 1495.02 1369.55 1443.08 1401.18L1440.61 1402.69L1440.6 1402.69L1421.03 1415.01H1421.03C1414.53 1419.13 1407.88 1423.11 1401.68 1427.76L1382.83 1441.18H1382.82L1373.39 1447.9C1370.18 1450.08 1367.1 1452.41 1364.15 1454.91C1352.25 1464.69 1340.08 1474.17 1328.33 1484.21L1328.32 1484.22L1328.31 1484.23L1294.25 1515.96L1294.24 1515.97L1294.23 1515.98L1262.69 1549.82L1262.68 1549.83L1262.67 1549.83C1252.64 1561.58 1243.11 1573.79 1233.33 1585.71C1230.82 1588.67 1228.49 1591.75 1226.31 1594.95L1219.6 1604.37L1206.2 1623.2C1202.73 1627.83 1199.6 1632.75 1196.52 1637.67L1193.44 1642.58L1193.44 1642.58L1181.08 1662.22L1181.08 1662.22C1149.86 1713.1 1123.82 1766.97 1096.24 1819.35L1093.57 1824.41C1079.7 1850.58 1065.31 1876.41 1049.57 1901.26L1048.04 1903.66L1048.04 1903.66C1046.01 1906.89 1044.1 1910.14 1042.02 1913.29L1035.51 1922.64V1922.64L1022.53 1941.31L1022.94 1941.6L1022.53 1941.31L1022.52 1941.32C1019.41 1946.06 1015.95 1950.48 1012.44 1954.89L1008.94 1959.31L1007.56 1961.07H1002.93C1036.33 1918.35 1064.42 1871.44 1089.98 1822.54L1089.98 1822.54C1118.04 1769.34 1144.15 1714.62 1175.84 1662.36L1177.35 1659.87L1177.36 1659.87C1208.85 1607.86 1245.79 1558.3 1288.96 1514.53L1291.02 1512.45L1325.11 1480.78L1325.11 1480.78C1335.47 1471.96 1346.2 1463.52 1356.81 1454.94L1361.35 1451.25L1361.36 1451.24C1363.96 1449.05 1366.65 1447 1369.43 1445.06L1370.62 1444.23L1370.63 1444.23L1380.15 1437.48L1380.15 1437.48L1399.17 1424L1399.18 1423.99C1405.39 1419.35 1412.03 1415.39 1418.61 1411.25L1418.61 1411.25L1438.33 1398.89L1438.33 1398.89C1491.18 1366.61 1546.99 1340.01 1600.95 1311.56L1600.95 1311.56C1655.07 1283.28 1706.98 1251.82 1753.06 1213.7L1753.05 1213.7C1799.27 1175.67 1839.34 1131.82 1872.5 1084.19L1872.5 1084.19C1901.57 1042.64 1925.19 998.873 1947.76 955.414V962.042Z" fill="#F5F5F5" stroke="#F9F9F9"/>
<path d="M1947.78 1044.82C1934.76 1067.48 1920.89 1089.9 1905.55 1111.74C1896.73 1123.46 1887.87 1135.24 1878.98 1147.05C1869.38 1158.27 1859.74 1169.53 1850.06 1180.83C1839.67 1191.51 1829.24 1202.23 1818.78 1212.97C1807.67 1222.99 1796.53 1233.05 1785.34 1243.14C1740.75 1280.87 1690.53 1312.97 1638.23 1341.07L1633.16 1343.78L1633.16 1343.78C1579.84 1372.49 1524.82 1398.18 1472.2 1429.46L1469.7 1430.95L1469.69 1430.96C1456.6 1439.19 1443.5 1447.44 1430.4 1455.69L1430.37 1455.7L1392.48 1482.68L1392.46 1482.69L1392.45 1482.7L1356.37 1511.94L1356.36 1511.95L1356.35 1511.96L1322.14 1543.83L1322.12 1543.84L1322.11 1543.85L1290.45 1577.83L1290.44 1577.84L1290.43 1577.86L1261.12 1614.01L1261.11 1614.02L1261.1 1614.04L1234.16 1651.87L1234.15 1651.89L1234.15 1651.9L1209.32 1691.35L1209.31 1691.36C1177.57 1744.38 1151.28 1800.73 1122.23 1854.69C1114.74 1868.13 1107.26 1881.53 1099.81 1894.91C1091.76 1907.93 1083.72 1920.91 1075.7 1933.87C1069.38 1942.96 1063.09 1952.02 1056.8 1961.07H1052.35C1076.84 1926.89 1098.66 1890.57 1118.63 1852.83L1118.63 1852.83C1147.65 1798.69 1173.6 1742.67 1205.6 1689L1205.6 1689C1213.83 1675.85 1222.08 1662.69 1230.33 1649.52L1257.44 1611.27L1286.9 1574.79L1318.89 1540.33L1353.13 1508.53L1389.68 1479.01L1427.87 1451.94C1441.09 1443.66 1454.31 1435.37 1467.51 1427.1L1467.51 1427.1C1520.84 1395.31 1577.28 1369.12 1631.22 1340.21L1631.22 1340.21C1685.48 1311.53 1736.98 1279.02 1782.96 1240.3L1782.96 1240.3L1782.97 1240.29C1794.14 1230.26 1805.26 1220.25 1816.36 1210.28L1816.38 1210.27L1816.39 1210.26C1826.78 1199.62 1837.13 1189.02 1847.45 1178.46L1847.47 1178.43C1857.11 1167.21 1866.72 1156.03 1876.29 1144.9L1876.3 1144.89L1876.31 1144.88C1885.14 1133.18 1893.95 1121.52 1902.72 1109.92L1902.73 1109.91C1919.16 1086.64 1933.95 1062.68 1947.78 1038.47V1044.82Z" fill="#F5F5F5" stroke="#F9F9F9"/>
<path d="M1947.78 1119.66C1943.8 1125.6 1939.73 1131.5 1935.56 1137.36C1926.69 1149.11 1917.79 1160.89 1908.85 1172.72C1899.21 1183.99 1889.53 1195.3 1879.81 1206.65L1848.44 1238.97C1837.59 1249.35 1826.22 1259.18 1815.06 1269.38C1770.46 1307.64 1720.58 1340.49 1668.36 1369.33L1663.3 1372.11L1663.3 1372.11C1636.23 1387.03 1608.65 1401.04 1581.1 1415.24C1553.54 1429.45 1526.02 1443.86 1499.07 1459.58L1488.97 1465.38L1488.96 1465.39L1488.95 1465.39L1479.08 1471.6H1479.08L1459.33 1484.03C1454.3 1487.03 1449.52 1490.41 1444.76 1493.81L1440.01 1497.19L1440.01 1497.19L1420.98 1510.73C1418.14 1512.66 1415.42 1514.72 1412.78 1516.89L1411.66 1517.82L1402.62 1525.15L1384.51 1539.84L1384.5 1539.84L1384.49 1539.85C1372.8 1550.19 1361.51 1561.12 1350.01 1571.69L1349.99 1571.7C1305.98 1615.78 1269.21 1666.8 1237.99 1720.66C1222.31 1747.54 1207.89 1775.08 1193.67 1802.66C1180.33 1828.51 1167.18 1854.39 1153.32 1879.78L1150.54 1884.85L1150.54 1884.85C1136.3 1910.95 1121.04 1936.46 1104.67 1961.07H1100.05C1116.82 1935.92 1132.39 1909.77 1146.98 1882.92C1161.79 1855.93 1175.74 1828.32 1189.91 1800.72C1203.64 1773.97 1217.58 1747.21 1232.72 1720.98L1234.18 1718.44V1718.44C1265.36 1664.43 1302.24 1612.9 1346.75 1568.21C1357.57 1558.26 1368.14 1548.13 1379.1 1538.35L1381.3 1536.4L1399.66 1521.57L1408.84 1514.15L1408.85 1514.15C1411.48 1511.94 1414.19 1509.84 1417 1507.89L1418.2 1507.06L1418.21 1507.05L1437.41 1493.44C1443.44 1489.2 1449.33 1484.84 1455.58 1481.02L1456.84 1480.27L1456.85 1480.26L1476.75 1467.78L1486.7 1461.55L1496.88 1455.73L1496.88 1455.73L1496.88 1455.73C1523.85 1440.06 1551.49 1425.66 1579.13 1411.48C1606.76 1397.3 1634.39 1383.34 1661.32 1368.56L1661.32 1368.56C1714.6 1339.61 1765.16 1306.78 1810.41 1268.46L1812.56 1266.63C1858.64 1227.38 1898.8 1183.24 1932.82 1135.42L1932.82 1135.42C1937.97 1128.21 1942.92 1120.92 1947.78 1113.6V1119.66Z" fill="#F5F5F5" stroke="#F9F9F9"/>
<path d="M1947.79 620.586C1936.26 635.935 1925.16 651.894 1914.57 668.48C1887.48 710.378 1863.81 755.942 1839.95 802.536L1835.18 811.868C1810.05 860.802 1784.03 911.29 1751.48 958.395L1749.93 960.635L1749.93 960.636C1717.23 1007.86 1677.53 1051.59 1632.21 1089.36L1630.04 1091.16L1630.04 1091.16C1585.27 1128.37 1534.79 1159.39 1482.54 1187.08L1477.48 1189.75L1477.47 1189.75C1424.26 1217.94 1369.65 1244.14 1317.71 1275.78L1315.24 1277.29L1315.23 1277.29L1295.66 1289.61L1295.66 1289.61C1289.56 1293.47 1283.33 1297.21 1277.47 1301.49L1276.31 1302.35L1257.45 1315.78L1248.01 1322.5C1244.8 1324.68 1241.72 1327.02 1238.77 1329.52C1226.86 1339.29 1214.69 1348.78 1202.94 1358.82L1202.94 1358.82L1202.93 1358.83L1168.87 1390.56L1168.86 1390.58L1168.85 1390.59L1137.31 1424.43L1137.31 1424.44L1137.3 1424.45C1127.26 1436.19 1117.73 1448.4 1107.95 1460.32C1105.44 1463.29 1103.11 1466.37 1100.93 1469.57L1094.22 1478.99L1080.81 1497.82C1077.34 1502.45 1074.22 1507.36 1071.14 1512.28L1068.05 1517.19L1068.05 1517.19L1055.7 1536.83L1055.7 1536.83C1024.47 1587.71 998.445 1641.58 970.862 1693.96L968.188 1699.03C954.328 1725.2 939.923 1751.03 924.184 1775.87L922.657 1778.27L922.655 1778.28C920.625 1781.5 918.722 1784.75 916.632 1787.9L910.133 1797.25L897.155 1815.92L897.147 1815.93C892.99 1822.25 888.215 1828.01 883.563 1833.92L869.617 1851.57C835.257 1893.2 795.902 1929.97 753.578 1961.07H747.53C755.75 1954.95 763.974 1948.66 772.226 1942.51L772.238 1942.5L772.25 1942.49C783.42 1933.08 794.504 1923.5 805.603 1913.86L805.616 1913.85L805.627 1913.84C816.069 1903.5 826.885 1893.37 837.183 1882.71L837.19 1882.7L837.196 1882.69L852.079 1866.13L859.543 1857.82V1857.82L863.223 1853.72L863.234 1853.71L863.245 1853.7L866.708 1849.3C904.97 1803.03 936.294 1751.29 964.599 1697.15C992.654 1643.95 1018.76 1589.23 1050.45 1536.96L1051.97 1534.48L1051.97 1534.48C1083.46 1482.48 1120.41 1432.91 1163.57 1389.14L1165.63 1387.06L1199.71 1355.4C1210.08 1346.57 1220.81 1338.13 1231.42 1329.55L1235.96 1325.86L1235.97 1325.86C1238.56 1323.66 1241.25 1321.61 1244.03 1319.67L1245.23 1318.84L1245.24 1318.84L1254.76 1312.09L1273.77 1298.61L1273.78 1298.6C1278.44 1295.13 1283.34 1292.03 1288.28 1288.95L1293.22 1285.86L1312.93 1273.51L1312.93 1273.51C1365.78 1241.22 1421.6 1214.61 1475.55 1186.17L1475.55 1186.16C1529.68 1157.89 1581.57 1126.43 1627.66 1088.31C1673.88 1050.29 1713.94 1006.43 1747.1 958.805L1747.1 958.806C1778.45 913.999 1803.45 866.626 1827.65 819.845L1832.47 810.497V810.496C1857.68 761.471 1882.38 713.398 1910.96 669.072L1912.33 666.964L1912.33 666.962C1923.55 649.46 1935.42 632.587 1947.79 616.347V620.586Z" fill="#F5F5F5" stroke="#F9F9F9"/>
<path d="M1947.79 689.595C1947.08 690.69 1946.3 691.838 1945.59 692.953C1916.58 737.923 1892.1 787.267 1866.43 837.357C1840.77 887.452 1813.92 938.302 1780.16 986.341C1771.34 998.066 1762.48 1009.84 1753.59 1021.66C1743.99 1032.88 1734.35 1044.14 1724.68 1055.44C1714.28 1066.13 1703.85 1076.84 1693.38 1087.6C1682.27 1097.62 1671.13 1107.67 1659.94 1117.75C1615.35 1155.5 1565.14 1187.6 1512.83 1215.7L1507.76 1218.4L1507.76 1218.4C1454.44 1247.11 1399.42 1272.81 1346.8 1304.08L1344.3 1305.57L1344.29 1305.58C1331.2 1313.81 1318.1 1322.05 1305 1330.3L1304.98 1330.31L1304.97 1330.32L1267.08 1357.3L1267.06 1357.31L1267.05 1357.32L1230.98 1386.56L1230.96 1386.57L1230.95 1386.58L1196.82 1418.38L1196.8 1418.39L1196.79 1418.41L1165.05 1452.45L1165.04 1452.47L1165.03 1452.48L1135.72 1488.63L1135.7 1488.66L1108.77 1526.5L1108.76 1526.51L1108.75 1526.52L1083.95 1565.92L1083.95 1565.93C1053.13 1617.39 1027.54 1671.82 999.534 1724.25L996.815 1729.32C989.33 1742.75 981.861 1756.15 974.405 1769.53C966.349 1782.54 958.317 1795.53 950.302 1808.49C941.585 1821.03 932.898 1833.54 924.228 1846.01C914.854 1857.87 905.508 1869.7 896.191 1881.49C871.844 1910.36 845.261 1936.96 817.068 1961.08H811.207C817.953 1955.28 824.692 1949.5 831.468 1943.67L831.479 1943.66L831.49 1943.65C842.068 1933.32 852.687 1922.95 863.34 1912.54L863.351 1912.52L863.362 1912.51C873.303 1901.45 883.274 1890.36 893.273 1879.23L893.278 1879.22L893.283 1879.22C932.168 1833.05 964.545 1781.67 993.222 1727.44L993.223 1727.44C1021.79 1674.17 1047.42 1618.99 1078.67 1566.17L1080.16 1563.66L1080.16 1563.66C1111.68 1510.24 1149.21 1459.24 1193.43 1415.01L1193.43 1415.01L1227.73 1383.14L1264.26 1353.63L1302.47 1326.54C1315.69 1318.26 1328.9 1309.97 1342.11 1301.7C1395.44 1269.91 1451.87 1243.72 1505.82 1214.81L1505.82 1214.81C1560.08 1186.13 1611.57 1153.62 1657.55 1114.9L1657.56 1114.89L1657.56 1114.89C1668.73 1104.85 1679.86 1094.85 1690.96 1084.88L1690.97 1084.87L1690.98 1084.86C1701.37 1074.22 1711.73 1063.62 1722.04 1053.06L1722.05 1053.05L1722.07 1053.03C1731.71 1041.81 1741.32 1030.63 1750.88 1019.5L1750.89 1019.49L1750.9 1019.48C1759.74 1007.78 1768.54 996.121 1777.31 984.519L1777.32 984.505C1811.1 936.669 1837.99 885.964 1863.74 835.949C1889.09 786.706 1913.33 738.141 1941.95 693.588L1943.31 691.47L1943.32 691.467C1944.78 689.166 1946.29 686.913 1947.79 684.638V689.595Z" fill="#F5F5F5" stroke="#F9F9F9"/>
<path d="M1947.79 766.815C1904.16 845.814 1866.65 932.706 1810.18 1011.95C1801.31 1023.69 1792.4 1035.48 1783.47 1047.32C1773.83 1058.58 1764.15 1069.89 1754.43 1081.24L1723.06 1113.56C1712.21 1123.94 1700.84 1133.77 1689.67 1143.97C1645.07 1182.23 1595.2 1215.07 1542.98 1243.92L1537.92 1246.7L1537.92 1246.7C1510.85 1261.62 1483.27 1275.63 1455.71 1289.84C1429.02 1303.6 1402.35 1317.56 1376.21 1332.7L1373.68 1334.17C1320.67 1364.92 1270.59 1400.84 1226.75 1444.15L1224.67 1446.22V1446.22C1180.51 1490.44 1143.84 1541.36 1112.6 1595.26C1096.92 1622.13 1082.5 1649.68 1068.28 1677.25C1054.94 1703.11 1041.79 1728.99 1027.93 1754.37L1025.14 1759.44L1025.14 1759.45C996.087 1812.71 962.866 1863.67 924.28 1909.03L922.438 1911.19H922.437C907.562 1928.6 891.871 1945.24 875.529 1961.05H870.323C887.493 1944.55 903.974 1927.15 919.626 1908.79L919.627 1908.79C958.859 1862.85 992.196 1811.59 1021.58 1757.51C1036.4 1730.52 1050.35 1702.92 1064.52 1675.31C1078.25 1648.56 1092.18 1621.81 1107.32 1595.57L1108.79 1593.03L1108.79 1593.03C1139.93 1539.06 1176.92 1487.42 1221.27 1442.87L1221.27 1442.87C1232.23 1432.78 1242.71 1422.74 1253.69 1412.95L1255.9 1410.99L1274.26 1396.16L1283.44 1388.74L1283.45 1388.73C1286.08 1386.52 1288.8 1384.43 1291.6 1382.48L1292.81 1381.65L1292.81 1381.64L1312.02 1368.04L1312.02 1368.04C1318.04 1363.79 1323.93 1359.43 1330.19 1355.62L1331.44 1354.86L1331.45 1354.85L1351.36 1342.38V1342.38L1361.29 1336.15L1371.48 1330.33L1371.49 1330.33C1398.46 1314.66 1426.1 1300.26 1453.73 1286.08C1481.36 1271.9 1508.99 1257.94 1535.92 1243.15L1535.92 1243.15C1590.05 1213.75 1641.36 1180.34 1687.17 1141.23L1687.17 1141.23C1733.25 1101.98 1773.4 1057.84 1807.42 1010.02L1807.41 1010.02C1864.83 929.816 1902.87 841.268 1947.79 761.069V766.815Z" fill="#F5F5F5" stroke="#F9F9F9"/>
<path d="M1947.78 365.76C1927.11 382.339 1906.86 400.291 1887.36 419.835L1885.47 421.737L1885.46 421.739C1850.32 457.559 1817.94 498.08 1789.16 543.11C1760.27 587.8 1735.27 636.662 1709.77 686.496C1684.64 735.43 1658.62 785.918 1626.08 833.023L1624.52 835.264L1624.52 835.265C1591.83 882.489 1552.12 926.223 1506.81 963.99L1504.64 965.783L1504.64 965.784C1459.86 1002.99 1409.38 1034.02 1357.13 1061.71L1352.07 1064.38L1352.07 1064.38C1298.02 1093.01 1242.51 1119.59 1189.83 1151.91C1137.9 1183.51 1089.07 1220.11 1045.6 1263.07L1043.53 1265.12L1043.53 1265.12C999.751 1309.01 962.439 1358.6 930.29 1411.44C899.072 1462.32 873.035 1516.19 845.45 1568.57L842.776 1573.63C828.916 1599.81 814.511 1625.64 798.777 1650.48L797.25 1652.88L797.249 1652.88C795.22 1656.11 793.309 1659.35 791.226 1662.51L784.722 1671.86L771.742 1690.53L771.735 1690.54C768.613 1695.27 765.146 1699.7 761.645 1704.11L758.145 1708.53L744.205 1726.18C706.55 1771.79 662.935 1811.66 615.945 1844.51L613.704 1846.07H613.703C568.772 1877.37 521.061 1902.45 474.246 1926.54L464.896 1931.34C445.538 1941.25 426.361 1951.08 407.512 1961.07H401.42C416.576 1952.94 431.931 1944.95 447.406 1936.96L463.519 1928.66H463.52C512.462 1903.4 562.582 1877.46 609.542 1844.88L611.776 1843.32L611.778 1843.32C623.524 1834.99 635.107 1825.85 646.82 1817.12L646.832 1817.11L646.844 1817.1C658.015 1807.69 669.098 1798.11 680.191 1788.47L680.204 1788.46L680.215 1788.45C690.662 1778.1 701.479 1767.97 711.771 1757.31L711.783 1757.29L726.672 1740.73L734.137 1732.42L734.138 1732.42L737.817 1728.31L737.828 1728.3L737.838 1728.29L741.303 1723.89C779.565 1677.63 810.893 1625.89 839.192 1571.75C867.247 1518.54 893.361 1463.82 925.053 1411.56L926.565 1409.08L926.566 1409.08C958.531 1356.28 996.258 1305.87 1040.16 1261.73L1040.16 1261.73C1083.52 1218.59 1133.07 1181.3 1185.06 1149.62L1187.53 1148.12L1187.54 1148.11C1240.39 1115.82 1296.2 1089.22 1350.16 1060.77L1350.16 1060.77C1404.29 1032.5 1456.18 1001.04 1502.27 962.915C1548.48 924.885 1588.55 881.036 1621.71 833.405L1621.71 833.404C1653.05 788.603 1678.06 741.231 1702.25 694.45L1707.07 685.103L1707.07 685.102C1732.28 636.077 1756.99 587.997 1785.56 543.677L1786.93 541.57L1786.93 541.568C1815.68 496.739 1848.51 455.792 1883.75 420.044L1883.75 420.043C1904.34 399.326 1925.83 380.325 1947.78 362.875V365.76Z" fill="#F5F5F5" stroke="#F9F9F9"/>
<path d="M1947.79 416.972C1938 425.585 1928.34 434.521 1918.87 443.864L1916.97 445.749L1916.96 445.751C1881.48 481.538 1848.95 522.285 1820.2 567.546C1791.19 612.511 1766.7 661.855 1741.04 711.947C1715.37 762.043 1688.53 812.899 1654.78 860.941C1645.95 872.664 1637.09 884.443 1628.19 896.264C1618.59 907.479 1608.95 918.735 1599.28 930.037C1588.89 940.717 1578.45 951.437 1567.99 962.186C1556.88 972.201 1545.74 982.252 1534.56 992.336C1489.97 1030.08 1439.75 1062.19 1387.43 1090.28L1382.36 1092.99L1382.36 1092.99C1329.07 1121.7 1273.99 1147.42 1221.44 1178.65L1218.94 1180.14L1218.93 1180.15C1205.84 1188.4 1192.72 1196.65 1179.61 1204.9L1179.6 1204.91L1179.58 1204.92L1141.68 1231.89L1141.67 1231.9L1141.66 1231.91L1105.58 1261.16L1105.57 1261.17L1105.56 1261.18L1071.35 1293.04L1071.33 1293.06L1071.32 1293.07L1039.66 1327.05L1039.65 1327.06L1039.64 1327.07L1010.33 1363.23L1010.32 1363.24L1010.31 1363.25L983.371 1401.09L983.364 1401.1L983.356 1401.12L958.554 1440.52L958.548 1440.53C926.741 1493.65 900.491 1549.93 871.424 1603.91C863.937 1617.34 856.468 1630.75 849.01 1644.12C840.949 1657.14 832.917 1670.13 824.902 1683.08C816.185 1695.62 807.493 1708.13 798.823 1720.6C789.447 1732.46 780.1 1744.29 770.783 1756.09C732.461 1801.54 688.593 1841.37 641.649 1874.72L639.411 1876.3C592.264 1909.43 542.484 1935.87 493.353 1961.07H486.747C537.492 1934.97 588.994 1907.79 637.482 1873.56L637.489 1873.56L637.495 1873.55C649.131 1864.76 660.82 1855.93 672.555 1847.06L672.568 1847.05L672.58 1847.04C683.696 1837.49 694.853 1827.89 706.055 1818.27L706.078 1818.24C716.656 1807.91 727.275 1797.54 737.928 1787.13L737.94 1787.12L737.951 1787.11C747.886 1776.05 757.856 1764.96 767.855 1753.83L767.861 1753.82L767.866 1753.81C806.751 1707.66 839.134 1656.28 867.818 1602.05C896.37 1548.77 922.006 1493.59 953.251 1440.78L954.744 1438.27L954.745 1438.27C986.308 1384.82 1023.72 1333.92 1068.08 1289.55L1102.31 1257.76L1138.87 1228.22L1177.07 1201.14C1190.28 1192.86 1203.48 1184.59 1216.67 1176.32C1270.08 1144.49 1326.46 1118.33 1380.42 1089.4L1380.42 1089.4C1434.69 1060.73 1486.18 1028.22 1532.15 989.496L1532.16 989.491L1532.16 989.485C1543.33 979.457 1554.46 969.452 1565.56 959.482L1565.58 959.471L1565.59 959.459C1575.97 948.824 1586.33 938.222 1596.65 927.662L1596.66 927.651L1596.67 927.638C1606.31 916.418 1615.92 905.239 1625.49 894.106L1625.5 894.093L1625.51 894.082C1634.35 882.385 1643.15 870.734 1651.92 859.13L1651.93 859.117C1685.7 811.28 1712.59 760.574 1738.34 710.558C1763.69 661.314 1787.93 612.749 1816.55 568.2L1817.92 566.082L1817.92 566.079C1846.71 520.928 1879.65 479.791 1915.24 444.063C1925.86 433.544 1936.74 423.532 1947.79 413.901V416.972Z" fill="#F5F5F5" stroke="#F9F9F9"/>
<path d="M1947.78 470.909C1912.15 506.166 1879.69 546.889 1851.37 592.136C1822.65 637.53 1798.11 687.128 1772.21 737.371C1746.3 787.619 1719.02 838.526 1684.77 886.592C1675.9 898.331 1667 910.121 1658.06 921.959C1648.41 933.224 1638.73 944.529 1629.02 955.882C1618.6 966.616 1608.15 977.385 1597.66 988.195C1586.8 998.574 1575.44 1008.4 1564.28 1018.6C1519.68 1056.86 1469.8 1089.71 1417.57 1118.55L1412.51 1121.33L1412.51 1121.33C1385.44 1136.25 1357.86 1150.26 1330.3 1164.47C1303.61 1178.23 1276.94 1192.19 1250.8 1207.34L1248.27 1208.81L1238.17 1214.61L1238.16 1214.62L1228.28 1220.83L1208.54 1233.26C1203.5 1236.26 1198.72 1239.64 1193.96 1243.03L1189.21 1246.42L1189.21 1246.42L1170.18 1259.96C1167.34 1261.89 1164.62 1263.94 1161.98 1266.11L1160.86 1267.05L1151.81 1274.38L1133.7 1289.06L1133.69 1289.07L1133.68 1289.08C1122 1299.41 1110.7 1310.35 1099.19 1320.91L1099.18 1320.93C1055.18 1365.01 1018.4 1416.02 987.184 1469.89C971.504 1496.76 957.084 1524.31 942.865 1551.89C929.532 1577.74 916.377 1603.62 902.518 1629.01L899.737 1634.08L899.736 1634.08C870.669 1687.34 837.454 1738.3 798.868 1783.66L797.026 1785.82C758.37 1831.07 714.245 1871.21 667.272 1904.72L665.033 1906.31L665.032 1906.31C636.491 1926.65 606.959 1944.49 577.172 1961.08H570.738C602.085 1943.71 633.128 1925.03 662.996 1903.65C710.942 1869.56 755.061 1829.36 794.216 1783.41L794.215 1783.41C833.452 1737.47 866.779 1686.21 896.175 1632.13C910.993 1605.14 924.941 1577.54 939.109 1549.93C952.835 1523.18 966.77 1496.42 981.91 1470.19L983.378 1467.65V1467.65C1014.55 1413.64 1051.44 1362.12 1095.94 1317.42C1107.48 1306.8 1118.73 1295.99 1130.47 1285.62L1148.85 1270.78L1158.04 1263.36L1158.04 1263.36C1160.67 1261.14 1163.39 1259.05 1166.19 1257.1L1167.39 1256.27L1167.4 1256.26L1186.61 1242.65C1192.63 1238.41 1198.52 1234.05 1204.77 1230.23L1206.03 1229.48L1206.04 1229.47L1225.95 1216.99L1235.88 1210.77L1235.88 1210.77L1246.08 1204.95L1246.08 1204.94C1273.05 1189.28 1300.69 1174.88 1328.32 1160.69C1355.96 1146.51 1383.58 1132.55 1410.52 1117.76L1410.52 1117.76C1464.64 1088.36 1515.96 1054.95 1561.77 1015.84L1561.77 1015.84C1607.84 976.592 1648 932.45 1682.01 884.632L1682.02 884.633C1716.22 836.848 1743.52 786.116 1769.51 735.958C1795.09 686.574 1819.38 637.756 1847.73 592.802L1849.08 590.664L1849.08 590.662C1877.28 545.818 1909.74 505.091 1945.3 469.933L1947 468.263C1947.26 468.013 1947.52 467.77 1947.78 467.523V470.909Z" fill="#F5F5F5" stroke="#F9F9F9"/>
<path d="M1947.79 157.456C1924.2 170.83 1900.33 185.236 1876.36 200.795L1871.55 203.934L1871.54 203.939C1833.12 230.122 1795.39 260.684 1760.08 296.325L1760.44 296.676L1760.08 296.325L1760.08 296.327C1724.94 332.147 1692.55 372.667 1663.78 417.697C1634.88 462.388 1609.88 511.25 1584.38 561.084C1559.26 610.018 1533.24 660.506 1500.7 707.611L1499.14 709.851L1499.14 709.852C1466.44 757.076 1426.73 800.805 1381.42 838.572L1379.25 840.366L1379.25 840.367C1334.47 877.57 1283.99 908.594 1231.74 936.288L1226.68 938.958L1226.68 938.958C1173.47 967.148 1118.85 993.347 1066.91 1024.98L1064.44 1026.5L1064.44 1026.5L1044.87 1038.82V1038.82C1038.36 1042.93 1031.71 1046.92 1025.51 1051.57L1006.66 1064.99L997.234 1071.7C994.023 1073.89 990.939 1076.22 987.987 1078.72C976.081 1088.5 963.917 1097.99 952.167 1108.02L952.158 1108.03L952.15 1108.04L918.09 1139.77L918.078 1139.78L918.065 1139.79L886.529 1173.63L886.521 1173.64L886.514 1173.65C876.479 1185.4 866.953 1197.61 857.17 1209.53C854.66 1212.49 852.325 1215.58 850.142 1218.77L843.435 1228.19L830.035 1247.02C826.56 1251.65 823.437 1256.57 820.353 1261.49L817.27 1266.4V1266.4L804.916 1286.04L804.913 1286.04C773.695 1336.92 747.663 1390.79 720.074 1443.17L717.399 1448.23C703.086 1475.25 688.204 1501.9 671.868 1527.48L672.289 1527.75L671.867 1527.48L671.866 1527.48C670.082 1530.31 668.401 1533.15 666.607 1535.93L665.837 1537.11L659.339 1546.46L646.359 1565.13L646.352 1565.14C643.234 1569.87 639.768 1574.29 636.267 1578.71L632.767 1583.13L618.829 1600.77C581.178 1646.38 537.554 1686.25 490.567 1719.11L488.327 1720.67L488.326 1720.67C443.389 1751.97 395.678 1777.05 348.863 1801.14L339.513 1805.94C289.633 1831.46 240.916 1856.38 196.092 1885.36C160.082 1908.37 126.94 1933.77 96.7115 1961.07H93.067C122.837 1933.89 155.704 1908.34 191.16 1885.34L194.635 1883.09L194.638 1883.09C236.614 1855.83 282.274 1832 328.816 1808.05L338.135 1803.26H338.136C387.856 1777.6 438.795 1751.23 486.398 1717.93C534.151 1684.71 577.966 1644.58 615.915 1598.49L615.914 1598.49C654.175 1552.23 685.5 1500.49 713.804 1446.35L713.803 1446.35C741.863 1393.15 767.972 1338.43 799.664 1286.17L801.176 1283.68L801.177 1283.68C832.672 1231.68 869.622 1182.11 912.78 1138.34L914.839 1136.26L948.918 1104.6C959.281 1095.78 970.01 1087.34 980.624 1078.76L985.166 1075.07L985.172 1075.06C987.772 1072.87 990.466 1070.81 993.245 1068.87L994.44 1068.05L994.449 1068.04L1003.96 1061.3L1003.96 1061.3L1022.98 1047.81L1022.99 1047.81C1029.2 1043.18 1035.84 1039.2 1042.42 1035.06L1042.42 1035.06L1062.14 1022.71L1062.14 1022.71C1114.99 990.427 1170.8 963.822 1224.76 935.37L1224.75 935.369C1278.88 907.093 1330.77 875.638 1376.86 837.515C1423.08 799.491 1463.15 755.635 1496.31 708.01L1496.31 708.011C1527.65 663.21 1552.65 615.836 1576.84 569.055L1581.67 559.708H1581.67C1606.88 510.682 1631.58 462.603 1660.16 418.277L1661.53 416.169L1661.53 416.167C1690.29 371.344 1723.11 330.391 1758.35 294.65L1758.35 294.651C1793.77 259.025 1831.8 228.33 1870.34 202.191L1870.34 202.19C1896.47 185.175 1922.26 169.585 1947.79 155.222V157.456Z" fill="#F5F5F5" stroke="#F9F9F9"/>
<path d="M1947.8 202.403C1934.37 210.235 1920.87 218.46 1907.39 227.2L1904.68 228.966L1904.68 228.967C1866.2 254.183 1828.52 283.843 1793.26 318.678L1791.58 320.342L1791.58 320.344C1756.09 356.125 1723.56 396.872 1694.82 442.134C1665.8 487.101 1641.32 536.447 1615.66 586.539C1589.99 636.636 1563.15 687.489 1529.39 735.528C1520.57 747.247 1511.7 759.024 1502.81 770.842C1493.22 782.058 1483.58 793.314 1473.91 804.617C1463.51 815.305 1453.08 826.022 1442.61 836.78C1431.5 846.795 1420.36 856.845 1409.18 866.929C1364.59 904.672 1314.36 936.778 1262.05 964.873L1256.98 967.579L1256.98 967.58C1203.66 996.291 1148.64 1021.99 1096.02 1053.26L1093.52 1054.75L1093.51 1054.76C1080.42 1062.99 1067.33 1071.23 1054.22 1079.49L1054.2 1079.5L1016.3 1106.47L1016.29 1106.48L1016.27 1106.49L980.194 1135.74L980.182 1135.75L980.169 1135.76L946.034 1167.56L946.009 1167.58L914.275 1201.63L914.264 1201.64L914.253 1201.66L884.938 1237.82L884.929 1237.83L884.919 1237.84L857.988 1275.68L857.973 1275.7L833.178 1315.1L833.172 1315.11C801.359 1368.24 775.103 1424.51 746.041 1478.5C738.56 1491.93 731.085 1505.34 723.633 1518.71C715.576 1531.74 707.536 1544.73 699.519 1557.69C690.805 1570.22 682.119 1582.72 673.451 1595.2L645.411 1630.68C607.084 1676.12 563.222 1715.95 516.272 1749.31L514.034 1750.89C465.933 1784.69 415.079 1811.54 364.983 1837.21C314.898 1862.87 265.56 1887.35 220.542 1916.39C198.491 1930.4 177.512 1945.33 157.616 1961.07H153.559C173.59 1945.01 194.757 1929.75 216.955 1915.49L219.146 1914.09L219.149 1914.08C264.227 1884.89 313.559 1860.28 363.59 1834.53C413.611 1808.78 464.32 1781.89 512.099 1748.16L512.105 1748.15L512.112 1748.15C523.755 1739.35 535.443 1730.52 547.173 1721.66L547.185 1721.65L547.197 1721.64C558.319 1712.08 569.475 1702.49 580.678 1692.86L580.69 1692.85L580.701 1692.84C591.279 1682.5 601.898 1672.13 612.551 1661.72L612.562 1661.71L612.573 1661.7C622.509 1650.64 632.479 1639.55 642.484 1628.42L642.494 1628.41C681.38 1582.24 713.756 1530.86 742.439 1476.63L742.44 1476.63C770.986 1423.36 796.634 1368.17 827.88 1315.37L829.372 1312.85L829.373 1312.85C860.893 1259.43 898.423 1208.43 942.638 1164.2L942.637 1164.2L976.946 1132.33L1013.49 1102.81L1051.69 1075.74C1064.91 1067.45 1078.13 1059.16 1091.34 1050.89L1091.34 1050.89C1144.67 1019.1 1201.1 992.916 1255.04 964.006L1255.04 964.005C1309.3 935.333 1360.8 902.83 1406.77 864.106L1406.78 864.1L1406.79 864.095C1417.95 854.062 1429.08 844.057 1440.18 834.087L1440.19 834.076L1440.2 834.064C1450.59 823.429 1460.94 812.827 1471.26 802.26L1471.27 802.25L1471.28 802.237C1480.92 791.017 1490.53 779.838 1500.09 768.705L1500.1 768.692L1500.11 768.68C1508.95 756.986 1517.76 745.331 1526.52 733.729L1526.53 733.722L1526.53 733.717C1560.31 685.88 1587.2 635.173 1612.94 585.156C1638.29 535.912 1662.53 487.345 1691.15 442.793L1692.52 440.675L1692.52 440.672C1721.31 395.521 1754.25 354.389 1789.85 318.661L1789.85 318.662C1825.68 283.16 1864.33 252.75 1903.49 227.209C1918.52 218.157 1933.25 209.29 1947.8 200.524V202.403Z" fill="#F5F5F5" stroke="#F9F9F9"/>
<path d="M1947.77 248.957L1938.2 254.743L1938.2 254.745C1898.93 278.989 1860.75 308.39 1824.93 343.001L1823.23 344.654L1823.22 344.656C1787.82 379.556 1755.53 419.864 1727.3 464.611L1725.95 466.745C1697.23 512.14 1672.7 561.739 1646.8 611.982C1620.89 662.231 1593.61 713.138 1559.37 761.204C1550.5 772.945 1541.6 784.733 1532.66 796.561C1523.01 807.831 1513.33 819.143 1503.61 830.494C1493.18 841.233 1482.73 852.007 1472.23 862.821C1461.38 873.205 1450.02 883.02 1438.86 893.219C1394.26 931.48 1344.39 964.326 1292.16 993.164L1287.1 995.942L1287.1 995.943C1260.04 1010.86 1232.46 1024.87 1204.9 1039.08C1177.35 1053.29 1149.82 1067.7 1122.87 1083.42L1112.77 1089.22L1112.76 1089.23L1102.88 1095.45L1083.14 1107.88C1078.1 1110.88 1073.32 1114.26 1068.57 1117.65L1063.82 1121.04L1063.82 1121.04L1044.78 1134.58C1041.94 1136.51 1039.22 1138.56 1036.59 1140.73L1035.47 1141.67L1026.42 1149L1008.31 1163.68L1008.3 1163.69L1008.29 1163.69C996.598 1174.03 985.306 1184.97 973.8 1195.53L973.784 1195.55C929.77 1239.62 893 1290.64 861.783 1344.51C846.103 1371.38 831.682 1398.93 817.461 1426.51C804.128 1452.36 790.972 1478.24 777.112 1503.62L774.33 1508.69L774.329 1508.7C745.268 1561.96 712.059 1612.92 673.473 1658.28L671.631 1660.44C632.97 1705.69 588.85 1745.83 541.883 1779.35L539.644 1780.94L539.643 1780.94C491.515 1815.23 440.61 1842.51 390.364 1868.41C340.914 1893.9 292.091 1918.07 247.234 1946.25L245.101 1947.59C238.085 1951.98 231.226 1956.51 224.432 1961.1H219.761C226.58 1956.41 233.471 1951.8 240.493 1947.32L243.708 1945.28L243.71 1945.28C286.251 1918.19 332.686 1894.78 379.577 1870.6L388.96 1865.75C439.086 1839.8 489.982 1812.3 537.608 1778.28C585.553 1744.18 629.66 1703.98 668.821 1658.04L668.82 1658.04C708.052 1612.09 741.379 1560.83 770.769 1506.76C785.586 1479.76 799.536 1452.16 813.705 1424.55C827.433 1397.8 841.369 1371.05 856.509 1344.81L857.978 1342.27L857.979 1342.27C889.154 1288.26 926.03 1236.73 970.542 1192.04C981.359 1182.09 991.93 1171.95 1002.89 1162.18L1005.09 1160.23L1023.45 1145.4L1032.64 1137.98L1032.65 1137.97C1035.65 1135.45 1038.76 1133.08 1042 1130.89L1041.72 1130.47L1042 1130.89L1042.01 1130.88L1061.21 1117.27C1067.24 1113.03 1073.13 1108.66 1079.38 1104.85L1080.63 1104.09L1080.64 1104.09L1100.55 1091.61L1110.49 1085.38L1110.49 1085.38L1120.68 1079.56L1120.68 1079.56C1147.66 1063.89 1175.3 1049.49 1202.93 1035.3C1230.56 1021.12 1258.19 1007.16 1285.12 992.375L1285.12 992.375C1339.25 962.973 1390.56 929.561 1436.37 890.451L1436.37 890.452C1482.46 851.198 1522.61 807.055 1556.63 759.243L1556.63 759.242C1590.82 711.452 1618.13 660.722 1644.11 610.565C1669.69 561.181 1693.99 512.365 1722.33 467.408L1723.68 465.27L1723.68 465.268C1752.33 419.719 1785.37 378.412 1821.6 342.877C1857.92 307.663 1897.08 277.497 1937.11 252.912L1937.11 252.911C1940.7 250.752 1944.21 248.639 1947.77 246.496V248.957Z" fill="#F5F5F5" stroke="#F9F9F9"/>
<path d="M1880.51 0.51709C1874.07 3.87827 1867.6 7.29904 1861.12 10.8628C1824.78 29.8168 1787.36 51.6867 1749.79 76.1519L1746.15 78.5278L1746.14 78.5327C1708.32 104.306 1671.16 134.323 1636.34 169.256L1634.68 170.924L1634.68 170.925C1599.53 206.74 1567.15 247.261 1538.38 292.296C1511.29 334.195 1487.62 379.758 1463.76 426.353L1458.98 435.684C1433.85 484.618 1407.83 535.106 1375.29 582.21L1373.74 584.451L1373.73 584.452C1341.04 631.67 1301.33 675.399 1256.01 713.171L1253.85 714.965L1253.85 714.966C1209.07 752.175 1158.59 783.2 1106.34 810.888L1101.28 813.557L1101.28 813.558C1048.07 841.747 993.452 867.947 941.513 899.584L939.042 901.095L939.037 901.098L919.462 913.417L919.461 913.418C913.365 917.273 907.138 921.016 901.274 925.301L900.116 926.158L881.252 939.588L871.814 946.307C868.611 948.489 865.529 950.828 862.575 953.324C850.669 963.092 838.498 972.584 826.754 982.622L826.746 982.628L826.738 982.636L792.678 1014.37L792.666 1014.38L792.654 1014.39L761.117 1048.23L761.109 1048.24L761.102 1048.25C751.067 1059.99 741.541 1072.2 731.758 1084.12C729.248 1087.09 726.914 1090.17 724.73 1093.37L718.023 1102.79L704.617 1121.61C701.142 1126.25 698.019 1131.17 694.935 1136.09L691.853 1141L691.852 1141L679.498 1160.63L679.495 1160.64C648.277 1211.51 622.245 1265.38 594.656 1317.76L591.981 1322.83C578.116 1349 563.722 1374.83 547.983 1399.68L546.456 1402.08L546.454 1402.08C544.424 1405.31 542.52 1408.55 540.43 1411.71L533.932 1421.06L520.953 1439.73L520.946 1439.74C517.828 1444.47 514.362 1448.89 510.861 1453.31L507.361 1457.73L493.423 1475.37C455.766 1520.98 412.149 1560.85 365.156 1593.71L362.915 1595.27L362.914 1595.27C317.982 1626.57 270.272 1651.65 223.457 1675.74L214.107 1680.54C165.005 1705.66 117.032 1730.2 72.7888 1758.6L70.6843 1759.96C26.4435 1788.22 -13.5345 1820.03 -48.9954 1854.61L-50.6799 1856.26L-50.6819 1856.27C-84.1957 1889.46 -113.243 1924.91 -138.413 1961.05H-140.999C-115.694 1924.42 -86.3177 1888.31 -52.3059 1854.51L-52.3049 1854.51C-17.1729 1819.88 23.0255 1787.52 67.1267 1759.05L69.2292 1757.69L69.2322 1757.69C111.203 1730.43 156.867 1706.6 203.41 1682.65L212.729 1677.86L212.73 1677.86C261.673 1652.6 311.792 1626.66 358.753 1594.08L360.987 1592.52L360.99 1592.52C372.736 1584.19 384.318 1575.05 396.031 1566.32L396.043 1566.31L396.054 1566.3C407.22 1556.89 418.309 1547.31 429.402 1537.67L429.415 1537.66L429.426 1537.65C439.873 1527.3 450.69 1517.17 460.982 1506.51L460.988 1506.5L460.995 1506.49L475.878 1489.93L483.342 1481.62H483.343L487.022 1477.52L487.033 1477.51L487.043 1477.49L490.508 1473.09C528.775 1426.83 560.098 1375.09 588.397 1320.95L588.398 1320.95C616.458 1267.75 642.566 1213.03 674.258 1160.77L675.77 1158.28L675.771 1158.28C707.272 1106.28 744.216 1056.71 787.385 1012.95L789.445 1010.87L823.523 979.202C833.886 970.377 844.62 961.938 855.231 953.355L859.771 949.665L859.777 949.66C862.377 947.468 865.071 945.412 867.85 943.473L869.047 942.649L869.054 942.643L878.568 935.896L878.567 935.895L897.582 922.414L897.592 922.407C903.803 917.776 910.448 913.803 917.029 909.664L917.03 909.665L936.751 897.31L936.75 897.309C989.596 865.026 1045.41 838.422 1099.37 809.969L1099.37 809.968C1153.49 781.698 1205.39 750.243 1251.48 712.114L1251.48 712.113C1297.69 674.083 1337.76 630.234 1370.92 582.609L1370.92 582.61C1402.27 537.809 1427.27 490.436 1451.46 443.655L1456.29 434.307L1456.29 434.306C1481.5 385.287 1506.21 337.208 1534.78 292.888L1536.15 290.78L1536.15 290.778C1564.9 245.943 1597.71 204.99 1632.97 169.254L1632.97 169.253C1668.37 133.628 1706.41 102.935 1744.95 76.7964L1744.95 76.7954C1782.84 52.1176 1820.05 30.1943 1856.72 11.144L1860.27 9.30908L1860.28 9.3042C1865.84 6.28041 1871.38 3.37627 1876.91 0.51709H1880.51Z" fill="#F5F5F5" stroke="#F9F9F9"/>
<path d="M1947.76 10.208C1895.73 37.2078 1838.71 65.0101 1781.95 101.819L1779.24 103.582V103.583C1740.77 128.805 1703.09 158.46 1667.82 193.29L1666.14 194.952L1666.14 194.955C1630.66 230.741 1598.13 271.494 1569.39 316.75C1540.37 361.717 1515.89 411.062 1490.22 461.152C1464.55 511.248 1437.7 562.099 1403.95 610.139C1395.12 621.863 1386.27 633.635 1377.38 645.458C1367.78 656.677 1358.14 667.935 1348.46 679.24C1338.07 689.921 1327.64 700.635 1317.17 711.391C1306.07 721.411 1294.93 731.455 1283.75 741.54C1239.16 779.283 1188.93 811.388 1136.62 839.488L1131.55 842.195L1131.55 842.196C1078.25 870.902 1023.17 896.619 970.629 927.855L968.129 929.348L968.12 929.354C955.025 937.594 941.919 945.845 928.795 954.103L928.783 954.109L928.771 954.118L890.87 981.089L890.844 981.108L854.771 1010.35L854.757 1010.36L854.745 1010.38L820.61 1042.17L820.597 1042.19L820.585 1042.2L788.852 1076.25L788.84 1076.26L788.829 1076.28L759.514 1112.43L759.504 1112.44L759.495 1112.46L732.565 1150.3L732.557 1150.31L732.549 1150.32L707.753 1189.72L707.747 1189.73C676.928 1241.2 651.34 1295.63 623.332 1348.05L620.618 1353.11C613.137 1366.55 605.661 1379.95 598.209 1393.33C590.16 1406.35 582.122 1419.34 574.107 1432.29C565.398 1444.83 556.708 1457.33 548.039 1469.81C538.665 1481.66 529.32 1493.49 520.003 1505.29C481.668 1550.72 437.808 1590.56 390.854 1623.92L388.616 1625.5C340.512 1659.3 289.657 1686.15 239.562 1711.81C189.477 1737.47 140.14 1761.95 95.1244 1791C50.6716 1819.25 10.47 1851.18 -24.983 1886.1L-26.6676 1887.77L-26.6705 1887.77C-49.9925 1911.23 -71.0147 1935.84 -90.0084 1961.07H-92.7438C-73.5082 1935.29 -52.0967 1910.03 -28.2838 1886.01C6.81271 1851.05 47.2062 1818.57 91.6166 1790.05L93.7347 1788.69L93.7377 1788.69C138.818 1759.5 188.153 1734.89 238.185 1709.14C288.207 1683.39 338.917 1656.5 386.693 1622.77L386.7 1622.76L386.705 1622.76C398.342 1613.96 410.031 1605.13 421.766 1596.27L421.779 1596.26L421.79 1596.25C432.906 1586.69 444.064 1577.1 455.266 1567.47L455.278 1567.46L455.289 1567.45C465.873 1557.11 476.491 1546.74 487.144 1536.33L487.156 1536.32L487.167 1536.31C497.103 1525.25 507.073 1514.16 517.078 1503.03L517.082 1503.03L517.088 1503.02C555.974 1456.85 588.352 1405.47 617.03 1351.24L617.029 1351.24C645.591 1297.97 671.223 1242.79 702.473 1189.98L703.965 1187.47L703.966 1187.47C735.483 1134.05 773.014 1083.05 817.217 1038.83L851.539 1006.95L888.084 977.43L926.284 950.353C939.493 942.071 952.696 933.801 965.888 925.536C1019.29 893.698 1075.67 867.546 1129.63 838.622L1129.63 838.621C1183.9 809.943 1235.39 777.434 1281.37 738.711L1281.37 738.706L1281.38 738.7C1292.55 728.666 1303.68 718.662 1314.77 708.691L1314.79 708.681L1314.8 708.669C1325.19 698.033 1335.54 687.431 1345.86 676.871L1345.87 676.86L1345.88 676.848C1355.52 665.628 1365.13 654.449 1374.7 643.315L1374.71 643.303L1374.72 643.29C1383.55 631.59 1392.36 619.936 1401.12 608.328L1401.13 608.321L1401.13 608.315C1434.91 560.482 1461.8 509.778 1487.55 459.764C1512.9 410.521 1537.14 361.956 1565.76 317.403L1567.13 315.285L1567.13 315.282C1595.92 270.137 1628.85 229.001 1664.46 193.267C1700.29 157.771 1738.94 127.361 1778.1 101.819C1798.13 89.7527 1817.75 77.9407 1836.92 66.3887C1856.69 55.8479 1876 45.5503 1894.83 35.5127L1894.83 35.5117C1912.93 26.3006 1930.57 17.3264 1947.76 8.58203V10.208Z" fill="#F5F5F5" stroke="#F9F9F9"/>
<path d="M1947.79 54.5974C1943.48 56.816 1939.15 59.0394 1934.8 61.2937L1930.35 63.6052C1913.62 72.0784 1896.86 81.2504 1879.65 90.4626L1872.25 94.4109L1872.25 94.4128L1857.34 102.403L1857.33 102.41L1857.32 102.417L1842.65 111.287L1812.83 129.324L1812.83 129.326C1773.56 153.57 1735.38 182.983 1699.55 217.584L1697.85 219.235L1697.85 219.237C1661.87 254.685 1629.14 295.725 1600.58 341.324C1571.86 386.72 1547.33 436.322 1521.42 486.566C1495.92 536.035 1469.08 586.139 1435.58 633.541L1433.99 635.785C1425.12 647.524 1416.21 659.321 1407.27 671.152C1397.62 682.425 1387.96 693.722 1378.23 705.075C1367.82 715.816 1357.36 726.585 1346.87 737.395C1336.02 747.78 1324.66 757.597 1313.5 767.802C1268.9 806.062 1219.02 838.911 1166.79 867.751L1161.73 870.529L1161.73 870.53C1134.66 885.449 1107.08 899.456 1079.52 913.667C1052.83 927.432 1026.16 941.388 1000.02 956.542L997.496 958.011C944.484 988.764 894.406 1024.67 850.566 1067.99L848.483 1070.06L848.482 1070.06C804.323 1114.27 767.658 1165.19 736.412 1219.09C720.732 1245.96 706.309 1273.51 692.087 1301.09C678.752 1326.95 665.595 1352.82 651.735 1378.21L648.954 1383.28L648.952 1383.28C619.897 1436.55 586.682 1487.5 548.096 1532.87L546.254 1535.03C507.592 1580.27 463.473 1620.41 416.506 1653.93L414.266 1655.52L414.266 1655.52C366.135 1689.81 315.23 1717.09 264.984 1742.99C214.749 1768.89 165.162 1793.42 119.721 1822.17C74.9127 1850.23 34.4222 1882.39 -0.694458 1917.76L-2.36243 1919.45L-2.36536 1919.45C-15.535 1932.99 -27.975 1946.89 -39.6808 1961.08H-42.5909C-30.5315 1946.31 -17.7043 1931.84 -4.07825 1917.78L-4.07922 1917.78C30.8491 1882.17 71.3945 1849.59 116.182 1821.21L118.319 1819.86L118.321 1819.86C163.817 1790.97 213.412 1766.31 263.589 1740.31C313.755 1714.33 364.492 1687.02 412.219 1652.86C460.165 1618.77 504.277 1578.56 543.438 1532.62L543.437 1532.62C582.669 1486.68 616.001 1435.42 645.386 1381.34C660.201 1354.35 674.15 1326.74 688.32 1299.14C702.049 1272.39 715.986 1245.63 731.126 1219.4L732.595 1216.86L732.596 1216.86C763.736 1162.88 800.722 1111.25 845.084 1066.7C856.036 1056.61 866.524 1046.56 877.501 1036.77L879.703 1034.82L898.064 1019.99L907.253 1012.57L907.254 1012.57L907.262 1012.56C909.888 1010.35 912.603 1008.26 915.405 1006.3L916.611 1005.47L916.62 1005.47L935.824 991.859C941.848 987.613 947.742 983.249 953.991 979.436L955.246 978.681L955.256 978.675L975.168 966.199L985.098 959.977L995.293 954.15L995.297 954.148C1022.27 938.48 1049.91 924.076 1077.54 909.892C1105.17 895.71 1132.8 881.746 1159.73 866.963L1159.73 866.962C1213.86 837.566 1265.18 804.154 1310.99 765.044L1310.99 765.043C1357.06 725.789 1397.21 681.644 1431.23 633.832C1465.43 586.047 1492.74 535.315 1518.72 485.156C1544.3 435.771 1568.59 386.952 1596.93 341.995L1598.29 339.857L1598.29 339.855C1626.94 294.311 1659.97 252.998 1696.2 217.463L1696.2 217.462C1732.54 182.266 1771.68 152.085 1811.72 127.507C1821.77 121.448 1831.73 115.453 1841.57 109.528L1841.57 109.527C1846.49 106.572 1851.38 103.623 1856.24 100.698C1861.26 98.0207 1866.25 95.356 1871.21 92.7136L1871.21 92.7126C1889.88 82.8552 1907.96 72.8848 1925.92 63.8269L1929.51 62.0281L1929.52 62.0251C1935.65 58.8766 1941.74 55.7916 1947.78 52.7244L1947.79 54.5974Z" fill="#F5F5F5" stroke="#F9F9F9"/>
<path d="M1558.25 0.534668C1542.62 13.6689 1527.26 27.6083 1512.34 42.4858L1509.29 45.5415L1509.29 45.5425C1474.7 80.809 1442.77 120.614 1414.34 164.808L1412.99 166.916C1385.9 208.818 1362.23 254.381 1338.37 300.975L1333.6 310.307C1308.48 359.241 1282.45 409.729 1249.91 456.833L1248.36 459.074L1248.36 459.075C1215.65 506.293 1175.95 550.027 1130.63 587.799L1128.47 589.594H1128.47C1083.69 626.792 1033.21 657.822 980.959 685.516L975.896 688.186H975.895C922.682 716.369 868.063 742.57 816.124 774.208L813.654 775.717C761.73 807.325 712.896 843.912 669.425 886.883L667.358 888.934L667.357 888.935C623.573 932.824 586.268 982.407 554.112 1035.25C522.895 1086.13 496.862 1140.01 469.278 1192.38L466.604 1197.45C452.738 1223.62 438.339 1249.45 422.605 1274.29L421.078 1276.69L421.077 1276.7C419.041 1279.93 417.138 1283.17 415.048 1286.32L408.544 1295.68L395.57 1314.34L395.563 1314.35C391.401 1320.67 386.624 1326.43 381.973 1332.34L368.027 1349.99C330.373 1395.6 286.751 1435.47 239.767 1468.32L237.526 1469.88L237.525 1469.88C192.588 1501.19 144.878 1526.26 98.0625 1550.35L88.7129 1555.16C38.8379 1580.68 -9.87833 1605.6 -54.708 1634.57C-98.9438 1662.85 -138.923 1694.66 -174.384 1729.24L-176.069 1730.89L-176.07 1730.89C-210.531 1765.02 -240.322 1801.53 -265.965 1838.73L-268.434 1842.34L-268.438 1842.34C-293.889 1881.19 -316.469 1919.7 -336.104 1957.3C-336.79 1958.55 -337.465 1959.83 -338.14 1961.08H-340.105C-339.527 1959.99 -338.961 1958.91 -338.383 1957.82L-337.667 1956.49L-337.662 1956.48C-318.253 1918.74 -295.615 1880.2 -270.17 1841.14C-244.042 1802.63 -213.399 1764.61 -177.692 1729.13L-177.693 1729.13C-142.567 1694.51 -102.374 1662.14 -58.2686 1633.67L-56.165 1632.31L-56.1631 1632.31C-14.1869 1605.06 31.4735 1581.23 78.0156 1557.28L87.335 1552.48H87.3359C137.061 1526.82 187.994 1500.45 235.597 1467.15C283.349 1433.92 327.164 1393.8 365.112 1347.71L365.113 1347.71C403.375 1301.45 434.698 1249.7 463.003 1195.56C491.058 1142.36 517.166 1087.64 548.857 1035.37L550.37 1032.89L550.371 1032.89C582.342 980.095 620.063 929.675 663.973 885.545L663.974 885.546C707.323 842.396 756.879 805.119 808.866 773.424L811.344 771.919L811.346 771.918C864.2 739.635 920.012 713.028 973.973 684.581L973.972 684.58C1028.1 656.309 1079.99 624.842 1126.08 586.725L1126.08 586.724C1172.29 548.7 1212.36 504.839 1245.53 457.22L1245.53 457.219C1276.87 412.413 1301.87 365.041 1326.06 318.26L1330.89 308.913V308.912C1356.09 259.892 1380.8 211.814 1409.37 167.488L1410.74 165.379L1410.74 165.377C1439.5 120.544 1472.32 79.6029 1507.56 43.856C1522.84 28.4894 1538.62 14.0983 1554.7 0.534668H1558.25Z" fill="#F5F5F5" stroke="#F9F9F9"/>
<path d="M1621.67 0.522949C1594.69 20.2912 1568.34 42.383 1543.21 67.1138L1540.75 69.5522L1540.74 69.5552C1505.27 105.347 1472.75 146.094 1444 191.356C1414.98 236.32 1390.49 285.664 1364.83 335.754C1339.16 385.854 1312.31 436.712 1278.55 484.758C1269.73 496.479 1260.88 508.251 1251.99 520.064C1242.39 531.28 1232.75 542.537 1223.08 553.839C1212.68 564.522 1202.24 575.239 1191.78 585.997C1180.67 596.011 1169.53 606.062 1158.35 616.146C1113.76 653.889 1063.53 686 1011.23 714.095L1006.16 716.801L1006.16 716.802C952.86 745.508 897.776 771.231 845.235 802.467L842.735 803.959L842.725 803.965C829.63 812.211 816.518 820.457 803.4 828.714L803.377 828.73L765.475 855.701L765.462 855.71L765.45 855.72L729.371 884.965L729.357 884.976L729.344 884.988L695.21 916.785L695.197 916.797L695.185 916.81L663.452 950.864L663.44 950.876L663.428 950.89L634.12 987.044L634.11 987.056L634.101 987.069L607.171 1024.91L607.162 1024.92L607.155 1024.93L582.353 1064.33L582.347 1064.34C550.534 1117.47 524.29 1173.74 495.223 1227.73C487.737 1241.16 480.267 1254.57 472.809 1267.94C464.752 1280.96 456.718 1293.95 448.702 1306.91C439.99 1319.44 431.3 1331.94 422.634 1344.41C413.26 1356.27 403.914 1368.1 394.597 1379.89C355.659 1426.06 311.008 1466.44 263.211 1500.11C215.109 1533.91 164.256 1560.76 114.161 1586.43C64.0766 1612.09 14.74 1636.57 -30.2758 1665.61C-74.7342 1693.86 -114.936 1725.79 -150.389 1760.71L-152.075 1762.38L-152.077 1762.38C-186.42 1796.94 -215.877 1833.93 -241.01 1871.81L-243.429 1875.48C-262.141 1904.1 -278.544 1932.87 -293.698 1961.08H-295.841C-281.132 1933.42 -265.175 1905.19 -246.938 1877.02L-245.15 1874.27C-219.637 1835.17 -189.285 1796.54 -153.69 1760.62C-118.593 1725.66 -78.1941 1693.17 -33.7836 1664.66L-31.6664 1663.3L-31.6625 1663.3C13.4147 1634.11 62.7465 1609.5 112.777 1583.74C162.798 1557.99 213.508 1531.1 261.287 1497.37L261.293 1497.36L261.299 1497.36C272.936 1488.57 284.625 1479.74 296.36 1470.87L296.373 1470.86L296.384 1470.85C307.506 1461.29 318.663 1451.7 329.866 1442.07L329.878 1442.06L329.889 1442.05C340.467 1431.72 351.085 1421.34 361.738 1410.94L361.75 1410.93L361.761 1410.92C371.697 1399.85 381.661 1388.76 391.666 1377.63L391.671 1377.63L391.676 1377.62C430.562 1331.45 462.937 1280.07 491.627 1225.85L491.628 1225.85C520.185 1172.58 545.821 1117.4 577.067 1064.58L578.559 1062.07L578.56 1062.07C610.086 1008.65 647.616 957.645 691.825 913.414L691.824 913.413L726.133 881.545L762.688 852.023L800.877 824.953C814.098 816.671 827.295 808.4 840.487 800.135L840.488 800.136C893.894 768.298 950.276 742.146 1004.23 713.216L1004.23 713.215C1058.49 684.543 1109.99 652.034 1155.96 613.311L1155.97 613.306L1155.97 613.3C1167.15 603.266 1178.28 593.261 1189.37 583.292L1189.39 583.281L1189.4 583.269C1199.79 572.634 1210.14 562.032 1220.46 551.472L1220.47 551.46L1220.48 551.449C1230.12 540.229 1239.73 529.049 1249.3 517.916L1249.31 517.904L1249.32 517.891C1258.15 506.191 1266.97 494.536 1275.73 482.934L1275.74 482.928L1275.74 482.921C1309.51 435.085 1336.4 384.378 1362.15 334.362C1387.5 285.118 1411.74 236.553 1440.37 192.003L1441.73 189.885L1441.74 189.882C1470.53 144.731 1503.47 103.601 1539.06 67.8608C1564.24 42.9047 1590.84 20.5239 1618.02 0.522949H1621.67Z" fill="#F5F5F5" stroke="#F9F9F9"/>
<path d="M1693.04 0.522949L1687.42 3.91748L1687.42 3.92041C1648.14 28.1705 1609.96 57.5711 1574.14 92.1772L1572.44 93.8286L1572.43 93.8315C1536.46 129.285 1503.72 170.313 1475.17 215.918C1446.44 261.314 1421.91 310.914 1396.01 361.158C1370.1 411.407 1342.81 462.313 1308.57 510.378C1299.7 522.115 1290.8 533.904 1281.86 545.739C1272.21 556.998 1262.54 568.309 1252.82 579.661C1242.4 590.398 1231.95 601.171 1221.46 611.983C1210.6 622.362 1199.24 632.191 1188.08 642.39C1143.48 680.65 1093.59 713.499 1041.37 742.344L1036.31 745.124L1036.31 745.125C1009.24 760.049 981.663 774.056 954.106 788.265C927.413 802.029 900.744 815.982 874.606 831.135L872.077 832.606L861.978 838.402L861.969 838.407L861.96 838.413L852.094 844.627L832.349 857.05C827.311 860.05 822.526 863.431 817.774 866.827L813.024 870.213H813.023L793.985 883.754C790.746 885.954 787.654 888.322 784.679 890.833L775.622 898.17L757.511 912.851L757.502 912.858L757.494 912.865C745.803 923.208 734.511 934.139 723.005 944.708L722.997 944.715L722.99 944.723C679.668 988.108 643.361 1038.23 612.46 1091.16L610.993 1093.68C595.311 1120.55 580.89 1148.1 566.671 1175.68C553.339 1201.54 540.185 1227.42 526.328 1252.81L523.547 1257.88L523.546 1257.88C494.479 1311.14 461.264 1362.1 422.678 1407.46L420.836 1409.61V1409.61C382.181 1454.86 338.061 1495.01 291.088 1528.52L288.849 1530.11L288.848 1530.11C240.721 1564.4 189.816 1591.68 139.571 1617.59C89.3356 1643.49 39.7467 1668.01 -5.698 1696.76C-50.5001 1724.82 -90.9959 1756.97 -126.107 1792.35L-127.775 1794.04L-127.777 1794.04C-162.463 1829.7 -192.1 1867.89 -216.521 1907.15L-217.68 1909.02L-217.682 1909.02L-235.69 1938.8C-238.653 1943.7 -241.61 1948.59 -244.544 1953.44L-244.551 1953.45L-244.556 1953.46C-245.927 1956.01 -247.276 1958.53 -248.634 1961.07H-250.885L-246.296 1952.46L-237.456 1937.77C-231.52 1927.92 -225.513 1917.95 -219.45 1907.88C-194.87 1867.88 -164.774 1828.78 -129.484 1792.37L-129.485 1792.37C-94.5568 1756.76 -54.0113 1724.17 -9.22339 1695.8L-7.08765 1694.45L-7.08569 1694.45C38.4105 1665.56 88.0075 1640.9 138.185 1614.91C188.353 1588.92 239.09 1561.61 286.814 1527.45L286.813 1527.45C334.015 1493.89 377.492 1454.41 416.193 1409.36L418.031 1407.21C457.263 1361.27 490.595 1310.01 519.991 1255.94L519.99 1255.94C534.805 1228.94 548.753 1201.34 562.92 1173.73C576.646 1146.98 590.58 1120.23 605.719 1093.99L607.189 1091.46V1091.45C637.881 1038.29 674.104 987.509 717.688 943.305L719.769 941.206C731.29 930.598 742.538 919.789 754.281 909.427L772.658 894.584L781.847 887.167L781.854 887.161C784.487 884.956 787.198 882.863 790.002 880.909L791.21 880.08L791.219 880.074L810.424 866.464C816.448 862.218 822.341 857.859 828.591 854.042L829.846 853.287L829.856 853.28L849.767 840.804L859.714 834.573L859.713 834.572L869.899 828.755L869.902 828.753C896.872 813.085 924.512 798.683 952.147 784.501C979.778 770.321 1007.41 756.36 1034.34 741.58L1034.34 741.579C1088.46 712.171 1139.77 678.759 1185.59 639.655L1185.59 639.656C1231.67 600.396 1271.82 556.261 1305.84 508.443C1340.04 460.655 1367.35 409.924 1393.33 359.765C1418.91 310.381 1443.21 261.564 1471.55 216.607L1472.9 214.468L1472.9 214.466C1501.54 168.912 1534.58 127.605 1570.81 92.0757C1607.14 56.8725 1646.3 26.7009 1686.33 2.11572L1686.33 2.11475C1687.22 1.57824 1688.08 1.05855 1688.97 0.522949H1693.04Z" fill="#F5F5F5" stroke="#F9F9F9"/>
<path d="M1315.73 0.5C1306.02 13.7291 1296.59 27.3555 1287.57 41.4844C1260.48 83.3826 1236.81 128.951 1212.95 175.542L1208.18 184.872C1183.05 233.806 1157.02 284.294 1124.48 331.398L1122.93 333.639L1122.93 333.64C1090.23 380.864 1050.52 424.598 1005.2 462.365L1003.04 464.159L1003.04 464.16C958.265 501.363 907.783 532.392 855.535 560.081L850.472 562.751L850.471 562.752C797.259 590.941 742.645 617.146 690.707 648.784L688.235 650.295L688.23 650.298L668.66 662.617L668.659 662.618C662.564 666.472 656.337 670.216 650.473 674.496L649.315 675.352L630.451 688.782L621.021 695.495C617.816 697.684 614.732 700.02 611.774 702.523C599.868 712.297 587.703 721.784 575.953 731.821L575.945 731.828L575.937 731.836L541.878 763.569L541.865 763.581L541.852 763.594L510.316 797.434L510.308 797.441L510.302 797.45C500.266 809.198 490.74 821.407 480.957 833.328C478.759 835.923 476.7 838.61 474.756 841.387L473.934 842.573L467.228 851.994L453.828 870.819C450.353 875.453 447.229 880.368 444.145 885.289L441.063 890.202V890.203L428.709 909.837L428.706 909.842C397.483 960.72 371.445 1014.58 343.866 1066.97L341.191 1072.03C327.331 1098.2 312.927 1124.03 297.193 1148.88L295.666 1151.28L295.664 1151.28C293.887 1154.11 292.205 1156.95 290.411 1159.73L289.641 1160.91L283.137 1170.26L270.158 1188.93L270.151 1188.94C265.994 1195.26 261.218 1201.01 256.566 1206.93L242.621 1224.58C204.966 1270.19 161.35 1310.06 114.36 1342.91L112.12 1344.47H112.119C67.1873 1375.78 19.477 1400.86 -27.3381 1424.94L-36.6877 1429.75C-85.7897 1454.87 -133.763 1479.41 -178.006 1507.81L-180.109 1509.16C-224.345 1537.44 -264.323 1569.25 -299.784 1603.83L-301.47 1605.47L-301.471 1605.48C-335.931 1639.61 -365.728 1676.11 -391.371 1713.32L-393.84 1716.92L-393.845 1716.93C-418.502 1754.56 -440.47 1791.88 -459.665 1828.36L-461.515 1831.89C-470.457 1848.14 -478.629 1864.38 -486.744 1880.11L-490.222 1886.83L-490.225 1886.83C-495.869 1898.04 -501.713 1908.86 -507.494 1919.48V1916.95C-502.116 1906.92 -496.695 1896.71 -491.457 1886.15C-482.848 1869.38 -474.342 1852.05 -464.962 1834.57L-463.073 1831.07L-463.069 1831.06C-443.652 1793.31 -421.012 1754.78 -395.565 1715.71L-395.566 1715.71C-369.439 1677.2 -338.797 1639.19 -303.093 1603.72L-303.094 1603.71C-267.968 1569.09 -227.764 1536.73 -183.668 1508.25L-181.566 1506.9L-181.563 1506.9C-139.587 1479.63 -93.927 1455.81 -47.385 1431.86L-38.0657 1427.07H-38.0647C11.6547 1401.41 62.5943 1375.04 110.197 1341.73C157.95 1308.5 201.765 1268.39 239.714 1222.3L239.713 1222.3C277.974 1176.03 309.303 1124.3 337.602 1070.16C365.651 1016.95 391.771 962.23 423.463 909.975L424.975 907.487L424.976 907.486C456.465 855.479 493.414 805.916 536.578 762.148L538.638 760.069L572.714 728.41C583.08 719.583 593.812 711.14 604.428 702.555L608.97 698.864L608.975 698.86C611.576 696.673 614.27 694.613 617.05 692.673L618.246 691.849L618.254 691.843L627.766 685.102L646.787 671.619L646.797 671.612C653.008 666.981 659.655 663.009 666.236 658.869L666.235 658.868L685.95 646.516L685.949 646.515C738.796 614.232 794.613 587.622 848.566 559.175L848.565 559.174C902.692 530.904 954.589 499.442 1000.67 461.319C1046.89 423.295 1086.96 379.44 1120.12 331.814L1120.12 331.813C1151.46 287.013 1176.47 239.641 1200.66 192.86L1205.49 183.513V183.512C1230.7 134.486 1255.4 86.4135 1283.98 42.0879L1285.34 39.9795L1285.34 39.9775C1294.03 26.4354 1303.13 13.2991 1312.52 0.5H1315.73Z" fill="#F5F5F5" stroke="#F9F9F9"/>
<path d="M1365.27 0.540527C1348.81 21.1522 1333.2 42.9644 1318.6 65.9673C1289.59 110.935 1265.1 160.28 1239.44 210.371C1213.78 260.467 1186.93 311.319 1153.17 359.362C1144.34 371.084 1135.49 382.864 1126.59 394.685C1116.99 405.901 1107.35 417.156 1097.68 428.458C1087.28 439.138 1076.85 449.853 1066.39 460.608C1055.28 470.623 1044.14 480.673 1032.96 490.751C988.366 528.489 938.144 560.604 885.832 588.7L880.764 591.407L880.761 591.408C827.448 620.119 772.426 645.815 719.804 677.083L717.3 678.577L717.29 678.583C704.207 686.817 691.112 695.062 678.005 703.314L677.982 703.33L640.08 730.301L640.068 730.31L640.055 730.32L603.982 759.565L603.968 759.576L603.956 759.587L569.821 791.384L569.808 791.397L569.796 791.41L538.063 825.458L538.051 825.47L538.04 825.484L508.731 861.638L508.721 861.65L508.712 861.663L481.776 899.501L481.76 899.525L456.958 938.925L456.952 938.935C426.138 990.405 400.534 1044.82 372.541 1097.26L369.828 1102.32C362.342 1115.75 354.872 1129.16 347.414 1142.54C339.359 1155.55 331.327 1168.54 323.312 1181.5C314.596 1194.03 305.903 1206.54 297.233 1219.01C287.864 1230.88 278.512 1242.7 269.195 1254.49C230.27 1300.67 185.616 1341.04 137.822 1374.71C89.7174 1408.51 38.8637 1435.36 -11.2311 1461.02C-61.3154 1486.69 -110.652 1511.17 -155.671 1540.21C-200.123 1568.45 -240.325 1600.39 -275.778 1635.31L-277.463 1636.98L-277.466 1636.98C-311.814 1671.53 -341.276 1708.53 -366.405 1746.41L-368.824 1750.08C-416.779 1823.43 -449.688 1897.89 -484.893 1961.07H-486.225C-451.763 1898.44 -419.894 1825.25 -372.807 1752.35L-370.545 1748.86H-370.544C-345.037 1709.77 -314.679 1671.12 -279.079 1635.22C-243.982 1600.26 -203.594 1567.77 -159.178 1539.25L-157.06 1537.9L-157.057 1537.9C-111.977 1508.71 -62.6448 1484.1 -12.6149 1458.34C37.4052 1432.59 88.1131 1405.7 135.892 1371.97L135.899 1371.96L135.905 1371.96C147.541 1363.17 159.236 1354.34 170.965 1345.47L170.978 1345.46L170.99 1345.45C182.111 1335.9 193.268 1326.31 204.471 1316.68L204.483 1316.67L204.494 1316.66C215.072 1306.32 225.691 1295.95 236.344 1285.54L236.356 1285.53L236.367 1285.52C246.302 1274.46 256.272 1263.36 266.271 1252.23L266.277 1252.23L266.282 1252.22C305.173 1206.07 337.557 1154.68 366.241 1100.45L366.24 1100.45C394.785 1047.17 420.428 992.001 451.673 939.189L453.165 936.676L453.166 936.674C484.692 883.253 522.222 832.251 566.436 788.025L566.435 788.024L600.739 756.157L637.293 726.628L675.49 699.552C688.714 691.266 701.927 682.988 715.122 674.713C768.453 642.928 824.893 616.734 878.832 587.822L878.831 587.821C933.095 559.143 984.593 526.634 1030.57 487.911L1030.57 487.906L1030.58 487.9C1041.75 477.866 1052.88 467.867 1063.98 457.897L1063.99 457.886L1064 457.875C1074.39 447.239 1084.75 436.638 1095.06 426.078L1095.09 426.054C1104.73 414.834 1114.33 403.654 1123.9 392.521L1123.91 392.509L1123.92 392.497C1132.77 380.796 1141.57 369.142 1150.34 357.54L1150.34 357.534L1150.35 357.527C1184.12 309.69 1211.01 258.984 1236.76 208.967C1262.11 159.723 1286.35 111.156 1314.97 66.603L1316.34 64.4849L1316.34 64.4819C1330.59 42.1266 1345.86 20.7593 1361.98 0.540527H1365.27Z" fill="#F5F5F5" stroke="#F9F9F9"/>
<path d="M1416.78 0.51123C1392.56 27.968 1370.08 58.0591 1349.77 90.5171C1321.04 135.913 1296.51 185.514 1270.61 235.757C1245.1 285.225 1218.27 335.33 1184.77 382.735L1183.17 384.99C1174.3 396.728 1165.41 408.507 1156.47 420.338C1146.83 431.603 1137.14 442.908 1127.43 454.26C1117.01 465.002 1106.54 475.778 1096.05 486.595C1085.19 496.97 1073.84 506.788 1062.68 516.984C1018.09 555.249 968.207 588.099 915.98 616.939L910.918 619.717L910.917 619.718C883.852 634.64 856.271 648.648 828.713 662.859C802.02 676.624 775.35 690.578 749.211 705.729L746.684 707.199C693.671 737.951 643.599 773.871 599.754 817.179L597.671 819.248H597.67C554.206 862.78 517.999 912.795 487.068 965.76L485.599 968.284C469.916 995.157 455.496 1022.71 441.275 1050.28C427.941 1076.14 414.785 1102.02 400.923 1127.4L398.141 1132.47L398.14 1132.47C369.079 1185.74 335.869 1236.7 297.278 1282.06L295.436 1284.21V1284.21C256.78 1329.47 212.661 1369.61 165.688 1403.12L163.449 1404.71L163.448 1404.71C115.321 1439 64.4149 1466.28 14.1704 1492.19C-36.064 1518.08 -85.6502 1542.61 -131.086 1571.37C-175.894 1599.43 -216.385 1631.59 -251.501 1666.95L-253.169 1668.64L-253.171 1668.64C-287.863 1704.3 -317.495 1742.49 -341.911 1781.76L-343.069 1783.63L-343.072 1783.63L-361.079 1813.4H-361.08C-364.042 1818.31 -366.998 1823.19 -369.932 1828.05L-369.939 1828.06L-369.945 1828.07L-377.948 1843L-377.949 1843C-387.817 1861.58 -397.768 1879.61 -406.957 1897.54L-408.782 1901.12C-418.058 1918.93 -426.809 1936.45 -435.973 1953.16L-437.812 1956.5L-437.813 1956.5C-438.656 1958.03 -439.471 1959.55 -440.299 1961.07H-441.865C-440.928 1959.32 -440.003 1957.58 -439.049 1955.83L-439.048 1955.83C-430.518 1940.26 -422.415 1923.98 -413.979 1907.42L-410.341 1900.3L-410.338 1900.29C-400.817 1881.16 -390.185 1861.92 -379.676 1842.04C-377.034 1837.08 -374.375 1832.1 -371.698 1827.08C-368.766 1822.21 -365.817 1817.31 -362.851 1812.39L-362.85 1812.39C-356.908 1802.53 -350.908 1792.56 -344.844 1782.49C-320.27 1742.49 -290.174 1703.39 -254.878 1666.98L-254.879 1666.98C-219.945 1631.38 -179.411 1598.79 -134.613 1570.42L-132.476 1569.07L-132.474 1569.07C-86.9837 1540.17 -37.39 1515.51 12.7866 1489.51C62.9536 1463.53 113.692 1436.22 161.419 1402.06L161.418 1402.06C208.615 1368.5 252.097 1329.02 290.792 1283.97L292.631 1281.82C331.869 1235.88 365.195 1184.62 394.585 1130.54C409.403 1103.55 423.353 1075.95 437.522 1048.34C451.25 1021.59 465.185 994.839 480.325 968.604L481.793 966.067L481.794 966.066C512.458 912.926 548.782 862.059 592.219 817.98L594.293 815.886C605.964 805.135 617.114 794.429 628.885 784.039L647.264 769.196L647.263 769.195L656.453 761.778L656.459 761.771C659.092 759.562 661.8 757.469 664.603 755.514L665.81 754.685L665.819 754.679L685.024 741.07C691.048 736.824 696.941 732.46 703.19 728.647L704.445 727.892L704.456 727.885L724.362 715.41L734.296 709.182L744.493 703.355L744.496 703.353C771.469 687.687 799.109 673.285 826.743 659.102C854.373 644.921 882.001 630.956 908.933 616.173L908.932 616.172C963.064 586.771 1014.38 553.364 1060.18 514.249L1060.19 514.25C1106.27 475.002 1146.42 430.86 1180.44 383.042C1214.64 335.258 1241.95 284.526 1267.93 234.368C1293.51 184.984 1317.8 136.166 1346.15 91.2114L1347.5 89.0737L1347.5 89.0718C1367.47 57.2894 1389.64 27.6391 1413.5 0.51123H1416.78Z" fill="#F5F5F5" stroke="#F9F9F9"/>
<path d="M1113.38 0.51123C1105.69 14.9796 1098.1 29.6375 1090.51 44.4185L1082.79 59.4888C1057.67 108.422 1031.65 158.91 999.106 206.02L997.552 208.261L997.551 208.262C964.846 255.486 925.137 299.209 879.821 336.981L877.659 338.776L877.658 338.777C832.882 375.98 782.405 407.004 730.152 434.698L725.09 437.368L725.089 437.369C671.882 465.558 617.262 491.757 565.323 523.395L562.853 524.905C510.929 556.512 462.094 593.105 418.618 636.066L416.552 638.117L416.551 638.118C372.772 682.012 335.466 731.594 303.317 784.441C272.094 835.313 246.067 889.188 218.478 941.567L215.803 946.63C201.943 972.798 187.539 998.639 171.805 1023.48L170.277 1025.88L170.275 1025.88C168.247 1029.11 166.336 1032.36 164.253 1035.51L157.749 1044.86L144.775 1063.53L144.768 1063.54C141.646 1068.28 138.179 1072.7 134.678 1077.11L131.178 1081.53L117.239 1099.17C79.5828 1144.79 35.9699 1184.66 -11.0226 1217.52L-13.2629 1219.08L-13.2639 1219.08C-58.2009 1250.38 -105.912 1275.46 -152.727 1299.54L-162.077 1304.35C-211.952 1329.87 -260.674 1354.79 -305.497 1383.76C-349.739 1412.03 -389.718 1443.84 -425.179 1478.42L-426.864 1480.07L-426.865 1480.07C-457.258 1510.17 -484.001 1542.12 -507.488 1574.76V1571.14C-484.443 1539.22 -458.244 1507.89 -428.487 1478.31L-428.488 1478.31C-393.362 1443.69 -353.163 1411.33 -309.063 1382.85L-306.96 1381.5L-306.957 1381.5C-264.981 1354.23 -219.322 1330.4 -172.779 1306.46L-163.46 1301.67L-163.459 1301.67C-114.516 1276.41 -64.3915 1250.46 -17.4308 1217.89L-15.1965 1216.33L-15.1945 1216.33C-3.45457 1208 8.12878 1198.86 19.8416 1190.13L19.8533 1190.12L19.8651 1190.11C31.0302 1180.7 42.1191 1171.12 53.2127 1161.48L53.2254 1161.47L53.2361 1161.46C63.6835 1151.11 74.5004 1140.98 84.7928 1130.32L84.8045 1130.3L99.6883 1113.74L99.6873 1113.73L107.152 1105.43H107.153L110.833 1101.33L110.844 1101.32L110.853 1101.3L114.318 1096.9C152.58 1050.65 183.903 998.904 212.208 944.76C240.268 891.557 266.37 836.84 298.067 784.58L299.581 782.093L299.582 782.091C331.547 729.294 369.269 678.881 413.173 634.746C456.528 591.601 506.079 554.324 558.066 522.629L560.543 521.125L560.545 521.124C613.399 488.834 669.217 462.233 723.172 433.78L723.171 433.779C777.291 405.503 829.19 374.047 875.281 335.924L875.28 335.923C921.493 297.893 961.561 254.039 994.726 206.419L994.725 206.418C1026.06 161.612 1051.07 114.24 1075.26 67.4595L1080.09 58.1118V58.1108C1090.07 38.702 1099.99 19.4521 1110.08 0.51123H1113.38Z" fill="#F5F5F5" stroke="#F9F9F9"/>
<path d="M1158 0.51709C1116.84 76.05 1080.85 158.436 1027.78 233.958C1018.96 245.678 1010.1 257.451 1001.22 269.263C991.612 280.482 981.972 291.741 972.298 303.046C961.904 313.735 951.47 324.452 941.002 335.209C929.897 345.222 918.757 355.269 907.583 365.351C862.989 403.094 812.767 435.204 760.455 463.299L755.386 466.006L755.384 466.007C702.065 494.713 647.043 520.408 594.421 551.677L591.917 553.17L591.908 553.176C578.825 561.411 565.729 569.656 552.623 577.908L552.61 577.916L552.599 577.923L514.703 604.895L514.69 604.904L514.678 604.914L478.598 634.159L478.586 634.169L478.573 634.181L444.363 666.048L444.35 666.06L444.338 666.073L412.674 700.057L412.662 700.07L412.651 700.083L383.337 736.238L383.327 736.25L383.317 736.262L356.386 774.101L356.371 774.125L331.57 813.525L331.564 813.535C299.757 866.662 273.507 922.936 244.44 976.919C236.954 990.354 229.483 1003.76 222.031 1017.14C213.974 1030.16 205.94 1043.15 197.924 1056.11C189.209 1068.64 180.518 1081.15 171.849 1093.62C162.483 1105.48 153.135 1117.3 143.82 1129.09C105.496 1174.54 61.6242 1214.37 14.6755 1247.73L12.4382 1249.31C-35.6631 1283.12 -86.5182 1309.97 -136.615 1335.63C-186.7 1361.29 -236.037 1385.77 -281.053 1414.81C-325.506 1443.05 -365.714 1474.99 -401.161 1509.91L-402.846 1511.58L-402.849 1511.58C-437.198 1546.13 -466.66 1583.13 -491.788 1621.01L-494.206 1624.68C-498.783 1631.67 -503.177 1638.67 -507.483 1645.67V1641.7C-504.196 1636.39 -500.863 1631.07 -497.424 1625.76L-495.933 1623.46C-470.431 1584.37 -440.074 1545.73 -404.467 1509.82C-369.376 1474.87 -328.983 1442.37 -284.568 1413.86L-282.449 1412.51L-282.447 1412.51C-237.369 1383.31 -188.035 1358.71 -138.004 1332.95C-87.9825 1307.2 -37.2734 1280.31 10.5027 1246.58L10.5095 1246.57L10.5154 1246.57C22.158 1237.78 33.8476 1228.94 45.5769 1220.08L45.5896 1220.07L45.6013 1220.06C56.7173 1210.5 67.8798 1200.91 79.0769 1191.28L79.0886 1191.27L79.1003 1191.26C89.6837 1180.92 100.302 1170.55 110.955 1160.14L110.967 1160.13L110.977 1160.12C120.913 1149.06 130.883 1137.96 140.883 1126.84L140.892 1126.82C179.784 1080.67 212.16 1029.28 240.844 975.055L240.844 975.056C269.855 920.931 295.851 864.85 327.776 811.276L327.775 811.275L352.554 771.728L379.672 733.468L409.122 697L441.117 662.548L475.35 630.75L511.897 601.234L550.094 574.158C563.32 565.87 576.536 557.589 589.733 549.313C643.07 517.527 699.504 491.34 753.45 462.427L753.449 462.426C807.707 433.754 859.205 401.245 905.178 362.522L905.184 362.517L905.19 362.511C916.358 352.477 927.486 342.473 938.585 332.502L938.596 332.492L938.608 332.48C949.001 321.844 959.352 311.243 969.67 300.677L969.681 300.666L969.691 300.654C979.331 289.434 988.938 278.254 998.509 267.121L998.519 267.109L998.528 267.096C1007.36 255.401 1016.17 243.741 1024.94 232.139L1024.94 232.133L1024.95 232.126C1077.7 157.418 1113.71 75.6915 1154.76 0.51709H1158Z" fill="#F5F5F5" stroke="#F9F9F9"/>
<path d="M1203.18 0.51123C1179.74 41.6654 1158.38 85.3365 1135.47 129.154C1112.41 173.243 1087.77 217.501 1057.78 259.579C1048.92 271.319 1040.01 283.105 1031.07 294.938C1021.43 306.199 1011.76 317.507 1002.05 328.848C991.624 339.589 981.16 350.372 970.668 361.188C959.82 371.567 948.456 381.389 937.294 391.589C892.693 429.849 842.807 462.693 790.585 491.538L785.523 494.317L785.521 494.318C758.454 509.243 730.874 523.251 703.316 537.461C675.763 551.67 648.237 566.081 621.292 581.803L611.188 587.601L611.18 587.606L611.171 587.612L601.299 593.827L581.555 606.25C576.517 609.25 571.731 612.63 566.978 616.025L562.229 619.413H562.228L543.199 632.947C539.958 635.149 536.862 637.518 533.884 640.032L524.828 647.375L506.716 662.055L506.708 662.062L506.699 662.07C495.008 672.407 483.717 683.344 472.211 693.908L472.202 693.915L472.194 693.922C428.191 738.001 391.416 789.018 360.205 842.889C344.525 869.762 330.103 897.31 315.881 924.886C302.546 950.742 289.388 976.621 275.528 1002.01L272.747 1007.08L272.746 1007.08C243.691 1060.35 210.481 1111.3 171.894 1156.67L170.053 1158.82V1158.83C131.391 1204.07 87.2663 1244.21 40.2988 1277.73L38.0605 1279.32L38.0585 1279.32C-10.0686 1313.61 -60.9738 1340.89 -111.22 1366.79C-160.671 1392.29 -209.496 1416.45 -254.356 1444.63L-256.486 1445.97C-301.294 1474.03 -341.785 1506.18 -376.901 1541.55L-378.569 1543.24L-378.571 1543.24C-413.257 1578.9 -442.889 1617.08 -467.311 1656.35L-468.47 1658.22L-468.472 1658.22L-486.48 1688C-489.448 1692.9 -492.399 1697.79 -495.333 1702.64L-495.34 1702.65L-495.346 1702.66L-503.349 1717.59L-503.35 1717.6C-504.731 1720.2 -506.114 1722.77 -507.494 1725.34V1721.18C-506.691 1719.67 -505.876 1718.16 -505.07 1716.63C-502.428 1711.68 -499.769 1706.69 -497.098 1701.67L-488.25 1686.97C-482.313 1677.11 -476.306 1667.15 -470.242 1657.07L-470.243 1657.07C-445.664 1617.07 -415.568 1577.98 -380.279 1541.57L-380.28 1541.57C-345.352 1505.97 -304.812 1473.37 -260.019 1445.01L-257.882 1443.66L-257.88 1443.66C-212.387 1414.76 -162.792 1390.1 -112.614 1364.1C-62.4471 1338.12 -11.7092 1310.81 36.0175 1276.65C83.2143 1243.09 126.702 1203.62 165.398 1158.56L167.237 1156.41C206.474 1110.47 239.8 1059.21 269.185 1005.13C284.002 978.14 297.953 950.537 312.124 922.93C325.853 896.182 339.791 869.427 354.931 843.192L356.399 840.655L356.4 840.654C387.092 787.485 423.309 736.708 466.893 692.499L468.974 690.399C480.495 679.792 491.749 668.989 503.491 658.626L521.869 643.784L531.058 636.366L530.744 635.976L531.059 636.366L531.065 636.36C533.698 634.151 536.409 632.062 539.21 630.108L540.416 629.279L540.425 629.273L559.629 615.663L559.63 615.664C565.648 611.418 571.546 607.059 577.796 603.242L579.051 602.486L579.06 602.479L598.973 590.003L608.902 583.782L619.099 577.955L619.102 577.953C646.072 562.284 673.711 547.882 701.346 533.7C728.977 519.519 756.606 505.556 783.539 490.773L783.538 490.772C837.664 461.365 888.98 427.965 934.79 388.855C980.871 349.601 1021.02 305.46 1055.04 257.642C1084.76 216.119 1109.27 172.375 1132.24 128.717C1155.16 85.1337 1176.53 41.657 1200.01 0.51123H1203.18Z" fill="#F5F5F5" stroke="#F9F9F9"/>
<path d="M922.475 0.51123C907.619 27.5968 891.772 54.4816 873.929 80.3442L872.18 82.8667L872.179 82.8677C839.48 130.092 799.766 173.821 754.45 211.587L752.288 213.381L752.287 213.382C707.51 250.586 657.034 281.61 604.781 309.303L599.718 311.973L599.716 311.974C546.51 340.169 491.89 366.369 439.952 398.006L437.482 399.516C385.552 431.123 336.723 467.71 293.247 510.676L291.18 512.728L291.179 512.729C247.395 556.623 210.089 606.206 177.934 659.052C146.722 709.93 120.69 763.804 93.106 816.183L90.4312 821.248C76.5656 847.421 62.1663 873.25 46.4273 898.093L44.9 900.494L44.898 900.498C43.1211 903.328 41.4395 906.167 39.6461 908.946L38.8755 910.124L32.3716 919.475L19.3922 938.142L19.3853 938.153C16.2631 942.892 12.7957 947.315 9.29449 951.726L5.79449 956.143L-8.14398 973.784C-45.8003 1019.4 -89.4188 1059.27 -136.412 1092.13L-138.652 1093.69L-138.653 1093.69C-183.584 1125 -231.3 1150.07 -278.116 1174.16L-287.465 1178.96C-337.346 1204.49 -386.062 1229.4 -430.886 1258.38C-458.05 1275.74 -483.578 1294.44 -507.471 1314.29V1311.06C-484.717 1292.19 -460.453 1274.29 -434.833 1257.72L-432.343 1256.11L-432.34 1256.11C-390.37 1228.86 -344.705 1205.02 -298.163 1181.08L-288.843 1176.28L-288.842 1176.28C-239.123 1150.62 -188.183 1124.26 -140.581 1090.95C-92.8276 1057.73 -49.0126 1017.61 -11.0639 971.515L-11.0649 971.514C27.1965 925.249 58.526 873.515 86.8306 819.372C114.885 766.169 140.988 711.446 172.679 659.185L174.192 656.699L174.193 656.697C206.164 603.905 243.88 553.492 287.79 509.357C331.139 466.207 380.689 428.929 432.682 397.235L435.16 395.73L435.162 395.729C488.01 363.445 543.828 336.845 597.783 308.385L597.782 308.384C651.908 280.108 703.806 248.653 749.892 210.53L749.891 210.529C796.104 172.505 836.178 128.65 869.343 81.0308L869.342 81.0298C887.65 54.8534 903.751 27.8007 918.831 0.51123H922.475Z" fill="#F5F5F5" stroke="#F9F9F9"/>
<path d="M967.323 0.51123C947.865 37.0949 926.96 73.5664 902.385 108.544C893.558 120.269 884.702 132.046 875.811 143.863C866.208 155.079 856.571 166.336 846.899 177.638C836.5 188.321 826.072 199.038 815.597 209.795C804.496 219.81 793.354 229.861 782.177 239.945C737.583 277.693 687.361 309.799 635.049 337.894L629.98 340.6L629.977 340.601C576.676 369.301 521.598 395.029 469.057 426.266L466.557 427.758L466.548 427.764C453.453 436.004 440.341 444.256 427.222 452.513L427.199 452.529L389.297 479.5L389.284 479.509L389.272 479.519L353.193 508.764L353.18 508.775L353.167 508.787L319.032 540.583L319.007 540.609L287.273 574.663L287.262 574.675L287.251 574.689L257.942 610.843L257.932 610.855L257.923 610.868L230.992 648.707L230.984 648.717L230.976 648.73L206.176 688.13L206.17 688.14C174.357 741.268 148.113 797.542 119.034 851.519C111.556 864.949 104.089 878.35 96.6336 891.722C88.574 904.746 80.5363 917.748 72.5174 930.708C63.8107 943.241 55.1211 955.74 46.4549 968.21C37.0806 980.071 27.7362 991.898 18.4197 1003.69C-19.9098 1049.13 -63.7761 1088.97 -110.73 1122.32L-112.968 1123.91C-161.069 1157.71 -211.924 1184.56 -262.021 1210.23C-312.106 1235.88 -361.444 1260.36 -406.459 1289.41C-443.143 1312.72 -476.875 1338.58 -507.488 1366.52V1363.2C-478.279 1336.61 -446.026 1311.7 -411.232 1289.27L-407.85 1287.1L-407.847 1287.1C-362.77 1257.91 -313.436 1233.3 -263.404 1207.54C-213.383 1181.79 -162.674 1154.9 -114.898 1121.16L-114.891 1121.16L-114.885 1121.16C-103.242 1112.37 -91.5528 1103.54 -79.8234 1094.67L-79.8107 1094.66L-79.799 1094.65C-68.6773 1085.09 -57.5211 1075.5 -46.3185 1065.87L-46.3058 1065.86L-46.2941 1065.85C-35.7164 1055.52 -25.0984 1045.14 -14.4455 1034.74L-14.4338 1034.73L-14.423 1034.71C-4.48141 1023.66 5.48301 1012.56 15.4881 1001.44L15.4979 1001.42C54.3833 955.26 86.7598 903.878 115.437 849.649L115.438 849.65C144.007 796.376 169.644 741.202 200.889 688.388L202.382 685.875L202.383 685.874C233.902 632.452 271.433 581.45 315.641 537.218L315.64 537.217L349.95 505.35L386.505 475.828L424.693 448.757C437.914 440.475 451.112 432.204 464.304 423.94L464.305 423.941C517.711 392.103 574.093 365.945 628.05 337.021L628.049 337.02C682.312 308.348 733.81 275.839 779.783 237.116L779.79 237.111L779.796 237.105C790.964 227.071 802.097 217.066 813.19 207.096L813.202 207.085L813.214 207.074C823.606 196.438 833.958 185.837 844.275 175.277L844.287 175.265L844.297 175.253C853.937 164.033 863.543 152.853 873.114 141.72L873.125 141.708L873.134 141.696C881.97 130.001 890.777 118.347 899.544 106.745L899.549 106.738L899.554 106.732C923.817 72.3642 944.504 36.5142 963.786 0.51123H967.323Z" fill="#F5F5F5" stroke="#F9F9F9"/>
<path d="M1011.76 0.526855C988.592 44.984 963.906 89.6658 933.841 132.173L932.406 134.195C923.542 145.932 914.636 157.714 905.703 169.544C896.063 180.803 886.384 192.114 876.669 203.465C866.247 214.206 855.783 224.983 845.291 235.799C834.443 246.184 823.078 256.007 811.917 266.207C767.316 304.466 717.44 337.32 665.213 366.161L660.152 368.94L660.15 368.941C633.083 383.86 605.502 397.867 577.945 412.078C550.392 426.286 522.865 440.698 495.92 456.42L485.817 462.218L485.808 462.223L485.799 462.229L475.927 468.444L456.182 480.867C451.149 483.871 446.365 487.249 441.611 490.643L436.858 494.029L436.857 494.03L417.828 507.564C414.586 509.766 411.491 512.136 408.512 514.649L399.461 521.993L381.344 536.672L381.336 536.679L381.328 536.687C369.642 547.03 358.35 557.961 346.844 568.531L346.836 568.538L346.829 568.545C302.814 612.618 266.039 663.634 234.828 717.505C219.148 744.379 204.727 771.927 190.505 799.503C177.171 825.36 164.013 851.238 150.151 876.623L147.37 881.693L147.369 881.695C118.313 934.96 85.0976 985.918 46.5113 1031.28L44.6705 1033.44L44.6695 1033.44C6.01392 1078.68 -38.111 1118.82 -85.0786 1152.34L-87.3168 1153.93L-87.3188 1153.93C-135.443 1188.22 -186.349 1215.51 -236.595 1241.41C-286.831 1267.3 -336.419 1291.83 -381.858 1320.58C-426.66 1348.65 -467.156 1380.79 -502.267 1416.17L-503.935 1417.86L-503.937 1417.86C-505.135 1419.09 -506.304 1420.35 -507.471 1421.59V1418.12C-507.187 1417.82 -506.905 1417.52 -506.626 1417.22C-506.302 1416.87 -505.979 1416.52 -505.65 1416.18L-505.651 1416.18C-470.723 1380.58 -430.178 1348 -385.39 1319.62L-383.253 1318.27L-383.251 1318.27C-337.758 1289.38 -288.163 1264.71 -237.987 1238.72C-187.82 1212.74 -137.084 1185.43 -89.3598 1151.27C-42.1575 1117.7 1.32455 1078.23 40.0259 1033.17L41.8658 1031.02C81.0971 985.082 114.429 933.824 143.813 879.75C158.631 852.757 172.58 825.153 186.75 797.544C200.478 770.795 214.414 744.038 229.553 717.803L231.022 715.266L231.023 715.265C261.709 662.091 297.932 611.319 341.521 567.116L343.602 565.016C355.123 554.409 366.377 543.6 378.114 533.238L396.492 518.395L405.68 510.977L405.688 510.97C408.315 508.762 411.026 506.673 413.831 504.719L415.039 503.89L415.047 503.884L434.252 490.275C440.275 486.029 446.169 481.665 452.419 477.852L453.673 477.097L453.683 477.09L473.595 464.615L483.525 458.393L493.72 452.566L493.724 452.564C520.692 436.895 548.33 422.492 575.963 408.309C603.594 394.128 631.223 380.165 658.156 365.384L658.155 365.383C712.286 335.982 763.597 302.564 809.407 263.46C855.482 224.201 895.629 180.059 929.654 132.247L929.653 132.246C960.009 89.8349 984.922 45.1116 1008.3 0.522949L1011.76 0.526855Z" fill="#F5F5F5" stroke="#F9F9F9"/>
<path d="M714.064 0.522949C688.883 31.0686 660.721 59.6775 629.878 85.4819L626.858 87.9927L626.857 87.9937C582.075 125.192 531.604 156.226 479.352 183.915L474.289 186.584L474.288 186.585C421.081 214.775 366.461 240.974 314.522 272.612L312.052 274.123L312.047 274.125L292.471 286.439L292.47 286.44C286.375 290.299 280.148 294.044 274.284 298.324L273.126 299.179L254.262 312.61L244.832 319.323C241.627 321.506 238.536 323.841 235.584 326.345C223.684 336.118 211.514 345.606 199.764 355.643L199.756 355.65L199.748 355.658L165.694 387.391L165.681 387.403L165.669 387.416L134.133 421.255L134.125 421.263L134.118 421.272C125.336 431.549 116.938 442.181 108.425 452.667L104.768 457.15C102.572 459.743 100.51 462.428 98.5664 465.203L97.7451 466.389L91.0391 475.81L77.6387 494.635C74.1638 499.273 71.04 504.186 67.9561 509.106L64.874 514.018V514.019L52.5137 533.653L52.5107 533.658C21.2986 584.536 -4.73911 638.41 -32.3184 690.79L-34.9922 695.853C-48.8521 722.026 -63.2568 747.861 -78.9961 772.699L-80.5234 775.1L-80.5254 775.103C-82.3024 777.934 -83.9847 780.773 -85.7783 783.551L-86.5479 784.729L-93.0518 794.081L-106.031 812.748L-106.038 812.758C-110.201 819.077 -114.977 824.826 -119.629 830.749L-133.567 848.389C-171.224 894.002 -214.842 933.874 -261.829 966.733L-264.069 968.292L-264.07 968.293C-309.002 999.596 -356.717 1024.68 -403.533 1048.76L-412.884 1053.56C-445.169 1070.08 -476.934 1086.37 -507.5 1103.64V1100.4C-481.102 1085.46 -453.798 1071.24 -426.161 1057L-414.261 1050.88L-414.26 1050.88C-364.534 1025.22 -313.594 998.855 -265.997 965.548L-265.998 965.547C-218.24 932.313 -174.432 892.199 -136.483 846.109L-136.482 846.11C-98.2207 799.845 -66.886 748.109 -38.5869 693.965C-10.538 640.757 15.5703 586.034 47.2617 533.779L48.7744 531.292L48.7754 531.291C80.7723 478.469 118.391 428.159 162.435 383.893L196.524 352.226C208.371 342.138 220.696 332.552 232.78 322.68L232.781 322.681L232.787 322.675C235.383 320.488 238.076 318.429 240.854 316.489L242.051 315.665L242.059 315.659L251.577 308.917L270.592 295.435L270.602 295.428C276.813 290.797 283.458 286.831 290.039 282.685L290.04 282.686L309.761 270.332L309.76 270.331C362.607 238.048 418.424 211.444 472.377 182.997L472.376 182.996C526.509 154.725 578.401 123.252 624.492 85.1353L624.491 85.1343C655.76 59.4027 684.144 30.9558 709.551 0.522949H714.064Z" fill="#F5F5F5" stroke="#F9F9F9"/>
<path d="M763.918 0.51709C759.422 6.48983 754.935 12.4501 750.421 18.4575C740.815 29.677 731.174 40.9374 721.499 52.2437C711.099 62.9264 700.671 73.6432 690.197 84.4009C679.095 94.4159 667.953 104.472 656.776 114.55C612.183 152.299 561.955 184.404 509.648 212.504L504.58 215.211L504.577 215.212C451.264 243.924 396.236 269.613 343.62 300.887L341.116 302.381L341.107 302.387C328.024 310.621 314.929 318.861 301.822 327.113L301.799 327.128L263.896 354.105L263.884 354.115L263.872 354.125L227.798 383.37L227.785 383.38L227.772 383.392L193.562 415.258L193.549 415.271L193.537 415.284L161.873 449.262L161.861 449.275L161.85 449.289L132.542 485.449L132.532 485.46L132.522 485.473L105.592 523.312L105.584 523.323L105.576 523.335L80.7752 562.736L80.7693 562.746C48.9565 615.867 22.7068 672.141 -6.35468 726.13C-13.8396 739.556 -21.305 752.954 -28.7609 766.328C-36.819 779.349 -44.8547 792.341 -52.8723 805.304C-61.5886 817.844 -70.2813 830.349 -78.9514 842.825C-88.3177 854.683 -97.6662 866.506 -106.981 878.295C-145.305 923.746 -189.165 963.588 -236.124 996.94L-238.362 998.523C-282.331 1029.42 -328.592 1054.52 -374.47 1078.21C-420.067 1101.76 -465.3 1123.93 -507.488 1149.01V1145.82C-465.33 1120.75 -420.249 1098.55 -374.862 1074.98C-329.396 1051.37 -283.639 1026.38 -240.28 995.776L-240.274 995.771L-240.268 995.766C-228.625 986.97 -216.942 978.141 -205.206 969.276L-205.195 969.266L-205.182 969.256C-194.047 959.692 -182.916 950.114 -171.701 940.48L-171.689 940.469L-171.678 940.458C-161.1 930.123 -150.481 919.747 -139.828 909.337L-139.817 909.327L-139.806 909.314C-129.87 898.262 -119.901 887.163 -109.902 876.036L-109.896 876.03L-109.891 876.024C-70.9995 829.865 -38.6229 778.478 -9.93378 724.254L-9.9328 724.255C19.0647 670.134 45.0651 614.05 76.9871 560.485C85.2421 547.319 93.5019 534.134 101.768 520.945L128.885 482.685L158.338 446.213L190.334 411.748L224.559 379.961L261.114 350.433L299.31 323.357C312.543 315.069 325.758 306.788 338.956 298.518C392.281 266.726 448.721 240.539 502.667 211.626L502.666 211.625C556.918 182.942 608.421 150.439 654.394 111.715L654.401 111.71L654.407 111.705C665.575 101.671 676.709 91.666 687.802 81.6958L687.813 81.6851L687.824 81.6733C698.217 71.0378 708.569 60.4367 718.887 49.8765L718.898 49.8647L718.908 49.853C728.548 38.633 738.154 27.459 747.725 16.3257L747.735 16.314L747.745 16.3013C751.735 11.019 755.691 5.78148 759.67 0.51709H763.918Z" fill="#F5F5F5" stroke="#F9F9F9"/>
<path d="M812.712 0.526855C810.806 3.3003 808.94 6.0686 806.985 8.81592C798.119 20.5446 789.224 32.3312 780.283 44.1577C770.646 55.4193 760.97 66.7284 751.258 78.0708C740.835 88.8118 730.371 99.5884 719.879 110.405C709.025 120.79 697.666 130.612 686.505 140.812C641.904 179.072 592.023 211.921 539.796 240.766L534.734 243.545L534.732 243.546C507.665 258.468 480.086 272.473 452.529 286.682C425.837 300.445 399.169 314.398 373.028 329.551L370.501 331.021C317.494 361.773 267.416 397.681 223.576 441L221.493 443.07H221.492C177.332 487.287 140.662 538.2 109.416 592.1C93.733 618.973 79.3117 646.523 65.0916 674.101C51.7587 699.958 38.604 725.838 24.7449 751.222L21.9627 756.292L21.9617 756.294C-7.09922 809.559 -40.3081 860.518 -78.8996 905.879L-80.7414 908.036L-80.7424 908.037C-119.398 953.278 -163.523 993.42 -210.49 1026.94L-212.73 1028.53L-212.731 1028.53C-260.861 1062.82 -311.767 1090.1 -362.012 1116C-412.245 1141.9 -461.831 1166.42 -507.272 1195.18C-507.342 1195.22 -507.414 1195.27 -507.488 1195.32V1192.14C-462.154 1163.47 -412.797 1138.93 -362.876 1113.06C-312.88 1087.15 -262.331 1059.91 -214.766 1025.87C-166.82 991.776 -122.707 951.572 -83.5461 905.63L-83.5471 905.629C-44.3156 859.687 -10.9831 808.429 18.4012 754.355C33.219 727.362 47.1659 699.758 61.3328 672.15C75.0587 645.401 88.9925 618.643 104.135 592.409L105.604 589.872L105.605 589.871C136.263 536.73 172.598 485.865 216.036 441.791L218.109 439.697C229.774 428.946 240.925 418.24 252.696 407.849L271.074 393L280.263 385.583L280.27 385.576C282.898 383.367 285.608 381.274 288.413 379.319L289.621 378.49L289.63 378.484L308.834 364.874L308.835 364.875C314.853 360.629 320.746 356.269 327 352.453L328.256 351.697L328.266 351.69L348.172 339.214L358.101 332.993L368.303 327.166L368.306 327.164C395.277 311.498 422.916 297.097 450.551 282.916C478.182 268.736 505.811 254.773 532.744 239.99L532.743 239.989C586.869 210.587 638.185 177.176 683.995 138.066C730.07 98.8061 770.223 54.6705 804.248 6.85791L804.247 6.85693C805.746 4.76519 807.18 2.61435 808.638 0.522949L812.712 0.526855Z" fill="#F5F5F5" stroke="#F9F9F9"/>
<path d="M450.929 0.526855C419.467 22.0611 386.24 41.4672 352.234 59.4312L348.894 61.1899L348.893 61.1909C295.681 89.3801 241.066 115.579 189.128 147.217L186.657 148.728L186.652 148.731L167.076 161.05L167.075 161.051C160.974 164.906 154.753 168.649 148.89 172.929L147.731 173.785L128.867 187.215L119.437 193.928C116.631 195.84 113.912 197.872 111.298 200.025L110.189 200.951C98.2897 210.724 86.119 220.212 74.3691 230.249L74.3613 230.255L74.3535 230.263L40.2997 261.997L40.287 262.008L40.2744 262.021L8.73236 295.861L8.72455 295.869L8.71771 295.877C-0.0595411 306.154 -8.45549 316.786 -16.9688 327.272L-20.627 331.755C-22.8228 334.348 -24.8843 337.034 -26.8282 339.808L-27.6495 340.995L-34.3555 350.416L-47.7559 369.241C-51.231 373.874 -54.3546 378.79 -57.4385 383.711L-60.5206 388.624V388.625L-72.8751 408.258L-72.878 408.263C-104.096 459.141 -130.138 513.01 -157.718 565.389L-160.393 570.453C-174.253 596.62 -188.652 622.455 -204.391 647.298L-205.918 649.7L-205.92 649.703C-207.949 652.935 -209.854 656.178 -211.942 659.33L-218.44 668.686L-231.42 687.353L-231.427 687.364C-235.584 693.677 -240.36 699.432 -245.012 705.354L-258.95 722.995C-296.607 768.608 -340.225 808.479 -387.218 841.333L-389.458 842.892L-389.459 842.893C-427.552 869.434 -467.639 891.475 -507.488 912.256V908.778C-468.195 888.17 -428.768 866.309 -391.382 840.155C-343.629 806.932 -299.815 766.817 -261.866 720.726L-261.865 720.727C-223.598 674.468 -192.275 622.72 -163.976 568.577C-135.927 515.368 -109.808 460.657 -78.1163 408.396L-76.6026 405.91L-76.6016 405.908C-44.6163 353.087 -6.9972 302.77 37.0458 258.51L71.1357 226.837C81.5017 218.01 92.2339 209.568 102.851 200.982L107.393 197.292L107.398 197.287C109.993 195.095 112.687 193.039 115.466 191.1L116.662 190.276L116.67 190.27L126.183 183.523L145.203 170.041L145.213 170.034C151.424 165.403 158.069 161.43 164.65 157.285L164.651 157.286L184.372 144.931L184.371 144.93C237.218 112.648 293.035 86.0372 346.988 57.5903L346.987 57.5894C380.526 40.0687 413.21 21.3157 444.184 0.522949L450.929 0.526855Z" fill="#F5F5F5" stroke="#F9F9F9"/>
<path d="M517.486 0.522705C476.315 33.4879 430.925 62.0655 383.808 87.3577L379.203 89.8167L379.2 89.8176C325.881 118.529 270.859 144.218 218.243 175.492L215.739 176.987L215.729 176.992C202.64 185.232 189.545 193.472 176.439 201.724L176.426 201.732L176.416 201.74L138.519 228.716L138.494 228.736L102.415 257.981L102.402 257.991L102.389 258.003L68.1793 289.869L68.1656 289.882L68.1539 289.895L36.4898 323.873L36.4781 323.886L36.4673 323.9L7.15289 360.054L7.14313 360.066L7.13336 360.078L-19.7973 397.911L-19.8129 397.935L-44.6078 437.335L-44.6137 437.345C-76.4265 490.472 -102.676 546.752 -131.744 600.73C-139.23 614.164 -146.701 627.563 -154.159 640.94C-162.216 653.965 -170.249 666.956 -178.266 679.912C-186.98 692.449 -195.672 704.951 -204.34 717.424C-213.709 729.28 -223.061 741.112 -232.377 752.905C-270.699 798.351 -314.563 838.179 -361.513 871.533L-363.751 873.116C-410.15 905.718 -459.109 931.846 -507.483 956.691V953.279C-459.645 928.57 -411.327 902.602 -365.681 870.375L-365.674 870.371L-365.667 870.366C-354.025 861.571 -342.336 852.74 -330.607 843.875L-330.594 843.865L-330.582 843.856C-319.461 834.297 -308.299 824.708 -297.102 815.079L-297.089 815.069L-297.079 815.058C-286.501 804.723 -275.882 794.353 -265.229 783.944L-265.217 783.932L-265.206 783.92C-255.271 772.868 -245.3 761.768 -235.301 750.641L-235.291 750.629C-196.406 704.47 -164.029 653.083 -135.34 598.86L-135.339 598.861C-106.33 544.739 -80.3414 488.656 -48.4135 435.09C-40.1644 421.924 -31.9046 408.739 -23.6381 395.55L3.48199 357.279L32.9322 320.81L64.9273 286.359L99.1529 254.567L135.708 225.038L173.904 197.962C187.13 189.675 200.346 181.394 213.549 173.123C266.875 141.332 323.315 115.144 377.26 86.2317L377.259 86.2307C424.75 61.1291 470.125 33.0894 511.537 0.522705H517.486Z" fill="#F5F5F5" stroke="#F9F9F9"/>
<path d="M577.622 0.51709C572.121 5.46045 566.59 10.3904 561.11 15.3999C516.515 53.6651 466.634 86.5085 414.407 115.359L409.346 118.139L409.344 118.14C382.279 133.062 354.699 147.067 327.14 161.276C299.587 175.482 272.059 189.891 245.114 205.614L235.011 211.412L235.002 211.417L234.993 211.422L225.121 217.637L205.377 230.066C200.339 233.066 195.553 236.446 190.801 239.841L186.051 243.229H186.05L167.021 256.769C163.78 258.971 160.684 261.341 157.706 263.854L148.649 271.198L130.538 285.877L130.529 285.884L130.521 285.892C118.83 296.229 107.538 307.166 96.032 317.73L96.0242 317.737L96.0164 317.745C52.6891 361.129 16.3829 411.247 -14.5178 464.183L-17.4514 469.226C-32.5661 495.297 -46.5317 521.985 -60.3088 548.701C-73.6431 574.558 -86.7995 600.437 -100.656 625.822L-103.437 630.892L-103.439 630.894C-132.494 684.159 -165.714 735.112 -204.295 780.479L-206.137 782.635V782.636C-244.798 827.889 -288.918 868.026 -335.885 901.542L-338.124 903.132L-338.125 903.133C-392.685 942.002 -450.809 971.871 -507.488 1000.93V997.581C-451.293 968.636 -393.824 938.89 -340.16 900.482C-292.964 866.92 -249.481 827.444 -210.785 782.385L-208.946 780.236C-169.709 734.287 -136.383 683.034 -106.993 628.96C-92.1813 601.964 -78.2328 574.361 -64.0637 546.752C-50.3356 520.003 -36.3987 493.246 -21.259 467.008L-19.7902 464.471L-19.7892 464.47C10.9029 411.301 47.1254 360.53 90.7088 316.321L92.7899 314.221C104.317 303.614 115.571 292.805 127.307 282.443L145.685 267.6L154.869 260.182L154.876 260.175C157.508 257.966 160.22 255.873 163.024 253.918L164.232 253.089L164.241 253.083L183.433 239.48C189.463 235.234 195.357 230.875 201.606 227.058L202.861 226.302L202.871 226.295L222.777 213.82L232.713 207.592L242.908 201.765L242.911 201.763C269.884 186.097 297.526 171.697 325.161 157.515C352.792 143.335 380.42 129.372 407.352 114.589L407.353 114.59C461.48 85.1827 512.801 51.7746 558.605 12.6587L558.606 12.6597C563.286 8.67356 567.868 4.60255 572.425 0.51709H577.622Z" fill="#F5F5F5" stroke="#F9F9F9"/>
<path d="M100.397 0.526855C87.2246 7.86374 74.1541 15.4246 61.2587 23.3384C9.32821 54.94 -39.5015 91.5323 -82.9777 134.499L-85.0441 136.549L-85.045 136.55C-128.823 180.45 -166.135 230.028 -198.29 282.875C-229.508 333.752 -255.54 387.626 -283.119 440.005L-285.793 445.07C-299.659 471.243 -314.058 497.073 -329.797 521.916L-331.324 524.316L-331.326 524.32C-333.103 527.15 -334.785 529.986 -336.579 532.767L-337.349 533.946L-343.847 543.297L-356.826 561.958L-356.833 561.969C-360.99 568.288 -365.766 574.037 -370.418 579.959L-384.363 597.608C-420.634 641.545 -462.477 680.069 -507.494 712.208V707.887C-498.928 701.525 -490.353 694.966 -481.748 688.555L-481.736 688.545L-481.725 688.537C-470.554 679.125 -459.476 669.545 -448.377 659.905L-448.354 659.883C-437.907 649.535 -427.089 639.412 -416.797 628.744L-416.785 628.73L-401.902 612.164L-394.438 603.86H-394.437L-390.757 599.756L-390.746 599.745L-390.736 599.732L-387.273 595.332L-387.272 595.333C-349.004 549.073 -317.675 497.326 -289.376 443.188C-261.316 389.979 -235.213 335.262 -203.522 283.001L-202.009 280.515L-202.008 280.513C-170.037 227.716 -132.316 177.308 -88.4122 133.167L-88.4113 133.167C-45.0562 90.0231 4.48875 52.7402 56.4813 21.0513L58.9589 19.5464L58.9608 19.5454C69.7141 12.9759 80.6061 6.68634 91.5702 0.522949L100.397 0.526855Z" fill="#F5F5F5" stroke="#F9F9F9"/>
<path d="M184.312 0.51123C153.702 16.2091 123.11 32.1207 93.2752 49.8267L90.3328 51.5796L90.3231 51.5864C77.2399 59.8206 64.1452 68.0664 51.0389 76.3179L51.0262 76.3257L51.0145 76.3335L13.119 103.31L13.0936 103.33L-22.9855 132.575L-22.9982 132.585L-23.0109 132.597L-57.1516 164.394L-57.1652 164.407L-57.1769 164.419L-88.9103 198.467L-88.9221 198.48L-88.9328 198.494L-118.247 234.654L-118.257 234.666L-118.267 234.678L-145.197 272.517L-145.205 272.528L-145.213 272.541L-170.014 311.941L-170.02 311.951C-201.827 365.084 -228.071 421.358 -257.15 475.335C-264.636 488.77 -272.107 502.175 -279.559 515.551C-287.614 528.568 -295.647 541.562 -303.661 554.515C-312.376 567.052 -321.066 579.554 -329.735 592.027C-339.112 603.892 -348.461 615.722 -357.78 627.518C-396.102 672.963 -439.969 712.791 -486.919 746.139L-489.157 747.722C-495.228 751.984 -501.342 756.122 -507.488 760.175V756.199C-501.989 752.536 -496.516 748.815 -491.087 744.981L-491.08 744.976L-491.074 744.971C-479.432 736.181 -467.742 727.352 -456.007 718.487L-455.994 718.477L-455.983 718.466C-444.867 708.907 -433.705 699.319 -422.502 689.69L-422.489 689.68L-422.479 689.668C-411.901 679.334 -401.282 668.958 -390.629 658.554L-390.617 658.543L-390.607 658.531C-380.671 647.473 -370.701 636.38 -360.696 625.252L-360.691 625.247L-360.686 625.241C-321.8 579.076 -289.424 527.694 -260.746 473.465L-260.745 473.466C-232.182 420.193 -206.546 365.012 -175.3 312.199L-173.808 309.686L-173.807 309.684C-142.284 256.274 -104.76 205.269 -60.5568 161.046L-60.5558 161.047L-26.2414 129.172L10.3016 99.6528L48.5096 72.5679C61.7311 64.2799 74.9449 56.0046 88.1492 47.728C116.508 30.8273 145.759 15.507 175.05 0.51123H184.312Z" fill="#F5F5F5" stroke="#F9F9F9"/>
<path d="M269.565 0.526855C221.496 26.3595 172.068 50.0272 124.376 77.5269L119.712 80.2319C66.6992 110.984 16.6209 146.886 -27.2188 190.206L-29.3018 192.274L-29.3028 192.275C-73.4566 236.498 -110.127 287.405 -141.373 341.299C-157.053 368.173 -171.474 395.721 -185.695 423.297C-199.03 449.153 -212.188 475.031 -226.05 500.416L-228.831 505.486L-228.833 505.488C-257.888 558.759 -291.103 609.711 -329.694 655.073L-331.536 657.229L-331.537 657.23C-370.193 702.483 -414.318 742.62 -461.285 776.135L-463.524 777.727L-463.525 777.728C-477.953 788.012 -492.652 797.602 -507.488 806.771V802.964C-493.327 794.134 -479.307 784.913 -465.561 775.071C-418.364 741.514 -374.876 702.032 -336.186 656.979L-334.347 654.83C-295.103 608.886 -261.771 557.627 -232.387 503.553L-232.388 503.552C-217.57 476.559 -203.62 448.957 -189.451 421.349C-175.723 394.6 -161.787 367.843 -146.648 341.608L-145.179 339.071L-145.178 339.07C-114.52 285.93 -78.1859 235.063 -34.7481 190.984L-32.6739 188.89C-21.0027 178.139 -9.86388 167.433 1.91302 157.042L20.291 142.2L29.4745 134.782L29.4814 134.776C32.4899 132.252 35.6004 129.883 38.8369 127.695L38.5576 127.281L38.8378 127.695L38.8466 127.689L58.0507 114.085C64.0689 109.84 69.9675 105.475 76.2177 101.663L77.4726 100.908L77.4824 100.901L97.3886 88.4253L107.323 82.2026L107.324 82.2036L117.519 76.3765L117.523 76.3745C164.498 49.0833 213.466 25.651 260.918 0.522949L269.565 0.526855Z" fill="#F5F5F5" stroke="#F9F9F9"/>
</svg>
